ISO-10303-21;
HEADER;
FILE_DESCRIPTION(('CATIA V5 STEP Exchange'),'2;1');

FILE_NAME('C:\\Users\\mnicu\\Desktop\\Client 2024\\Kyra sablage\\Rafat 3D models\\Right side origin\\Model7.stp','2025-06-20T20:48:10+00:00',('none'),('none'),'CATIA Version 5 Release 18 GA (IN-10)','CATIA V5 STEP AP203','none');

FILE_SCHEMA(('CONFIG_CONTROL_DESIGN'));

ENDSEC;
/* file written by CATIA V5R18 */
DATA;
#5=PRODUCT('Product1','','',(#2)) ;
#54=PRODUCT('Part1','','',(#2)) ;
#675=PRODUCT('Part2','','',(#2)) ;
#1=APPLICATION_CONTEXT('configuration controlled 3D design of mechanical parts and assemblies') ;
#17=PRODUCT_DEFINITION('Product1',' ',#6,#3) ;
#19=SECURITY_CLASSIFICATION(' ',' ',#18) ;
#18=SECURITY_CLASSIFICATION_LEVEL('unclassified') ;
#61=CARTESIAN_POINT('Axis2P3D Location',(0.,508.000000002,0.)) ;
#66=CARTESIAN_POINT('Line Origine',(-254.000000001,508.000000002,19.0500000001)) ;
#70=CARTESIAN_POINT('Vertex',(-508.000000002,508.000000002,19.0500000001)) ;
#72=CARTESIAN_POINT('Vertex',(0.,508.000000002,19.0500000001)) ;
#75=CARTESIAN_POINT('Line Origine',(0.,508.000000002,9.52500000004)) ;
#79=CARTESIAN_POINT('Vertex',(0.,508.000000002,0.)) ;
#82=CARTESIAN_POINT('Line Origine',(-254.000000001,508.000000002,0.)) ;
#86=CARTESIAN_POINT('Vertex',(-508.000000002,508.000000002,0.)) ;
#89=CARTESIAN_POINT('Line Origine',(-508.000000002,508.000000002,9.52500000004)) ;
#101=CARTESIAN_POINT('Axis2P3D Location',(-508.000000002,0.,0.)) ;
#106=CARTESIAN_POINT('Line Origine',(-508.000000002,254.000000001,19.0500000001)) ;
#110=CARTESIAN_POINT('Vertex',(-508.000000002,0.,19.0500000001)) ;
#113=CARTESIAN_POINT('Line Origine',(-508.000000002,254.000000001,0.)) ;
#117=CARTESIAN_POINT('Vertex',(-508.000000002,0.,0.)) ;
#120=CARTESIAN_POINT('Line Origine',(-508.000000002,0.,9.52500000004)) ;
#132=CARTESIAN_POINT('Axis2P3D Location',(-508.000000002,0.,0.)) ;
#137=CARTESIAN_POINT('Line Origine',(-254.000000001,0.,19.0500000001)) ;
#141=CARTESIAN_POINT('Vertex',(0.,0.,19.0500000001)) ;
#144=CARTESIAN_POINT('Line Origine',(-254.000000001,0.,0.)) ;
#148=CARTESIAN_POINT('Vertex',(0.,0.,0.)) ;
#151=CARTESIAN_POINT('Line Origine',(0.,0.,9.52500000004)) ;
#163=CARTESIAN_POINT('Axis2P3D Location',(0.,0.,0.)) ;
#168=CARTESIAN_POINT('Line Origine',(0.,254.000000001,19.0500000001)) ;
#173=CARTESIAN_POINT('Line Origine',(0.,254.000000001,0.)) ;
#185=CARTESIAN_POINT('Axis2P3D Location',(0.,0.,0.)) ;
#196=CARTESIAN_POINT('Line Origine',(-225.425000001,254.000000001,0.)) ;
#200=CARTESIAN_POINT('Vertex',(-225.425000001,450.850000002,0.)) ;
#202=CARTESIAN_POINT('Vertex',(-225.425000001,57.1500000002,0.)) ;
#205=CARTESIAN_POINT('Line Origine',(-141.287500001,57.1500000002,0.)) ;
#209=CARTESIAN_POINT('Vertex',(-57.1500000002,57.1500000002,0.)) ;
#212=CARTESIAN_POINT('Line Origine',(-57.1500000002,254.000000001,0.)) ;
#216=CARTESIAN_POINT('Vertex',(-57.1500000002,450.850000002,0.)) ;
#219=CARTESIAN_POINT('Line Origine',(-141.287500001,450.850000002,0.)) ;
#230=CARTESIAN_POINT('Line Origine',(-450.850000002,254.000000001,0.)) ;
#234=CARTESIAN_POINT('Vertex',(-450.850000002,450.850000002,0.)) ;
#236=CARTESIAN_POINT('Vertex',(-450.850000002,57.1500000002,0.)) ;
#239=CARTESIAN_POINT('Line Origine',(-366.712500001,57.1500000002,0.)) ;
#243=CARTESIAN_POINT('Vertex',(-282.575000001,57.1500000002,0.)) ;
#246=CARTESIAN_POINT('Line Origine',(-282.575000001,254.000000001,0.)) ;
#250=CARTESIAN_POINT('Vertex',(-282.575000001,450.850000002,0.)) ;
#253=CARTESIAN_POINT('Line Origine',(-366.712500001,450.850000002,0.)) ;
#265=CARTESIAN_POINT('Axis2P3D Location',(-225.425000001,450.850000002,0.)) ;
#270=CARTESIAN_POINT('Line Origine',(-225.425000001,450.850000002,4.76250000002)) ;
#274=CARTESIAN_POINT('Vertex',(-225.425000001,450.850000002,9.52500000004)) ;
#277=CARTESIAN_POINT('Line Origine',(-57.1500000002,450.850000002,4.76250000002)) ;
#281=CARTESIAN_POINT('Vertex',(-57.1500000002,450.850000002,9.52500000004)) ;
#284=CARTESIAN_POINT('Line Origine',(-141.287500001,450.850000002,9.52500000004)) ;
#296=CARTESIAN_POINT('Axis2P3D Location',(-57.1500000002,57.1500000002,0.)) ;
#301=CARTESIAN_POINT('Line Origine',(-57.1500000002,254.000000001,9.52500000004)) ;
#305=CARTESIAN_POINT('Vertex',(-57.1500000002,57.1500000002,9.52500000004)) ;
#308=CARTESIAN_POINT('Line Origine',(-57.1500000002,57.1500000002,4.76250000002)) ;
#320=CARTESIAN_POINT('Axis2P3D Location',(-57.1500000002,57.1500000002,0.)) ;
#325=CARTESIAN_POINT('Line Origine',(-225.425000001,57.1500000002,4.76250000002)) ;
#329=CARTESIAN_POINT('Vertex',(-225.425000001,57.1500000002,9.52500000004)) ;
#332=CARTESIAN_POINT('Line Origine',(-141.287500001,57.1500000002,9.52500000004)) ;
#344=CARTESIAN_POINT('Axis2P3D Location',(-225.425000001,450.850000002,0.)) ;
#349=CARTESIAN_POINT('Line Origine',(-225.425000001,254.000000001,9.52500000004)) ;
#361=CARTESIAN_POINT('Axis2P3D Location',(101.6,47.6250000002,19.0500000001)) ;
#367=CARTESIAN_POINT('Control Point',(-225.425000001,57.1500000002,9.52500000004)) ;
#368=CARTESIAN_POINT('Control Point',(-234.950000001,47.6250000002,19.0500000001)) ;
#369=CARTESIAN_POINT('Vertex',(-234.950000001,47.6250000002,19.0500000001)) ;
#372=CARTESIAN_POINT('Line Origine',(-254.000000001,47.6250000002,19.0500000001)) ;
#376=CARTESIAN_POINT('Vertex',(-47.6250000002,47.6250000002,19.0500000001)) ;
#380=CARTESIAN_POINT('Control Point',(-57.1500000002,57.1500000002,9.52500000004)) ;
#381=CARTESIAN_POINT('Control Point',(-47.6250000002,47.6250000002,19.0500000001)) ;
#390=CARTESIAN_POINT('Axis2P3D Location',(-47.6250000002,-101.6,19.0500000001)) ;
#396=CARTESIAN_POINT('Control Point',(-57.1500000002,450.850000002,9.52500000004)) ;
#397=CARTESIAN_POINT('Control Point',(-47.6250000002,460.375000002,19.0500000001)) ;
#398=CARTESIAN_POINT('Vertex',(-47.6250000002,460.375000002,19.0500000001)) ;
#401=CARTESIAN_POINT('Line Origine',(-47.6250000002,254.000000001,19.0500000001)) ;
#413=CARTESIAN_POINT('Axis2P3D Location',(-609.600000002,460.375000002,19.0500000001)) ;
#418=CARTESIAN_POINT('Line Origine',(-254.000000001,460.375000002,19.0500000001)) ;
#422=CARTESIAN_POINT('Vertex',(-234.950000001,460.375000002,19.0500000001)) ;
#426=CARTESIAN_POINT('Control Point',(-225.425000001,450.850000002,9.52500000004)) ;
#427=CARTESIAN_POINT('Control Point',(-234.950000001,460.375000002,19.0500000001)) ;
#436=CARTESIAN_POINT('Axis2P3D Location',(-234.950000001,609.600000002,19.0500000001)) ;
#441=CARTESIAN_POINT('Line Origine',(-234.950000001,254.000000001,19.0500000001)) ;
#453=CARTESIAN_POINT('Line Origine',(-450.850000002,450.850000002,4.76250000002)) ;
#457=CARTESIAN_POINT('Vertex',(-450.850000002,450.850000002,9.52500000004)) ;
#460=CARTESIAN_POINT('Line Origine',(-282.575000001,450.850000002,4.76250000002)) ;
#464=CARTESIAN_POINT('Vertex',(-282.575000001,450.850000002,9.52500000004)) ;
#467=CARTESIAN_POINT('Line Origine',(-366.712500001,450.850000002,9.52500000004)) ;
#479=CARTESIAN_POINT('Axis2P3D Location',(-282.575000001,57.1500000002,0.)) ;
#484=CARTESIAN_POINT('Line Origine',(-282.575000001,254.000000001,9.52500000004)) ;
#488=CARTESIAN_POINT('Vertex',(-282.575000001,57.1500000002,9.52500000004)) ;
#491=CARTESIAN_POINT('Line Origine',(-282.575000001,57.1500000002,4.76250000002)) ;
#503=CARTESIAN_POINT('Line Origine',(-450.850000002,57.1500000002,4.76250000002)) ;
#507=CARTESIAN_POINT('Vertex',(-450.850000002,57.1500000002,9.52500000004)) ;
#510=CARTESIAN_POINT('Line Origine',(-366.712500001,57.1500000002,9.52500000004)) ;
#522=CARTESIAN_POINT('Axis2P3D Location',(-450.850000002,450.850000002,0.)) ;
#527=CARTESIAN_POINT('Line Origine',(-450.850000002,254.000000001,9.52500000004)) ;
#539=CARTESIAN_POINT('Axis2P3D Location',(0.,0.,19.0500000001)) ;
#550=CARTESIAN_POINT('Line Origine',(-273.050000001,254.000000001,19.0500000001)) ;
#554=CARTESIAN_POINT('Vertex',(-273.050000001,47.6250000002,19.0500000001)) ;
#556=CARTESIAN_POINT('Vertex',(-273.050000001,460.375000002,19.0500000001)) ;
#559=CARTESIAN_POINT('Line Origine',(-366.712500001,47.6250000002,19.0500000001)) ;
#563=CARTESIAN_POINT('Vertex',(-460.375000002,47.6250000002,19.0500000001)) ;
#566=CARTESIAN_POINT('Line Origine',(-460.375000002,254.000000001,19.0500000001)) ;
#570=CARTESIAN_POINT('Vertex',(-460.375000002,460.375000002,19.0500000001)) ;
#573=CARTESIAN_POINT('Line Origine',(-366.712500001,460.375000002,19.0500000001)) ;
#591=CARTESIAN_POINT('Axis2P3D Location',(-273.050000001,-101.6,19.0500000001)) ;
#597=CARTESIAN_POINT('Control Point',(-282.575000001,450.850000002,9.52500000004)) ;
#598=CARTESIAN_POINT('Control Point',(-273.050000001,460.375000002,19.0500000001)) ;
#601=CARTESIAN_POINT('Control Point',(-282.575000001,57.1500000002,9.52500000004)) ;
#602=CARTESIAN_POINT('Control Point',(-273.050000001,47.6250000002,19.0500000001)) ;
#611=CARTESIAN_POINT('Axis2P3D Location',(-609.600000002,460.375000002,19.0500000001)) ;
#617=CARTESIAN_POINT('Control Point',(-450.850000002,450.850000002,9.52500000004)) ;
#618=CARTESIAN_POINT('Control Point',(-460.375000002,460.375000002,19.0500000001)) ;
#627=CARTESIAN_POINT('Axis2P3D Location',(-460.375000002,609.600000002,19.0500000001)) ;
#633=CARTESIAN_POINT('Control Point',(-450.850000002,57.1500000002,9.52500000004)) ;
#634=CARTESIAN_POINT('Control Point',(-460.375000002,47.6250000002,19.0500000001)) ;
#643=CARTESIAN_POINT('Axis2P3D Location',(101.6,47.6250000002,19.0500000001)) ;
#665=CARTESIAN_POINT('NONE',(0.,0.,0.)) ;
#666=CARTESIAN_POINT('NONE',(0.,0.,0.)) ;
#682=CARTESIAN_POINT('Axis2P3D Location',(-450.850000002,57.1500000002,0.)) ;
#687=CARTESIAN_POINT('Line Origine',(-450.850000002,57.1500000002,4.76250000002)) ;
#691=CARTESIAN_POINT('Vertex',(-450.850000002,57.1500000002,0.)) ;
#693=CARTESIAN_POINT('Vertex',(-450.850000002,57.1500000002,9.52500000004)) ;
#696=CARTESIAN_POINT('Line Origine',(-366.712500001,57.1500000002,0.)) ;
#700=CARTESIAN_POINT('Vertex',(-282.575000001,57.1500000002,0.)) ;
#703=CARTESIAN_POINT('Line Origine',(-282.575000001,57.1500000002,4.76250000002)) ;
#707=CARTESIAN_POINT('Vertex',(-282.575000001,57.1500000002,9.52500000004)) ;
#710=CARTESIAN_POINT('Line Origine',(-366.712500001,57.1500000002,9.52500000004)) ;
#722=CARTESIAN_POINT('Axis2P3D Location',(-282.575000001,57.1500000002,0.)) ;
#727=CARTESIAN_POINT('Line Origine',(-282.575000001,254.000000001,0.)) ;
#731=CARTESIAN_POINT('Vertex',(-282.575000001,450.850000002,0.)) ;
#734=CARTESIAN_POINT('Line Origine',(-282.575000001,450.850000002,4.76250000002)) ;
#738=CARTESIAN_POINT('Vertex',(-282.575000001,450.850000002,9.52500000004)) ;
#741=CARTESIAN_POINT('Line Origine',(-282.575000001,254.000000001,9.52500000004)) ;
#753=CARTESIAN_POINT('Axis2P3D Location',(-282.575000001,450.850000002,0.)) ;
#758=CARTESIAN_POINT('Line Origine',(-366.712500001,450.850000002,0.)) ;
#762=CARTESIAN_POINT('Vertex',(-450.850000002,450.850000002,0.)) ;
#765=CARTESIAN_POINT('Line Origine',(-450.850000002,450.850000002,4.76250000002)) ;
#769=CARTESIAN_POINT('Vertex',(-450.850000002,450.850000002,9.52500000004)) ;
#772=CARTESIAN_POINT('Line Origine',(-366.712500001,450.850000002,9.52500000004)) ;
#784=CARTESIAN_POINT('Axis2P3D Location',(-450.850000002,450.850000002,0.)) ;
#789=CARTESIAN_POINT('Line Origine',(-450.850000002,254.000000001,0.)) ;
#794=CARTESIAN_POINT('Line Origine',(-450.850000002,254.000000001,9.52500000004)) ;
#806=CARTESIAN_POINT('Axis2P3D Location',(0.,0.,0.)) ;
#818=CARTESIAN_POINT('Axis2P3D Location',(0.,0.,9.52500000004)) ;
#834=CARTESIAN_POINT('Line Origine',(-57.1500000002,450.850000002,4.76250000002)) ;
#838=CARTESIAN_POINT('Vertex',(-57.1500000002,450.850000002,0.)) ;
#840=CARTESIAN_POINT('Vertex',(-57.1500000002,450.850000002,9.52500000004)) ;
#843=CARTESIAN_POINT('Line Origine',(-141.287500001,450.850000002,0.)) ;
#847=CARTESIAN_POINT('Vertex',(-225.425000001,450.850000002,0.)) ;
#850=CARTESIAN_POINT('Line Origine',(-225.425000001,450.850000002,4.76250000002)) ;
#854=CARTESIAN_POINT('Vertex',(-225.425000001,450.850000002,9.52500000004)) ;
#857=CARTESIAN_POINT('Line Origine',(-141.287500001,450.850000002,9.52500000004)) ;
#869=CARTESIAN_POINT('Axis2P3D Location',(-225.425000001,450.850000002,0.)) ;
#874=CARTESIAN_POINT('Line Origine',(-225.425000001,254.000000001,0.)) ;
#878=CARTESIAN_POINT('Vertex',(-225.425000001,57.1500000002,0.)) ;
#881=CARTESIAN_POINT('Line Origine',(-225.425000001,57.1500000002,4.76250000002)) ;
#885=CARTESIAN_POINT('Vertex',(-225.425000001,57.1500000002,9.52500000004)) ;
#888=CARTESIAN_POINT('Line Origine',(-225.425000001,254.000000001,9.52500000004)) ;
#900=CARTESIAN_POINT('Line Origine',(-141.287500001,57.1500000002,0.)) ;
#904=CARTESIAN_POINT('Vertex',(-57.1500000002,57.1500000002,0.)) ;
#907=CARTESIAN_POINT('Line Origine',(-57.1500000002,57.1500000002,4.76250000002)) ;
#911=CARTESIAN_POINT('Vertex',(-57.1500000002,57.1500000002,9.52500000004)) ;
#914=CARTESIAN_POINT('Line Origine',(-141.287500001,57.1500000002,9.52500000004)) ;
#926=CARTESIAN_POINT('Axis2P3D Location',(-57.1500000002,57.1500000002,0.)) ;
#931=CARTESIAN_POINT('Line Origine',(-57.1500000002,254.000000001,0.)) ;
#936=CARTESIAN_POINT('Line Origine',(-57.1500000002,254.000000001,9.52500000004)) ;
#970=CARTESIAN_POINT('NONE',(0.,0.,0.)) ;
#971=CARTESIAN_POINT('NONE',(0.,0.,0.)) ;
#62=DIRECTION('Axis2P3D Direction',(0.,1.,-0.)) ;
#63=DIRECTION('Axis2P3D XDirection',(-1.,0.,0.)) ;
#67=DIRECTION('Vector Direction',(-1.,0.,0.)) ;
#76=DIRECTION('Vector Direction',(0.,0.,1.)) ;
#83=DIRECTION('Vector Direction',(-1.,0.,0.)) ;
#90=DIRECTION('Vector Direction',(0.,0.,1.)) ;
#102=DIRECTION('Axis2P3D Direction',(1.,0.,0.)) ;
#103=DIRECTION('Axis2P3D XDirection',(0.,1.,0.)) ;
#107=DIRECTION('Vector Direction',(0.,1.,0.)) ;
#114=DIRECTION('Vector Direction',(0.,1.,0.)) ;
#121=DIRECTION('Vector Direction',(0.,0.,1.)) ;
#133=DIRECTION('Axis2P3D Direction',(0.,-1.,0.)) ;
#134=DIRECTION('Axis2P3D XDirection',(1.,0.,0.)) ;
#138=DIRECTION('Vector Direction',(1.,0.,0.)) ;
#145=DIRECTION('Vector Direction',(1.,0.,0.)) ;
#152=DIRECTION('Vector Direction',(0.,0.,1.)) ;
#164=DIRECTION('Axis2P3D Direction',(1.,0.,0.)) ;
#165=DIRECTION('Axis2P3D XDirection',(0.,1.,0.)) ;
#169=DIRECTION('Vector Direction',(0.,1.,0.)) ;
#174=DIRECTION('Vector Direction',(0.,1.,0.)) ;
#186=DIRECTION('Axis2P3D Direction',(0.,0.,1.)) ;
#187=DIRECTION('Axis2P3D XDirection',(1.,0.,0.)) ;
#197=DIRECTION('Vector Direction',(0.,-1.,0.)) ;
#206=DIRECTION('Vector Direction',(-1.,0.,0.)) ;
#213=DIRECTION('Vector Direction',(0.,1.,0.)) ;
#220=DIRECTION('Vector Direction',(1.,0.,0.)) ;
#231=DIRECTION('Vector Direction',(0.,-1.,0.)) ;
#240=DIRECTION('Vector Direction',(-1.,0.,0.)) ;
#247=DIRECTION('Vector Direction',(0.,1.,0.)) ;
#254=DIRECTION('Vector Direction',(1.,0.,0.)) ;
#266=DIRECTION('Axis2P3D Direction',(0.,-1.,0.)) ;
#267=DIRECTION('Axis2P3D XDirection',(1.,0.,0.)) ;
#271=DIRECTION('Vector Direction',(0.,0.,1.)) ;
#278=DIRECTION('Vector Direction',(0.,0.,1.)) ;
#285=DIRECTION('Vector Direction',(1.,0.,0.)) ;
#297=DIRECTION('Axis2P3D Direction',(1.,0.,0.)) ;
#298=DIRECTION('Axis2P3D XDirection',(0.,1.,0.)) ;
#302=DIRECTION('Vector Direction',(0.,1.,0.)) ;
#309=DIRECTION('Vector Direction',(0.,0.,1.)) ;
#321=DIRECTION('Axis2P3D Direction',(0.,1.,-0.)) ;
#322=DIRECTION('Axis2P3D XDirection',(-1.,0.,0.)) ;
#326=DIRECTION('Vector Direction',(0.,0.,1.)) ;
#333=DIRECTION('Vector Direction',(-1.,0.,0.)) ;
#345=DIRECTION('Axis2P3D Direction',(-1.,0.,0.)) ;
#346=DIRECTION('Axis2P3D XDirection',(0.,-1.,0.)) ;
#350=DIRECTION('Vector Direction',(0.,-1.,0.)) ;
#362=DIRECTION('Axis2P3D Direction',(-0.,-0.707106781187,-0.707106781187)) ;
#363=DIRECTION('Axis2P3D XDirection',(-1.,0.,0.)) ;
#373=DIRECTION('Vector Direction',(-1.,0.,0.)) ;
#391=DIRECTION('Axis2P3D Direction',(-0.707106781187,0.,0.707106781187)) ;
#392=DIRECTION('Axis2P3D XDirection',(0.,1.,0.)) ;
#402=DIRECTION('Vector Direction',(0.,1.,0.)) ;
#414=DIRECTION('Axis2P3D Direction',(0.,0.707106781187,-0.707106781187)) ;
#415=DIRECTION('Axis2P3D XDirection',(1.,0.,0.)) ;
#419=DIRECTION('Vector Direction',(1.,0.,0.)) ;
#437=DIRECTION('Axis2P3D Direction',(0.707106781187,0.,0.707106781187)) ;
#438=DIRECTION('Axis2P3D XDirection',(0.,-1.,0.)) ;
#442=DIRECTION('Vector Direction',(0.,-1.,0.)) ;
#454=DIRECTION('Vector Direction',(0.,0.,1.)) ;
#461=DIRECTION('Vector Direction',(0.,0.,1.)) ;
#468=DIRECTION('Vector Direction',(1.,0.,0.)) ;
#480=DIRECTION('Axis2P3D Direction',(1.,0.,0.)) ;
#481=DIRECTION('Axis2P3D XDirection',(0.,1.,0.)) ;
#485=DIRECTION('Vector Direction',(0.,1.,0.)) ;
#492=DIRECTION('Vector Direction',(0.,0.,1.)) ;
#504=DIRECTION('Vector Direction',(0.,0.,1.)) ;
#511=DIRECTION('Vector Direction',(-1.,0.,0.)) ;
#523=DIRECTION('Axis2P3D Direction',(-1.,0.,0.)) ;
#524=DIRECTION('Axis2P3D XDirection',(0.,-1.,0.)) ;
#528=DIRECTION('Vector Direction',(0.,-1.,0.)) ;
#540=DIRECTION('Axis2P3D Direction',(0.,0.,1.)) ;
#541=DIRECTION('Axis2P3D XDirection',(1.,0.,0.)) ;
#551=DIRECTION('Vector Direction',(0.,1.,0.)) ;
#560=DIRECTION('Vector Direction',(-1.,0.,0.)) ;
#567=DIRECTION('Vector Direction',(0.,-1.,0.)) ;
#574=DIRECTION('Vector Direction',(1.,0.,0.)) ;
#592=DIRECTION('Axis2P3D Direction',(-0.707106781187,0.,0.707106781187)) ;
#593=DIRECTION('Axis2P3D XDirection',(0.,1.,0.)) ;
#612=DIRECTION('Axis2P3D Direction',(0.,0.707106781187,-0.707106781187)) ;
#613=DIRECTION('Axis2P3D XDirection',(1.,0.,0.)) ;
#628=DIRECTION('Axis2P3D Direction',(0.707106781187,0.,0.707106781187)) ;
#629=DIRECTION('Axis2P3D XDirection',(0.,-1.,0.)) ;
#644=DIRECTION('Axis2P3D Direction',(-0.,-0.707106781187,-0.707106781187)) ;
#645=DIRECTION('Axis2P3D XDirection',(-1.,0.,0.)) ;
#667=DIRECTION('NONE',(1.,0.,0.)) ;
#668=DIRECTION('NONE',(0.,0.,1.)) ;
#669=DIRECTION('NONE',(1.,0.,0.)) ;
#670=DIRECTION('NONE',(0.,0.,1.)) ;
#683=DIRECTION('Axis2P3D Direction',(0.,-1.,0.)) ;
#684=DIRECTION('Axis2P3D XDirection',(1.,0.,0.)) ;
#688=DIRECTION('Vector Direction',(0.,0.,1.)) ;
#697=DIRECTION('Vector Direction',(1.,0.,0.)) ;
#704=DIRECTION('Vector Direction',(0.,0.,1.)) ;
#711=DIRECTION('Vector Direction',(1.,0.,0.)) ;
#723=DIRECTION('Axis2P3D Direction',(1.,0.,0.)) ;
#724=DIRECTION('Axis2P3D XDirection',(0.,1.,0.)) ;
#728=DIRECTION('Vector Direction',(0.,1.,0.)) ;
#735=DIRECTION('Vector Direction',(0.,0.,1.)) ;
#742=DIRECTION('Vector Direction',(0.,1.,0.)) ;
#754=DIRECTION('Axis2P3D Direction',(0.,1.,-0.)) ;
#755=DIRECTION('Axis2P3D XDirection',(-1.,0.,0.)) ;
#759=DIRECTION('Vector Direction',(-1.,0.,0.)) ;
#766=DIRECTION('Vector Direction',(0.,0.,1.)) ;
#773=DIRECTION('Vector Direction',(-1.,0.,0.)) ;
#785=DIRECTION('Axis2P3D Direction',(-1.,1.44382572671E-016,0.)) ;
#786=DIRECTION('Axis2P3D XDirection',(-1.44382572671E-016,-1.,-0.)) ;
#790=DIRECTION('Vector Direction',(-1.44382572671E-016,-1.,0.)) ;
#795=DIRECTION('Vector Direction',(-1.44382572671E-016,-1.,0.)) ;
#807=DIRECTION('Axis2P3D Direction',(0.,0.,1.)) ;
#808=DIRECTION('Axis2P3D XDirection',(1.,0.,0.)) ;
#819=DIRECTION('Axis2P3D Direction',(0.,0.,1.)) ;
#820=DIRECTION('Axis2P3D XDirection',(1.,0.,0.)) ;
#835=DIRECTION('Vector Direction',(0.,0.,1.)) ;
#844=DIRECTION('Vector Direction',(-1.,0.,0.)) ;
#851=DIRECTION('Vector Direction',(0.,0.,1.)) ;
#858=DIRECTION('Vector Direction',(-1.,0.,0.)) ;
#870=DIRECTION('Axis2P3D Direction',(-1.,1.44382572671E-016,0.)) ;
#871=DIRECTION('Axis2P3D XDirection',(-1.44382572671E-016,-1.,-0.)) ;
#875=DIRECTION('Vector Direction',(-1.44382572671E-016,-1.,0.)) ;
#882=DIRECTION('Vector Direction',(0.,0.,1.)) ;
#889=DIRECTION('Vector Direction',(-1.44382572671E-016,-1.,0.)) ;
#901=DIRECTION('Vector Direction',(1.,0.,0.)) ;
#908=DIRECTION('Vector Direction',(0.,0.,1.)) ;
#915=DIRECTION('Vector Direction',(1.,0.,0.)) ;
#927=DIRECTION('Axis2P3D Direction',(1.,0.,0.)) ;
#928=DIRECTION('Axis2P3D XDirection',(0.,1.,0.)) ;
#932=DIRECTION('Vector Direction',(0.,1.,0.)) ;
#937=DIRECTION('Vector Direction',(0.,1.,0.)) ;
#972=DIRECTION('NONE',(1.,0.,0.)) ;
#973=DIRECTION('NONE',(0.,0.,1.)) ;
#974=DIRECTION('NONE',(1.,0.,0.)) ;
#975=DIRECTION('NONE',(0.,0.,1.)) ;
#64=AXIS2_PLACEMENT_3D('Plane Axis2P3D',#61,#62,#63) ;
#104=AXIS2_PLACEMENT_3D('Plane Axis2P3D',#101,#102,#103) ;
#135=AXIS2_PLACEMENT_3D('Plane Axis2P3D',#132,#133,#134) ;
#166=AXIS2_PLACEMENT_3D('Plane Axis2P3D',#163,#164,#165) ;
#188=AXIS2_PLACEMENT_3D('Plane Axis2P3D',#185,#186,#187) ;
#268=AXIS2_PLACEMENT_3D('Plane Axis2P3D',#265,#266,#267) ;
#299=AXIS2_PLACEMENT_3D('Plane Axis2P3D',#296,#297,#298) ;
#323=AXIS2_PLACEMENT_3D('Plane Axis2P3D',#320,#321,#322) ;
#347=AXIS2_PLACEMENT_3D('Plane Axis2P3D',#344,#345,#346) ;
#364=AXIS2_PLACEMENT_3D('Plane Axis2P3D',#361,#362,#363) ;
#393=AXIS2_PLACEMENT_3D('Plane Axis2P3D',#390,#391,#392) ;
#416=AXIS2_PLACEMENT_3D('Plane Axis2P3D',#413,#414,#415) ;
#439=AXIS2_PLACEMENT_3D('Plane Axis2P3D',#436,#437,#438) ;
#482=AXIS2_PLACEMENT_3D('Plane Axis2P3D',#479,#480,#481) ;
#525=AXIS2_PLACEMENT_3D('Plane Axis2P3D',#522,#523,#524) ;
#542=AXIS2_PLACEMENT_3D('Plane Axis2P3D',#539,#540,#541) ;
#594=AXIS2_PLACEMENT_3D('Plane Axis2P3D',#591,#592,#593) ;
#614=AXIS2_PLACEMENT_3D('Plane Axis2P3D',#611,#612,#613) ;
#630=AXIS2_PLACEMENT_3D('Plane Axis2P3D',#627,#628,#629) ;
#646=AXIS2_PLACEMENT_3D('Plane Axis2P3D',#643,#644,#645) ;
#663=AXIS2_PLACEMENT_3D(' ',#666,#670,#669) ;
#664=AXIS2_PLACEMENT_3D(' ',#665,#668,#667) ;
#685=AXIS2_PLACEMENT_3D('Plane Axis2P3D',#682,#683,#684) ;
#725=AXIS2_PLACEMENT_3D('Plane Axis2P3D',#722,#723,#724) ;
#756=AXIS2_PLACEMENT_3D('Plane Axis2P3D',#753,#754,#755) ;
#787=AXIS2_PLACEMENT_3D('Plane Axis2P3D',#784,#785,#786) ;
#809=AXIS2_PLACEMENT_3D('Plane Axis2P3D',#806,#807,#808) ;
#821=AXIS2_PLACEMENT_3D('Plane Axis2P3D',#818,#819,#820) ;
#872=AXIS2_PLACEMENT_3D('Plane Axis2P3D',#869,#870,#871) ;
#929=AXIS2_PLACEMENT_3D('Plane Axis2P3D',#926,#927,#928) ;
#968=AXIS2_PLACEMENT_3D(' ',#971,#975,#974) ;
#969=AXIS2_PLACEMENT_3D(' ',#970,#973,#972) ;
#45=PRODUCT_DEFINITION_SHAPE(' ',' ',#17) ;
#59=PRODUCT_DEFINITION_SHAPE(' ',' ',#56) ;
#659=PRODUCT_DEFINITION_SHAPE(' ',' ',#658) ;
#680=PRODUCT_DEFINITION_SHAPE(' ',' ',#677) ;
#964=PRODUCT_DEFINITION_SHAPE(' ',' ',#963) ;
#34=APPROVAL_PERSON_ORGANIZATION(#28,#24,#22) ;
#28=PERSON_AND_ORGANIZATION(#25,#26) ;
#25=PERSON(' ',' ',' ',$,$,$) ;
#26=ORGANIZATION(' ',' ',' ') ;
#24=APPROVAL(#23,' ') ;
#23=APPROVAL_STATUS('not_yet_approved') ;
#22=APPROVAL_ROLE('APPROVER') ;
#13=DATE_AND_TIME(#11,#12) ;
#12=LOCAL_TIME(16,48,9.,#10) ;
#10=COORDINATED_UNIVERSAL_TIME_OFFSET(0,0,.AHEAD.) ;
#95=ORIENTED_EDGE('',*,*,#74,.T.) ;
#96=ORIENTED_EDGE('',*,*,#81,.F.) ;
#97=ORIENTED_EDGE('',*,*,#88,.F.) ;
#98=ORIENTED_EDGE('',*,*,#93,.T.) ;
#126=ORIENTED_EDGE('',*,*,#112,.T.) ;
#127=ORIENTED_EDGE('',*,*,#93,.F.) ;
#128=ORIENTED_EDGE('',*,*,#119,.F.) ;
#129=ORIENTED_EDGE('',*,*,#124,.T.) ;
#157=ORIENTED_EDGE('',*,*,#143,.T.) ;
#158=ORIENTED_EDGE('',*,*,#124,.F.) ;
#159=ORIENTED_EDGE('',*,*,#150,.F.) ;
#160=ORIENTED_EDGE('',*,*,#155,.T.) ;
#179=ORIENTED_EDGE('',*,*,#172,.T.) ;
#180=ORIENTED_EDGE('',*,*,#155,.F.) ;
#181=ORIENTED_EDGE('',*,*,#177,.F.) ;
#182=ORIENTED_EDGE('',*,*,#81,.T.) ;
#191=ORIENTED_EDGE('',*,*,#177,.T.) ;
#192=ORIENTED_EDGE('',*,*,#150,.T.) ;
#193=ORIENTED_EDGE('',*,*,#119,.T.) ;
#194=ORIENTED_EDGE('',*,*,#88,.T.) ;
#225=ORIENTED_EDGE('',*,*,#204,.T.) ;
#226=ORIENTED_EDGE('',*,*,#211,.T.) ;
#227=ORIENTED_EDGE('',*,*,#218,.T.) ;
#228=ORIENTED_EDGE('',*,*,#223,.T.) ;
#259=ORIENTED_EDGE('',*,*,#238,.T.) ;
#260=ORIENTED_EDGE('',*,*,#245,.T.) ;
#261=ORIENTED_EDGE('',*,*,#252,.T.) ;
#262=ORIENTED_EDGE('',*,*,#257,.T.) ;
#290=ORIENTED_EDGE('',*,*,#276,.F.) ;
#291=ORIENTED_EDGE('',*,*,#223,.F.) ;
#292=ORIENTED_EDGE('',*,*,#283,.T.) ;
#293=ORIENTED_EDGE('',*,*,#288,.T.) ;
#314=ORIENTED_EDGE('',*,*,#307,.T.) ;
#315=ORIENTED_EDGE('',*,*,#283,.F.) ;
#316=ORIENTED_EDGE('',*,*,#218,.F.) ;
#317=ORIENTED_EDGE('',*,*,#312,.T.) ;
#338=ORIENTED_EDGE('',*,*,#312,.F.) ;
#339=ORIENTED_EDGE('',*,*,#211,.F.) ;
#340=ORIENTED_EDGE('',*,*,#331,.T.) ;
#341=ORIENTED_EDGE('',*,*,#336,.T.) ;
#355=ORIENTED_EDGE('',*,*,#353,.T.) ;
#356=ORIENTED_EDGE('',*,*,#331,.F.) ;
#357=ORIENTED_EDGE('',*,*,#204,.F.) ;
#358=ORIENTED_EDGE('',*,*,#276,.T.) ;
#384=ORIENTED_EDGE('',*,*,#336,.F.) ;
#385=ORIENTED_EDGE('',*,*,#371,.F.) ;
#386=ORIENTED_EDGE('',*,*,#378,.T.) ;
#387=ORIENTED_EDGE('',*,*,#382,.F.) ;
#407=ORIENTED_EDGE('',*,*,#400,.F.) ;
#408=ORIENTED_EDGE('',*,*,#307,.F.) ;
#409=ORIENTED_EDGE('',*,*,#382,.T.) ;
#410=ORIENTED_EDGE('',*,*,#405,.T.) ;
#430=ORIENTED_EDGE('',*,*,#288,.F.) ;
#431=ORIENTED_EDGE('',*,*,#400,.T.) ;
#432=ORIENTED_EDGE('',*,*,#424,.T.) ;
#433=ORIENTED_EDGE('',*,*,#428,.F.) ;
#447=ORIENTED_EDGE('',*,*,#371,.T.) ;
#448=ORIENTED_EDGE('',*,*,#353,.F.) ;
#449=ORIENTED_EDGE('',*,*,#428,.T.) ;
#450=ORIENTED_EDGE('',*,*,#445,.T.) ;
#473=ORIENTED_EDGE('',*,*,#459,.F.) ;
#474=ORIENTED_EDGE('',*,*,#257,.F.) ;
#475=ORIENTED_EDGE('',*,*,#466,.T.) ;
#476=ORIENTED_EDGE('',*,*,#471,.T.) ;
#497=ORIENTED_EDGE('',*,*,#490,.T.) ;
#498=ORIENTED_EDGE('',*,*,#466,.F.) ;
#499=ORIENTED_EDGE('',*,*,#252,.F.) ;
#500=ORIENTED_EDGE('',*,*,#495,.T.) ;
#516=ORIENTED_EDGE('',*,*,#495,.F.) ;
#517=ORIENTED_EDGE('',*,*,#245,.F.) ;
#518=ORIENTED_EDGE('',*,*,#509,.T.) ;
#519=ORIENTED_EDGE('',*,*,#514,.T.) ;
#533=ORIENTED_EDGE('',*,*,#531,.T.) ;
#534=ORIENTED_EDGE('',*,*,#509,.F.) ;
#535=ORIENTED_EDGE('',*,*,#238,.F.) ;
#536=ORIENTED_EDGE('',*,*,#459,.T.) ;
#545=ORIENTED_EDGE('',*,*,#74,.F.) ;
#546=ORIENTED_EDGE('',*,*,#112,.F.) ;
#547=ORIENTED_EDGE('',*,*,#143,.F.) ;
#548=ORIENTED_EDGE('',*,*,#172,.F.) ;
#579=ORIENTED_EDGE('',*,*,#558,.F.) ;
#580=ORIENTED_EDGE('',*,*,#565,.F.) ;
#581=ORIENTED_EDGE('',*,*,#572,.F.) ;
#582=ORIENTED_EDGE('',*,*,#577,.F.) ;
#585=ORIENTED_EDGE('',*,*,#378,.F.) ;
#586=ORIENTED_EDGE('',*,*,#445,.F.) ;
#587=ORIENTED_EDGE('',*,*,#424,.F.) ;
#588=ORIENTED_EDGE('',*,*,#405,.F.) ;
#605=ORIENTED_EDGE('',*,*,#599,.F.) ;
#606=ORIENTED_EDGE('',*,*,#490,.F.) ;
#607=ORIENTED_EDGE('',*,*,#603,.F.) ;
#608=ORIENTED_EDGE('',*,*,#558,.T.) ;
#621=ORIENTED_EDGE('',*,*,#471,.F.) ;
#622=ORIENTED_EDGE('',*,*,#599,.T.) ;
#623=ORIENTED_EDGE('',*,*,#577,.T.) ;
#624=ORIENTED_EDGE('',*,*,#619,.F.) ;
#637=ORIENTED_EDGE('',*,*,#635,.F.) ;
#638=ORIENTED_EDGE('',*,*,#531,.F.) ;
#639=ORIENTED_EDGE('',*,*,#619,.T.) ;
#640=ORIENTED_EDGE('',*,*,#572,.T.) ;
#649=ORIENTED_EDGE('',*,*,#514,.F.) ;
#650=ORIENTED_EDGE('',*,*,#635,.T.) ;
#651=ORIENTED_EDGE('',*,*,#565,.T.) ;
#652=ORIENTED_EDGE('',*,*,#603,.T.) ;
#716=ORIENTED_EDGE('',*,*,#695,.F.) ;
#717=ORIENTED_EDGE('',*,*,#702,.T.) ;
#718=ORIENTED_EDGE('',*,*,#709,.T.) ;
#719=ORIENTED_EDGE('',*,*,#714,.F.) ;
#747=ORIENTED_EDGE('',*,*,#709,.F.) ;
#748=ORIENTED_EDGE('',*,*,#733,.T.) ;
#749=ORIENTED_EDGE('',*,*,#740,.T.) ;
#750=ORIENTED_EDGE('',*,*,#745,.F.) ;
#778=ORIENTED_EDGE('',*,*,#740,.F.) ;
#779=ORIENTED_EDGE('',*,*,#764,.T.) ;
#780=ORIENTED_EDGE('',*,*,#771,.T.) ;
#781=ORIENTED_EDGE('',*,*,#776,.F.) ;
#800=ORIENTED_EDGE('',*,*,#771,.F.) ;
#801=ORIENTED_EDGE('',*,*,#793,.T.) ;
#802=ORIENTED_EDGE('',*,*,#695,.T.) ;
#803=ORIENTED_EDGE('',*,*,#798,.F.) ;
#812=ORIENTED_EDGE('',*,*,#793,.F.) ;
#813=ORIENTED_EDGE('',*,*,#764,.F.) ;
#814=ORIENTED_EDGE('',*,*,#733,.F.) ;
#815=ORIENTED_EDGE('',*,*,#702,.F.) ;
#824=ORIENTED_EDGE('',*,*,#714,.T.) ;
#825=ORIENTED_EDGE('',*,*,#745,.T.) ;
#826=ORIENTED_EDGE('',*,*,#776,.T.) ;
#827=ORIENTED_EDGE('',*,*,#798,.T.) ;
#863=ORIENTED_EDGE('',*,*,#842,.F.) ;
#864=ORIENTED_EDGE('',*,*,#849,.T.) ;
#865=ORIENTED_EDGE('',*,*,#856,.T.) ;
#866=ORIENTED_EDGE('',*,*,#861,.F.) ;
#894=ORIENTED_EDGE('',*,*,#856,.F.) ;
#895=ORIENTED_EDGE('',*,*,#880,.T.) ;
#896=ORIENTED_EDGE('',*,*,#887,.T.) ;
#897=ORIENTED_EDGE('',*,*,#892,.F.) ;
#920=ORIENTED_EDGE('',*,*,#887,.F.) ;
#921=ORIENTED_EDGE('',*,*,#906,.T.) ;
#922=ORIENTED_EDGE('',*,*,#913,.T.) ;
#923=ORIENTED_EDGE('',*,*,#918,.F.) ;
#942=ORIENTED_EDGE('',*,*,#913,.F.) ;
#943=ORIENTED_EDGE('',*,*,#935,.T.) ;
#944=ORIENTED_EDGE('',*,*,#842,.T.) ;
#945=ORIENTED_EDGE('',*,*,#940,.F.) ;
#949=ORIENTED_EDGE('',*,*,#935,.F.) ;
#950=ORIENTED_EDGE('',*,*,#906,.F.) ;
#951=ORIENTED_EDGE('',*,*,#880,.F.) ;
#952=ORIENTED_EDGE('',*,*,#849,.F.) ;
#956=ORIENTED_EDGE('',*,*,#861,.T.) ;
#957=ORIENTED_EDGE('',*,*,#892,.T.) ;
#958=ORIENTED_EDGE('',*,*,#918,.T.) ;
#959=ORIENTED_EDGE('',*,*,#940,.T.) ;
#229=FACE_BOUND('',#224,.T.) ;
#263=FACE_BOUND('',#258,.T.) ;
#583=FACE_BOUND('',#578,.T.) ;
#589=FACE_BOUND('',#584,.T.) ;
#60=CLOSED_SHELL('Closed Shell',(#100,#131,#162,#184,#264,#295,#319,#343,#360,#389,#412,#435,#452,#478,#502,#521,#538,#590,#610,#626,#642,#654)) ;
#681=CLOSED_SHELL('Closed Shell',(#721,#752,#783,#805,#817,#829)) ;
#833=CLOSED_SHELL('Closed Shell',(#868,#899,#925,#947,#954,#961)) ;
#662=ITEM_DEFINED_TRANSFORMATION(' ',' ',#664,#663) ;
#967=ITEM_DEFINED_TRANSFORMATION(' ',' ',#969,#968) ;
#68=VECTOR('Line Direction',#67,1.) ;
#77=VECTOR('Line Direction',#76,1.) ;
#84=VECTOR('Line Direction',#83,1.) ;
#91=VECTOR('Line Direction',#90,1.) ;
#108=VECTOR('Line Direction',#107,1.) ;
#115=VECTOR('Line Direction',#114,1.) ;
#122=VECTOR('Line Direction',#121,1.) ;
#139=VECTOR('Line Direction',#138,1.) ;
#146=VECTOR('Line Direction',#145,1.) ;
#153=VECTOR('Line Direction',#152,1.) ;
#170=VECTOR('Line Direction',#169,1.) ;
#175=VECTOR('Line Direction',#174,1.) ;
#198=VECTOR('Line Direction',#197,1.) ;
#207=VECTOR('Line Direction',#206,1.) ;
#214=VECTOR('Line Direction',#213,1.) ;
#221=VECTOR('Line Direction',#220,1.) ;
#232=VECTOR('Line Direction',#231,1.) ;
#241=VECTOR('Line Direction',#240,1.) ;
#248=VECTOR('Line Direction',#247,1.) ;
#255=VECTOR('Line Direction',#254,1.) ;
#272=VECTOR('Line Direction',#271,1.) ;
#279=VECTOR('Line Direction',#278,1.) ;
#286=VECTOR('Line Direction',#285,1.) ;
#303=VECTOR('Line Direction',#302,1.) ;
#310=VECTOR('Line Direction',#309,1.) ;
#327=VECTOR('Line Direction',#326,1.) ;
#334=VECTOR('Line Direction',#333,1.) ;
#351=VECTOR('Line Direction',#350,1.) ;
#374=VECTOR('Line Direction',#373,1.) ;
#403=VECTOR('Line Direction',#402,1.) ;
#420=VECTOR('Line Direction',#419,1.) ;
#443=VECTOR('Line Direction',#442,1.) ;
#455=VECTOR('Line Direction',#454,1.) ;
#462=VECTOR('Line Direction',#461,1.) ;
#469=VECTOR('Line Direction',#468,1.) ;
#486=VECTOR('Line Direction',#485,1.) ;
#493=VECTOR('Line Direction',#492,1.) ;
#505=VECTOR('Line Direction',#504,1.) ;
#512=VECTOR('Line Direction',#511,1.) ;
#529=VECTOR('Line Direction',#528,1.) ;
#552=VECTOR('Line Direction',#551,1.) ;
#561=VECTOR('Line Direction',#560,1.) ;
#568=VECTOR('Line Direction',#567,1.) ;
#575=VECTOR('Line Direction',#574,1.) ;
#689=VECTOR('Line Direction',#688,1.) ;
#698=VECTOR('Line Direction',#697,1.) ;
#705=VECTOR('Line Direction',#704,1.) ;
#712=VECTOR('Line Direction',#711,1.) ;
#729=VECTOR('Line Direction',#728,1.) ;
#736=VECTOR('Line Direction',#735,1.) ;
#743=VECTOR('Line Direction',#742,1.) ;
#760=VECTOR('Line Direction',#759,1.) ;
#767=VECTOR('Line Direction',#766,1.) ;
#774=VECTOR('Line Direction',#773,1.) ;
#791=VECTOR('Line Direction',#790,1.) ;
#796=VECTOR('Line Direction',#795,1.) ;
#836=VECTOR('Line Direction',#835,1.) ;
#845=VECTOR('Line Direction',#844,1.) ;
#852=VECTOR('Line Direction',#851,1.) ;
#859=VECTOR('Line Direction',#858,1.) ;
#876=VECTOR('Line Direction',#875,1.) ;
#883=VECTOR('Line Direction',#882,1.) ;
#890=VECTOR('Line Direction',#889,1.) ;
#902=VECTOR('Line Direction',#901,1.) ;
#909=VECTOR('Line Direction',#908,1.) ;
#916=VECTOR('Line Direction',#915,1.) ;
#933=VECTOR('Line Direction',#932,1.) ;
#938=VECTOR('Line Direction',#937,1.) ;
#656=ADVANCED_BREP_SHAPE_REPRESENTATION('NONE',(#655),#51) ;
#831=ADVANCED_BREP_SHAPE_REPRESENTATION('NONE',(#830,#962),#51) ;
#44=SHAPE_REPRESENTATION(' ',(#663,#968),#51) ;
#52=SHAPE_REPRESENTATION(' ',(#664),#672) ;
#673=SHAPE_REPRESENTATION(' ',(#969),#977) ;
#100=ADVANCED_FACE('PartBody',(#99),#65,.T.) ;
#131=ADVANCED_FACE('PartBody',(#130),#105,.F.) ;
#162=ADVANCED_FACE('PartBody',(#161),#136,.T.) ;
#184=ADVANCED_FACE('PartBody',(#183),#167,.T.) ;
#264=ADVANCED_FACE('PartBody',(#195,#229,#263),#189,.F.) ;
#295=ADVANCED_FACE('PartBody',(#294),#269,.T.) ;
#319=ADVANCED_FACE('PartBody',(#318),#300,.F.) ;
#343=ADVANCED_FACE('PartBody',(#342),#324,.T.) ;
#360=ADVANCED_FACE('PartBody',(#359),#348,.F.) ;
#389=ADVANCED_FACE('PartBody',(#388),#365,.F.) ;
#412=ADVANCED_FACE('PartBody',(#411),#394,.T.) ;
#435=ADVANCED_FACE('PartBody',(#434),#417,.F.) ;
#452=ADVANCED_FACE('PartBody',(#451),#440,.T.) ;
#478=ADVANCED_FACE('PartBody',(#477),#269,.T.) ;
#502=ADVANCED_FACE('PartBody',(#501),#483,.F.) ;
#521=ADVANCED_FACE('PartBody',(#520),#324,.T.) ;
#538=ADVANCED_FACE('PartBody',(#537),#526,.F.) ;
#590=ADVANCED_FACE('PartBody',(#549,#583,#589),#543,.T.) ;
#610=ADVANCED_FACE('PartBody',(#609),#595,.T.) ;
#626=ADVANCED_FACE('PartBody',(#625),#615,.F.) ;
#642=ADVANCED_FACE('PartBody',(#641),#631,.T.) ;
#654=ADVANCED_FACE('PartBody',(#653),#647,.F.) ;
#721=ADVANCED_FACE('PartBody',(#720),#686,.T.) ;
#752=ADVANCED_FACE('PartBody',(#751),#726,.T.) ;
#783=ADVANCED_FACE('PartBody',(#782),#757,.T.) ;
#805=ADVANCED_FACE('PartBody',(#804),#788,.T.) ;
#817=ADVANCED_FACE('PartBody',(#816),#810,.F.) ;
#829=ADVANCED_FACE('PartBody',(#828),#822,.T.) ;
#868=ADVANCED_FACE('PartBody',(#867),#757,.T.) ;
#899=ADVANCED_FACE('PartBody',(#898),#873,.T.) ;
#925=ADVANCED_FACE('PartBody',(#924),#686,.T.) ;
#947=ADVANCED_FACE('PartBody',(#946),#930,.T.) ;
#954=ADVANCED_FACE('PartBody',(#953),#810,.F.) ;
#961=ADVANCED_FACE('PartBody',(#960),#822,.T.) ;
#4=APPLICATION_PROTOCOL_DEFINITION('international standard','config_control_design',1994,#1) ;
#35=APPROVAL_DATE_TIME(#13,#24) ;
#366=B_SPLINE_CURVE_WITH_KNOTS('',1,(#367,#368),.UNSPECIFIED.,.F.,.U.,(2,2),(-8.24889197108,8.24889197108),.UNSPECIFIED.) ;
#379=B_SPLINE_CURVE_WITH_KNOTS('',1,(#380,#381),.UNSPECIFIED.,.F.,.U.,(2,2),(-8.24889197108,8.24889197108),.UNSPECIFIED.) ;
#395=B_SPLINE_CURVE_WITH_KNOTS('',1,(#396,#397),.UNSPECIFIED.,.F.,.U.,(2,2),(-8.24889197108,8.24889197108),.UNSPECIFIED.) ;
#425=B_SPLINE_CURVE_WITH_KNOTS('',1,(#426,#427),.UNSPECIFIED.,.F.,.U.,(2,2),(-8.24889197108,8.24889197108),.UNSPECIFIED.) ;
#596=B_SPLINE_CURVE_WITH_KNOTS('',1,(#597,#598),.UNSPECIFIED.,.F.,.U.,(2,2),(-8.24889197108,8.24889197108),.UNSPECIFIED.) ;
#600=B_SPLINE_CURVE_WITH_KNOTS('',1,(#601,#602),.UNSPECIFIED.,.F.,.U.,(2,2),(-8.24889197108,8.24889197108),.UNSPECIFIED.) ;
#616=B_SPLINE_CURVE_WITH_KNOTS('',1,(#617,#618),.UNSPECIFIED.,.F.,.U.,(2,2),(-8.24889197108,8.24889197108),.UNSPECIFIED.) ;
#632=B_SPLINE_CURVE_WITH_KNOTS('',1,(#633,#634),.UNSPECIFIED.,.F.,.U.,(2,2),(-8.24889197108,8.24889197108),.UNSPECIFIED.) ;
#655=MANIFOLD_SOLID_BREP('PartBody',#60) ;
#830=MANIFOLD_SOLID_BREP('PartBody.1',#681) ;
#962=MANIFOLD_SOLID_BREP('PartBody.2',#833) ;
#11=CALENDAR_DATE(2025,20,6) ;
#33=CC_DESIGN_APPROVAL(#24,(#19,#6,#17)) ;
#21=CC_DESIGN_DATE_AND_TIME_ASSIGNMENT(#13,#20,(#19)) ;
#32=CC_DESIGN_DATE_AND_TIME_ASSIGNMENT(#13,#31,(#17)) ;
#20=DATE_TIME_ROLE('classification_date') ;
#31=DATE_TIME_ROLE('creation_date') ;
#30=CC_DESIGN_PERSON_AND_ORGANIZATION_ASSIGNMENT(#28,#29,(#19)) ;
#36=CC_DESIGN_PERSON_AND_ORGANIZATION_ASSIGNMENT(#28,#37,(#6)) ;
#38=CC_DESIGN_PERSON_AND_ORGANIZATION_ASSIGNMENT(#28,#39,(#6,#17)) ;
#40=CC_DESIGN_PERSON_AND_ORGANIZATION_ASSIGNMENT(#28,#41,(#5)) ;
#29=PERSON_AND_ORGANIZATION_ROLE('classification_officer') ;
#37=PERSON_AND_ORGANIZATION_ROLE('design_supplier') ;
#39=PERSON_AND_ORGANIZATION_ROLE('creator') ;
#41=PERSON_AND_ORGANIZATION_ROLE('design_owner') ;
#42=CC_DESIGN_SECURITY_CLASSIFICATION(#19,(#6,#658,#963)) ;
#58=DOCUMENT('1','Model7_ext.CATPart','CATPart document',#57) ;
#679=DOCUMENT('2','Model7_int.CATPart','CATPart document',#678) ;
#57=DOCUMENT_TYPE('') ;
#678=DOCUMENT_TYPE('') ;
#660=CONTEXT_DEPENDENT_SHAPE_REPRESENTATION(#661,#659) ;
#965=CONTEXT_DEPENDENT_SHAPE_REPRESENTATION(#966,#964) ;
#657=SHAPE_REPRESENTATION_RELATIONSHIP(' ',' ',#52,#656) ;
#832=SHAPE_REPRESENTATION_RELATIONSHIP(' ',' ',#673,#831) ;
#3=DESIGN_CONTEXT(' ',#1,'design') ;
#74=EDGE_CURVE('',#71,#73,#69,.F.) ;
#81=EDGE_CURVE('',#80,#73,#78,.T.) ;
#88=EDGE_CURVE('',#87,#80,#85,.F.) ;
#93=EDGE_CURVE('',#87,#71,#92,.T.) ;
#112=EDGE_CURVE('',#111,#71,#109,.T.) ;
#119=EDGE_CURVE('',#118,#87,#116,.T.) ;
#124=EDGE_CURVE('',#118,#111,#123,.T.) ;
#143=EDGE_CURVE('',#142,#111,#140,.F.) ;
#150=EDGE_CURVE('',#149,#118,#147,.F.) ;
#155=EDGE_CURVE('',#149,#142,#154,.T.) ;
#172=EDGE_CURVE('',#73,#142,#171,.F.) ;
#177=EDGE_CURVE('',#80,#149,#176,.F.) ;
#204=EDGE_CURVE('',#201,#203,#199,.T.) ;
#211=EDGE_CURVE('',#203,#210,#208,.F.) ;
#218=EDGE_CURVE('',#210,#217,#215,.T.) ;
#223=EDGE_CURVE('',#217,#201,#222,.F.) ;
#238=EDGE_CURVE('',#235,#237,#233,.T.) ;
#245=EDGE_CURVE('',#237,#244,#242,.F.) ;
#252=EDGE_CURVE('',#244,#251,#249,.T.) ;
#257=EDGE_CURVE('',#251,#235,#256,.F.) ;
#276=EDGE_CURVE('',#201,#275,#273,.T.) ;
#283=EDGE_CURVE('',#217,#282,#280,.T.) ;
#288=EDGE_CURVE('',#282,#275,#287,.F.) ;
#307=EDGE_CURVE('',#306,#282,#304,.T.) ;
#312=EDGE_CURVE('',#210,#306,#311,.T.) ;
#331=EDGE_CURVE('',#203,#330,#328,.T.) ;
#336=EDGE_CURVE('',#330,#306,#335,.F.) ;
#353=EDGE_CURVE('',#275,#330,#352,.T.) ;
#371=EDGE_CURVE('',#370,#330,#366,.F.) ;
#378=EDGE_CURVE('',#370,#377,#375,.F.) ;
#382=EDGE_CURVE('',#306,#377,#379,.T.) ;
#400=EDGE_CURVE('',#282,#399,#395,.T.) ;
#405=EDGE_CURVE('',#377,#399,#404,.T.) ;
#424=EDGE_CURVE('',#399,#423,#421,.F.) ;
#428=EDGE_CURVE('',#275,#423,#425,.T.) ;
#445=EDGE_CURVE('',#423,#370,#444,.T.) ;
#459=EDGE_CURVE('',#235,#458,#456,.T.) ;
#466=EDGE_CURVE('',#251,#465,#463,.T.) ;
#471=EDGE_CURVE('',#465,#458,#470,.F.) ;
#490=EDGE_CURVE('',#489,#465,#487,.T.) ;
#495=EDGE_CURVE('',#244,#489,#494,.T.) ;
#509=EDGE_CURVE('',#237,#508,#506,.T.) ;
#514=EDGE_CURVE('',#508,#489,#513,.F.) ;
#531=EDGE_CURVE('',#458,#508,#530,.T.) ;
#558=EDGE_CURVE('',#555,#557,#553,.T.) ;
#565=EDGE_CURVE('',#564,#555,#562,.F.) ;
#572=EDGE_CURVE('',#571,#564,#569,.T.) ;
#577=EDGE_CURVE('',#557,#571,#576,.F.) ;
#599=EDGE_CURVE('',#465,#557,#596,.T.) ;
#603=EDGE_CURVE('',#555,#489,#600,.F.) ;
#619=EDGE_CURVE('',#458,#571,#616,.T.) ;
#635=EDGE_CURVE('',#508,#564,#632,.T.) ;
#695=EDGE_CURVE('',#692,#694,#690,.T.) ;
#702=EDGE_CURVE('',#692,#701,#699,.T.) ;
#709=EDGE_CURVE('',#701,#708,#706,.T.) ;
#714=EDGE_CURVE('',#694,#708,#713,.T.) ;
#733=EDGE_CURVE('',#701,#732,#730,.T.) ;
#740=EDGE_CURVE('',#732,#739,#737,.T.) ;
#745=EDGE_CURVE('',#708,#739,#744,.T.) ;
#764=EDGE_CURVE('',#732,#763,#761,.T.) ;
#771=EDGE_CURVE('',#763,#770,#768,.T.) ;
#776=EDGE_CURVE('',#739,#770,#775,.T.) ;
#793=EDGE_CURVE('',#763,#692,#792,.T.) ;
#798=EDGE_CURVE('',#770,#694,#797,.T.) ;
#842=EDGE_CURVE('',#839,#841,#837,.T.) ;
#849=EDGE_CURVE('',#839,#848,#846,.T.) ;
#856=EDGE_CURVE('',#848,#855,#853,.T.) ;
#861=EDGE_CURVE('',#841,#855,#860,.T.) ;
#880=EDGE_CURVE('',#848,#879,#877,.T.) ;
#887=EDGE_CURVE('',#879,#886,#884,.T.) ;
#892=EDGE_CURVE('',#855,#886,#891,.T.) ;
#906=EDGE_CURVE('',#879,#905,#903,.T.) ;
#913=EDGE_CURVE('',#905,#912,#910,.T.) ;
#918=EDGE_CURVE('',#886,#912,#917,.T.) ;
#935=EDGE_CURVE('',#905,#839,#934,.T.) ;
#940=EDGE_CURVE('',#912,#841,#939,.T.) ;
#94=EDGE_LOOP('',(#95,#96,#97,#98)) ;
#125=EDGE_LOOP('',(#126,#127,#128,#129)) ;
#156=EDGE_LOOP('',(#157,#158,#159,#160)) ;
#178=EDGE_LOOP('',(#179,#180,#181,#182)) ;
#190=EDGE_LOOP('',(#191,#192,#193,#194)) ;
#224=EDGE_LOOP('',(#225,#226,#227,#228)) ;
#258=EDGE_LOOP('',(#259,#260,#261,#262)) ;
#289=EDGE_LOOP('',(#290,#291,#292,#293)) ;
#313=EDGE_LOOP('',(#314,#315,#316,#317)) ;
#337=EDGE_LOOP('',(#338,#339,#340,#341)) ;
#354=EDGE_LOOP('',(#355,#356,#357,#358)) ;
#383=EDGE_LOOP('',(#384,#385,#386,#387)) ;
#406=EDGE_LOOP('',(#407,#408,#409,#410)) ;
#429=EDGE_LOOP('',(#430,#431,#432,#433)) ;
#446=EDGE_LOOP('',(#447,#448,#449,#450)) ;
#472=EDGE_LOOP('',(#473,#474,#475,#476)) ;
#496=EDGE_LOOP('',(#497,#498,#499,#500)) ;
#515=EDGE_LOOP('',(#516,#517,#518,#519)) ;
#532=EDGE_LOOP('',(#533,#534,#535,#536)) ;
#544=EDGE_LOOP('',(#545,#546,#547,#548)) ;
#578=EDGE_LOOP('',(#579,#580,#581,#582)) ;
#584=EDGE_LOOP('',(#585,#586,#587,#588)) ;
#604=EDGE_LOOP('',(#605,#606,#607,#608)) ;
#620=EDGE_LOOP('',(#621,#622,#623,#624)) ;
#636=EDGE_LOOP('',(#637,#638,#639,#640)) ;
#648=EDGE_LOOP('',(#649,#650,#651,#652)) ;
#715=EDGE_LOOP('',(#716,#717,#718,#719)) ;
#746=EDGE_LOOP('',(#747,#748,#749,#750)) ;
#777=EDGE_LOOP('',(#778,#779,#780,#781)) ;
#799=EDGE_LOOP('',(#800,#801,#802,#803)) ;
#811=EDGE_LOOP('',(#812,#813,#814,#815)) ;
#823=EDGE_LOOP('',(#824,#825,#826,#827)) ;
#862=EDGE_LOOP('',(#863,#864,#865,#866)) ;
#893=EDGE_LOOP('',(#894,#895,#896,#897)) ;
#919=EDGE_LOOP('',(#920,#921,#922,#923)) ;
#941=EDGE_LOOP('',(#942,#943,#944,#945)) ;
#948=EDGE_LOOP('',(#949,#950,#951,#952)) ;
#955=EDGE_LOOP('',(#956,#957,#958,#959)) ;
#99=FACE_OUTER_BOUND('',#94,.T.) ;
#130=FACE_OUTER_BOUND('',#125,.T.) ;
#161=FACE_OUTER_BOUND('',#156,.T.) ;
#183=FACE_OUTER_BOUND('',#178,.T.) ;
#195=FACE_OUTER_BOUND('',#190,.T.) ;
#294=FACE_OUTER_BOUND('',#289,.T.) ;
#318=FACE_OUTER_BOUND('',#313,.T.) ;
#342=FACE_OUTER_BOUND('',#337,.T.) ;
#359=FACE_OUTER_BOUND('',#354,.T.) ;
#388=FACE_OUTER_BOUND('',#383,.T.) ;
#411=FACE_OUTER_BOUND('',#406,.T.) ;
#434=FACE_OUTER_BOUND('',#429,.T.) ;
#451=FACE_OUTER_BOUND('',#446,.T.) ;
#477=FACE_OUTER_BOUND('',#472,.T.) ;
#501=FACE_OUTER_BOUND('',#496,.T.) ;
#520=FACE_OUTER_BOUND('',#515,.T.) ;
#537=FACE_OUTER_BOUND('',#532,.T.) ;
#549=FACE_OUTER_BOUND('',#544,.T.) ;
#609=FACE_OUTER_BOUND('',#604,.T.) ;
#625=FACE_OUTER_BOUND('',#620,.T.) ;
#641=FACE_OUTER_BOUND('',#636,.T.) ;
#653=FACE_OUTER_BOUND('',#648,.T.) ;
#720=FACE_OUTER_BOUND('',#715,.T.) ;
#751=FACE_OUTER_BOUND('',#746,.T.) ;
#782=FACE_OUTER_BOUND('',#777,.T.) ;
#804=FACE_OUTER_BOUND('',#799,.T.) ;
#816=FACE_OUTER_BOUND('',#811,.T.) ;
#828=FACE_OUTER_BOUND('',#823,.T.) ;
#867=FACE_OUTER_BOUND('',#862,.T.) ;
#898=FACE_OUTER_BOUND('',#893,.T.) ;
#924=FACE_OUTER_BOUND('',#919,.T.) ;
#946=FACE_OUTER_BOUND('',#941,.T.) ;
#953=FACE_OUTER_BOUND('',#948,.T.) ;
#960=FACE_OUTER_BOUND('',#955,.T.) ;
#50=UNCERTAINTY_MEASURE_WITH_UNIT(LENGTH_MEASURE(0.005),#46,'distance_accuracy_value','CONFUSED CURVE UNCERTAINTY') ;
#671=UNCERTAINTY_MEASURE_WITH_UNIT(LENGTH_MEASURE(0.005),#46,'distance_accuracy_value','CONFUSED CURVE UNCERTAINTY') ;
#976=UNCERTAINTY_MEASURE_WITH_UNIT(LENGTH_MEASURE(0.005),#46,'distance_accuracy_value','CONFUSED CURVE UNCERTAINTY') ;
#69=LINE('Line',#66,#68) ;
#78=LINE('Line',#75,#77) ;
#85=LINE('Line',#82,#84) ;
#92=LINE('Line',#89,#91) ;
#109=LINE('Line',#106,#108) ;
#116=LINE('Line',#113,#115) ;
#123=LINE('Line',#120,#122) ;
#140=LINE('Line',#137,#139) ;
#147=LINE('Line',#144,#146) ;
#154=LINE('Line',#151,#153) ;
#171=LINE('Line',#168,#170) ;
#176=LINE('Line',#173,#175) ;
#199=LINE('Line',#196,#198) ;
#208=LINE('Line',#205,#207) ;
#215=LINE('Line',#212,#214) ;
#222=LINE('Line',#219,#221) ;
#233=LINE('Line',#230,#232) ;
#242=LINE('Line',#239,#241) ;
#249=LINE('Line',#246,#248) ;
#256=LINE('Line',#253,#255) ;
#273=LINE('Line',#270,#272) ;
#280=LINE('Line',#277,#279) ;
#287=LINE('Line',#284,#286) ;
#304=LINE('Line',#301,#303) ;
#311=LINE('Line',#308,#310) ;
#328=LINE('Line',#325,#327) ;
#335=LINE('Line',#332,#334) ;
#352=LINE('Line',#349,#351) ;
#375=LINE('Line',#372,#374) ;
#404=LINE('Line',#401,#403) ;
#421=LINE('Line',#418,#420) ;
#444=LINE('Line',#441,#443) ;
#456=LINE('Line',#453,#455) ;
#463=LINE('Line',#460,#462) ;
#470=LINE('Line',#467,#469) ;
#487=LINE('Line',#484,#486) ;
#494=LINE('Line',#491,#493) ;
#506=LINE('Line',#503,#505) ;
#513=LINE('Line',#510,#512) ;
#530=LINE('Line',#527,#529) ;
#553=LINE('Line',#550,#552) ;
#562=LINE('Line',#559,#561) ;
#569=LINE('Line',#566,#568) ;
#576=LINE('Line',#573,#575) ;
#690=LINE('Line',#687,#689) ;
#699=LINE('Line',#696,#698) ;
#706=LINE('Line',#703,#705) ;
#713=LINE('Line',#710,#712) ;
#730=LINE('Line',#727,#729) ;
#737=LINE('Line',#734,#736) ;
#744=LINE('Line',#741,#743) ;
#761=LINE('Line',#758,#760) ;
#768=LINE('Line',#765,#767) ;
#775=LINE('Line',#772,#774) ;
#792=LINE('Line',#789,#791) ;
#797=LINE('Line',#794,#796) ;
#837=LINE('Line',#834,#836) ;
#846=LINE('Line',#843,#845) ;
#853=LINE('Line',#850,#852) ;
#860=LINE('Line',#857,#859) ;
#877=LINE('Line',#874,#876) ;
#884=LINE('Line',#881,#883) ;
#891=LINE('Line',#888,#890) ;
#903=LINE('Line',#900,#902) ;
#910=LINE('Line',#907,#909) ;
#917=LINE('Line',#914,#916) ;
#934=LINE('Line',#931,#933) ;
#939=LINE('Line',#936,#938) ;
#2=MECHANICAL_CONTEXT(' ',#1,'mechanical') ;
#658=NEXT_ASSEMBLY_USAGE_OCCURRENCE('Part1.1','Part1.1','',#17,#56,' ') ;
#963=NEXT_ASSEMBLY_USAGE_OCCURRENCE('Part2.1','Part2.1','',#17,#677,' ') ;
#27=PERSONAL_ADDRESS(' ',' ',' ',' ',' ',' ',' ',' ',' ',' ',' ',' ',(#25),' ') ;
#65=PLANE('Plane',#64) ;
#105=PLANE('Plane',#104) ;
#136=PLANE('Plane',#135) ;
#167=PLANE('Plane',#166) ;
#189=PLANE('Plane',#188) ;
#269=PLANE('Plane',#268) ;
#300=PLANE('Plane',#299) ;
#324=PLANE('Plane',#323) ;
#348=PLANE('Plane',#347) ;
#365=PLANE('Plane',#364) ;
#394=PLANE('Plane',#393) ;
#417=PLANE('Plane',#416) ;
#440=PLANE('Plane',#439) ;
#483=PLANE('Plane',#482) ;
#526=PLANE('Plane',#525) ;
#543=PLANE('Plane',#542) ;
#595=PLANE('Plane',#594) ;
#615=PLANE('Plane',#614) ;
#631=PLANE('Plane',#630) ;
#647=PLANE('Plane',#646) ;
#686=PLANE('Plane',#685) ;
#726=PLANE('Plane',#725) ;
#757=PLANE('Plane',#756) ;
#788=PLANE('Plane',#787) ;
#810=PLANE('Plane',#809) ;
#822=PLANE('Plane',#821) ;
#873=PLANE('Plane',#872) ;
#930=PLANE('Plane',#929) ;
#48=PLANE_ANGLE_MEASURE_WITH_UNIT(PLANE_ANGLE_MEASURE(0.0174532925199),#47) ;
#7=PRODUCT_CATEGORY('part',$) ;
#14=PRODUCT_CATEGORY('part',$) ;
#9=PRODUCT_CATEGORY_RELATIONSHIP(' ',' ',#7,#8) ;
#16=PRODUCT_CATEGORY_RELATIONSHIP(' ',' ',#14,#15) ;
#6=PRODUCT_DEFINITION_FORMATION_WITH_SPECIFIED_SOURCE('',' ',#5,.NOT_KNOWN.) ;
#55=PRODUCT_DEFINITION_FORMATION_WITH_SPECIFIED_SOURCE('',' ',#54,.NOT_KNOWN.) ;
#676=PRODUCT_DEFINITION_FORMATION_WITH_SPECIFIED_SOURCE('',' ',#675,.NOT_KNOWN.) ;
#56=PRODUCT_DEFINITION_WITH_ASSOCIATED_DOCUMENTS('Part1',' ',#55,#3,(#58)) ;
#677=PRODUCT_DEFINITION_WITH_ASSOCIATED_DOCUMENTS('Part2',' ',#676,#3,(#679)) ;
#8=PRODUCT_RELATED_PRODUCT_CATEGORY('detail',$,(#54,#675)) ;
#15=PRODUCT_RELATED_PRODUCT_CATEGORY('part',$,(#5)) ;
#43=SHAPE_DEFINITION_REPRESENTATION(#45,#44) ;
#53=SHAPE_DEFINITION_REPRESENTATION(#59,#52) ;
#674=SHAPE_DEFINITION_REPRESENTATION(#680,#673) ;
#71=VERTEX_POINT('',#70) ;
#73=VERTEX_POINT('',#72) ;
#80=VERTEX_POINT('',#79) ;
#87=VERTEX_POINT('',#86) ;
#111=VERTEX_POINT('',#110) ;
#118=VERTEX_POINT('',#117) ;
#142=VERTEX_POINT('',#141) ;
#149=VERTEX_POINT('',#148) ;
#201=VERTEX_POINT('',#200) ;
#203=VERTEX_POINT('',#202) ;
#210=VERTEX_POINT('',#209) ;
#217=VERTEX_POINT('',#216) ;
#235=VERTEX_POINT('',#234) ;
#237=VERTEX_POINT('',#236) ;
#244=VERTEX_POINT('',#243) ;
#251=VERTEX_POINT('',#250) ;
#275=VERTEX_POINT('',#274) ;
#282=VERTEX_POINT('',#281) ;
#306=VERTEX_POINT('',#305) ;
#330=VERTEX_POINT('',#329) ;
#370=VERTEX_POINT('',#369) ;
#377=VERTEX_POINT('',#376) ;
#399=VERTEX_POINT('',#398) ;
#423=VERTEX_POINT('',#422) ;
#458=VERTEX_POINT('',#457) ;
#465=VERTEX_POINT('',#464) ;
#489=VERTEX_POINT('',#488) ;
#508=VERTEX_POINT('',#507) ;
#555=VERTEX_POINT('',#554) ;
#557=VERTEX_POINT('',#556) ;
#564=VERTEX_POINT('',#563) ;
#571=VERTEX_POINT('',#570) ;
#692=VERTEX_POINT('',#691) ;
#694=VERTEX_POINT('',#693) ;
#701=VERTEX_POINT('',#700) ;
#708=VERTEX_POINT('',#707) ;
#732=VERTEX_POINT('',#731) ;
#739=VERTEX_POINT('',#738) ;
#763=VERTEX_POINT('',#762) ;
#770=VERTEX_POINT('',#769) ;
#839=VERTEX_POINT('',#838) ;
#841=VERTEX_POINT('',#840) ;
#848=VERTEX_POINT('',#847) ;
#855=VERTEX_POINT('',#854) ;
#879=VERTEX_POINT('',#878) ;
#886=VERTEX_POINT('',#885) ;
#905=VERTEX_POINT('',#904) ;
#912=VERTEX_POINT('',#911) ;
#46=(LENGTH_UNIT()NAMED_UNIT(*)SI_UNIT(.MILLI.,.METRE.)) ;
#47=(NAMED_UNIT(*)PLANE_ANGLE_UNIT()SI_UNIT($,.RADIAN.)) ;
#49=(NAMED_UNIT(*)SI_UNIT($,.STERADIAN.)SOLID_ANGLE_UNIT()) ;
#51=(GEOMETRIC_REPRESENTATION_CONTEXT(3)GLOBAL_UNCERTAINTY_ASSIGNED_CONTEXT((#50))GLOBAL_UNIT_ASSIGNED_CONTEXT((#46,#47,#49))REPRESENTATION_CONTEXT(' ',' ')) ;
#672=(GEOMETRIC_REPRESENTATION_CONTEXT(3)GLOBAL_UNCERTAINTY_ASSIGNED_CONTEXT((#671))GLOBAL_UNIT_ASSIGNED_CONTEXT((#46,#47,#49))REPRESENTATION_CONTEXT(' ',' ')) ;
#977=(GEOMETRIC_REPRESENTATION_CONTEXT(3)GLOBAL_UNCERTAINTY_ASSIGNED_CONTEXT((#976))GLOBAL_UNIT_ASSIGNED_CONTEXT((#46,#47,#49))REPRESENTATION_CONTEXT(' ',' ')) ;
#661=(REPRESENTATION_RELATIONSHIP(' ',' ',#52,#44)REPRESENTATION_RELATIONSHIP_WITH_TRANSFORMATION(#662)SHAPE_REPRESENTATION_RELATIONSHIP()) ;
#966=(REPRESENTATION_RELATIONSHIP(' ',' ',#673,#44)REPRESENTATION_RELATIONSHIP_WITH_TRANSFORMATION(#967)SHAPE_REPRESENTATION_RELATIONSHIP()) ;
ENDSEC;
END-ISO-10303-21;
