ISO-10303-21;
HEADER;
FILE_DESCRIPTION(('CATIA V5 STEP Exchange'),'2;1');

FILE_NAME('C:\\Users\\mnicu\\Desktop\\Client 2024\\Kyra sablage\\Rafat 3D models\\Right side origin\\Small simple doorRSO.stp','2025-04-26T00:18:44+00:00',('none'),('none'),'CATIA Version 5 Release 18 GA (IN-10)','CATIA V5 STEP AP203','none');

FILE_SCHEMA(('CONFIG_CONTROL_DESIGN'));

ENDSEC;
/* file written by CATIA V5R18 */
DATA;
#5=PRODUCT('Product3','','',(#2)) ;
#54=PRODUCT('Part12','','',(#2)) ;
#365=PRODUCT('Part12.1','','',(#2)) ;
#540=PRODUCT('Part12.1.2','','',(#2)) ;
#1=APPLICATION_CONTEXT('configuration controlled 3D design of mechanical parts and assemblies') ;
#17=PRODUCT_DEFINITION('Product3',' ',#6,#3) ;
#19=SECURITY_CLASSIFICATION(' ',' ',#18) ;
#18=SECURITY_CLASSIFICATION_LEVEL('unclassified') ;
#61=CARTESIAN_POINT('Axis2P3D Location',(0.,381.000000002,0.)) ;
#66=CARTESIAN_POINT('Line Origine',(0.,0.,9.52500000004)) ;
#70=CARTESIAN_POINT('Vertex',(0.,0.,0.)) ;
#72=CARTESIAN_POINT('Vertex',(0.,0.,19.0500000001)) ;
#75=CARTESIAN_POINT('Line Origine',(0.,190.500000001,0.)) ;
#79=CARTESIAN_POINT('Vertex',(0.,381.000000002,0.)) ;
#82=CARTESIAN_POINT('Line Origine',(0.,381.000000002,9.52500000004)) ;
#86=CARTESIAN_POINT('Vertex',(0.,381.000000002,19.0500000001)) ;
#89=CARTESIAN_POINT('Line Origine',(0.,190.500000001,19.0500000001)) ;
#101=CARTESIAN_POINT('Axis2P3D Location',(-5.68434188608E-014,381.000000002,0.)) ;
#106=CARTESIAN_POINT('Line Origine',(-496.887500002,381.000000002,0.)) ;
#110=CARTESIAN_POINT('Vertex',(-993.775000004,381.000000002,0.)) ;
#113=CARTESIAN_POINT('Line Origine',(-993.775000004,381.000000002,9.52500000004)) ;
#117=CARTESIAN_POINT('Vertex',(-993.775000004,381.000000002,19.0500000001)) ;
#120=CARTESIAN_POINT('Line Origine',(-496.887500002,381.000000002,19.0500000001)) ;
#132=CARTESIAN_POINT('Axis2P3D Location',(-993.775000004,0.,0.)) ;
#137=CARTESIAN_POINT('Line Origine',(-993.775000004,190.500000001,0.)) ;
#141=CARTESIAN_POINT('Vertex',(-993.775000004,0.,0.)) ;
#144=CARTESIAN_POINT('Line Origine',(-993.775000004,0.,9.52500000004)) ;
#148=CARTESIAN_POINT('Vertex',(-993.775000004,0.,19.0500000001)) ;
#151=CARTESIAN_POINT('Line Origine',(-993.775000004,190.500000001,19.0500000001)) ;
#163=CARTESIAN_POINT('Axis2P3D Location',(-993.775000004,0.,0.)) ;
#168=CARTESIAN_POINT('Line Origine',(-496.887500002,0.,0.)) ;
#173=CARTESIAN_POINT('Line Origine',(-496.887500002,0.,19.0500000001)) ;
#185=CARTESIAN_POINT('Axis2P3D Location',(-936.625000004,57.1500000002,0.)) ;
#190=CARTESIAN_POINT('Line Origine',(-496.887500002,57.1500000002,19.0500000001)) ;
#194=CARTESIAN_POINT('Vertex',(-936.625000004,57.1500000002,19.0500000001)) ;
#196=CARTESIAN_POINT('Vertex',(-57.1500000002,57.1500000002,19.0500000001)) ;
#199=CARTESIAN_POINT('Line Origine',(-57.1500000002,57.1500000002,9.52500000004)) ;
#203=CARTESIAN_POINT('Vertex',(-57.1500000002,57.1500000002,0.)) ;
#206=CARTESIAN_POINT('Line Origine',(-496.887500002,57.1500000002,0.)) ;
#210=CARTESIAN_POINT('Vertex',(-936.625000004,57.1500000002,0.)) ;
#213=CARTESIAN_POINT('Line Origine',(-936.625000004,57.1500000002,9.52500000004)) ;
#225=CARTESIAN_POINT('Axis2P3D Location',(-936.625000004,57.1500000002,0.)) ;
#230=CARTESIAN_POINT('Line Origine',(-936.625000004,190.500000001,19.0500000001)) ;
#234=CARTESIAN_POINT('Vertex',(-936.625000004,323.850000001,19.0500000001)) ;
#237=CARTESIAN_POINT('Line Origine',(-936.625000004,190.500000001,0.)) ;
#241=CARTESIAN_POINT('Vertex',(-936.625000004,323.850000001,0.)) ;
#244=CARTESIAN_POINT('Line Origine',(-936.625000004,323.850000001,9.52500000004)) ;
#256=CARTESIAN_POINT('Axis2P3D Location',(-57.1500000002,323.850000001,0.)) ;
#261=CARTESIAN_POINT('Line Origine',(-496.887500002,323.850000001,19.0500000001)) ;
#265=CARTESIAN_POINT('Vertex',(-57.1500000002,323.850000001,19.0500000001)) ;
#268=CARTESIAN_POINT('Line Origine',(-496.887500002,323.850000001,0.)) ;
#272=CARTESIAN_POINT('Vertex',(-57.1500000002,323.850000001,0.)) ;
#275=CARTESIAN_POINT('Line Origine',(-57.1500000002,323.850000001,9.52500000004)) ;
#287=CARTESIAN_POINT('Axis2P3D Location',(-57.1500000002,323.850000001,0.)) ;
#292=CARTESIAN_POINT('Line Origine',(-57.1500000002,190.500000001,19.0500000001)) ;
#297=CARTESIAN_POINT('Line Origine',(-57.1500000002,190.500000001,0.)) ;
#309=CARTESIAN_POINT('Axis2P3D Location',(0.,0.,0.)) ;
#327=CARTESIAN_POINT('Axis2P3D Location',(0.,0.,19.0500000001)) ;
#355=CARTESIAN_POINT('NONE',(0.,0.,0.)) ;
#356=CARTESIAN_POINT('NONE',(0.,0.,0.)) ;
#372=CARTESIAN_POINT('Axis2P3D Location',(0.,266.700000001,0.)) ;
#377=CARTESIAN_POINT('Line Origine',(0.,0.,4.76250000002)) ;
#381=CARTESIAN_POINT('Vertex',(0.,0.,0.)) ;
#383=CARTESIAN_POINT('Vertex',(0.,0.,9.52500000004)) ;
#386=CARTESIAN_POINT('Line Origine',(0.,133.350000001,0.)) ;
#390=CARTESIAN_POINT('Vertex',(0.,266.700000001,0.)) ;
#393=CARTESIAN_POINT('Line Origine',(0.,266.700000001,4.76250000002)) ;
#397=CARTESIAN_POINT('Vertex',(0.,266.700000001,9.52500000004)) ;
#400=CARTESIAN_POINT('Line Origine',(0.,133.350000001,9.52500000004)) ;
#412=CARTESIAN_POINT('Axis2P3D Location',(1.13686837722E-013,266.700000001,0.)) ;
#417=CARTESIAN_POINT('Line Origine',(-439.737500002,266.700000001,0.)) ;
#421=CARTESIAN_POINT('Vertex',(-879.475000004,266.700000001,0.)) ;
#424=CARTESIAN_POINT('Line Origine',(-879.475000004,266.700000001,4.76250000002)) ;
#428=CARTESIAN_POINT('Vertex',(-879.475000004,266.700000001,9.52500000004)) ;
#431=CARTESIAN_POINT('Line Origine',(-439.737500002,266.700000001,9.52500000004)) ;
#443=CARTESIAN_POINT('Axis2P3D Location',(-879.475000004,0.,0.)) ;
#448=CARTESIAN_POINT('Line Origine',(-879.475000004,133.350000001,0.)) ;
#452=CARTESIAN_POINT('Vertex',(-879.475000004,0.,0.)) ;
#455=CARTESIAN_POINT('Line Origine',(-879.475000004,0.,4.76250000002)) ;
#459=CARTESIAN_POINT('Vertex',(-879.475000004,0.,9.52500000004)) ;
#462=CARTESIAN_POINT('Line Origine',(-879.475000004,133.350000001,9.52500000004)) ;
#474=CARTESIAN_POINT('Axis2P3D Location',(-879.475000004,0.,0.)) ;
#479=CARTESIAN_POINT('Line Origine',(-439.737500002,0.,0.)) ;
#484=CARTESIAN_POINT('Line Origine',(-439.737500002,0.,9.52500000004)) ;
#496=CARTESIAN_POINT('Axis2P3D Location',(0.,0.,0.)) ;
#508=CARTESIAN_POINT('Axis2P3D Location',(0.,0.,9.52500000004)) ;
#530=CARTESIAN_POINT('NONE',(0.,0.,0.)) ;
#531=CARTESIAN_POINT('NONE',(-57.1500000002,57.1500000002,0.)) ;
#546=CARTESIAN_POINT('Sketch.1',(0.,0.,0.)) ;
#557=CARTESIAN_POINT('NONE',(0.,0.,0.)) ;
#558=CARTESIAN_POINT('NONE',(0.,0.,0.)) ;
#62=DIRECTION('Axis2P3D Direction',(-1.,0.,0.)) ;
#63=DIRECTION('Axis2P3D XDirection',(0.,-1.,0.)) ;
#67=DIRECTION('Vector Direction',(0.,0.,1.)) ;
#76=DIRECTION('Vector Direction',(0.,-1.,0.)) ;
#83=DIRECTION('Vector Direction',(0.,0.,1.)) ;
#90=DIRECTION('Vector Direction',(0.,-1.,0.)) ;
#102=DIRECTION('Axis2P3D Direction',(0.,1.,-0.)) ;
#103=DIRECTION('Axis2P3D XDirection',(-1.,0.,0.)) ;
#107=DIRECTION('Vector Direction',(-1.,0.,0.)) ;
#114=DIRECTION('Vector Direction',(0.,0.,1.)) ;
#121=DIRECTION('Vector Direction',(-1.,0.,0.)) ;
#133=DIRECTION('Axis2P3D Direction',(1.,0.,0.)) ;
#134=DIRECTION('Axis2P3D XDirection',(0.,1.,0.)) ;
#138=DIRECTION('Vector Direction',(0.,1.,0.)) ;
#145=DIRECTION('Vector Direction',(0.,0.,1.)) ;
#152=DIRECTION('Vector Direction',(0.,1.,0.)) ;
#164=DIRECTION('Axis2P3D Direction',(0.,-1.,0.)) ;
#165=DIRECTION('Axis2P3D XDirection',(1.,0.,0.)) ;
#169=DIRECTION('Vector Direction',(1.,0.,0.)) ;
#174=DIRECTION('Vector Direction',(1.,0.,0.)) ;
#186=DIRECTION('Axis2P3D Direction',(0.,-1.,0.)) ;
#187=DIRECTION('Axis2P3D XDirection',(1.,0.,0.)) ;
#191=DIRECTION('Vector Direction',(1.,0.,0.)) ;
#200=DIRECTION('Vector Direction',(0.,0.,1.)) ;
#207=DIRECTION('Vector Direction',(1.,0.,0.)) ;
#214=DIRECTION('Vector Direction',(0.,0.,1.)) ;
#226=DIRECTION('Axis2P3D Direction',(1.,0.,0.)) ;
#227=DIRECTION('Axis2P3D XDirection',(0.,1.,0.)) ;
#231=DIRECTION('Vector Direction',(0.,1.,0.)) ;
#238=DIRECTION('Vector Direction',(0.,1.,0.)) ;
#245=DIRECTION('Vector Direction',(0.,0.,1.)) ;
#257=DIRECTION('Axis2P3D Direction',(0.,1.,-0.)) ;
#258=DIRECTION('Axis2P3D XDirection',(-1.,0.,0.)) ;
#262=DIRECTION('Vector Direction',(-1.,0.,0.)) ;
#269=DIRECTION('Vector Direction',(-1.,0.,0.)) ;
#276=DIRECTION('Vector Direction',(0.,0.,1.)) ;
#288=DIRECTION('Axis2P3D Direction',(-1.,0.,0.)) ;
#289=DIRECTION('Axis2P3D XDirection',(0.,-1.,0.)) ;
#293=DIRECTION('Vector Direction',(0.,-1.,0.)) ;
#298=DIRECTION('Vector Direction',(0.,-1.,0.)) ;
#310=DIRECTION('Axis2P3D Direction',(0.,0.,1.)) ;
#311=DIRECTION('Axis2P3D XDirection',(1.,0.,0.)) ;
#328=DIRECTION('Axis2P3D Direction',(0.,0.,1.)) ;
#329=DIRECTION('Axis2P3D XDirection',(1.,0.,0.)) ;
#357=DIRECTION('NONE',(1.,0.,0.)) ;
#358=DIRECTION('NONE',(0.,0.,1.)) ;
#359=DIRECTION('NONE',(1.,0.,0.)) ;
#360=DIRECTION('NONE',(0.,0.,1.)) ;
#373=DIRECTION('Axis2P3D Direction',(-1.,0.,0.)) ;
#374=DIRECTION('Axis2P3D XDirection',(0.,-1.,0.)) ;
#378=DIRECTION('Vector Direction',(0.,0.,1.)) ;
#387=DIRECTION('Vector Direction',(0.,-1.,0.)) ;
#394=DIRECTION('Vector Direction',(0.,0.,1.)) ;
#401=DIRECTION('Vector Direction',(0.,-1.,0.)) ;
#413=DIRECTION('Axis2P3D Direction',(0.,1.,-0.)) ;
#414=DIRECTION('Axis2P3D XDirection',(-1.,0.,0.)) ;
#418=DIRECTION('Vector Direction',(-1.,0.,0.)) ;
#425=DIRECTION('Vector Direction',(0.,0.,1.)) ;
#432=DIRECTION('Vector Direction',(-1.,0.,0.)) ;
#444=DIRECTION('Axis2P3D Direction',(1.,0.,0.)) ;
#445=DIRECTION('Axis2P3D XDirection',(0.,1.,0.)) ;
#449=DIRECTION('Vector Direction',(0.,1.,0.)) ;
#456=DIRECTION('Vector Direction',(0.,0.,1.)) ;
#463=DIRECTION('Vector Direction',(0.,1.,0.)) ;
#475=DIRECTION('Axis2P3D Direction',(0.,-1.,0.)) ;
#476=DIRECTION('Axis2P3D XDirection',(1.,0.,0.)) ;
#480=DIRECTION('Vector Direction',(1.,0.,0.)) ;
#485=DIRECTION('Vector Direction',(1.,0.,0.)) ;
#497=DIRECTION('Axis2P3D Direction',(0.,0.,1.)) ;
#498=DIRECTION('Axis2P3D XDirection',(1.,0.,0.)) ;
#509=DIRECTION('Axis2P3D Direction',(0.,0.,1.)) ;
#510=DIRECTION('Axis2P3D XDirection',(1.,0.,0.)) ;
#532=DIRECTION('NONE',(1.,0.,0.)) ;
#533=DIRECTION('NONE',(0.,0.,1.)) ;
#534=DIRECTION('NONE',(1.,0.,0.)) ;
#535=DIRECTION('NONE',(0.,0.,1.)) ;
#559=DIRECTION('NONE',(1.,0.,0.)) ;
#560=DIRECTION('NONE',(0.,0.,1.)) ;
#561=DIRECTION('NONE',(1.,0.,0.)) ;
#562=DIRECTION('NONE',(0.,0.,1.)) ;
#64=AXIS2_PLACEMENT_3D('Plane Axis2P3D',#61,#62,#63) ;
#104=AXIS2_PLACEMENT_3D('Plane Axis2P3D',#101,#102,#103) ;
#135=AXIS2_PLACEMENT_3D('Plane Axis2P3D',#132,#133,#134) ;
#166=AXIS2_PLACEMENT_3D('Plane Axis2P3D',#163,#164,#165) ;
#188=AXIS2_PLACEMENT_3D('Plane Axis2P3D',#185,#186,#187) ;
#228=AXIS2_PLACEMENT_3D('Plane Axis2P3D',#225,#226,#227) ;
#259=AXIS2_PLACEMENT_3D('Plane Axis2P3D',#256,#257,#258) ;
#290=AXIS2_PLACEMENT_3D('Plane Axis2P3D',#287,#288,#289) ;
#312=AXIS2_PLACEMENT_3D('Plane Axis2P3D',#309,#310,#311) ;
#330=AXIS2_PLACEMENT_3D('Plane Axis2P3D',#327,#328,#329) ;
#353=AXIS2_PLACEMENT_3D(' ',#356,#360,#359) ;
#354=AXIS2_PLACEMENT_3D(' ',#355,#358,#357) ;
#375=AXIS2_PLACEMENT_3D('Plane Axis2P3D',#372,#373,#374) ;
#415=AXIS2_PLACEMENT_3D('Plane Axis2P3D',#412,#413,#414) ;
#446=AXIS2_PLACEMENT_3D('Plane Axis2P3D',#443,#444,#445) ;
#477=AXIS2_PLACEMENT_3D('Plane Axis2P3D',#474,#475,#476) ;
#499=AXIS2_PLACEMENT_3D('Plane Axis2P3D',#496,#497,#498) ;
#511=AXIS2_PLACEMENT_3D('Plane Axis2P3D',#508,#509,#510) ;
#528=AXIS2_PLACEMENT_3D(' ',#531,#535,#534) ;
#529=AXIS2_PLACEMENT_3D(' ',#530,#533,#532) ;
#555=AXIS2_PLACEMENT_3D(' ',#558,#562,#561) ;
#556=AXIS2_PLACEMENT_3D(' ',#557,#560,#559) ;
#45=PRODUCT_DEFINITION_SHAPE(' ',' ',#17) ;
#59=PRODUCT_DEFINITION_SHAPE(' ',' ',#56) ;
#349=PRODUCT_DEFINITION_SHAPE(' ',' ',#348) ;
#370=PRODUCT_DEFINITION_SHAPE(' ',' ',#367) ;
#524=PRODUCT_DEFINITION_SHAPE(' ',' ',#523) ;
#545=PRODUCT_DEFINITION_SHAPE(' ',' ',#542) ;
#551=PRODUCT_DEFINITION_SHAPE(' ',' ',#550) ;
#34=APPROVAL_PERSON_ORGANIZATION(#28,#24,#22) ;
#28=PERSON_AND_ORGANIZATION(#25,#26) ;
#25=PERSON(' ',' ',' ',$,$,$) ;
#26=ORGANIZATION(' ',' ',' ') ;
#24=APPROVAL(#23,' ') ;
#23=APPROVAL_STATUS('not_yet_approved') ;
#22=APPROVAL_ROLE('APPROVER') ;
#13=DATE_AND_TIME(#11,#12) ;
#12=LOCAL_TIME(20,18,44.,#10) ;
#10=COORDINATED_UNIVERSAL_TIME_OFFSET(0,0,.AHEAD.) ;
#95=ORIENTED_EDGE('',*,*,#74,.F.) ;
#96=ORIENTED_EDGE('',*,*,#81,.T.) ;
#97=ORIENTED_EDGE('',*,*,#88,.T.) ;
#98=ORIENTED_EDGE('',*,*,#93,.F.) ;
#126=ORIENTED_EDGE('',*,*,#88,.F.) ;
#127=ORIENTED_EDGE('',*,*,#112,.T.) ;
#128=ORIENTED_EDGE('',*,*,#119,.T.) ;
#129=ORIENTED_EDGE('',*,*,#124,.F.) ;
#157=ORIENTED_EDGE('',*,*,#119,.F.) ;
#158=ORIENTED_EDGE('',*,*,#143,.T.) ;
#159=ORIENTED_EDGE('',*,*,#150,.T.) ;
#160=ORIENTED_EDGE('',*,*,#155,.F.) ;
#179=ORIENTED_EDGE('',*,*,#150,.F.) ;
#180=ORIENTED_EDGE('',*,*,#172,.T.) ;
#181=ORIENTED_EDGE('',*,*,#74,.T.) ;
#182=ORIENTED_EDGE('',*,*,#177,.F.) ;
#219=ORIENTED_EDGE('',*,*,#198,.T.) ;
#220=ORIENTED_EDGE('',*,*,#205,.F.) ;
#221=ORIENTED_EDGE('',*,*,#212,.F.) ;
#222=ORIENTED_EDGE('',*,*,#217,.T.) ;
#250=ORIENTED_EDGE('',*,*,#236,.T.) ;
#251=ORIENTED_EDGE('',*,*,#217,.F.) ;
#252=ORIENTED_EDGE('',*,*,#243,.F.) ;
#253=ORIENTED_EDGE('',*,*,#248,.T.) ;
#281=ORIENTED_EDGE('',*,*,#267,.T.) ;
#282=ORIENTED_EDGE('',*,*,#248,.F.) ;
#283=ORIENTED_EDGE('',*,*,#274,.F.) ;
#284=ORIENTED_EDGE('',*,*,#279,.T.) ;
#303=ORIENTED_EDGE('',*,*,#296,.T.) ;
#304=ORIENTED_EDGE('',*,*,#279,.F.) ;
#305=ORIENTED_EDGE('',*,*,#301,.F.) ;
#306=ORIENTED_EDGE('',*,*,#205,.T.) ;
#315=ORIENTED_EDGE('',*,*,#172,.F.) ;
#316=ORIENTED_EDGE('',*,*,#143,.F.) ;
#317=ORIENTED_EDGE('',*,*,#112,.F.) ;
#318=ORIENTED_EDGE('',*,*,#81,.F.) ;
#321=ORIENTED_EDGE('',*,*,#301,.T.) ;
#322=ORIENTED_EDGE('',*,*,#274,.T.) ;
#323=ORIENTED_EDGE('',*,*,#243,.T.) ;
#324=ORIENTED_EDGE('',*,*,#212,.T.) ;
#333=ORIENTED_EDGE('',*,*,#93,.T.) ;
#334=ORIENTED_EDGE('',*,*,#124,.T.) ;
#335=ORIENTED_EDGE('',*,*,#155,.T.) ;
#336=ORIENTED_EDGE('',*,*,#177,.T.) ;
#339=ORIENTED_EDGE('',*,*,#198,.F.) ;
#340=ORIENTED_EDGE('',*,*,#236,.F.) ;
#341=ORIENTED_EDGE('',*,*,#267,.F.) ;
#342=ORIENTED_EDGE('',*,*,#296,.F.) ;
#406=ORIENTED_EDGE('',*,*,#385,.F.) ;
#407=ORIENTED_EDGE('',*,*,#392,.T.) ;
#408=ORIENTED_EDGE('',*,*,#399,.T.) ;
#409=ORIENTED_EDGE('',*,*,#404,.F.) ;
#437=ORIENTED_EDGE('',*,*,#399,.F.) ;
#438=ORIENTED_EDGE('',*,*,#423,.T.) ;
#439=ORIENTED_EDGE('',*,*,#430,.T.) ;
#440=ORIENTED_EDGE('',*,*,#435,.F.) ;
#468=ORIENTED_EDGE('',*,*,#430,.F.) ;
#469=ORIENTED_EDGE('',*,*,#454,.T.) ;
#470=ORIENTED_EDGE('',*,*,#461,.T.) ;
#471=ORIENTED_EDGE('',*,*,#466,.F.) ;
#490=ORIENTED_EDGE('',*,*,#461,.F.) ;
#491=ORIENTED_EDGE('',*,*,#483,.T.) ;
#492=ORIENTED_EDGE('',*,*,#385,.T.) ;
#493=ORIENTED_EDGE('',*,*,#488,.F.) ;
#502=ORIENTED_EDGE('',*,*,#483,.F.) ;
#503=ORIENTED_EDGE('',*,*,#454,.F.) ;
#504=ORIENTED_EDGE('',*,*,#423,.F.) ;
#505=ORIENTED_EDGE('',*,*,#392,.F.) ;
#514=ORIENTED_EDGE('',*,*,#404,.T.) ;
#515=ORIENTED_EDGE('',*,*,#435,.T.) ;
#516=ORIENTED_EDGE('',*,*,#466,.T.) ;
#517=ORIENTED_EDGE('',*,*,#488,.T.) ;
#325=FACE_BOUND('',#320,.T.) ;
#343=FACE_BOUND('',#338,.T.) ;
#60=CLOSED_SHELL('Closed Shell',(#100,#131,#162,#184,#224,#255,#286,#308,#326,#344)) ;
#371=CLOSED_SHELL('Closed Shell',(#411,#442,#473,#495,#507,#519)) ;
#352=ITEM_DEFINED_TRANSFORMATION(' ',' ',#354,#353) ;
#527=ITEM_DEFINED_TRANSFORMATION(' ',' ',#529,#528) ;
#554=ITEM_DEFINED_TRANSFORMATION(' ',' ',#556,#555) ;
#68=VECTOR('Line Direction',#67,1.) ;
#77=VECTOR('Line Direction',#76,1.) ;
#84=VECTOR('Line Direction',#83,1.) ;
#91=VECTOR('Line Direction',#90,1.) ;
#108=VECTOR('Line Direction',#107,1.) ;
#115=VECTOR('Line Direction',#114,1.) ;
#122=VECTOR('Line Direction',#121,1.) ;
#139=VECTOR('Line Direction',#138,1.) ;
#146=VECTOR('Line Direction',#145,1.) ;
#153=VECTOR('Line Direction',#152,1.) ;
#170=VECTOR('Line Direction',#169,1.) ;
#175=VECTOR('Line Direction',#174,1.) ;
#192=VECTOR('Line Direction',#191,1.) ;
#201=VECTOR('Line Direction',#200,1.) ;
#208=VECTOR('Line Direction',#207,1.) ;
#215=VECTOR('Line Direction',#214,1.) ;
#232=VECTOR('Line Direction',#231,1.) ;
#239=VECTOR('Line Direction',#238,1.) ;
#246=VECTOR('Line Direction',#245,1.) ;
#263=VECTOR('Line Direction',#262,1.) ;
#270=VECTOR('Line Direction',#269,1.) ;
#277=VECTOR('Line Direction',#276,1.) ;
#294=VECTOR('Line Direction',#293,1.) ;
#299=VECTOR('Line Direction',#298,1.) ;
#379=VECTOR('Line Direction',#378,1.) ;
#388=VECTOR('Line Direction',#387,1.) ;
#395=VECTOR('Line Direction',#394,1.) ;
#402=VECTOR('Line Direction',#401,1.) ;
#419=VECTOR('Line Direction',#418,1.) ;
#426=VECTOR('Line Direction',#425,1.) ;
#433=VECTOR('Line Direction',#432,1.) ;
#450=VECTOR('Line Direction',#449,1.) ;
#457=VECTOR('Line Direction',#456,1.) ;
#464=VECTOR('Line Direction',#463,1.) ;
#481=VECTOR('Line Direction',#480,1.) ;
#486=VECTOR('Line Direction',#485,1.) ;
#346=ADVANCED_BREP_SHAPE_REPRESENTATION('NONE',(#345),#51) ;
#521=ADVANCED_BREP_SHAPE_REPRESENTATION('NONE',(#520),#51) ;
#44=SHAPE_REPRESENTATION(' ',(#353,#528,#555),#51) ;
#52=SHAPE_REPRESENTATION(' ',(#354),#362) ;
#363=SHAPE_REPRESENTATION(' ',(#529),#537) ;
#538=SHAPE_REPRESENTATION(' ',(#556),#564) ;
#100=ADVANCED_FACE('PartBody',(#99),#65,.F.) ;
#131=ADVANCED_FACE('PartBody',(#130),#105,.T.) ;
#162=ADVANCED_FACE('PartBody',(#161),#136,.F.) ;
#184=ADVANCED_FACE('PartBody',(#183),#167,.T.) ;
#224=ADVANCED_FACE('PartBody',(#223),#189,.F.) ;
#255=ADVANCED_FACE('PartBody',(#254),#229,.T.) ;
#286=ADVANCED_FACE('PartBody',(#285),#260,.F.) ;
#308=ADVANCED_FACE('PartBody',(#307),#291,.T.) ;
#326=ADVANCED_FACE('PartBody',(#319,#325),#313,.F.) ;
#344=ADVANCED_FACE('PartBody',(#337,#343),#331,.T.) ;
#411=ADVANCED_FACE('PartBody',(#410),#376,.F.) ;
#442=ADVANCED_FACE('PartBody',(#441),#416,.T.) ;
#473=ADVANCED_FACE('PartBody',(#472),#447,.F.) ;
#495=ADVANCED_FACE('PartBody',(#494),#478,.T.) ;
#507=ADVANCED_FACE('PartBody',(#506),#500,.F.) ;
#519=ADVANCED_FACE('PartBody',(#518),#512,.T.) ;
#4=APPLICATION_PROTOCOL_DEFINITION('international standard','config_control_design',1994,#1) ;
#35=APPROVAL_DATE_TIME(#13,#24) ;
#345=MANIFOLD_SOLID_BREP('PartBody',#60) ;
#520=MANIFOLD_SOLID_BREP('PartBody',#371) ;
#11=CALENDAR_DATE(2025,25,4) ;
#33=CC_DESIGN_APPROVAL(#24,(#19,#6,#17)) ;
#21=CC_DESIGN_DATE_AND_TIME_ASSIGNMENT(#13,#20,(#19)) ;
#32=CC_DESIGN_DATE_AND_TIME_ASSIGNMENT(#13,#31,(#17)) ;
#20=DATE_TIME_ROLE('classification_date') ;
#31=DATE_TIME_ROLE('creation_date') ;
#30=CC_DESIGN_PERSON_AND_ORGANIZATION_ASSIGNMENT(#28,#29,(#19)) ;
#36=CC_DESIGN_PERSON_AND_ORGANIZATION_ASSIGNMENT(#28,#37,(#6)) ;
#38=CC_DESIGN_PERSON_AND_ORGANIZATION_ASSIGNMENT(#28,#39,(#6,#17)) ;
#40=CC_DESIGN_PERSON_AND_ORGANIZATION_ASSIGNMENT(#28,#41,(#5)) ;
#29=PERSON_AND_ORGANIZATION_ROLE('classification_officer') ;
#37=PERSON_AND_ORGANIZATION_ROLE('design_supplier') ;
#39=PERSON_AND_ORGANIZATION_ROLE('creator') ;
#41=PERSON_AND_ORGANIZATION_ROLE('design_owner') ;
#42=CC_DESIGN_SECURITY_CLASSIFICATION(#19,(#6,#348,#523,#550)) ;
#58=DOCUMENT('3','Exterior usa mare.CATPart','CATPart document',#57) ;
#369=DOCUMENT('4','Interior usa mare.CATPart','CATPart document',#368) ;
#544=DOCUMENT('5','Punct de referinta.CATPart','CATPart document',#543) ;
#57=DOCUMENT_TYPE('') ;
#368=DOCUMENT_TYPE('') ;
#543=DOCUMENT_TYPE('') ;
#350=CONTEXT_DEPENDENT_SHAPE_REPRESENTATION(#351,#349) ;
#525=CONTEXT_DEPENDENT_SHAPE_REPRESENTATION(#526,#524) ;
#552=CONTEXT_DEPENDENT_SHAPE_REPRESENTATION(#553,#551) ;
#347=SHAPE_REPRESENTATION_RELATIONSHIP(' ',' ',#52,#346) ;
#522=SHAPE_REPRESENTATION_RELATIONSHIP(' ',' ',#363,#521) ;
#549=SHAPE_REPRESENTATION_RELATIONSHIP(' ',' ',#538,#547) ;
#3=DESIGN_CONTEXT(' ',#1,'design') ;
#74=EDGE_CURVE('',#71,#73,#69,.T.) ;
#81=EDGE_CURVE('',#71,#80,#78,.F.) ;
#88=EDGE_CURVE('',#80,#87,#85,.T.) ;
#93=EDGE_CURVE('',#73,#87,#92,.F.) ;
#112=EDGE_CURVE('',#80,#111,#109,.T.) ;
#119=EDGE_CURVE('',#111,#118,#116,.T.) ;
#124=EDGE_CURVE('',#87,#118,#123,.T.) ;
#143=EDGE_CURVE('',#111,#142,#140,.F.) ;
#150=EDGE_CURVE('',#142,#149,#147,.T.) ;
#155=EDGE_CURVE('',#118,#149,#154,.F.) ;
#172=EDGE_CURVE('',#142,#71,#171,.T.) ;
#177=EDGE_CURVE('',#149,#73,#176,.T.) ;
#198=EDGE_CURVE('',#195,#197,#193,.T.) ;
#205=EDGE_CURVE('',#204,#197,#202,.T.) ;
#212=EDGE_CURVE('',#211,#204,#209,.T.) ;
#217=EDGE_CURVE('',#211,#195,#216,.T.) ;
#236=EDGE_CURVE('',#235,#195,#233,.F.) ;
#243=EDGE_CURVE('',#242,#211,#240,.F.) ;
#248=EDGE_CURVE('',#242,#235,#247,.T.) ;
#267=EDGE_CURVE('',#266,#235,#264,.T.) ;
#274=EDGE_CURVE('',#273,#242,#271,.T.) ;
#279=EDGE_CURVE('',#273,#266,#278,.T.) ;
#296=EDGE_CURVE('',#197,#266,#295,.F.) ;
#301=EDGE_CURVE('',#204,#273,#300,.F.) ;
#385=EDGE_CURVE('',#382,#384,#380,.T.) ;
#392=EDGE_CURVE('',#382,#391,#389,.F.) ;
#399=EDGE_CURVE('',#391,#398,#396,.T.) ;
#404=EDGE_CURVE('',#384,#398,#403,.F.) ;
#423=EDGE_CURVE('',#391,#422,#420,.T.) ;
#430=EDGE_CURVE('',#422,#429,#427,.T.) ;
#435=EDGE_CURVE('',#398,#429,#434,.T.) ;
#454=EDGE_CURVE('',#422,#453,#451,.F.) ;
#461=EDGE_CURVE('',#453,#460,#458,.T.) ;
#466=EDGE_CURVE('',#429,#460,#465,.F.) ;
#483=EDGE_CURVE('',#453,#382,#482,.T.) ;
#488=EDGE_CURVE('',#460,#384,#487,.T.) ;
#94=EDGE_LOOP('',(#95,#96,#97,#98)) ;
#125=EDGE_LOOP('',(#126,#127,#128,#129)) ;
#156=EDGE_LOOP('',(#157,#158,#159,#160)) ;
#178=EDGE_LOOP('',(#179,#180,#181,#182)) ;
#218=EDGE_LOOP('',(#219,#220,#221,#222)) ;
#249=EDGE_LOOP('',(#250,#251,#252,#253)) ;
#280=EDGE_LOOP('',(#281,#282,#283,#284)) ;
#302=EDGE_LOOP('',(#303,#304,#305,#306)) ;
#314=EDGE_LOOP('',(#315,#316,#317,#318)) ;
#320=EDGE_LOOP('',(#321,#322,#323,#324)) ;
#332=EDGE_LOOP('',(#333,#334,#335,#336)) ;
#338=EDGE_LOOP('',(#339,#340,#341,#342)) ;
#405=EDGE_LOOP('',(#406,#407,#408,#409)) ;
#436=EDGE_LOOP('',(#437,#438,#439,#440)) ;
#467=EDGE_LOOP('',(#468,#469,#470,#471)) ;
#489=EDGE_LOOP('',(#490,#491,#492,#493)) ;
#501=EDGE_LOOP('',(#502,#503,#504,#505)) ;
#513=EDGE_LOOP('',(#514,#515,#516,#517)) ;
#99=FACE_OUTER_BOUND('',#94,.T.) ;
#130=FACE_OUTER_BOUND('',#125,.T.) ;
#161=FACE_OUTER_BOUND('',#156,.T.) ;
#183=FACE_OUTER_BOUND('',#178,.T.) ;
#223=FACE_OUTER_BOUND('',#218,.T.) ;
#254=FACE_OUTER_BOUND('',#249,.T.) ;
#285=FACE_OUTER_BOUND('',#280,.T.) ;
#307=FACE_OUTER_BOUND('',#302,.T.) ;
#319=FACE_OUTER_BOUND('',#314,.T.) ;
#337=FACE_OUTER_BOUND('',#332,.T.) ;
#410=FACE_OUTER_BOUND('',#405,.T.) ;
#441=FACE_OUTER_BOUND('',#436,.T.) ;
#472=FACE_OUTER_BOUND('',#467,.T.) ;
#494=FACE_OUTER_BOUND('',#489,.T.) ;
#506=FACE_OUTER_BOUND('',#501,.T.) ;
#518=FACE_OUTER_BOUND('',#513,.T.) ;
#548=GEOMETRIC_SET('NONE',(#546)) ;
#547=GEOMETRICALLY_BOUNDED_SURFACE_SHAPE_REPRESENTATION('NONE',(#548),#51) ;
#50=UNCERTAINTY_MEASURE_WITH_UNIT(LENGTH_MEASURE(0.005),#46,'distance_accuracy_value','CONFUSED CURVE UNCERTAINTY') ;
#361=UNCERTAINTY_MEASURE_WITH_UNIT(LENGTH_MEASURE(0.005),#46,'distance_accuracy_value','CONFUSED CURVE UNCERTAINTY') ;
#536=UNCERTAINTY_MEASURE_WITH_UNIT(LENGTH_MEASURE(0.005),#46,'distance_accuracy_value','CONFUSED CURVE UNCERTAINTY') ;
#563=UNCERTAINTY_MEASURE_WITH_UNIT(LENGTH_MEASURE(0.005),#46,'distance_accuracy_value','CONFUSED CURVE UNCERTAINTY') ;
#69=LINE('Line',#66,#68) ;
#78=LINE('Line',#75,#77) ;
#85=LINE('Line',#82,#84) ;
#92=LINE('Line',#89,#91) ;
#109=LINE('Line',#106,#108) ;
#116=LINE('Line',#113,#115) ;
#123=LINE('Line',#120,#122) ;
#140=LINE('Line',#137,#139) ;
#147=LINE('Line',#144,#146) ;
#154=LINE('Line',#151,#153) ;
#171=LINE('Line',#168,#170) ;
#176=LINE('Line',#173,#175) ;
#193=LINE('Line',#190,#192) ;
#202=LINE('Line',#199,#201) ;
#209=LINE('Line',#206,#208) ;
#216=LINE('Line',#213,#215) ;
#233=LINE('Line',#230,#232) ;
#240=LINE('Line',#237,#239) ;
#247=LINE('Line',#244,#246) ;
#264=LINE('Line',#261,#263) ;
#271=LINE('Line',#268,#270) ;
#278=LINE('Line',#275,#277) ;
#295=LINE('Line',#292,#294) ;
#300=LINE('Line',#297,#299) ;
#380=LINE('Line',#377,#379) ;
#389=LINE('Line',#386,#388) ;
#396=LINE('Line',#393,#395) ;
#403=LINE('Line',#400,#402) ;
#420=LINE('Line',#417,#419) ;
#427=LINE('Line',#424,#426) ;
#434=LINE('Line',#431,#433) ;
#451=LINE('Line',#448,#450) ;
#458=LINE('Line',#455,#457) ;
#465=LINE('Line',#462,#464) ;
#482=LINE('Line',#479,#481) ;
#487=LINE('Line',#484,#486) ;
#2=MECHANICAL_CONTEXT(' ',#1,'mechanical') ;
#348=NEXT_ASSEMBLY_USAGE_OCCURRENCE('Part12.1','Part12.1','',#17,#56,' ') ;
#523=NEXT_ASSEMBLY_USAGE_OCCURRENCE('Part12.2','Part12.2','',#17,#367,' ') ;
#550=NEXT_ASSEMBLY_USAGE_OCCURRENCE('Part12.1.2.1','Part12.1.2.1','',#17,#542,' ') ;
#27=PERSONAL_ADDRESS(' ',' ',' ',' ',' ',' ',' ',' ',' ',' ',' ',' ',(#25),' ') ;
#65=PLANE('Plane',#64) ;
#105=PLANE('Plane',#104) ;
#136=PLANE('Plane',#135) ;
#167=PLANE('Plane',#166) ;
#189=PLANE('Plane',#188) ;
#229=PLANE('Plane',#228) ;
#260=PLANE('Plane',#259) ;
#291=PLANE('Plane',#290) ;
#313=PLANE('Plane',#312) ;
#331=PLANE('Plane',#330) ;
#376=PLANE('Plane',#375) ;
#416=PLANE('Plane',#415) ;
#447=PLANE('Plane',#446) ;
#478=PLANE('Plane',#477) ;
#500=PLANE('Plane',#499) ;
#512=PLANE('Plane',#511) ;
#48=PLANE_ANGLE_MEASURE_WITH_UNIT(PLANE_ANGLE_MEASURE(0.0174532925199),#47) ;
#7=PRODUCT_CATEGORY('part',$) ;
#14=PRODUCT_CATEGORY('part',$) ;
#9=PRODUCT_CATEGORY_RELATIONSHIP(' ',' ',#7,#8) ;
#16=PRODUCT_CATEGORY_RELATIONSHIP(' ',' ',#14,#15) ;
#6=PRODUCT_DEFINITION_FORMATION_WITH_SPECIFIED_SOURCE('',' ',#5,.NOT_KNOWN.) ;
#55=PRODUCT_DEFINITION_FORMATION_WITH_SPECIFIED_SOURCE('',' ',#54,.NOT_KNOWN.) ;
#366=PRODUCT_DEFINITION_FORMATION_WITH_SPECIFIED_SOURCE('',' ',#365,.NOT_KNOWN.) ;
#541=PRODUCT_DEFINITION_FORMATION_WITH_SPECIFIED_SOURCE('',' ',#540,.NOT_KNOWN.) ;
#56=PRODUCT_DEFINITION_WITH_ASSOCIATED_DOCUMENTS('Part12',' ',#55,#3,(#58)) ;
#367=PRODUCT_DEFINITION_WITH_ASSOCIATED_DOCUMENTS('Part12.1',' ',#366,#3,(#369)) ;
#542=PRODUCT_DEFINITION_WITH_ASSOCIATED_DOCUMENTS('Part12.1.2',' ',#541,#3,(#544)) ;
#8=PRODUCT_RELATED_PRODUCT_CATEGORY('detail',$,(#54,#365,#540)) ;
#15=PRODUCT_RELATED_PRODUCT_CATEGORY('part',$,(#5)) ;
#43=SHAPE_DEFINITION_REPRESENTATION(#45,#44) ;
#53=SHAPE_DEFINITION_REPRESENTATION(#59,#52) ;
#364=SHAPE_DEFINITION_REPRESENTATION(#370,#363) ;
#539=SHAPE_DEFINITION_REPRESENTATION(#545,#538) ;
#71=VERTEX_POINT('',#70) ;
#73=VERTEX_POINT('',#72) ;
#80=VERTEX_POINT('',#79) ;
#87=VERTEX_POINT('',#86) ;
#111=VERTEX_POINT('',#110) ;
#118=VERTEX_POINT('',#117) ;
#142=VERTEX_POINT('',#141) ;
#149=VERTEX_POINT('',#148) ;
#195=VERTEX_POINT('',#194) ;
#197=VERTEX_POINT('',#196) ;
#204=VERTEX_POINT('',#203) ;
#211=VERTEX_POINT('',#210) ;
#235=VERTEX_POINT('',#234) ;
#242=VERTEX_POINT('',#241) ;
#266=VERTEX_POINT('',#265) ;
#273=VERTEX_POINT('',#272) ;
#382=VERTEX_POINT('',#381) ;
#384=VERTEX_POINT('',#383) ;
#391=VERTEX_POINT('',#390) ;
#398=VERTEX_POINT('',#397) ;
#422=VERTEX_POINT('',#421) ;
#429=VERTEX_POINT('',#428) ;
#453=VERTEX_POINT('',#452) ;
#460=VERTEX_POINT('',#459) ;
#46=(LENGTH_UNIT()NAMED_UNIT(*)SI_UNIT(.MILLI.,.METRE.)) ;
#47=(NAMED_UNIT(*)PLANE_ANGLE_UNIT()SI_UNIT($,.RADIAN.)) ;
#49=(NAMED_UNIT(*)SI_UNIT($,.STERADIAN.)SOLID_ANGLE_UNIT()) ;
#51=(GEOMETRIC_REPRESENTATION_CONTEXT(3)GLOBAL_UNCERTAINTY_ASSIGNED_CONTEXT((#50))GLOBAL_UNIT_ASSIGNED_CONTEXT((#46,#47,#49))REPRESENTATION_CONTEXT(' ',' ')) ;
#362=(GEOMETRIC_REPRESENTATION_CONTEXT(3)GLOBAL_UNCERTAINTY_ASSIGNED_CONTEXT((#361))GLOBAL_UNIT_ASSIGNED_CONTEXT((#46,#47,#49))REPRESENTATION_CONTEXT(' ',' ')) ;
#537=(GEOMETRIC_REPRESENTATION_CONTEXT(3)GLOBAL_UNCERTAINTY_ASSIGNED_CONTEXT((#536))GLOBAL_UNIT_ASSIGNED_CONTEXT((#46,#47,#49))REPRESENTATION_CONTEXT(' ',' ')) ;
#564=(GEOMETRIC_REPRESENTATION_CONTEXT(3)GLOBAL_UNCERTAINTY_ASSIGNED_CONTEXT((#563))GLOBAL_UNIT_ASSIGNED_CONTEXT((#46,#47,#49))REPRESENTATION_CONTEXT(' ',' ')) ;
#351=(REPRESENTATION_RELATIONSHIP(' ',' ',#52,#44)REPRESENTATION_RELATIONSHIP_WITH_TRANSFORMATION(#352)SHAPE_REPRESENTATION_RELATIONSHIP()) ;
#526=(REPRESENTATION_RELATIONSHIP(' ',' ',#363,#44)REPRESENTATION_RELATIONSHIP_WITH_TRANSFORMATION(#527)SHAPE_REPRESENTATION_RELATIONSHIP()) ;
#553=(REPRESENTATION_RELATIONSHIP(' ',' ',#538,#44)REPRESENTATION_RELATIONSHIP_WITH_TRANSFORMATION(#554)SHAPE_REPRESENTATION_RELATIONSHIP()) ;
ENDSEC;
END-ISO-10303-21;
