ISO-10303-21;
HEADER;
FILE_DESCRIPTION(('CATIA V5 STEP Exchange'),'2;1');

FILE_NAME('C:\\Users\\mnicu\\Desktop\\Client 2024\\Kyra sablage\\Rafat 3D models\\Right side origin\\Big simple door 3.stp','2025-04-17T20:13:36+00:00',('none'),('none'),'CATIA Version 5 Release 18 GA (IN-10)','CATIA V5 STEP AP203','none');

FILE_SCHEMA(('CONFIG_CONTROL_DESIGN'));

ENDSEC;
/* file written by CATIA V5R18 */
DATA;
#5=PRODUCT('Product3','','',(#2)) ;
#54=PRODUCT('Part12.1.2','','',(#2)) ;
#81=PRODUCT('Part12','','',(#2)) ;
#392=PRODUCT('Part12.1','','',(#2)) ;
#1=APPLICATION_CONTEXT('configuration controlled 3D design of mechanical parts and assemblies') ;
#17=PRODUCT_DEFINITION('Product3',' ',#6,#3) ;
#19=SECURITY_CLASSIFICATION(' ',' ',#18) ;
#18=SECURITY_CLASSIFICATION_LEVEL('unclassified') ;
#60=CARTESIAN_POINT('Sketch.1',(0.,0.,0.)) ;
#71=CARTESIAN_POINT('NONE',(0.,0.,0.)) ;
#72=CARTESIAN_POINT('NONE',(0.,0.,0.)) ;
#88=CARTESIAN_POINT('Axis2P3D Location',(0.,863.600000003,0.)) ;
#93=CARTESIAN_POINT('Line Origine',(0.,0.,9.52500000004)) ;
#97=CARTESIAN_POINT('Vertex',(0.,0.,0.)) ;
#99=CARTESIAN_POINT('Vertex',(0.,0.,19.0500000001)) ;
#102=CARTESIAN_POINT('Line Origine',(0.,431.800000002,0.)) ;
#106=CARTESIAN_POINT('Vertex',(0.,863.600000003,0.)) ;
#109=CARTESIAN_POINT('Line Origine',(0.,863.600000003,9.52500000004)) ;
#113=CARTESIAN_POINT('Vertex',(0.,863.600000003,19.0500000001)) ;
#116=CARTESIAN_POINT('Line Origine',(0.,431.800000002,19.0500000001)) ;
#128=CARTESIAN_POINT('Axis2P3D Location',(0.,863.600000003,0.)) ;
#133=CARTESIAN_POINT('Line Origine',(-1143.,863.600000003,0.)) ;
#137=CARTESIAN_POINT('Vertex',(-2286.00000001,863.600000003,0.)) ;
#140=CARTESIAN_POINT('Line Origine',(-2286.00000001,863.600000003,9.52500000004)) ;
#144=CARTESIAN_POINT('Vertex',(-2286.00000001,863.600000003,19.0500000001)) ;
#147=CARTESIAN_POINT('Line Origine',(-1143.,863.600000003,19.0500000001)) ;
#159=CARTESIAN_POINT('Axis2P3D Location',(-2286.00000001,0.,0.)) ;
#164=CARTESIAN_POINT('Line Origine',(-2286.00000001,431.800000002,0.)) ;
#168=CARTESIAN_POINT('Vertex',(-2286.00000001,0.,0.)) ;
#171=CARTESIAN_POINT('Line Origine',(-2286.00000001,0.,9.52500000004)) ;
#175=CARTESIAN_POINT('Vertex',(-2286.00000001,0.,19.0500000001)) ;
#178=CARTESIAN_POINT('Line Origine',(-2286.00000001,431.800000002,19.0500000001)) ;
#190=CARTESIAN_POINT('Axis2P3D Location',(-2286.00000001,0.,0.)) ;
#195=CARTESIAN_POINT('Line Origine',(-1143.,0.,0.)) ;
#200=CARTESIAN_POINT('Line Origine',(-1143.,0.,19.0500000001)) ;
#212=CARTESIAN_POINT('Axis2P3D Location',(-2228.85000001,57.1500000002,0.)) ;
#217=CARTESIAN_POINT('Line Origine',(-1143.,57.1500000002,19.0500000001)) ;
#221=CARTESIAN_POINT('Vertex',(-2228.85000001,57.1500000002,19.0500000001)) ;
#223=CARTESIAN_POINT('Vertex',(-57.1500000002,57.1500000002,19.0500000001)) ;
#226=CARTESIAN_POINT('Line Origine',(-57.1500000002,57.1500000002,9.52500000004)) ;
#230=CARTESIAN_POINT('Vertex',(-57.1500000002,57.1500000002,0.)) ;
#233=CARTESIAN_POINT('Line Origine',(-1143.,57.1500000002,0.)) ;
#237=CARTESIAN_POINT('Vertex',(-2228.85000001,57.1500000002,0.)) ;
#240=CARTESIAN_POINT('Line Origine',(-2228.85000001,57.1500000002,9.52500000004)) ;
#252=CARTESIAN_POINT('Axis2P3D Location',(-2228.85000001,57.1500000002,0.)) ;
#257=CARTESIAN_POINT('Line Origine',(-2228.85000001,431.800000002,19.0500000001)) ;
#261=CARTESIAN_POINT('Vertex',(-2228.85000001,806.450000003,19.0500000001)) ;
#264=CARTESIAN_POINT('Line Origine',(-2228.85000001,431.800000002,0.)) ;
#268=CARTESIAN_POINT('Vertex',(-2228.85000001,806.450000003,0.)) ;
#271=CARTESIAN_POINT('Line Origine',(-2228.85000001,806.450000003,9.52500000004)) ;
#283=CARTESIAN_POINT('Axis2P3D Location',(-57.1500000002,806.450000003,0.)) ;
#288=CARTESIAN_POINT('Line Origine',(-1143.,806.450000003,19.0500000001)) ;
#292=CARTESIAN_POINT('Vertex',(-57.1500000002,806.450000003,19.0500000001)) ;
#295=CARTESIAN_POINT('Line Origine',(-1143.,806.450000003,0.)) ;
#299=CARTESIAN_POINT('Vertex',(-57.1500000002,806.450000003,0.)) ;
#302=CARTESIAN_POINT('Line Origine',(-57.1500000002,806.450000003,9.52500000004)) ;
#314=CARTESIAN_POINT('Axis2P3D Location',(-57.1500000002,806.450000003,0.)) ;
#319=CARTESIAN_POINT('Line Origine',(-57.1500000002,431.800000002,19.0500000001)) ;
#324=CARTESIAN_POINT('Line Origine',(-57.1500000002,431.800000002,0.)) ;
#336=CARTESIAN_POINT('Axis2P3D Location',(0.,0.,0.)) ;
#354=CARTESIAN_POINT('Axis2P3D Location',(0.,0.,19.0500000001)) ;
#382=CARTESIAN_POINT('NONE',(0.,0.,0.)) ;
#383=CARTESIAN_POINT('NONE',(0.,0.,0.)) ;
#399=CARTESIAN_POINT('Axis2P3D Location',(0.,749.300000003,0.)) ;
#404=CARTESIAN_POINT('Line Origine',(0.,0.,4.76250000002)) ;
#408=CARTESIAN_POINT('Vertex',(0.,0.,0.)) ;
#410=CARTESIAN_POINT('Vertex',(0.,0.,9.52500000004)) ;
#413=CARTESIAN_POINT('Line Origine',(0.,374.650000001,0.)) ;
#417=CARTESIAN_POINT('Vertex',(0.,749.300000003,0.)) ;
#420=CARTESIAN_POINT('Line Origine',(0.,749.300000003,4.76250000002)) ;
#424=CARTESIAN_POINT('Vertex',(0.,749.300000003,9.52500000004)) ;
#427=CARTESIAN_POINT('Line Origine',(0.,374.650000001,9.52500000004)) ;
#439=CARTESIAN_POINT('Axis2P3D Location',(0.,749.300000003,0.)) ;
#444=CARTESIAN_POINT('Line Origine',(-1085.85,749.300000003,0.)) ;
#448=CARTESIAN_POINT('Vertex',(-2171.70000001,749.300000003,0.)) ;
#451=CARTESIAN_POINT('Line Origine',(-2171.70000001,749.300000003,4.76250000002)) ;
#455=CARTESIAN_POINT('Vertex',(-2171.70000001,749.300000003,9.52500000004)) ;
#458=CARTESIAN_POINT('Line Origine',(-1085.85,749.300000003,9.52500000004)) ;
#470=CARTESIAN_POINT('Axis2P3D Location',(-2171.70000001,0.,0.)) ;
#475=CARTESIAN_POINT('Line Origine',(-2171.70000001,374.650000001,0.)) ;
#479=CARTESIAN_POINT('Vertex',(-2171.70000001,0.,0.)) ;
#482=CARTESIAN_POINT('Line Origine',(-2171.70000001,0.,4.76250000002)) ;
#486=CARTESIAN_POINT('Vertex',(-2171.70000001,0.,9.52500000004)) ;
#489=CARTESIAN_POINT('Line Origine',(-2171.70000001,374.650000001,9.52500000004)) ;
#501=CARTESIAN_POINT('Axis2P3D Location',(-2171.70000001,0.,0.)) ;
#506=CARTESIAN_POINT('Line Origine',(-1085.85,0.,0.)) ;
#511=CARTESIAN_POINT('Line Origine',(-1085.85,0.,9.52500000004)) ;
#523=CARTESIAN_POINT('Axis2P3D Location',(0.,0.,0.)) ;
#535=CARTESIAN_POINT('Axis2P3D Location',(0.,0.,9.52500000004)) ;
#557=CARTESIAN_POINT('NONE',(0.,0.,0.)) ;
#558=CARTESIAN_POINT('NONE',(-57.1500000002,57.1500000002,0.)) ;
#73=DIRECTION('NONE',(1.,0.,0.)) ;
#74=DIRECTION('NONE',(0.,0.,1.)) ;
#75=DIRECTION('NONE',(1.,0.,0.)) ;
#76=DIRECTION('NONE',(0.,0.,1.)) ;
#89=DIRECTION('Axis2P3D Direction',(-1.,0.,0.)) ;
#90=DIRECTION('Axis2P3D XDirection',(0.,-1.,0.)) ;
#94=DIRECTION('Vector Direction',(0.,0.,1.)) ;
#103=DIRECTION('Vector Direction',(0.,-1.,0.)) ;
#110=DIRECTION('Vector Direction',(0.,0.,1.)) ;
#117=DIRECTION('Vector Direction',(0.,-1.,0.)) ;
#129=DIRECTION('Axis2P3D Direction',(0.,1.,-0.)) ;
#130=DIRECTION('Axis2P3D XDirection',(-1.,0.,0.)) ;
#134=DIRECTION('Vector Direction',(-1.,0.,0.)) ;
#141=DIRECTION('Vector Direction',(0.,0.,1.)) ;
#148=DIRECTION('Vector Direction',(-1.,0.,0.)) ;
#160=DIRECTION('Axis2P3D Direction',(1.,0.,0.)) ;
#161=DIRECTION('Axis2P3D XDirection',(0.,1.,0.)) ;
#165=DIRECTION('Vector Direction',(0.,1.,0.)) ;
#172=DIRECTION('Vector Direction',(0.,0.,1.)) ;
#179=DIRECTION('Vector Direction',(0.,1.,0.)) ;
#191=DIRECTION('Axis2P3D Direction',(0.,-1.,0.)) ;
#192=DIRECTION('Axis2P3D XDirection',(1.,0.,0.)) ;
#196=DIRECTION('Vector Direction',(1.,0.,0.)) ;
#201=DIRECTION('Vector Direction',(1.,0.,0.)) ;
#213=DIRECTION('Axis2P3D Direction',(0.,-1.,0.)) ;
#214=DIRECTION('Axis2P3D XDirection',(1.,0.,0.)) ;
#218=DIRECTION('Vector Direction',(1.,0.,0.)) ;
#227=DIRECTION('Vector Direction',(0.,0.,1.)) ;
#234=DIRECTION('Vector Direction',(1.,0.,0.)) ;
#241=DIRECTION('Vector Direction',(0.,0.,1.)) ;
#253=DIRECTION('Axis2P3D Direction',(1.,0.,0.)) ;
#254=DIRECTION('Axis2P3D XDirection',(0.,1.,0.)) ;
#258=DIRECTION('Vector Direction',(0.,1.,0.)) ;
#265=DIRECTION('Vector Direction',(0.,1.,0.)) ;
#272=DIRECTION('Vector Direction',(0.,0.,1.)) ;
#284=DIRECTION('Axis2P3D Direction',(0.,1.,-0.)) ;
#285=DIRECTION('Axis2P3D XDirection',(-1.,0.,0.)) ;
#289=DIRECTION('Vector Direction',(-1.,0.,0.)) ;
#296=DIRECTION('Vector Direction',(-1.,0.,0.)) ;
#303=DIRECTION('Vector Direction',(0.,0.,1.)) ;
#315=DIRECTION('Axis2P3D Direction',(-1.,0.,0.)) ;
#316=DIRECTION('Axis2P3D XDirection',(0.,-1.,0.)) ;
#320=DIRECTION('Vector Direction',(0.,-1.,0.)) ;
#325=DIRECTION('Vector Direction',(0.,-1.,0.)) ;
#337=DIRECTION('Axis2P3D Direction',(0.,0.,1.)) ;
#338=DIRECTION('Axis2P3D XDirection',(1.,0.,0.)) ;
#355=DIRECTION('Axis2P3D Direction',(0.,0.,1.)) ;
#356=DIRECTION('Axis2P3D XDirection',(1.,0.,0.)) ;
#384=DIRECTION('NONE',(1.,0.,0.)) ;
#385=DIRECTION('NONE',(0.,0.,1.)) ;
#386=DIRECTION('NONE',(1.,0.,0.)) ;
#387=DIRECTION('NONE',(0.,0.,1.)) ;
#400=DIRECTION('Axis2P3D Direction',(-1.,0.,0.)) ;
#401=DIRECTION('Axis2P3D XDirection',(0.,-1.,0.)) ;
#405=DIRECTION('Vector Direction',(0.,0.,1.)) ;
#414=DIRECTION('Vector Direction',(0.,-1.,0.)) ;
#421=DIRECTION('Vector Direction',(0.,0.,1.)) ;
#428=DIRECTION('Vector Direction',(0.,-1.,0.)) ;
#440=DIRECTION('Axis2P3D Direction',(0.,1.,-0.)) ;
#441=DIRECTION('Axis2P3D XDirection',(-1.,0.,0.)) ;
#445=DIRECTION('Vector Direction',(-1.,0.,0.)) ;
#452=DIRECTION('Vector Direction',(0.,0.,1.)) ;
#459=DIRECTION('Vector Direction',(-1.,0.,0.)) ;
#471=DIRECTION('Axis2P3D Direction',(1.,0.,0.)) ;
#472=DIRECTION('Axis2P3D XDirection',(0.,1.,0.)) ;
#476=DIRECTION('Vector Direction',(0.,1.,0.)) ;
#483=DIRECTION('Vector Direction',(0.,0.,1.)) ;
#490=DIRECTION('Vector Direction',(0.,1.,0.)) ;
#502=DIRECTION('Axis2P3D Direction',(0.,-1.,0.)) ;
#503=DIRECTION('Axis2P3D XDirection',(1.,0.,0.)) ;
#507=DIRECTION('Vector Direction',(1.,0.,0.)) ;
#512=DIRECTION('Vector Direction',(1.,0.,0.)) ;
#524=DIRECTION('Axis2P3D Direction',(0.,0.,1.)) ;
#525=DIRECTION('Axis2P3D XDirection',(1.,0.,0.)) ;
#536=DIRECTION('Axis2P3D Direction',(0.,0.,1.)) ;
#537=DIRECTION('Axis2P3D XDirection',(1.,0.,0.)) ;
#559=DIRECTION('NONE',(1.,0.,0.)) ;
#560=DIRECTION('NONE',(0.,0.,1.)) ;
#561=DIRECTION('NONE',(1.,0.,0.)) ;
#562=DIRECTION('NONE',(0.,0.,1.)) ;
#69=AXIS2_PLACEMENT_3D(' ',#72,#76,#75) ;
#70=AXIS2_PLACEMENT_3D(' ',#71,#74,#73) ;
#91=AXIS2_PLACEMENT_3D('Plane Axis2P3D',#88,#89,#90) ;
#131=AXIS2_PLACEMENT_3D('Plane Axis2P3D',#128,#129,#130) ;
#162=AXIS2_PLACEMENT_3D('Plane Axis2P3D',#159,#160,#161) ;
#193=AXIS2_PLACEMENT_3D('Plane Axis2P3D',#190,#191,#192) ;
#215=AXIS2_PLACEMENT_3D('Plane Axis2P3D',#212,#213,#214) ;
#255=AXIS2_PLACEMENT_3D('Plane Axis2P3D',#252,#253,#254) ;
#286=AXIS2_PLACEMENT_3D('Plane Axis2P3D',#283,#284,#285) ;
#317=AXIS2_PLACEMENT_3D('Plane Axis2P3D',#314,#315,#316) ;
#339=AXIS2_PLACEMENT_3D('Plane Axis2P3D',#336,#337,#338) ;
#357=AXIS2_PLACEMENT_3D('Plane Axis2P3D',#354,#355,#356) ;
#380=AXIS2_PLACEMENT_3D(' ',#383,#387,#386) ;
#381=AXIS2_PLACEMENT_3D(' ',#382,#385,#384) ;
#402=AXIS2_PLACEMENT_3D('Plane Axis2P3D',#399,#400,#401) ;
#442=AXIS2_PLACEMENT_3D('Plane Axis2P3D',#439,#440,#441) ;
#473=AXIS2_PLACEMENT_3D('Plane Axis2P3D',#470,#471,#472) ;
#504=AXIS2_PLACEMENT_3D('Plane Axis2P3D',#501,#502,#503) ;
#526=AXIS2_PLACEMENT_3D('Plane Axis2P3D',#523,#524,#525) ;
#538=AXIS2_PLACEMENT_3D('Plane Axis2P3D',#535,#536,#537) ;
#555=AXIS2_PLACEMENT_3D(' ',#558,#562,#561) ;
#556=AXIS2_PLACEMENT_3D(' ',#557,#560,#559) ;
#45=PRODUCT_DEFINITION_SHAPE(' ',' ',#17) ;
#59=PRODUCT_DEFINITION_SHAPE(' ',' ',#56) ;
#65=PRODUCT_DEFINITION_SHAPE(' ',' ',#64) ;
#86=PRODUCT_DEFINITION_SHAPE(' ',' ',#83) ;
#376=PRODUCT_DEFINITION_SHAPE(' ',' ',#375) ;
#397=PRODUCT_DEFINITION_SHAPE(' ',' ',#394) ;
#551=PRODUCT_DEFINITION_SHAPE(' ',' ',#550) ;
#34=APPROVAL_PERSON_ORGANIZATION(#28,#24,#22) ;
#28=PERSON_AND_ORGANIZATION(#25,#26) ;
#25=PERSON(' ',' ',' ',$,$,$) ;
#26=ORGANIZATION(' ',' ',' ') ;
#24=APPROVAL(#23,' ') ;
#23=APPROVAL_STATUS('not_yet_approved') ;
#22=APPROVAL_ROLE('APPROVER') ;
#13=DATE_AND_TIME(#11,#12) ;
#12=LOCAL_TIME(16,13,36.,#10) ;
#10=COORDINATED_UNIVERSAL_TIME_OFFSET(0,0,.AHEAD.) ;
#122=ORIENTED_EDGE('',*,*,#101,.F.) ;
#123=ORIENTED_EDGE('',*,*,#108,.T.) ;
#124=ORIENTED_EDGE('',*,*,#115,.T.) ;
#125=ORIENTED_EDGE('',*,*,#120,.F.) ;
#153=ORIENTED_EDGE('',*,*,#115,.F.) ;
#154=ORIENTED_EDGE('',*,*,#139,.T.) ;
#155=ORIENTED_EDGE('',*,*,#146,.T.) ;
#156=ORIENTED_EDGE('',*,*,#151,.F.) ;
#184=ORIENTED_EDGE('',*,*,#146,.F.) ;
#185=ORIENTED_EDGE('',*,*,#170,.T.) ;
#186=ORIENTED_EDGE('',*,*,#177,.T.) ;
#187=ORIENTED_EDGE('',*,*,#182,.F.) ;
#206=ORIENTED_EDGE('',*,*,#177,.F.) ;
#207=ORIENTED_EDGE('',*,*,#199,.T.) ;
#208=ORIENTED_EDGE('',*,*,#101,.T.) ;
#209=ORIENTED_EDGE('',*,*,#204,.F.) ;
#246=ORIENTED_EDGE('',*,*,#225,.T.) ;
#247=ORIENTED_EDGE('',*,*,#232,.F.) ;
#248=ORIENTED_EDGE('',*,*,#239,.F.) ;
#249=ORIENTED_EDGE('',*,*,#244,.T.) ;
#277=ORIENTED_EDGE('',*,*,#263,.T.) ;
#278=ORIENTED_EDGE('',*,*,#244,.F.) ;
#279=ORIENTED_EDGE('',*,*,#270,.F.) ;
#280=ORIENTED_EDGE('',*,*,#275,.T.) ;
#308=ORIENTED_EDGE('',*,*,#294,.T.) ;
#309=ORIENTED_EDGE('',*,*,#275,.F.) ;
#310=ORIENTED_EDGE('',*,*,#301,.F.) ;
#311=ORIENTED_EDGE('',*,*,#306,.T.) ;
#330=ORIENTED_EDGE('',*,*,#323,.T.) ;
#331=ORIENTED_EDGE('',*,*,#306,.F.) ;
#332=ORIENTED_EDGE('',*,*,#328,.F.) ;
#333=ORIENTED_EDGE('',*,*,#232,.T.) ;
#342=ORIENTED_EDGE('',*,*,#199,.F.) ;
#343=ORIENTED_EDGE('',*,*,#170,.F.) ;
#344=ORIENTED_EDGE('',*,*,#139,.F.) ;
#345=ORIENTED_EDGE('',*,*,#108,.F.) ;
#348=ORIENTED_EDGE('',*,*,#328,.T.) ;
#349=ORIENTED_EDGE('',*,*,#301,.T.) ;
#350=ORIENTED_EDGE('',*,*,#270,.T.) ;
#351=ORIENTED_EDGE('',*,*,#239,.T.) ;
#360=ORIENTED_EDGE('',*,*,#120,.T.) ;
#361=ORIENTED_EDGE('',*,*,#151,.T.) ;
#362=ORIENTED_EDGE('',*,*,#182,.T.) ;
#363=ORIENTED_EDGE('',*,*,#204,.T.) ;
#366=ORIENTED_EDGE('',*,*,#225,.F.) ;
#367=ORIENTED_EDGE('',*,*,#263,.F.) ;
#368=ORIENTED_EDGE('',*,*,#294,.F.) ;
#369=ORIENTED_EDGE('',*,*,#323,.F.) ;
#433=ORIENTED_EDGE('',*,*,#412,.F.) ;
#434=ORIENTED_EDGE('',*,*,#419,.T.) ;
#435=ORIENTED_EDGE('',*,*,#426,.T.) ;
#436=ORIENTED_EDGE('',*,*,#431,.F.) ;
#464=ORIENTED_EDGE('',*,*,#426,.F.) ;
#465=ORIENTED_EDGE('',*,*,#450,.T.) ;
#466=ORIENTED_EDGE('',*,*,#457,.T.) ;
#467=ORIENTED_EDGE('',*,*,#462,.F.) ;
#495=ORIENTED_EDGE('',*,*,#457,.F.) ;
#496=ORIENTED_EDGE('',*,*,#481,.T.) ;
#497=ORIENTED_EDGE('',*,*,#488,.T.) ;
#498=ORIENTED_EDGE('',*,*,#493,.F.) ;
#517=ORIENTED_EDGE('',*,*,#488,.F.) ;
#518=ORIENTED_EDGE('',*,*,#510,.T.) ;
#519=ORIENTED_EDGE('',*,*,#412,.T.) ;
#520=ORIENTED_EDGE('',*,*,#515,.F.) ;
#529=ORIENTED_EDGE('',*,*,#510,.F.) ;
#530=ORIENTED_EDGE('',*,*,#481,.F.) ;
#531=ORIENTED_EDGE('',*,*,#450,.F.) ;
#532=ORIENTED_EDGE('',*,*,#419,.F.) ;
#541=ORIENTED_EDGE('',*,*,#431,.T.) ;
#542=ORIENTED_EDGE('',*,*,#462,.T.) ;
#543=ORIENTED_EDGE('',*,*,#493,.T.) ;
#544=ORIENTED_EDGE('',*,*,#515,.T.) ;
#352=FACE_BOUND('',#347,.T.) ;
#370=FACE_BOUND('',#365,.T.) ;
#87=CLOSED_SHELL('Closed Shell',(#127,#158,#189,#211,#251,#282,#313,#335,#353,#371)) ;
#398=CLOSED_SHELL('Closed Shell',(#438,#469,#500,#522,#534,#546)) ;
#68=ITEM_DEFINED_TRANSFORMATION(' ',' ',#70,#69) ;
#379=ITEM_DEFINED_TRANSFORMATION(' ',' ',#381,#380) ;
#554=ITEM_DEFINED_TRANSFORMATION(' ',' ',#556,#555) ;
#95=VECTOR('Line Direction',#94,1.) ;
#104=VECTOR('Line Direction',#103,1.) ;
#111=VECTOR('Line Direction',#110,1.) ;
#118=VECTOR('Line Direction',#117,1.) ;
#135=VECTOR('Line Direction',#134,1.) ;
#142=VECTOR('Line Direction',#141,1.) ;
#149=VECTOR('Line Direction',#148,1.) ;
#166=VECTOR('Line Direction',#165,1.) ;
#173=VECTOR('Line Direction',#172,1.) ;
#180=VECTOR('Line Direction',#179,1.) ;
#197=VECTOR('Line Direction',#196,1.) ;
#202=VECTOR('Line Direction',#201,1.) ;
#219=VECTOR('Line Direction',#218,1.) ;
#228=VECTOR('Line Direction',#227,1.) ;
#235=VECTOR('Line Direction',#234,1.) ;
#242=VECTOR('Line Direction',#241,1.) ;
#259=VECTOR('Line Direction',#258,1.) ;
#266=VECTOR('Line Direction',#265,1.) ;
#273=VECTOR('Line Direction',#272,1.) ;
#290=VECTOR('Line Direction',#289,1.) ;
#297=VECTOR('Line Direction',#296,1.) ;
#304=VECTOR('Line Direction',#303,1.) ;
#321=VECTOR('Line Direction',#320,1.) ;
#326=VECTOR('Line Direction',#325,1.) ;
#406=VECTOR('Line Direction',#405,1.) ;
#415=VECTOR('Line Direction',#414,1.) ;
#422=VECTOR('Line Direction',#421,1.) ;
#429=VECTOR('Line Direction',#428,1.) ;
#446=VECTOR('Line Direction',#445,1.) ;
#453=VECTOR('Line Direction',#452,1.) ;
#460=VECTOR('Line Direction',#459,1.) ;
#477=VECTOR('Line Direction',#476,1.) ;
#484=VECTOR('Line Direction',#483,1.) ;
#491=VECTOR('Line Direction',#490,1.) ;
#508=VECTOR('Line Direction',#507,1.) ;
#513=VECTOR('Line Direction',#512,1.) ;
#373=ADVANCED_BREP_SHAPE_REPRESENTATION('NONE',(#372),#51) ;
#548=ADVANCED_BREP_SHAPE_REPRESENTATION('NONE',(#547),#51) ;
#44=SHAPE_REPRESENTATION(' ',(#69,#380,#555),#51) ;
#52=SHAPE_REPRESENTATION(' ',(#70),#78) ;
#79=SHAPE_REPRESENTATION(' ',(#381),#389) ;
#390=SHAPE_REPRESENTATION(' ',(#556),#564) ;
#127=ADVANCED_FACE('PartBody',(#126),#92,.F.) ;
#158=ADVANCED_FACE('PartBody',(#157),#132,.T.) ;
#189=ADVANCED_FACE('PartBody',(#188),#163,.F.) ;
#211=ADVANCED_FACE('PartBody',(#210),#194,.T.) ;
#251=ADVANCED_FACE('PartBody',(#250),#216,.F.) ;
#282=ADVANCED_FACE('PartBody',(#281),#256,.T.) ;
#313=ADVANCED_FACE('PartBody',(#312),#287,.F.) ;
#335=ADVANCED_FACE('PartBody',(#334),#318,.T.) ;
#353=ADVANCED_FACE('PartBody',(#346,#352),#340,.F.) ;
#371=ADVANCED_FACE('PartBody',(#364,#370),#358,.T.) ;
#438=ADVANCED_FACE('PartBody',(#437),#403,.F.) ;
#469=ADVANCED_FACE('PartBody',(#468),#443,.T.) ;
#500=ADVANCED_FACE('PartBody',(#499),#474,.F.) ;
#522=ADVANCED_FACE('PartBody',(#521),#505,.T.) ;
#534=ADVANCED_FACE('PartBody',(#533),#527,.F.) ;
#546=ADVANCED_FACE('PartBody',(#545),#539,.T.) ;
#4=APPLICATION_PROTOCOL_DEFINITION('international standard','config_control_design',1994,#1) ;
#35=APPROVAL_DATE_TIME(#13,#24) ;
#372=MANIFOLD_SOLID_BREP('PartBody',#87) ;
#547=MANIFOLD_SOLID_BREP('PartBody',#398) ;
#11=CALENDAR_DATE(2025,17,4) ;
#33=CC_DESIGN_APPROVAL(#24,(#19,#6,#17)) ;
#21=CC_DESIGN_DATE_AND_TIME_ASSIGNMENT(#13,#20,(#19)) ;
#32=CC_DESIGN_DATE_AND_TIME_ASSIGNMENT(#13,#31,(#17)) ;
#20=DATE_TIME_ROLE('classification_date') ;
#31=DATE_TIME_ROLE('creation_date') ;
#30=CC_DESIGN_PERSON_AND_ORGANIZATION_ASSIGNMENT(#28,#29,(#19)) ;
#36=CC_DESIGN_PERSON_AND_ORGANIZATION_ASSIGNMENT(#28,#37,(#6)) ;
#38=CC_DESIGN_PERSON_AND_ORGANIZATION_ASSIGNMENT(#28,#39,(#6,#17)) ;
#40=CC_DESIGN_PERSON_AND_ORGANIZATION_ASSIGNMENT(#28,#41,(#5)) ;
#29=PERSON_AND_ORGANIZATION_ROLE('classification_officer') ;
#37=PERSON_AND_ORGANIZATION_ROLE('design_supplier') ;
#39=PERSON_AND_ORGANIZATION_ROLE('creator') ;
#41=PERSON_AND_ORGANIZATION_ROLE('design_owner') ;
#42=CC_DESIGN_SECURITY_CLASSIFICATION(#19,(#6,#64,#375,#550)) ;
#58=DOCUMENT('9','Punct de referinta.CATPart','CATPart document',#57) ;
#85=DOCUMENT('10','Exterior usa mare.CATPart','CATPart document',#84) ;
#396=DOCUMENT('11','Interior usa mare.CATPart','CATPart document',#395) ;
#57=DOCUMENT_TYPE('') ;
#84=DOCUMENT_TYPE('') ;
#395=DOCUMENT_TYPE('') ;
#66=CONTEXT_DEPENDENT_SHAPE_REPRESENTATION(#67,#65) ;
#377=CONTEXT_DEPENDENT_SHAPE_REPRESENTATION(#378,#376) ;
#552=CONTEXT_DEPENDENT_SHAPE_REPRESENTATION(#553,#551) ;
#63=SHAPE_REPRESENTATION_RELATIONSHIP(' ',' ',#52,#61) ;
#374=SHAPE_REPRESENTATION_RELATIONSHIP(' ',' ',#79,#373) ;
#549=SHAPE_REPRESENTATION_RELATIONSHIP(' ',' ',#390,#548) ;
#3=DESIGN_CONTEXT(' ',#1,'design') ;
#101=EDGE_CURVE('',#98,#100,#96,.T.) ;
#108=EDGE_CURVE('',#98,#107,#105,.F.) ;
#115=EDGE_CURVE('',#107,#114,#112,.T.) ;
#120=EDGE_CURVE('',#100,#114,#119,.F.) ;
#139=EDGE_CURVE('',#107,#138,#136,.T.) ;
#146=EDGE_CURVE('',#138,#145,#143,.T.) ;
#151=EDGE_CURVE('',#114,#145,#150,.T.) ;
#170=EDGE_CURVE('',#138,#169,#167,.F.) ;
#177=EDGE_CURVE('',#169,#176,#174,.T.) ;
#182=EDGE_CURVE('',#145,#176,#181,.F.) ;
#199=EDGE_CURVE('',#169,#98,#198,.T.) ;
#204=EDGE_CURVE('',#176,#100,#203,.T.) ;
#225=EDGE_CURVE('',#222,#224,#220,.T.) ;
#232=EDGE_CURVE('',#231,#224,#229,.T.) ;
#239=EDGE_CURVE('',#238,#231,#236,.T.) ;
#244=EDGE_CURVE('',#238,#222,#243,.T.) ;
#263=EDGE_CURVE('',#262,#222,#260,.F.) ;
#270=EDGE_CURVE('',#269,#238,#267,.F.) ;
#275=EDGE_CURVE('',#269,#262,#274,.T.) ;
#294=EDGE_CURVE('',#293,#262,#291,.T.) ;
#301=EDGE_CURVE('',#300,#269,#298,.T.) ;
#306=EDGE_CURVE('',#300,#293,#305,.T.) ;
#323=EDGE_CURVE('',#224,#293,#322,.F.) ;
#328=EDGE_CURVE('',#231,#300,#327,.F.) ;
#412=EDGE_CURVE('',#409,#411,#407,.T.) ;
#419=EDGE_CURVE('',#409,#418,#416,.F.) ;
#426=EDGE_CURVE('',#418,#425,#423,.T.) ;
#431=EDGE_CURVE('',#411,#425,#430,.F.) ;
#450=EDGE_CURVE('',#418,#449,#447,.T.) ;
#457=EDGE_CURVE('',#449,#456,#454,.T.) ;
#462=EDGE_CURVE('',#425,#456,#461,.T.) ;
#481=EDGE_CURVE('',#449,#480,#478,.F.) ;
#488=EDGE_CURVE('',#480,#487,#485,.T.) ;
#493=EDGE_CURVE('',#456,#487,#492,.F.) ;
#510=EDGE_CURVE('',#480,#409,#509,.T.) ;
#515=EDGE_CURVE('',#487,#411,#514,.T.) ;
#121=EDGE_LOOP('',(#122,#123,#124,#125)) ;
#152=EDGE_LOOP('',(#153,#154,#155,#156)) ;
#183=EDGE_LOOP('',(#184,#185,#186,#187)) ;
#205=EDGE_LOOP('',(#206,#207,#208,#209)) ;
#245=EDGE_LOOP('',(#246,#247,#248,#249)) ;
#276=EDGE_LOOP('',(#277,#278,#279,#280)) ;
#307=EDGE_LOOP('',(#308,#309,#310,#311)) ;
#329=EDGE_LOOP('',(#330,#331,#332,#333)) ;
#341=EDGE_LOOP('',(#342,#343,#344,#345)) ;
#347=EDGE_LOOP('',(#348,#349,#350,#351)) ;
#359=EDGE_LOOP('',(#360,#361,#362,#363)) ;
#365=EDGE_LOOP('',(#366,#367,#368,#369)) ;
#432=EDGE_LOOP('',(#433,#434,#435,#436)) ;
#463=EDGE_LOOP('',(#464,#465,#466,#467)) ;
#494=EDGE_LOOP('',(#495,#496,#497,#498)) ;
#516=EDGE_LOOP('',(#517,#518,#519,#520)) ;
#528=EDGE_LOOP('',(#529,#530,#531,#532)) ;
#540=EDGE_LOOP('',(#541,#542,#543,#544)) ;
#126=FACE_OUTER_BOUND('',#121,.T.) ;
#157=FACE_OUTER_BOUND('',#152,.T.) ;
#188=FACE_OUTER_BOUND('',#183,.T.) ;
#210=FACE_OUTER_BOUND('',#205,.T.) ;
#250=FACE_OUTER_BOUND('',#245,.T.) ;
#281=FACE_OUTER_BOUND('',#276,.T.) ;
#312=FACE_OUTER_BOUND('',#307,.T.) ;
#334=FACE_OUTER_BOUND('',#329,.T.) ;
#346=FACE_OUTER_BOUND('',#341,.T.) ;
#364=FACE_OUTER_BOUND('',#359,.T.) ;
#437=FACE_OUTER_BOUND('',#432,.T.) ;
#468=FACE_OUTER_BOUND('',#463,.T.) ;
#499=FACE_OUTER_BOUND('',#494,.T.) ;
#521=FACE_OUTER_BOUND('',#516,.T.) ;
#533=FACE_OUTER_BOUND('',#528,.T.) ;
#545=FACE_OUTER_BOUND('',#540,.T.) ;
#62=GEOMETRIC_SET('NONE',(#60)) ;
#61=GEOMETRICALLY_BOUNDED_SURFACE_SHAPE_REPRESENTATION('NONE',(#62),#51) ;
#50=UNCERTAINTY_MEASURE_WITH_UNIT(LENGTH_MEASURE(0.005),#46,'distance_accuracy_value','CONFUSED CURVE UNCERTAINTY') ;
#77=UNCERTAINTY_MEASURE_WITH_UNIT(LENGTH_MEASURE(0.005),#46,'distance_accuracy_value','CONFUSED CURVE UNCERTAINTY') ;
#388=UNCERTAINTY_MEASURE_WITH_UNIT(LENGTH_MEASURE(0.005),#46,'distance_accuracy_value','CONFUSED CURVE UNCERTAINTY') ;
#563=UNCERTAINTY_MEASURE_WITH_UNIT(LENGTH_MEASURE(0.005),#46,'distance_accuracy_value','CONFUSED CURVE UNCERTAINTY') ;
#96=LINE('Line',#93,#95) ;
#105=LINE('Line',#102,#104) ;
#112=LINE('Line',#109,#111) ;
#119=LINE('Line',#116,#118) ;
#136=LINE('Line',#133,#135) ;
#143=LINE('Line',#140,#142) ;
#150=LINE('Line',#147,#149) ;
#167=LINE('Line',#164,#166) ;
#174=LINE('Line',#171,#173) ;
#181=LINE('Line',#178,#180) ;
#198=LINE('Line',#195,#197) ;
#203=LINE('Line',#200,#202) ;
#220=LINE('Line',#217,#219) ;
#229=LINE('Line',#226,#228) ;
#236=LINE('Line',#233,#235) ;
#243=LINE('Line',#240,#242) ;
#260=LINE('Line',#257,#259) ;
#267=LINE('Line',#264,#266) ;
#274=LINE('Line',#271,#273) ;
#291=LINE('Line',#288,#290) ;
#298=LINE('Line',#295,#297) ;
#305=LINE('Line',#302,#304) ;
#322=LINE('Line',#319,#321) ;
#327=LINE('Line',#324,#326) ;
#407=LINE('Line',#404,#406) ;
#416=LINE('Line',#413,#415) ;
#423=LINE('Line',#420,#422) ;
#430=LINE('Line',#427,#429) ;
#447=LINE('Line',#444,#446) ;
#454=LINE('Line',#451,#453) ;
#461=LINE('Line',#458,#460) ;
#478=LINE('Line',#475,#477) ;
#485=LINE('Line',#482,#484) ;
#492=LINE('Line',#489,#491) ;
#509=LINE('Line',#506,#508) ;
#514=LINE('Line',#511,#513) ;
#2=MECHANICAL_CONTEXT(' ',#1,'mechanical') ;
#64=NEXT_ASSEMBLY_USAGE_OCCURRENCE('Part12.1.2.1','Part12.1.2.1','',#17,#56,' ') ;
#375=NEXT_ASSEMBLY_USAGE_OCCURRENCE('Part12.1','Part12.1','',#17,#83,' ') ;
#550=NEXT_ASSEMBLY_USAGE_OCCURRENCE('Part12.1.1','Part12.1.1','',#17,#394,' ') ;
#27=PERSONAL_ADDRESS(' ',' ',' ',' ',' ',' ',' ',' ',' ',' ',' ',' ',(#25),' ') ;
#92=PLANE('Plane',#91) ;
#132=PLANE('Plane',#131) ;
#163=PLANE('Plane',#162) ;
#194=PLANE('Plane',#193) ;
#216=PLANE('Plane',#215) ;
#256=PLANE('Plane',#255) ;
#287=PLANE('Plane',#286) ;
#318=PLANE('Plane',#317) ;
#340=PLANE('Plane',#339) ;
#358=PLANE('Plane',#357) ;
#403=PLANE('Plane',#402) ;
#443=PLANE('Plane',#442) ;
#474=PLANE('Plane',#473) ;
#505=PLANE('Plane',#504) ;
#527=PLANE('Plane',#526) ;
#539=PLANE('Plane',#538) ;
#48=PLANE_ANGLE_MEASURE_WITH_UNIT(PLANE_ANGLE_MEASURE(0.0174532925199),#47) ;
#7=PRODUCT_CATEGORY('part',$) ;
#14=PRODUCT_CATEGORY('part',$) ;
#9=PRODUCT_CATEGORY_RELATIONSHIP(' ',' ',#7,#8) ;
#16=PRODUCT_CATEGORY_RELATIONSHIP(' ',' ',#14,#15) ;
#6=PRODUCT_DEFINITION_FORMATION_WITH_SPECIFIED_SOURCE('',' ',#5,.NOT_KNOWN.) ;
#55=PRODUCT_DEFINITION_FORMATION_WITH_SPECIFIED_SOURCE('',' ',#54,.NOT_KNOWN.) ;
#82=PRODUCT_DEFINITION_FORMATION_WITH_SPECIFIED_SOURCE('',' ',#81,.NOT_KNOWN.) ;
#393=PRODUCT_DEFINITION_FORMATION_WITH_SPECIFIED_SOURCE('',' ',#392,.NOT_KNOWN.) ;
#56=PRODUCT_DEFINITION_WITH_ASSOCIATED_DOCUMENTS('Part12.1.2',' ',#55,#3,(#58)) ;
#83=PRODUCT_DEFINITION_WITH_ASSOCIATED_DOCUMENTS('Part12',' ',#82,#3,(#85)) ;
#394=PRODUCT_DEFINITION_WITH_ASSOCIATED_DOCUMENTS('Part12.1',' ',#393,#3,(#396)) ;
#8=PRODUCT_RELATED_PRODUCT_CATEGORY('detail',$,(#54,#81,#392)) ;
#15=PRODUCT_RELATED_PRODUCT_CATEGORY('part',$,(#5)) ;
#43=SHAPE_DEFINITION_REPRESENTATION(#45,#44) ;
#53=SHAPE_DEFINITION_REPRESENTATION(#59,#52) ;
#80=SHAPE_DEFINITION_REPRESENTATION(#86,#79) ;
#391=SHAPE_DEFINITION_REPRESENTATION(#397,#390) ;
#98=VERTEX_POINT('',#97) ;
#100=VERTEX_POINT('',#99) ;
#107=VERTEX_POINT('',#106) ;
#114=VERTEX_POINT('',#113) ;
#138=VERTEX_POINT('',#137) ;
#145=VERTEX_POINT('',#144) ;
#169=VERTEX_POINT('',#168) ;
#176=VERTEX_POINT('',#175) ;
#222=VERTEX_POINT('',#221) ;
#224=VERTEX_POINT('',#223) ;
#231=VERTEX_POINT('',#230) ;
#238=VERTEX_POINT('',#237) ;
#262=VERTEX_POINT('',#261) ;
#269=VERTEX_POINT('',#268) ;
#293=VERTEX_POINT('',#292) ;
#300=VERTEX_POINT('',#299) ;
#409=VERTEX_POINT('',#408) ;
#411=VERTEX_POINT('',#410) ;
#418=VERTEX_POINT('',#417) ;
#425=VERTEX_POINT('',#424) ;
#449=VERTEX_POINT('',#448) ;
#456=VERTEX_POINT('',#455) ;
#480=VERTEX_POINT('',#479) ;
#487=VERTEX_POINT('',#486) ;
#46=(LENGTH_UNIT()NAMED_UNIT(*)SI_UNIT(.MILLI.,.METRE.)) ;
#47=(NAMED_UNIT(*)PLANE_ANGLE_UNIT()SI_UNIT($,.RADIAN.)) ;
#49=(NAMED_UNIT(*)SI_UNIT($,.STERADIAN.)SOLID_ANGLE_UNIT()) ;
#51=(GEOMETRIC_REPRESENTATION_CONTEXT(3)GLOBAL_UNCERTAINTY_ASSIGNED_CONTEXT((#50))GLOBAL_UNIT_ASSIGNED_CONTEXT((#46,#47,#49))REPRESENTATION_CONTEXT(' ',' ')) ;
#78=(GEOMETRIC_REPRESENTATION_CONTEXT(3)GLOBAL_UNCERTAINTY_ASSIGNED_CONTEXT((#77))GLOBAL_UNIT_ASSIGNED_CONTEXT((#46,#47,#49))REPRESENTATION_CONTEXT(' ',' ')) ;
#389=(GEOMETRIC_REPRESENTATION_CONTEXT(3)GLOBAL_UNCERTAINTY_ASSIGNED_CONTEXT((#388))GLOBAL_UNIT_ASSIGNED_CONTEXT((#46,#47,#49))REPRESENTATION_CONTEXT(' ',' ')) ;
#564=(GEOMETRIC_REPRESENTATION_CONTEXT(3)GLOBAL_UNCERTAINTY_ASSIGNED_CONTEXT((#563))GLOBAL_UNIT_ASSIGNED_CONTEXT((#46,#47,#49))REPRESENTATION_CONTEXT(' ',' ')) ;
#67=(REPRESENTATION_RELATIONSHIP(' ',' ',#52,#44)REPRESENTATION_RELATIONSHIP_WITH_TRANSFORMATION(#68)SHAPE_REPRESENTATION_RELATIONSHIP()) ;
#378=(REPRESENTATION_RELATIONSHIP(' ',' ',#79,#44)REPRESENTATION_RELATIONSHIP_WITH_TRANSFORMATION(#379)SHAPE_REPRESENTATION_RELATIONSHIP()) ;
#553=(REPRESENTATION_RELATIONSHIP(' ',' ',#390,#44)REPRESENTATION_RELATIONSHIP_WITH_TRANSFORMATION(#554)SHAPE_REPRESENTATION_RELATIONSHIP()) ;
ENDSEC;
END-ISO-10303-21;
