ISO-10303-21;
HEADER;
FILE_DESCRIPTION(('CATIA V5 STEP Exchange'),'2;1');

FILE_NAME('C:\\Users\\mnicu\\Desktop\\Client 2024\\Kyra sablage\\Rafat 3D models\\Right side origin\\P02_Origin right4.stp','2025-03-28T17:43:55+00:00',('none'),('none'),'CATIA Version 5 Release 18 GA (IN-10)','CATIA V5 STEP AP203','none');

FILE_SCHEMA(('CONFIG_CONTROL_DESIGN'));

ENDSEC;
/* file written by CATIA V5R18 */
DATA;
#5=PRODUCT('Product3','','',(#2)) ;
#54=PRODUCT('Part14','','',(#2)) ;
#81=PRODUCT('PPte2PanH Reg','','',(#2)) ;
#1=APPLICATION_CONTEXT('configuration controlled 3D design of mechanical parts and assemblies') ;
#17=PRODUCT_DEFINITION('Product3',' ',#6,#3) ;
#19=SECURITY_CLASSIFICATION(' ',' ',#18) ;
#18=SECURITY_CLASSIFICATION_LEVEL('unclassified') ;
#60=CARTESIAN_POINT('Sketch.1',(0.,0.,0.)) ;
#71=CARTESIAN_POINT('NONE',(0.,0.,0.)) ;
#72=CARTESIAN_POINT('NONE',(0.,0.,19.1781494186)) ;
#88=CARTESIAN_POINT('Axis2P3D Location',(57.15,57.15,9.65198852428)) ;
#93=CARTESIAN_POINT('Line Origine',(57.15,381.,-1.14764203545E-005)) ;
#97=CARTESIAN_POINT('Vertex',(57.15,57.15,-1.14764203545E-005)) ;
#99=CARTESIAN_POINT('Vertex',(57.15,704.849999999,-1.14764203545E-005)) ;
#102=CARTESIAN_POINT('Line Origine',(57.15,57.15,4.82598852393)) ;
#106=CARTESIAN_POINT('Vertex',(57.15,57.15,9.65198852428)) ;
#109=CARTESIAN_POINT('Line Origine',(57.15,381.,9.65198852428)) ;
#113=CARTESIAN_POINT('Vertex',(57.15,704.849999999,9.65198852428)) ;
#116=CARTESIAN_POINT('Line Origine',(57.15,704.849999999,4.82598852393)) ;
#128=CARTESIAN_POINT('Axis2P3D Location',(0.,0.,-1.147572E-005)) ;
#133=CARTESIAN_POINT('Line Origine',(190.5,704.85,-1.147572E-005)) ;
#137=CARTESIAN_POINT('Vertex',(323.85,704.85,-1.147572E-005)) ;
#140=CARTESIAN_POINT('Line Origine',(323.85,381.,-1.147572E-005)) ;
#144=CARTESIAN_POINT('Vertex',(323.85,57.1500000004,-1.147572E-005)) ;
#147=CARTESIAN_POINT('Line Origine',(190.5,57.1500000004,-1.147572E-005)) ;
#159=CARTESIAN_POINT('Axis2P3D Location',(323.85,57.15,9.65198852428)) ;
#164=CARTESIAN_POINT('Line Origine',(323.85,57.15,4.82598852393)) ;
#168=CARTESIAN_POINT('Vertex',(323.85,57.15,9.65198852428)) ;
#171=CARTESIAN_POINT('Line Origine',(190.5,57.15,9.65198852428)) ;
#183=CARTESIAN_POINT('Axis2P3D Location',(0.,0.,9.65198852428)) ;
#188=CARTESIAN_POINT('Line Origine',(323.85,381.,9.65198852428)) ;
#192=CARTESIAN_POINT('Vertex',(323.85,704.85,9.65198852428)) ;
#195=CARTESIAN_POINT('Line Origine',(190.5,704.85,9.65198852428)) ;
#207=CARTESIAN_POINT('Axis2P3D Location',(57.15,704.85,9.65198852428)) ;
#212=CARTESIAN_POINT('Line Origine',(323.849999999,704.85,4.82598852393)) ;
#224=CARTESIAN_POINT('Axis2P3D Location',(323.85,704.85,9.65198852428)) ;
#240=CARTESIAN_POINT('Axis2P3D Location',(57.15,822.325,9.65198852428)) ;
#245=CARTESIAN_POINT('Line Origine',(57.15,1262.0625,-1.14764203545E-005)) ;
#249=CARTESIAN_POINT('Vertex',(57.15,822.325,-1.14764203545E-005)) ;
#251=CARTESIAN_POINT('Vertex',(57.15,1701.8,-1.14764203545E-005)) ;
#254=CARTESIAN_POINT('Line Origine',(57.15,822.325,4.82598852393)) ;
#258=CARTESIAN_POINT('Vertex',(57.15,822.325,9.65198852428)) ;
#261=CARTESIAN_POINT('Line Origine',(57.15,1262.0625,9.65198852428)) ;
#265=CARTESIAN_POINT('Vertex',(57.15,1701.8,9.65198852428)) ;
#268=CARTESIAN_POINT('Line Origine',(57.15,1701.8,4.82598852393)) ;
#280=CARTESIAN_POINT('Axis2P3D Location',(0.,0.,-1.147572E-005)) ;
#285=CARTESIAN_POINT('Line Origine',(190.5,1701.8,-1.147572E-005)) ;
#289=CARTESIAN_POINT('Vertex',(323.85,1701.8,-1.147572E-005)) ;
#292=CARTESIAN_POINT('Line Origine',(323.85,1262.0625,-1.147572E-005)) ;
#296=CARTESIAN_POINT('Vertex',(323.85,822.324999999,-1.147572E-005)) ;
#299=CARTESIAN_POINT('Line Origine',(190.5,822.324999999,-1.147572E-005)) ;
#311=CARTESIAN_POINT('Axis2P3D Location',(323.85,822.325,9.65198852428)) ;
#316=CARTESIAN_POINT('Line Origine',(323.85,822.325,4.82598852393)) ;
#320=CARTESIAN_POINT('Vertex',(323.85,822.325,9.65198852428)) ;
#323=CARTESIAN_POINT('Line Origine',(190.5,822.325,9.65198852428)) ;
#335=CARTESIAN_POINT('Axis2P3D Location',(0.,0.,9.65198852428)) ;
#340=CARTESIAN_POINT('Line Origine',(323.85,1262.0625,9.65198852428)) ;
#344=CARTESIAN_POINT('Vertex',(323.85,1701.8,9.65198852428)) ;
#347=CARTESIAN_POINT('Line Origine',(190.5,1701.8,9.65198852428)) ;
#359=CARTESIAN_POINT('Axis2P3D Location',(57.15,1701.8,9.65198852428)) ;
#364=CARTESIAN_POINT('Line Origine',(323.849999999,1701.8,4.82598852393)) ;
#376=CARTESIAN_POINT('Axis2P3D Location',(323.85,1701.8,9.65198852428)) ;
#390=CARTESIAN_POINT('Axis2P3D Location',(0.,-0.,19.1781494186)) ;
#395=CARTESIAN_POINT('Line Origine',(0.,879.475,0.00114941938976)) ;
#399=CARTESIAN_POINT('Vertex',(0.,0.,0.00114941938976)) ;
#401=CARTESIAN_POINT('Vertex',(0.,1758.95,0.00114941938976)) ;
#404=CARTESIAN_POINT('Line Origine',(0.,0.,9.58964941899)) ;
#408=CARTESIAN_POINT('Vertex',(0.,0.,19.1781494186)) ;
#411=CARTESIAN_POINT('Line Origine',(0.,879.475,19.1781494186)) ;
#415=CARTESIAN_POINT('Vertex',(0.,1758.95,19.1781494186)) ;
#418=CARTESIAN_POINT('Line Origine',(0.,1758.95,9.58964941899)) ;
#430=CARTESIAN_POINT('Axis2P3D Location',(0.,0.,0.00114941858)) ;
#435=CARTESIAN_POINT('Line Origine',(190.5,1758.95,0.00114941858)) ;
#439=CARTESIAN_POINT('Vertex',(381.,1758.95,0.00114941858)) ;
#442=CARTESIAN_POINT('Line Origine',(381.,879.475,0.00114941858)) ;
#446=CARTESIAN_POINT('Vertex',(381.,0.,0.00114941858)) ;
#449=CARTESIAN_POINT('Line Origine',(190.5,0.,0.00114941858)) ;
#460=CARTESIAN_POINT('Line Origine',(323.85,381.,0.00114941858)) ;
#464=CARTESIAN_POINT('Vertex',(323.85,704.85,0.00114941858)) ;
#466=CARTESIAN_POINT('Vertex',(323.85,57.1500000004,0.00114941858)) ;
#469=CARTESIAN_POINT('Line Origine',(190.5,704.85,0.00114941858)) ;
#473=CARTESIAN_POINT('Vertex',(57.1500000004,704.85,0.00114941858)) ;
#476=CARTESIAN_POINT('Line Origine',(57.1500000004,381.,0.00114941858)) ;
#480=CARTESIAN_POINT('Vertex',(57.1500000004,57.1500000004,0.00114941858)) ;
#483=CARTESIAN_POINT('Line Origine',(190.5,57.1500000004,0.00114941858)) ;
#494=CARTESIAN_POINT('Line Origine',(323.85,1262.0625,0.00114941858)) ;
#498=CARTESIAN_POINT('Vertex',(323.85,1701.8,0.00114941858)) ;
#500=CARTESIAN_POINT('Vertex',(323.85,822.324999999,0.00114941858)) ;
#503=CARTESIAN_POINT('Line Origine',(190.5,1701.8,0.00114941858)) ;
#507=CARTESIAN_POINT('Vertex',(57.1500000004,1701.8,0.00114941858)) ;
#510=CARTESIAN_POINT('Line Origine',(57.1500000004,1262.0625,0.00114941858)) ;
#514=CARTESIAN_POINT('Vertex',(57.1500000004,822.324999999,0.00114941858)) ;
#517=CARTESIAN_POINT('Line Origine',(190.5,822.324999999,0.00114941858)) ;
#529=CARTESIAN_POINT('Axis2P3D Location',(381.,-0.,19.1781494186)) ;
#534=CARTESIAN_POINT('Line Origine',(381.,0.,9.58964941899)) ;
#538=CARTESIAN_POINT('Vertex',(381.,0.,19.1781494186)) ;
#541=CARTESIAN_POINT('Line Origine',(190.5,0.,19.1781494186)) ;
#553=CARTESIAN_POINT('Axis2P3D Location',(0.,0.,19.1781494186)) ;
#558=CARTESIAN_POINT('Line Origine',(381.,879.475,19.1781494186)) ;
#562=CARTESIAN_POINT('Vertex',(381.,1758.95,19.1781494186)) ;
#565=CARTESIAN_POINT('Line Origine',(190.5,1758.95,19.1781494186)) ;
#576=CARTESIAN_POINT('Line Origine',(323.85,381.,19.1781494186)) ;
#580=CARTESIAN_POINT('Vertex',(323.85,704.85,19.1781494186)) ;
#582=CARTESIAN_POINT('Vertex',(323.85,57.1500000004,19.1781494186)) ;
#585=CARTESIAN_POINT('Line Origine',(190.5,57.1500000004,19.1781494186)) ;
#589=CARTESIAN_POINT('Vertex',(57.1500000004,57.1500000004,19.1781494186)) ;
#592=CARTESIAN_POINT('Line Origine',(57.1500000004,381.,19.1781494186)) ;
#596=CARTESIAN_POINT('Vertex',(57.1500000004,704.85,19.1781494186)) ;
#599=CARTESIAN_POINT('Line Origine',(190.5,704.85,19.1781494186)) ;
#610=CARTESIAN_POINT('Line Origine',(323.85,1262.0625,19.1781494186)) ;
#614=CARTESIAN_POINT('Vertex',(323.85,1701.8,19.1781494186)) ;
#616=CARTESIAN_POINT('Vertex',(323.85,822.324999999,19.1781494186)) ;
#619=CARTESIAN_POINT('Line Origine',(190.5,822.324999999,19.1781494186)) ;
#623=CARTESIAN_POINT('Vertex',(57.1500000004,822.324999999,19.1781494186)) ;
#626=CARTESIAN_POINT('Line Origine',(57.1500000004,1262.0625,19.1781494186)) ;
#630=CARTESIAN_POINT('Vertex',(57.1500000004,1701.8,19.1781494186)) ;
#633=CARTESIAN_POINT('Line Origine',(190.5,1701.8,19.1781494186)) ;
#645=CARTESIAN_POINT('Axis2P3D Location',(0.,1758.95,19.1781494186)) ;
#650=CARTESIAN_POINT('Line Origine',(381.,1758.95,9.58964941899)) ;
#662=CARTESIAN_POINT('Axis2P3D Location',(381.,1758.95,19.1781494186)) ;
#674=CARTESIAN_POINT('Axis2P3D Location',(323.85,704.85,19.1781494186)) ;
#679=CARTESIAN_POINT('Line Origine',(323.85,57.1500000007,9.58964941899)) ;
#684=CARTESIAN_POINT('Line Origine',(323.85,704.85,9.58964941899)) ;
#696=CARTESIAN_POINT('Axis2P3D Location',(57.15,704.85,19.1781494186)) ;
#701=CARTESIAN_POINT('Line Origine',(57.15,704.85,9.58964941899)) ;
#713=CARTESIAN_POINT('Axis2P3D Location',(57.15,57.15,19.1781494186)) ;
#718=CARTESIAN_POINT('Line Origine',(57.15,57.15,9.58964941899)) ;
#730=CARTESIAN_POINT('Axis2P3D Location',(323.85,57.15,19.1781494186)) ;
#742=CARTESIAN_POINT('Axis2P3D Location',(323.85,1701.8,19.1781494186)) ;
#747=CARTESIAN_POINT('Line Origine',(323.85,822.325,9.58964941899)) ;
#752=CARTESIAN_POINT('Line Origine',(323.85,1701.8,9.58964941899)) ;
#764=CARTESIAN_POINT('Axis2P3D Location',(57.15,1701.8,19.1781494186)) ;
#769=CARTESIAN_POINT('Line Origine',(57.15,1701.8,9.58964941899)) ;
#781=CARTESIAN_POINT('Axis2P3D Location',(57.15,822.325,19.1781494186)) ;
#786=CARTESIAN_POINT('Line Origine',(57.15,822.325,9.58964941899)) ;
#798=CARTESIAN_POINT('Axis2P3D Location',(323.85,822.325,19.1781494186)) ;
#818=CARTESIAN_POINT('NONE',(0.,0.,0.)) ;
#819=CARTESIAN_POINT('NONE',(-1758.95,381.,0.)) ;
#73=DIRECTION('NONE',(1.,0.,0.)) ;
#74=DIRECTION('NONE',(0.,0.,1.)) ;
#75=DIRECTION('NONE',(1.,0.,0.)) ;
#76=DIRECTION('NONE',(0.,0.,1.)) ;
#89=DIRECTION('Axis2P3D Direction',(-1.,0.,0.)) ;
#90=DIRECTION('Axis2P3D XDirection',(0.,0.,1.)) ;
#94=DIRECTION('Vector Direction',(0.,1.,0.)) ;
#103=DIRECTION('Vector Direction',(0.,0.,-1.)) ;
#110=DIRECTION('Vector Direction',(0.,1.,0.)) ;
#117=DIRECTION('Vector Direction',(0.,0.,-1.)) ;
#129=DIRECTION('Axis2P3D Direction',(0.,0.,-1.)) ;
#130=DIRECTION('Axis2P3D XDirection',(-1.,0.,0.)) ;
#134=DIRECTION('Vector Direction',(1.,0.,0.)) ;
#141=DIRECTION('Vector Direction',(0.,-1.,0.)) ;
#148=DIRECTION('Vector Direction',(-1.,0.,0.)) ;
#160=DIRECTION('Axis2P3D Direction',(0.,-1.,0.)) ;
#161=DIRECTION('Axis2P3D XDirection',(0.,0.,-1.)) ;
#165=DIRECTION('Vector Direction',(0.,0.,-1.)) ;
#172=DIRECTION('Vector Direction',(-1.,0.,0.)) ;
#184=DIRECTION('Axis2P3D Direction',(0.,0.,-1.)) ;
#185=DIRECTION('Axis2P3D XDirection',(-1.,0.,0.)) ;
#189=DIRECTION('Vector Direction',(0.,-1.,0.)) ;
#196=DIRECTION('Vector Direction',(1.,0.,0.)) ;
#208=DIRECTION('Axis2P3D Direction',(0.,1.,0.)) ;
#209=DIRECTION('Axis2P3D XDirection',(0.,0.,1.)) ;
#213=DIRECTION('Vector Direction',(0.,0.,-1.)) ;
#225=DIRECTION('Axis2P3D Direction',(1.,0.,0.)) ;
#226=DIRECTION('Axis2P3D XDirection',(0.,0.,-1.)) ;
#241=DIRECTION('Axis2P3D Direction',(-1.,0.,0.)) ;
#242=DIRECTION('Axis2P3D XDirection',(0.,0.,1.)) ;
#246=DIRECTION('Vector Direction',(0.,1.,0.)) ;
#255=DIRECTION('Vector Direction',(0.,0.,-1.)) ;
#262=DIRECTION('Vector Direction',(0.,1.,0.)) ;
#269=DIRECTION('Vector Direction',(0.,0.,-1.)) ;
#281=DIRECTION('Axis2P3D Direction',(0.,0.,-1.)) ;
#282=DIRECTION('Axis2P3D XDirection',(-1.,0.,0.)) ;
#286=DIRECTION('Vector Direction',(1.,0.,0.)) ;
#293=DIRECTION('Vector Direction',(0.,-1.,0.)) ;
#300=DIRECTION('Vector Direction',(-1.,0.,0.)) ;
#312=DIRECTION('Axis2P3D Direction',(0.,-1.,0.)) ;
#313=DIRECTION('Axis2P3D XDirection',(0.,0.,-1.)) ;
#317=DIRECTION('Vector Direction',(0.,0.,-1.)) ;
#324=DIRECTION('Vector Direction',(-1.,0.,0.)) ;
#336=DIRECTION('Axis2P3D Direction',(0.,0.,-1.)) ;
#337=DIRECTION('Axis2P3D XDirection',(-1.,0.,0.)) ;
#341=DIRECTION('Vector Direction',(0.,-1.,0.)) ;
#348=DIRECTION('Vector Direction',(1.,0.,0.)) ;
#360=DIRECTION('Axis2P3D Direction',(0.,1.,0.)) ;
#361=DIRECTION('Axis2P3D XDirection',(0.,0.,1.)) ;
#365=DIRECTION('Vector Direction',(0.,0.,-1.)) ;
#377=DIRECTION('Axis2P3D Direction',(1.,0.,0.)) ;
#378=DIRECTION('Axis2P3D XDirection',(0.,0.,-1.)) ;
#391=DIRECTION('Axis2P3D Direction',(-1.,0.,0.)) ;
#392=DIRECTION('Axis2P3D XDirection',(0.,0.,1.)) ;
#396=DIRECTION('Vector Direction',(0.,1.,0.)) ;
#405=DIRECTION('Vector Direction',(0.,0.,-1.)) ;
#412=DIRECTION('Vector Direction',(0.,1.,0.)) ;
#419=DIRECTION('Vector Direction',(0.,0.,-1.)) ;
#431=DIRECTION('Axis2P3D Direction',(0.,0.,-1.)) ;
#432=DIRECTION('Axis2P3D XDirection',(-1.,0.,0.)) ;
#436=DIRECTION('Vector Direction',(1.,0.,0.)) ;
#443=DIRECTION('Vector Direction',(0.,-1.,0.)) ;
#450=DIRECTION('Vector Direction',(-1.,0.,0.)) ;
#461=DIRECTION('Vector Direction',(0.,-1.,0.)) ;
#470=DIRECTION('Vector Direction',(1.,0.,0.)) ;
#477=DIRECTION('Vector Direction',(0.,1.,0.)) ;
#484=DIRECTION('Vector Direction',(-1.,0.,0.)) ;
#495=DIRECTION('Vector Direction',(0.,-1.,0.)) ;
#504=DIRECTION('Vector Direction',(1.,0.,0.)) ;
#511=DIRECTION('Vector Direction',(0.,1.,0.)) ;
#518=DIRECTION('Vector Direction',(-1.,0.,0.)) ;
#530=DIRECTION('Axis2P3D Direction',(0.,-1.,0.)) ;
#531=DIRECTION('Axis2P3D XDirection',(0.,0.,-1.)) ;
#535=DIRECTION('Vector Direction',(0.,0.,-1.)) ;
#542=DIRECTION('Vector Direction',(-1.,0.,0.)) ;
#554=DIRECTION('Axis2P3D Direction',(0.,0.,-1.)) ;
#555=DIRECTION('Axis2P3D XDirection',(-1.,0.,0.)) ;
#559=DIRECTION('Vector Direction',(0.,-1.,0.)) ;
#566=DIRECTION('Vector Direction',(1.,0.,0.)) ;
#577=DIRECTION('Vector Direction',(0.,-1.,0.)) ;
#586=DIRECTION('Vector Direction',(-1.,0.,0.)) ;
#593=DIRECTION('Vector Direction',(0.,1.,0.)) ;
#600=DIRECTION('Vector Direction',(1.,0.,0.)) ;
#611=DIRECTION('Vector Direction',(0.,-1.,0.)) ;
#620=DIRECTION('Vector Direction',(-1.,0.,0.)) ;
#627=DIRECTION('Vector Direction',(0.,1.,0.)) ;
#634=DIRECTION('Vector Direction',(1.,0.,0.)) ;
#646=DIRECTION('Axis2P3D Direction',(0.,1.,0.)) ;
#647=DIRECTION('Axis2P3D XDirection',(0.,0.,1.)) ;
#651=DIRECTION('Vector Direction',(0.,0.,-1.)) ;
#663=DIRECTION('Axis2P3D Direction',(1.,0.,0.)) ;
#664=DIRECTION('Axis2P3D XDirection',(0.,0.,-1.)) ;
#675=DIRECTION('Axis2P3D Direction',(1.,0.,0.)) ;
#676=DIRECTION('Axis2P3D XDirection',(0.,0.,-1.)) ;
#680=DIRECTION('Vector Direction',(0.,0.,-1.)) ;
#685=DIRECTION('Vector Direction',(0.,0.,-1.)) ;
#697=DIRECTION('Axis2P3D Direction',(0.,1.,0.)) ;
#698=DIRECTION('Axis2P3D XDirection',(0.,0.,1.)) ;
#702=DIRECTION('Vector Direction',(0.,0.,-1.)) ;
#714=DIRECTION('Axis2P3D Direction',(-1.,0.,0.)) ;
#715=DIRECTION('Axis2P3D XDirection',(0.,0.,1.)) ;
#719=DIRECTION('Vector Direction',(0.,0.,-1.)) ;
#731=DIRECTION('Axis2P3D Direction',(0.,-1.,0.)) ;
#732=DIRECTION('Axis2P3D XDirection',(0.,0.,-1.)) ;
#743=DIRECTION('Axis2P3D Direction',(1.,0.,0.)) ;
#744=DIRECTION('Axis2P3D XDirection',(0.,0.,-1.)) ;
#748=DIRECTION('Vector Direction',(0.,0.,-1.)) ;
#753=DIRECTION('Vector Direction',(0.,0.,-1.)) ;
#765=DIRECTION('Axis2P3D Direction',(0.,1.,0.)) ;
#766=DIRECTION('Axis2P3D XDirection',(0.,0.,1.)) ;
#770=DIRECTION('Vector Direction',(0.,0.,-1.)) ;
#782=DIRECTION('Axis2P3D Direction',(-1.,0.,0.)) ;
#783=DIRECTION('Axis2P3D XDirection',(0.,0.,1.)) ;
#787=DIRECTION('Vector Direction',(0.,0.,-1.)) ;
#799=DIRECTION('Axis2P3D Direction',(0.,-1.,0.)) ;
#800=DIRECTION('Axis2P3D XDirection',(0.,0.,-1.)) ;
#820=DIRECTION('NONE',(1.,0.,0.)) ;
#821=DIRECTION('NONE',(0.,0.,1.)) ;
#822=DIRECTION('NONE',(0.,-1.,0.)) ;
#823=DIRECTION('NONE',(0.,0.,1.)) ;
#69=AXIS2_PLACEMENT_3D(' ',#72,#76,#75) ;
#70=AXIS2_PLACEMENT_3D(' ',#71,#74,#73) ;
#91=AXIS2_PLACEMENT_3D('Plane Axis2P3D',#88,#89,#90) ;
#131=AXIS2_PLACEMENT_3D('Plane Axis2P3D',#128,#129,#130) ;
#162=AXIS2_PLACEMENT_3D('Plane Axis2P3D',#159,#160,#161) ;
#186=AXIS2_PLACEMENT_3D('Plane Axis2P3D',#183,#184,#185) ;
#210=AXIS2_PLACEMENT_3D('Plane Axis2P3D',#207,#208,#209) ;
#227=AXIS2_PLACEMENT_3D('Plane Axis2P3D',#224,#225,#226) ;
#243=AXIS2_PLACEMENT_3D('Plane Axis2P3D',#240,#241,#242) ;
#283=AXIS2_PLACEMENT_3D('Plane Axis2P3D',#280,#281,#282) ;
#314=AXIS2_PLACEMENT_3D('Plane Axis2P3D',#311,#312,#313) ;
#338=AXIS2_PLACEMENT_3D('Plane Axis2P3D',#335,#336,#337) ;
#362=AXIS2_PLACEMENT_3D('Plane Axis2P3D',#359,#360,#361) ;
#379=AXIS2_PLACEMENT_3D('Plane Axis2P3D',#376,#377,#378) ;
#393=AXIS2_PLACEMENT_3D('Plane Axis2P3D',#390,#391,#392) ;
#433=AXIS2_PLACEMENT_3D('Plane Axis2P3D',#430,#431,#432) ;
#532=AXIS2_PLACEMENT_3D('Plane Axis2P3D',#529,#530,#531) ;
#556=AXIS2_PLACEMENT_3D('Plane Axis2P3D',#553,#554,#555) ;
#648=AXIS2_PLACEMENT_3D('Plane Axis2P3D',#645,#646,#647) ;
#665=AXIS2_PLACEMENT_3D('Plane Axis2P3D',#662,#663,#664) ;
#677=AXIS2_PLACEMENT_3D('Plane Axis2P3D',#674,#675,#676) ;
#699=AXIS2_PLACEMENT_3D('Plane Axis2P3D',#696,#697,#698) ;
#716=AXIS2_PLACEMENT_3D('Plane Axis2P3D',#713,#714,#715) ;
#733=AXIS2_PLACEMENT_3D('Plane Axis2P3D',#730,#731,#732) ;
#745=AXIS2_PLACEMENT_3D('Plane Axis2P3D',#742,#743,#744) ;
#767=AXIS2_PLACEMENT_3D('Plane Axis2P3D',#764,#765,#766) ;
#784=AXIS2_PLACEMENT_3D('Plane Axis2P3D',#781,#782,#783) ;
#801=AXIS2_PLACEMENT_3D('Plane Axis2P3D',#798,#799,#800) ;
#816=AXIS2_PLACEMENT_3D(' ',#819,#823,#822) ;
#817=AXIS2_PLACEMENT_3D(' ',#818,#821,#820) ;
#45=PRODUCT_DEFINITION_SHAPE(' ',' ',#17) ;
#59=PRODUCT_DEFINITION_SHAPE(' ',' ',#56) ;
#65=PRODUCT_DEFINITION_SHAPE(' ',' ',#64) ;
#86=PRODUCT_DEFINITION_SHAPE(' ',' ',#83) ;
#812=PRODUCT_DEFINITION_SHAPE(' ',' ',#811) ;
#34=APPROVAL_PERSON_ORGANIZATION(#28,#24,#22) ;
#28=PERSON_AND_ORGANIZATION(#25,#26) ;
#25=PERSON(' ',' ',' ',$,$,$) ;
#26=ORGANIZATION(' ',' ',' ') ;
#24=APPROVAL(#23,' ') ;
#23=APPROVAL_STATUS('not_yet_approved') ;
#22=APPROVAL_ROLE('APPROVER') ;
#13=DATE_AND_TIME(#11,#12) ;
#12=LOCAL_TIME(13,43,55.,#10) ;
#10=COORDINATED_UNIVERSAL_TIME_OFFSET(0,0,.AHEAD.) ;
#122=ORIENTED_EDGE('',*,*,#101,.F.) ;
#123=ORIENTED_EDGE('',*,*,#108,.F.) ;
#124=ORIENTED_EDGE('',*,*,#115,.T.) ;
#125=ORIENTED_EDGE('',*,*,#120,.T.) ;
#153=ORIENTED_EDGE('',*,*,#101,.T.) ;
#154=ORIENTED_EDGE('',*,*,#139,.T.) ;
#155=ORIENTED_EDGE('',*,*,#146,.T.) ;
#156=ORIENTED_EDGE('',*,*,#151,.T.) ;
#177=ORIENTED_EDGE('',*,*,#151,.F.) ;
#178=ORIENTED_EDGE('',*,*,#170,.F.) ;
#179=ORIENTED_EDGE('',*,*,#175,.T.) ;
#180=ORIENTED_EDGE('',*,*,#108,.T.) ;
#201=ORIENTED_EDGE('',*,*,#115,.F.) ;
#202=ORIENTED_EDGE('',*,*,#175,.F.) ;
#203=ORIENTED_EDGE('',*,*,#194,.F.) ;
#204=ORIENTED_EDGE('',*,*,#199,.F.) ;
#218=ORIENTED_EDGE('',*,*,#139,.F.) ;
#219=ORIENTED_EDGE('',*,*,#120,.F.) ;
#220=ORIENTED_EDGE('',*,*,#199,.T.) ;
#221=ORIENTED_EDGE('',*,*,#216,.T.) ;
#230=ORIENTED_EDGE('',*,*,#146,.F.) ;
#231=ORIENTED_EDGE('',*,*,#216,.F.) ;
#232=ORIENTED_EDGE('',*,*,#194,.T.) ;
#233=ORIENTED_EDGE('',*,*,#170,.T.) ;
#274=ORIENTED_EDGE('',*,*,#253,.F.) ;
#275=ORIENTED_EDGE('',*,*,#260,.F.) ;
#276=ORIENTED_EDGE('',*,*,#267,.T.) ;
#277=ORIENTED_EDGE('',*,*,#272,.T.) ;
#305=ORIENTED_EDGE('',*,*,#253,.T.) ;
#306=ORIENTED_EDGE('',*,*,#291,.T.) ;
#307=ORIENTED_EDGE('',*,*,#298,.T.) ;
#308=ORIENTED_EDGE('',*,*,#303,.T.) ;
#329=ORIENTED_EDGE('',*,*,#303,.F.) ;
#330=ORIENTED_EDGE('',*,*,#322,.F.) ;
#331=ORIENTED_EDGE('',*,*,#327,.T.) ;
#332=ORIENTED_EDGE('',*,*,#260,.T.) ;
#353=ORIENTED_EDGE('',*,*,#267,.F.) ;
#354=ORIENTED_EDGE('',*,*,#327,.F.) ;
#355=ORIENTED_EDGE('',*,*,#346,.F.) ;
#356=ORIENTED_EDGE('',*,*,#351,.F.) ;
#370=ORIENTED_EDGE('',*,*,#291,.F.) ;
#371=ORIENTED_EDGE('',*,*,#272,.F.) ;
#372=ORIENTED_EDGE('',*,*,#351,.T.) ;
#373=ORIENTED_EDGE('',*,*,#368,.T.) ;
#382=ORIENTED_EDGE('',*,*,#298,.F.) ;
#383=ORIENTED_EDGE('',*,*,#368,.F.) ;
#384=ORIENTED_EDGE('',*,*,#346,.T.) ;
#385=ORIENTED_EDGE('',*,*,#322,.T.) ;
#424=ORIENTED_EDGE('',*,*,#403,.F.) ;
#425=ORIENTED_EDGE('',*,*,#410,.F.) ;
#426=ORIENTED_EDGE('',*,*,#417,.T.) ;
#427=ORIENTED_EDGE('',*,*,#422,.T.) ;
#455=ORIENTED_EDGE('',*,*,#403,.T.) ;
#456=ORIENTED_EDGE('',*,*,#441,.T.) ;
#457=ORIENTED_EDGE('',*,*,#448,.T.) ;
#458=ORIENTED_EDGE('',*,*,#453,.T.) ;
#489=ORIENTED_EDGE('',*,*,#468,.F.) ;
#490=ORIENTED_EDGE('',*,*,#475,.F.) ;
#491=ORIENTED_EDGE('',*,*,#482,.F.) ;
#492=ORIENTED_EDGE('',*,*,#487,.F.) ;
#523=ORIENTED_EDGE('',*,*,#502,.F.) ;
#524=ORIENTED_EDGE('',*,*,#509,.F.) ;
#525=ORIENTED_EDGE('',*,*,#516,.F.) ;
#526=ORIENTED_EDGE('',*,*,#521,.F.) ;
#547=ORIENTED_EDGE('',*,*,#453,.F.) ;
#548=ORIENTED_EDGE('',*,*,#540,.F.) ;
#549=ORIENTED_EDGE('',*,*,#545,.T.) ;
#550=ORIENTED_EDGE('',*,*,#410,.T.) ;
#571=ORIENTED_EDGE('',*,*,#417,.F.) ;
#572=ORIENTED_EDGE('',*,*,#545,.F.) ;
#573=ORIENTED_EDGE('',*,*,#564,.F.) ;
#574=ORIENTED_EDGE('',*,*,#569,.F.) ;
#605=ORIENTED_EDGE('',*,*,#584,.T.) ;
#606=ORIENTED_EDGE('',*,*,#591,.T.) ;
#607=ORIENTED_EDGE('',*,*,#598,.T.) ;
#608=ORIENTED_EDGE('',*,*,#603,.T.) ;
#639=ORIENTED_EDGE('',*,*,#618,.T.) ;
#640=ORIENTED_EDGE('',*,*,#625,.T.) ;
#641=ORIENTED_EDGE('',*,*,#632,.T.) ;
#642=ORIENTED_EDGE('',*,*,#637,.T.) ;
#656=ORIENTED_EDGE('',*,*,#441,.F.) ;
#657=ORIENTED_EDGE('',*,*,#422,.F.) ;
#658=ORIENTED_EDGE('',*,*,#569,.T.) ;
#659=ORIENTED_EDGE('',*,*,#654,.T.) ;
#668=ORIENTED_EDGE('',*,*,#448,.F.) ;
#669=ORIENTED_EDGE('',*,*,#654,.F.) ;
#670=ORIENTED_EDGE('',*,*,#564,.T.) ;
#671=ORIENTED_EDGE('',*,*,#540,.T.) ;
#690=ORIENTED_EDGE('',*,*,#468,.T.) ;
#691=ORIENTED_EDGE('',*,*,#683,.F.) ;
#692=ORIENTED_EDGE('',*,*,#584,.F.) ;
#693=ORIENTED_EDGE('',*,*,#688,.T.) ;
#707=ORIENTED_EDGE('',*,*,#475,.T.) ;
#708=ORIENTED_EDGE('',*,*,#688,.F.) ;
#709=ORIENTED_EDGE('',*,*,#603,.F.) ;
#710=ORIENTED_EDGE('',*,*,#705,.T.) ;
#724=ORIENTED_EDGE('',*,*,#482,.T.) ;
#725=ORIENTED_EDGE('',*,*,#705,.F.) ;
#726=ORIENTED_EDGE('',*,*,#598,.F.) ;
#727=ORIENTED_EDGE('',*,*,#722,.T.) ;
#736=ORIENTED_EDGE('',*,*,#487,.T.) ;
#737=ORIENTED_EDGE('',*,*,#722,.F.) ;
#738=ORIENTED_EDGE('',*,*,#591,.F.) ;
#739=ORIENTED_EDGE('',*,*,#683,.T.) ;
#758=ORIENTED_EDGE('',*,*,#502,.T.) ;
#759=ORIENTED_EDGE('',*,*,#751,.F.) ;
#760=ORIENTED_EDGE('',*,*,#618,.F.) ;
#761=ORIENTED_EDGE('',*,*,#756,.T.) ;
#775=ORIENTED_EDGE('',*,*,#509,.T.) ;
#776=ORIENTED_EDGE('',*,*,#756,.F.) ;
#777=ORIENTED_EDGE('',*,*,#637,.F.) ;
#778=ORIENTED_EDGE('',*,*,#773,.T.) ;
#792=ORIENTED_EDGE('',*,*,#516,.T.) ;
#793=ORIENTED_EDGE('',*,*,#773,.F.) ;
#794=ORIENTED_EDGE('',*,*,#632,.F.) ;
#795=ORIENTED_EDGE('',*,*,#790,.T.) ;
#804=ORIENTED_EDGE('',*,*,#521,.T.) ;
#805=ORIENTED_EDGE('',*,*,#790,.F.) ;
#806=ORIENTED_EDGE('',*,*,#625,.F.) ;
#807=ORIENTED_EDGE('',*,*,#751,.T.) ;
#493=FACE_BOUND('',#488,.T.) ;
#527=FACE_BOUND('',#522,.T.) ;
#609=FACE_BOUND('',#604,.T.) ;
#643=FACE_BOUND('',#638,.T.) ;
#87=CLOSED_SHELL('Closed Shell',(#127,#158,#182,#206,#223,#235)) ;
#239=CLOSED_SHELL('Closed Shell',(#279,#310,#334,#358,#375,#387)) ;
#389=CLOSED_SHELL('Closed Shell',(#429,#528,#552,#644,#661,#673,#695,#712,#729,#741,#763,#780,#797,#809)) ;
#68=ITEM_DEFINED_TRANSFORMATION(' ',' ',#70,#69) ;
#815=ITEM_DEFINED_TRANSFORMATION(' ',' ',#817,#816) ;
#95=VECTOR('Line Direction',#94,1.) ;
#104=VECTOR('Line Direction',#103,1.) ;
#111=VECTOR('Line Direction',#110,1.) ;
#118=VECTOR('Line Direction',#117,1.) ;
#135=VECTOR('Line Direction',#134,1.) ;
#142=VECTOR('Line Direction',#141,1.) ;
#149=VECTOR('Line Direction',#148,1.) ;
#166=VECTOR('Line Direction',#165,1.) ;
#173=VECTOR('Line Direction',#172,1.) ;
#190=VECTOR('Line Direction',#189,1.) ;
#197=VECTOR('Line Direction',#196,1.) ;
#214=VECTOR('Line Direction',#213,1.) ;
#247=VECTOR('Line Direction',#246,1.) ;
#256=VECTOR('Line Direction',#255,1.) ;
#263=VECTOR('Line Direction',#262,1.) ;
#270=VECTOR('Line Direction',#269,1.) ;
#287=VECTOR('Line Direction',#286,1.) ;
#294=VECTOR('Line Direction',#293,1.) ;
#301=VECTOR('Line Direction',#300,1.) ;
#318=VECTOR('Line Direction',#317,1.) ;
#325=VECTOR('Line Direction',#324,1.) ;
#342=VECTOR('Line Direction',#341,1.) ;
#349=VECTOR('Line Direction',#348,1.) ;
#366=VECTOR('Line Direction',#365,1.) ;
#397=VECTOR('Line Direction',#396,1.) ;
#406=VECTOR('Line Direction',#405,1.) ;
#413=VECTOR('Line Direction',#412,1.) ;
#420=VECTOR('Line Direction',#419,1.) ;
#437=VECTOR('Line Direction',#436,1.) ;
#444=VECTOR('Line Direction',#443,1.) ;
#451=VECTOR('Line Direction',#450,1.) ;
#462=VECTOR('Line Direction',#461,1.) ;
#471=VECTOR('Line Direction',#470,1.) ;
#478=VECTOR('Line Direction',#477,1.) ;
#485=VECTOR('Line Direction',#484,1.) ;
#496=VECTOR('Line Direction',#495,1.) ;
#505=VECTOR('Line Direction',#504,1.) ;
#512=VECTOR('Line Direction',#511,1.) ;
#519=VECTOR('Line Direction',#518,1.) ;
#536=VECTOR('Line Direction',#535,1.) ;
#543=VECTOR('Line Direction',#542,1.) ;
#560=VECTOR('Line Direction',#559,1.) ;
#567=VECTOR('Line Direction',#566,1.) ;
#578=VECTOR('Line Direction',#577,1.) ;
#587=VECTOR('Line Direction',#586,1.) ;
#594=VECTOR('Line Direction',#593,1.) ;
#601=VECTOR('Line Direction',#600,1.) ;
#612=VECTOR('Line Direction',#611,1.) ;
#621=VECTOR('Line Direction',#620,1.) ;
#628=VECTOR('Line Direction',#627,1.) ;
#635=VECTOR('Line Direction',#634,1.) ;
#652=VECTOR('Line Direction',#651,1.) ;
#681=VECTOR('Line Direction',#680,1.) ;
#686=VECTOR('Line Direction',#685,1.) ;
#703=VECTOR('Line Direction',#702,1.) ;
#720=VECTOR('Line Direction',#719,1.) ;
#749=VECTOR('Line Direction',#748,1.) ;
#754=VECTOR('Line Direction',#753,1.) ;
#771=VECTOR('Line Direction',#770,1.) ;
#788=VECTOR('Line Direction',#787,1.) ;
#237=ADVANCED_BREP_SHAPE_REPRESENTATION('NONE',(#236,#388,#810),#51) ;
#44=SHAPE_REPRESENTATION(' ',(#69,#816),#51) ;
#52=SHAPE_REPRESENTATION(' ',(#70),#78) ;
#79=SHAPE_REPRESENTATION(' ',(#817),#825) ;
#127=ADVANCED_FACE('MANIFOLD_SOLID_BREP #168',(#126),#92,.T.) ;
#158=ADVANCED_FACE('MANIFOLD_SOLID_BREP #168',(#157),#132,.T.) ;
#182=ADVANCED_FACE('MANIFOLD_SOLID_BREP #168',(#181),#163,.T.) ;
#206=ADVANCED_FACE('MANIFOLD_SOLID_BREP #168',(#205),#187,.F.) ;
#223=ADVANCED_FACE('MANIFOLD_SOLID_BREP #168',(#222),#211,.T.) ;
#235=ADVANCED_FACE('MANIFOLD_SOLID_BREP #168',(#234),#228,.T.) ;
#279=ADVANCED_FACE('MANIFOLD_SOLID_BREP #327',(#278),#244,.T.) ;
#310=ADVANCED_FACE('MANIFOLD_SOLID_BREP #327',(#309),#284,.T.) ;
#334=ADVANCED_FACE('MANIFOLD_SOLID_BREP #327',(#333),#315,.T.) ;
#358=ADVANCED_FACE('MANIFOLD_SOLID_BREP #327',(#357),#339,.F.) ;
#375=ADVANCED_FACE('MANIFOLD_SOLID_BREP #327',(#374),#363,.T.) ;
#387=ADVANCED_FACE('MANIFOLD_SOLID_BREP #327',(#386),#380,.T.) ;
#429=ADVANCED_FACE('MANIFOLD_SOLID_BREP #751',(#428),#394,.T.) ;
#528=ADVANCED_FACE('MANIFOLD_SOLID_BREP #751',(#459,#493,#527),#434,.T.) ;
#552=ADVANCED_FACE('MANIFOLD_SOLID_BREP #751',(#551),#533,.T.) ;
#644=ADVANCED_FACE('MANIFOLD_SOLID_BREP #751',(#575,#609,#643),#557,.F.) ;
#661=ADVANCED_FACE('MANIFOLD_SOLID_BREP #751',(#660),#649,.T.) ;
#673=ADVANCED_FACE('MANIFOLD_SOLID_BREP #751',(#672),#666,.T.) ;
#695=ADVANCED_FACE('MANIFOLD_SOLID_BREP #751',(#694),#678,.F.) ;
#712=ADVANCED_FACE('MANIFOLD_SOLID_BREP #751',(#711),#700,.F.) ;
#729=ADVANCED_FACE('MANIFOLD_SOLID_BREP #751',(#728),#717,.F.) ;
#741=ADVANCED_FACE('MANIFOLD_SOLID_BREP #751',(#740),#734,.F.) ;
#763=ADVANCED_FACE('MANIFOLD_SOLID_BREP #751',(#762),#746,.F.) ;
#780=ADVANCED_FACE('MANIFOLD_SOLID_BREP #751',(#779),#768,.F.) ;
#797=ADVANCED_FACE('MANIFOLD_SOLID_BREP #751',(#796),#785,.F.) ;
#809=ADVANCED_FACE('MANIFOLD_SOLID_BREP #751',(#808),#802,.F.) ;
#4=APPLICATION_PROTOCOL_DEFINITION('international standard','config_control_design',1994,#1) ;
#35=APPROVAL_DATE_TIME(#13,#24) ;
#236=MANIFOLD_SOLID_BREP('MANIFOLD_SOLID_BREP #168',#87) ;
#388=MANIFOLD_SOLID_BREP('MANIFOLD_SOLID_BREP #327',#239) ;
#810=MANIFOLD_SOLID_BREP('MANIFOLD_SOLID_BREP #751',#389) ;
#11=CALENDAR_DATE(2025,28,3) ;
#33=CC_DESIGN_APPROVAL(#24,(#19,#6,#17)) ;
#21=CC_DESIGN_DATE_AND_TIME_ASSIGNMENT(#13,#20,(#19)) ;
#32=CC_DESIGN_DATE_AND_TIME_ASSIGNMENT(#13,#31,(#17)) ;
#20=DATE_TIME_ROLE('classification_date') ;
#31=DATE_TIME_ROLE('creation_date') ;
#30=CC_DESIGN_PERSON_AND_ORGANIZATION_ASSIGNMENT(#28,#29,(#19)) ;
#36=CC_DESIGN_PERSON_AND_ORGANIZATION_ASSIGNMENT(#28,#37,(#6)) ;
#38=CC_DESIGN_PERSON_AND_ORGANIZATION_ASSIGNMENT(#28,#39,(#6,#17)) ;
#40=CC_DESIGN_PERSON_AND_ORGANIZATION_ASSIGNMENT(#28,#41,(#5)) ;
#29=PERSON_AND_ORGANIZATION_ROLE('classification_officer') ;
#37=PERSON_AND_ORGANIZATION_ROLE('design_supplier') ;
#39=PERSON_AND_ORGANIZATION_ROLE('creator') ;
#41=PERSON_AND_ORGANIZATION_ROLE('design_owner') ;
#42=CC_DESIGN_SECURITY_CLASSIFICATION(#19,(#6,#64,#811)) ;
#58=DOCUMENT('9','Part3.CATPart','CATPart document',#57) ;
#85=DOCUMENT('10','PPte2PanH Reg.CATPart','CATPart document',#84) ;
#57=DOCUMENT_TYPE('') ;
#84=DOCUMENT_TYPE('') ;
#66=CONTEXT_DEPENDENT_SHAPE_REPRESENTATION(#67,#65) ;
#813=CONTEXT_DEPENDENT_SHAPE_REPRESENTATION(#814,#812) ;
#63=SHAPE_REPRESENTATION_RELATIONSHIP(' ',' ',#52,#61) ;
#238=SHAPE_REPRESENTATION_RELATIONSHIP(' ',' ',#79,#237) ;
#3=DESIGN_CONTEXT(' ',#1,'design') ;
#101=EDGE_CURVE('',#98,#100,#96,.T.) ;
#108=EDGE_CURVE('',#107,#98,#105,.T.) ;
#115=EDGE_CURVE('',#107,#114,#112,.T.) ;
#120=EDGE_CURVE('',#114,#100,#119,.T.) ;
#139=EDGE_CURVE('',#100,#138,#136,.T.) ;
#146=EDGE_CURVE('',#138,#145,#143,.T.) ;
#151=EDGE_CURVE('',#145,#98,#150,.T.) ;
#170=EDGE_CURVE('',#169,#145,#167,.T.) ;
#175=EDGE_CURVE('',#169,#107,#174,.T.) ;
#194=EDGE_CURVE('',#193,#169,#191,.T.) ;
#199=EDGE_CURVE('',#114,#193,#198,.T.) ;
#216=EDGE_CURVE('',#193,#138,#215,.T.) ;
#253=EDGE_CURVE('',#250,#252,#248,.T.) ;
#260=EDGE_CURVE('',#259,#250,#257,.T.) ;
#267=EDGE_CURVE('',#259,#266,#264,.T.) ;
#272=EDGE_CURVE('',#266,#252,#271,.T.) ;
#291=EDGE_CURVE('',#252,#290,#288,.T.) ;
#298=EDGE_CURVE('',#290,#297,#295,.T.) ;
#303=EDGE_CURVE('',#297,#250,#302,.T.) ;
#322=EDGE_CURVE('',#321,#297,#319,.T.) ;
#327=EDGE_CURVE('',#321,#259,#326,.T.) ;
#346=EDGE_CURVE('',#345,#321,#343,.T.) ;
#351=EDGE_CURVE('',#266,#345,#350,.T.) ;
#368=EDGE_CURVE('',#345,#290,#367,.T.) ;
#403=EDGE_CURVE('',#400,#402,#398,.T.) ;
#410=EDGE_CURVE('',#409,#400,#407,.T.) ;
#417=EDGE_CURVE('',#409,#416,#414,.T.) ;
#422=EDGE_CURVE('',#416,#402,#421,.T.) ;
#441=EDGE_CURVE('',#402,#440,#438,.T.) ;
#448=EDGE_CURVE('',#440,#447,#445,.T.) ;
#453=EDGE_CURVE('',#447,#400,#452,.T.) ;
#468=EDGE_CURVE('',#465,#467,#463,.T.) ;
#475=EDGE_CURVE('',#474,#465,#472,.T.) ;
#482=EDGE_CURVE('',#481,#474,#479,.T.) ;
#487=EDGE_CURVE('',#467,#481,#486,.T.) ;
#502=EDGE_CURVE('',#499,#501,#497,.T.) ;
#509=EDGE_CURVE('',#508,#499,#506,.T.) ;
#516=EDGE_CURVE('',#515,#508,#513,.T.) ;
#521=EDGE_CURVE('',#501,#515,#520,.T.) ;
#540=EDGE_CURVE('',#539,#447,#537,.T.) ;
#545=EDGE_CURVE('',#539,#409,#544,.T.) ;
#564=EDGE_CURVE('',#563,#539,#561,.T.) ;
#569=EDGE_CURVE('',#416,#563,#568,.T.) ;
#584=EDGE_CURVE('',#581,#583,#579,.T.) ;
#591=EDGE_CURVE('',#583,#590,#588,.T.) ;
#598=EDGE_CURVE('',#590,#597,#595,.T.) ;
#603=EDGE_CURVE('',#597,#581,#602,.T.) ;
#618=EDGE_CURVE('',#615,#617,#613,.T.) ;
#625=EDGE_CURVE('',#617,#624,#622,.T.) ;
#632=EDGE_CURVE('',#624,#631,#629,.T.) ;
#637=EDGE_CURVE('',#631,#615,#636,.T.) ;
#654=EDGE_CURVE('',#563,#440,#653,.T.) ;
#683=EDGE_CURVE('',#583,#467,#682,.T.) ;
#688=EDGE_CURVE('',#581,#465,#687,.T.) ;
#705=EDGE_CURVE('',#597,#474,#704,.T.) ;
#722=EDGE_CURVE('',#590,#481,#721,.T.) ;
#751=EDGE_CURVE('',#617,#501,#750,.T.) ;
#756=EDGE_CURVE('',#615,#499,#755,.T.) ;
#773=EDGE_CURVE('',#631,#508,#772,.T.) ;
#790=EDGE_CURVE('',#624,#515,#789,.T.) ;
#121=EDGE_LOOP('',(#122,#123,#124,#125)) ;
#152=EDGE_LOOP('',(#153,#154,#155,#156)) ;
#176=EDGE_LOOP('',(#177,#178,#179,#180)) ;
#200=EDGE_LOOP('',(#201,#202,#203,#204)) ;
#217=EDGE_LOOP('',(#218,#219,#220,#221)) ;
#229=EDGE_LOOP('',(#230,#231,#232,#233)) ;
#273=EDGE_LOOP('',(#274,#275,#276,#277)) ;
#304=EDGE_LOOP('',(#305,#306,#307,#308)) ;
#328=EDGE_LOOP('',(#329,#330,#331,#332)) ;
#352=EDGE_LOOP('',(#353,#354,#355,#356)) ;
#369=EDGE_LOOP('',(#370,#371,#372,#373)) ;
#381=EDGE_LOOP('',(#382,#383,#384,#385)) ;
#423=EDGE_LOOP('',(#424,#425,#426,#427)) ;
#454=EDGE_LOOP('',(#455,#456,#457,#458)) ;
#488=EDGE_LOOP('',(#489,#490,#491,#492)) ;
#522=EDGE_LOOP('',(#523,#524,#525,#526)) ;
#546=EDGE_LOOP('',(#547,#548,#549,#550)) ;
#570=EDGE_LOOP('',(#571,#572,#573,#574)) ;
#604=EDGE_LOOP('',(#605,#606,#607,#608)) ;
#638=EDGE_LOOP('',(#639,#640,#641,#642)) ;
#655=EDGE_LOOP('',(#656,#657,#658,#659)) ;
#667=EDGE_LOOP('',(#668,#669,#670,#671)) ;
#689=EDGE_LOOP('',(#690,#691,#692,#693)) ;
#706=EDGE_LOOP('',(#707,#708,#709,#710)) ;
#723=EDGE_LOOP('',(#724,#725,#726,#727)) ;
#735=EDGE_LOOP('',(#736,#737,#738,#739)) ;
#757=EDGE_LOOP('',(#758,#759,#760,#761)) ;
#774=EDGE_LOOP('',(#775,#776,#777,#778)) ;
#791=EDGE_LOOP('',(#792,#793,#794,#795)) ;
#803=EDGE_LOOP('',(#804,#805,#806,#807)) ;
#126=FACE_OUTER_BOUND('',#121,.T.) ;
#157=FACE_OUTER_BOUND('',#152,.T.) ;
#181=FACE_OUTER_BOUND('',#176,.T.) ;
#205=FACE_OUTER_BOUND('',#200,.T.) ;
#222=FACE_OUTER_BOUND('',#217,.T.) ;
#234=FACE_OUTER_BOUND('',#229,.T.) ;
#278=FACE_OUTER_BOUND('',#273,.T.) ;
#309=FACE_OUTER_BOUND('',#304,.T.) ;
#333=FACE_OUTER_BOUND('',#328,.T.) ;
#357=FACE_OUTER_BOUND('',#352,.T.) ;
#374=FACE_OUTER_BOUND('',#369,.T.) ;
#386=FACE_OUTER_BOUND('',#381,.T.) ;
#428=FACE_OUTER_BOUND('',#423,.T.) ;
#459=FACE_OUTER_BOUND('',#454,.T.) ;
#551=FACE_OUTER_BOUND('',#546,.T.) ;
#575=FACE_OUTER_BOUND('',#570,.T.) ;
#660=FACE_OUTER_BOUND('',#655,.T.) ;
#672=FACE_OUTER_BOUND('',#667,.T.) ;
#694=FACE_OUTER_BOUND('',#689,.T.) ;
#711=FACE_OUTER_BOUND('',#706,.T.) ;
#728=FACE_OUTER_BOUND('',#723,.T.) ;
#740=FACE_OUTER_BOUND('',#735,.T.) ;
#762=FACE_OUTER_BOUND('',#757,.T.) ;
#779=FACE_OUTER_BOUND('',#774,.T.) ;
#796=FACE_OUTER_BOUND('',#791,.T.) ;
#808=FACE_OUTER_BOUND('',#803,.T.) ;
#62=GEOMETRIC_SET('NONE',(#60)) ;
#61=GEOMETRICALLY_BOUNDED_SURFACE_SHAPE_REPRESENTATION('NONE',(#62),#51) ;
#50=UNCERTAINTY_MEASURE_WITH_UNIT(LENGTH_MEASURE(0.005),#46,'distance_accuracy_value','CONFUSED CURVE UNCERTAINTY') ;
#77=UNCERTAINTY_MEASURE_WITH_UNIT(LENGTH_MEASURE(0.005),#46,'distance_accuracy_value','CONFUSED CURVE UNCERTAINTY') ;
#824=UNCERTAINTY_MEASURE_WITH_UNIT(LENGTH_MEASURE(0.005),#46,'distance_accuracy_value','CONFUSED CURVE UNCERTAINTY') ;
#96=LINE('Line',#93,#95) ;
#105=LINE('Line',#102,#104) ;
#112=LINE('Line',#109,#111) ;
#119=LINE('Line',#116,#118) ;
#136=LINE('Line',#133,#135) ;
#143=LINE('Line',#140,#142) ;
#150=LINE('Line',#147,#149) ;
#167=LINE('Line',#164,#166) ;
#174=LINE('Line',#171,#173) ;
#191=LINE('Line',#188,#190) ;
#198=LINE('Line',#195,#197) ;
#215=LINE('Line',#212,#214) ;
#248=LINE('Line',#245,#247) ;
#257=LINE('Line',#254,#256) ;
#264=LINE('Line',#261,#263) ;
#271=LINE('Line',#268,#270) ;
#288=LINE('Line',#285,#287) ;
#295=LINE('Line',#292,#294) ;
#302=LINE('Line',#299,#301) ;
#319=LINE('Line',#316,#318) ;
#326=LINE('Line',#323,#325) ;
#343=LINE('Line',#340,#342) ;
#350=LINE('Line',#347,#349) ;
#367=LINE('Line',#364,#366) ;
#398=LINE('Line',#395,#397) ;
#407=LINE('Line',#404,#406) ;
#414=LINE('Line',#411,#413) ;
#421=LINE('Line',#418,#420) ;
#438=LINE('Line',#435,#437) ;
#445=LINE('Line',#442,#444) ;
#452=LINE('Line',#449,#451) ;
#463=LINE('Line',#460,#462) ;
#472=LINE('Line',#469,#471) ;
#479=LINE('Line',#476,#478) ;
#486=LINE('Line',#483,#485) ;
#497=LINE('Line',#494,#496) ;
#506=LINE('Line',#503,#505) ;
#513=LINE('Line',#510,#512) ;
#520=LINE('Line',#517,#519) ;
#537=LINE('Line',#534,#536) ;
#544=LINE('Line',#541,#543) ;
#561=LINE('Line',#558,#560) ;
#568=LINE('Line',#565,#567) ;
#579=LINE('Line',#576,#578) ;
#588=LINE('Line',#585,#587) ;
#595=LINE('Line',#592,#594) ;
#602=LINE('Line',#599,#601) ;
#613=LINE('Line',#610,#612) ;
#622=LINE('Line',#619,#621) ;
#629=LINE('Line',#626,#628) ;
#636=LINE('Line',#633,#635) ;
#653=LINE('Line',#650,#652) ;
#682=LINE('Line',#679,#681) ;
#687=LINE('Line',#684,#686) ;
#704=LINE('Line',#701,#703) ;
#721=LINE('Line',#718,#720) ;
#750=LINE('Line',#747,#749) ;
#755=LINE('Line',#752,#754) ;
#772=LINE('Line',#769,#771) ;
#789=LINE('Line',#786,#788) ;
#2=MECHANICAL_CONTEXT(' ',#1,'mechanical') ;
#64=NEXT_ASSEMBLY_USAGE_OCCURRENCE('Part14.1','Part14.1','',#17,#56,' ') ;
#811=NEXT_ASSEMBLY_USAGE_OCCURRENCE('PPte2PanH Reg.1','PPte2PanH Reg.1','',#17,#83,' ') ;
#27=PERSONAL_ADDRESS(' ',' ',' ',' ',' ',' ',' ',' ',' ',' ',' ',' ',(#25),' ') ;
#92=PLANE('Plane',#91) ;
#132=PLANE('Plane',#131) ;
#163=PLANE('Plane',#162) ;
#187=PLANE('Plane',#186) ;
#211=PLANE('Plane',#210) ;
#228=PLANE('Plane',#227) ;
#244=PLANE('Plane',#243) ;
#284=PLANE('Plane',#283) ;
#315=PLANE('Plane',#314) ;
#339=PLANE('Plane',#338) ;
#363=PLANE('Plane',#362) ;
#380=PLANE('Plane',#379) ;
#394=PLANE('Plane',#393) ;
#434=PLANE('Plane',#433) ;
#533=PLANE('Plane',#532) ;
#557=PLANE('Plane',#556) ;
#649=PLANE('Plane',#648) ;
#666=PLANE('Plane',#665) ;
#678=PLANE('Plane',#677) ;
#700=PLANE('Plane',#699) ;
#717=PLANE('Plane',#716) ;
#734=PLANE('Plane',#733) ;
#746=PLANE('Plane',#745) ;
#768=PLANE('Plane',#767) ;
#785=PLANE('Plane',#784) ;
#802=PLANE('Plane',#801) ;
#48=PLANE_ANGLE_MEASURE_WITH_UNIT(PLANE_ANGLE_MEASURE(0.0174532925199),#47) ;
#7=PRODUCT_CATEGORY('part',$) ;
#14=PRODUCT_CATEGORY('part',$) ;
#9=PRODUCT_CATEGORY_RELATIONSHIP(' ',' ',#7,#8) ;
#16=PRODUCT_CATEGORY_RELATIONSHIP(' ',' ',#14,#15) ;
#6=PRODUCT_DEFINITION_FORMATION_WITH_SPECIFIED_SOURCE('',' ',#5,.NOT_KNOWN.) ;
#55=PRODUCT_DEFINITION_FORMATION_WITH_SPECIFIED_SOURCE('',' ',#54,.NOT_KNOWN.) ;
#82=PRODUCT_DEFINITION_FORMATION_WITH_SPECIFIED_SOURCE('',' ',#81,.NOT_KNOWN.) ;
#56=PRODUCT_DEFINITION_WITH_ASSOCIATED_DOCUMENTS('Part14',' ',#55,#3,(#58)) ;
#83=PRODUCT_DEFINITION_WITH_ASSOCIATED_DOCUMENTS('PPte2PanH Reg',' ',#82,#3,(#85)) ;
#8=PRODUCT_RELATED_PRODUCT_CATEGORY('detail',$,(#54,#81)) ;
#15=PRODUCT_RELATED_PRODUCT_CATEGORY('part',$,(#5)) ;
#43=SHAPE_DEFINITION_REPRESENTATION(#45,#44) ;
#53=SHAPE_DEFINITION_REPRESENTATION(#59,#52) ;
#80=SHAPE_DEFINITION_REPRESENTATION(#86,#79) ;
#98=VERTEX_POINT('',#97) ;
#100=VERTEX_POINT('',#99) ;
#107=VERTEX_POINT('',#106) ;
#114=VERTEX_POINT('',#113) ;
#138=VERTEX_POINT('',#137) ;
#145=VERTEX_POINT('',#144) ;
#169=VERTEX_POINT('',#168) ;
#193=VERTEX_POINT('',#192) ;
#250=VERTEX_POINT('',#249) ;
#252=VERTEX_POINT('',#251) ;
#259=VERTEX_POINT('',#258) ;
#266=VERTEX_POINT('',#265) ;
#290=VERTEX_POINT('',#289) ;
#297=VERTEX_POINT('',#296) ;
#321=VERTEX_POINT('',#320) ;
#345=VERTEX_POINT('',#344) ;
#400=VERTEX_POINT('',#399) ;
#402=VERTEX_POINT('',#401) ;
#409=VERTEX_POINT('',#408) ;
#416=VERTEX_POINT('',#415) ;
#440=VERTEX_POINT('',#439) ;
#447=VERTEX_POINT('',#446) ;
#465=VERTEX_POINT('',#464) ;
#467=VERTEX_POINT('',#466) ;
#474=VERTEX_POINT('',#473) ;
#481=VERTEX_POINT('',#480) ;
#499=VERTEX_POINT('',#498) ;
#501=VERTEX_POINT('',#500) ;
#508=VERTEX_POINT('',#507) ;
#515=VERTEX_POINT('',#514) ;
#539=VERTEX_POINT('',#538) ;
#563=VERTEX_POINT('',#562) ;
#581=VERTEX_POINT('',#580) ;
#583=VERTEX_POINT('',#582) ;
#590=VERTEX_POINT('',#589) ;
#597=VERTEX_POINT('',#596) ;
#615=VERTEX_POINT('',#614) ;
#617=VERTEX_POINT('',#616) ;
#624=VERTEX_POINT('',#623) ;
#631=VERTEX_POINT('',#630) ;
#46=(LENGTH_UNIT()NAMED_UNIT(*)SI_UNIT(.MILLI.,.METRE.)) ;
#47=(NAMED_UNIT(*)PLANE_ANGLE_UNIT()SI_UNIT($,.RADIAN.)) ;
#49=(NAMED_UNIT(*)SI_UNIT($,.STERADIAN.)SOLID_ANGLE_UNIT()) ;
#51=(GEOMETRIC_REPRESENTATION_CONTEXT(3)GLOBAL_UNCERTAINTY_ASSIGNED_CONTEXT((#50))GLOBAL_UNIT_ASSIGNED_CONTEXT((#46,#47,#49))REPRESENTATION_CONTEXT(' ',' ')) ;
#78=(GEOMETRIC_REPRESENTATION_CONTEXT(3)GLOBAL_UNCERTAINTY_ASSIGNED_CONTEXT((#77))GLOBAL_UNIT_ASSIGNED_CONTEXT((#46,#47,#49))REPRESENTATION_CONTEXT(' ',' ')) ;
#825=(GEOMETRIC_REPRESENTATION_CONTEXT(3)GLOBAL_UNCERTAINTY_ASSIGNED_CONTEXT((#824))GLOBAL_UNIT_ASSIGNED_CONTEXT((#46,#47,#49))REPRESENTATION_CONTEXT(' ',' ')) ;
#67=(REPRESENTATION_RELATIONSHIP(' ',' ',#52,#44)REPRESENTATION_RELATIONSHIP_WITH_TRANSFORMATION(#68)SHAPE_REPRESENTATION_RELATIONSHIP()) ;
#814=(REPRESENTATION_RELATIONSHIP(' ',' ',#79,#44)REPRESENTATION_RELATIONSHIP_WITH_TRANSFORMATION(#815)SHAPE_REPRESENTATION_RELATIONSHIP()) ;
ENDSEC;
END-ISO-10303-21;
