ISO-10303-21;
HEADER;
FILE_DESCRIPTION(('CATIA V5 STEP Exchange'),'2;1');

FILE_NAME('C:\\Users\\mnicu\\Desktop\\Client 2024\\Kyra sablage\\Rafat 3D models\\Right side origin\\P02rebuild.stp','2025-03-29T19:59:24+00:00',('none'),('none'),'CATIA Version 5 Release 18 GA (IN-10)','CATIA V5 STEP AP203','none');

FILE_SCHEMA(('CONFIG_CONTROL_DESIGN'));

ENDSEC;
/* file written by CATIA V5R18 */
DATA;
#5=PRODUCT('Product3','','',(#2)) ;
#54=PRODUCT('Part5','','',(#2)) ;
#491=PRODUCT('Part6','','',(#2)) ;
#666=PRODUCT('Part7','','',(#2)) ;
#1=APPLICATION_CONTEXT('configuration controlled 3D design of mechanical parts and assemblies') ;
#17=PRODUCT_DEFINITION('Product3',' ',#6,#3) ;
#19=SECURITY_CLASSIFICATION(' ',' ',#18) ;
#18=SECURITY_CLASSIFICATION_LEVEL('unclassified') ;
#61=CARTESIAN_POINT('Axis2P3D Location',(0.,381.000000002,0.)) ;
#66=CARTESIAN_POINT('Line Origine',(0.,190.500000001,-19.0500000001)) ;
#70=CARTESIAN_POINT('Vertex',(0.,0.,-19.0500000001)) ;
#72=CARTESIAN_POINT('Vertex',(0.,381.000000002,-19.0500000001)) ;
#75=CARTESIAN_POINT('Line Origine',(0.,381.000000002,-9.52500000004)) ;
#79=CARTESIAN_POINT('Vertex',(0.,381.000000002,0.)) ;
#82=CARTESIAN_POINT('Line Origine',(0.,190.500000001,0.)) ;
#86=CARTESIAN_POINT('Vertex',(0.,0.,0.)) ;
#89=CARTESIAN_POINT('Line Origine',(0.,0.,-9.52500000004)) ;
#101=CARTESIAN_POINT('Axis2P3D Location',(2.27373675443E-012,381.000000002,0.)) ;
#106=CARTESIAN_POINT('Line Origine',(-1006.475,381.000000002,-19.0500000001)) ;
#110=CARTESIAN_POINT('Vertex',(-2012.95000001,381.000000002,-19.0500000001)) ;
#113=CARTESIAN_POINT('Line Origine',(-2012.95000001,381.000000002,-9.52500000004)) ;
#117=CARTESIAN_POINT('Vertex',(-2012.95000001,381.000000002,0.)) ;
#120=CARTESIAN_POINT('Line Origine',(-1006.475,381.000000002,0.)) ;
#132=CARTESIAN_POINT('Axis2P3D Location',(-2012.95000001,0.,0.)) ;
#137=CARTESIAN_POINT('Line Origine',(-2012.95000001,190.500000001,-19.0500000001)) ;
#141=CARTESIAN_POINT('Vertex',(-2012.95000001,0.,-19.0500000001)) ;
#144=CARTESIAN_POINT('Line Origine',(-2012.95000001,0.,-9.52500000004)) ;
#148=CARTESIAN_POINT('Vertex',(-2012.95000001,0.,0.)) ;
#151=CARTESIAN_POINT('Line Origine',(-2012.95000001,190.500000001,0.)) ;
#163=CARTESIAN_POINT('Axis2P3D Location',(-2012.95000001,0.,0.)) ;
#168=CARTESIAN_POINT('Line Origine',(-1006.475,0.,-19.0500000001)) ;
#173=CARTESIAN_POINT('Line Origine',(-1006.475,0.,0.)) ;
#185=CARTESIAN_POINT('Axis2P3D Location',(-1955.80000001,323.850000001,0.)) ;
#190=CARTESIAN_POINT('Line Origine',(-822.325000003,323.850000001,-9.52500000004)) ;
#194=CARTESIAN_POINT('Vertex',(-822.325000003,323.850000001,0.)) ;
#196=CARTESIAN_POINT('Vertex',(-822.325000003,323.850000001,-19.0500000001)) ;
#199=CARTESIAN_POINT('Line Origine',(-1389.06250001,323.850000001,0.)) ;
#203=CARTESIAN_POINT('Vertex',(-1955.80000001,323.850000001,0.)) ;
#206=CARTESIAN_POINT('Line Origine',(-1955.80000001,323.850000001,-9.52500000004)) ;
#210=CARTESIAN_POINT('Vertex',(-1955.80000001,323.850000001,-19.0500000001)) ;
#213=CARTESIAN_POINT('Line Origine',(-1389.06250001,323.850000001,-19.0500000001)) ;
#225=CARTESIAN_POINT('Axis2P3D Location',(-822.325000003,57.1500000002,0.)) ;
#230=CARTESIAN_POINT('Line Origine',(-822.325000003,57.1500000002,-9.52500000004)) ;
#234=CARTESIAN_POINT('Vertex',(-822.325000003,57.1500000002,0.)) ;
#236=CARTESIAN_POINT('Vertex',(-822.325000003,57.1500000002,-19.0500000001)) ;
#239=CARTESIAN_POINT('Line Origine',(-822.325000003,190.500000001,0.)) ;
#244=CARTESIAN_POINT('Line Origine',(-822.325000003,190.500000001,-19.0500000001)) ;
#256=CARTESIAN_POINT('Axis2P3D Location',(-822.325000003,57.1500000002,0.)) ;
#261=CARTESIAN_POINT('Line Origine',(-1955.80000001,57.1500000002,-9.52500000004)) ;
#265=CARTESIAN_POINT('Vertex',(-1955.80000001,57.1500000002,0.)) ;
#267=CARTESIAN_POINT('Vertex',(-1955.80000001,57.1500000002,-19.0500000001)) ;
#270=CARTESIAN_POINT('Line Origine',(-1389.06250001,57.1500000002,0.)) ;
#275=CARTESIAN_POINT('Line Origine',(-1389.06250001,57.1500000002,-19.0500000001)) ;
#287=CARTESIAN_POINT('Axis2P3D Location',(-1955.80000001,323.850000001,0.)) ;
#292=CARTESIAN_POINT('Line Origine',(-1955.80000001,190.500000001,0.)) ;
#297=CARTESIAN_POINT('Line Origine',(-1955.80000001,190.500000001,-19.0500000001)) ;
#309=CARTESIAN_POINT('Line Origine',(-57.1500000002,323.850000001,-9.52500000004)) ;
#313=CARTESIAN_POINT('Vertex',(-57.1500000002,323.850000001,0.)) ;
#315=CARTESIAN_POINT('Vertex',(-57.1500000002,323.850000001,-19.0500000001)) ;
#318=CARTESIAN_POINT('Line Origine',(-381.000000002,323.850000001,0.)) ;
#322=CARTESIAN_POINT('Vertex',(-704.850000003,323.850000001,0.)) ;
#325=CARTESIAN_POINT('Line Origine',(-704.850000003,323.850000001,-9.52500000004)) ;
#329=CARTESIAN_POINT('Vertex',(-704.850000003,323.850000001,-19.0500000001)) ;
#332=CARTESIAN_POINT('Line Origine',(-381.000000002,323.850000001,-19.0500000001)) ;
#344=CARTESIAN_POINT('Axis2P3D Location',(-57.1500000002,57.1500000002,0.)) ;
#349=CARTESIAN_POINT('Line Origine',(-57.1500000002,57.1500000002,-9.52500000004)) ;
#353=CARTESIAN_POINT('Vertex',(-57.1500000002,57.1500000002,0.)) ;
#355=CARTESIAN_POINT('Vertex',(-57.1500000002,57.1500000002,-19.0500000001)) ;
#358=CARTESIAN_POINT('Line Origine',(-57.1500000002,190.500000001,0.)) ;
#363=CARTESIAN_POINT('Line Origine',(-57.1500000002,190.500000001,-19.0500000001)) ;
#375=CARTESIAN_POINT('Line Origine',(-704.850000003,57.1500000002,-9.52500000004)) ;
#379=CARTESIAN_POINT('Vertex',(-704.850000003,57.1500000002,0.)) ;
#381=CARTESIAN_POINT('Vertex',(-704.850000003,57.1500000002,-19.0500000001)) ;
#384=CARTESIAN_POINT('Line Origine',(-381.000000002,57.1500000002,0.)) ;
#389=CARTESIAN_POINT('Line Origine',(-381.000000002,57.1500000002,-19.0500000001)) ;
#401=CARTESIAN_POINT('Axis2P3D Location',(-704.850000003,323.850000001,0.)) ;
#406=CARTESIAN_POINT('Line Origine',(-704.850000003,190.500000001,0.)) ;
#411=CARTESIAN_POINT('Line Origine',(-704.850000003,190.500000001,-19.0500000001)) ;
#423=CARTESIAN_POINT('Axis2P3D Location',(0.,0.,0.)) ;
#447=CARTESIAN_POINT('Axis2P3D Location',(0.,0.,-19.0500000001)) ;
#481=CARTESIAN_POINT('NONE',(0.,0.,0.)) ;
#482=CARTESIAN_POINT('NONE',(0.,0.,0.)) ;
#498=CARTESIAN_POINT('Axis2P3D Location',(0.,266.700000001,0.)) ;
#503=CARTESIAN_POINT('Line Origine',(0.,133.350000001,-9.52500000004)) ;
#507=CARTESIAN_POINT('Vertex',(0.,0.,-9.52500000004)) ;
#509=CARTESIAN_POINT('Vertex',(0.,266.700000001,-9.52500000004)) ;
#512=CARTESIAN_POINT('Line Origine',(0.,266.700000001,-4.76250000002)) ;
#516=CARTESIAN_POINT('Vertex',(0.,266.700000001,0.)) ;
#519=CARTESIAN_POINT('Line Origine',(0.,133.350000001,0.)) ;
#523=CARTESIAN_POINT('Vertex',(0.,0.,0.)) ;
#526=CARTESIAN_POINT('Line Origine',(0.,0.,-4.76250000002)) ;
#538=CARTESIAN_POINT('Axis2P3D Location',(0.,266.700000001,0.)) ;
#543=CARTESIAN_POINT('Line Origine',(-566.737500002,266.700000001,-9.52500000004)) ;
#547=CARTESIAN_POINT('Vertex',(-1133.475,266.700000001,-9.52500000004)) ;
#550=CARTESIAN_POINT('Line Origine',(-1133.475,266.700000001,-4.76250000002)) ;
#554=CARTESIAN_POINT('Vertex',(-1133.475,266.700000001,0.)) ;
#557=CARTESIAN_POINT('Line Origine',(-566.737500002,266.700000001,0.)) ;
#569=CARTESIAN_POINT('Axis2P3D Location',(-1133.475,0.,0.)) ;
#574=CARTESIAN_POINT('Line Origine',(-1133.475,133.350000001,-9.52500000004)) ;
#578=CARTESIAN_POINT('Vertex',(-1133.475,0.,-9.52500000004)) ;
#581=CARTESIAN_POINT('Line Origine',(-1133.475,0.,-4.76250000002)) ;
#585=CARTESIAN_POINT('Vertex',(-1133.475,0.,0.)) ;
#588=CARTESIAN_POINT('Line Origine',(-1133.475,133.350000001,0.)) ;
#600=CARTESIAN_POINT('Axis2P3D Location',(-1133.475,0.,0.)) ;
#605=CARTESIAN_POINT('Line Origine',(-566.737500002,0.,-9.52500000004)) ;
#610=CARTESIAN_POINT('Line Origine',(-566.737500002,0.,0.)) ;
#622=CARTESIAN_POINT('Axis2P3D Location',(0.,0.,0.)) ;
#634=CARTESIAN_POINT('Axis2P3D Location',(0.,0.,-9.52500000004)) ;
#656=CARTESIAN_POINT('NONE',(0.,0.,0.)) ;
#657=CARTESIAN_POINT('NONE',(-822.325000003,57.1500000002,-9.52500000004)) ;
#673=CARTESIAN_POINT('Axis2P3D Location',(0.,266.700000001,0.)) ;
#678=CARTESIAN_POINT('Line Origine',(0.,133.350000001,-9.52500000004)) ;
#682=CARTESIAN_POINT('Vertex',(0.,0.,-9.52500000004)) ;
#684=CARTESIAN_POINT('Vertex',(0.,266.700000001,-9.52500000004)) ;
#687=CARTESIAN_POINT('Line Origine',(0.,266.700000001,-4.76250000002)) ;
#691=CARTESIAN_POINT('Vertex',(0.,266.700000001,0.)) ;
#694=CARTESIAN_POINT('Line Origine',(0.,133.350000001,0.)) ;
#698=CARTESIAN_POINT('Vertex',(0.,0.,0.)) ;
#701=CARTESIAN_POINT('Line Origine',(0.,0.,-4.76250000002)) ;
#713=CARTESIAN_POINT('Axis2P3D Location',(0.,266.700000001,0.)) ;
#718=CARTESIAN_POINT('Line Origine',(-323.850000001,266.700000001,-9.52500000004)) ;
#722=CARTESIAN_POINT('Vertex',(-647.700000003,266.700000001,-9.52500000004)) ;
#725=CARTESIAN_POINT('Line Origine',(-647.700000003,266.700000001,-4.76250000002)) ;
#729=CARTESIAN_POINT('Vertex',(-647.700000003,266.700000001,0.)) ;
#732=CARTESIAN_POINT('Line Origine',(-323.850000001,266.700000001,0.)) ;
#744=CARTESIAN_POINT('Axis2P3D Location',(-647.700000003,0.,0.)) ;
#749=CARTESIAN_POINT('Line Origine',(-647.700000003,133.350000001,-9.52500000004)) ;
#753=CARTESIAN_POINT('Vertex',(-647.700000003,0.,-9.52500000004)) ;
#756=CARTESIAN_POINT('Line Origine',(-647.700000003,0.,-4.76250000002)) ;
#760=CARTESIAN_POINT('Vertex',(-647.700000003,0.,0.)) ;
#763=CARTESIAN_POINT('Line Origine',(-647.700000003,133.350000001,0.)) ;
#775=CARTESIAN_POINT('Axis2P3D Location',(-647.700000003,0.,0.)) ;
#780=CARTESIAN_POINT('Line Origine',(-323.850000001,0.,-9.52500000004)) ;
#785=CARTESIAN_POINT('Line Origine',(-323.850000001,0.,0.)) ;
#797=CARTESIAN_POINT('Axis2P3D Location',(0.,0.,0.)) ;
#809=CARTESIAN_POINT('Axis2P3D Location',(0.,0.,-9.52500000004)) ;
#831=CARTESIAN_POINT('NONE',(0.,0.,0.)) ;
#832=CARTESIAN_POINT('NONE',(-57.1500000002,57.1500000002,-9.52500000004)) ;
#62=DIRECTION('Axis2P3D Direction',(1.,0.,0.)) ;
#63=DIRECTION('Axis2P3D XDirection',(0.,-1.,0.)) ;
#67=DIRECTION('Vector Direction',(0.,-1.,0.)) ;
#76=DIRECTION('Vector Direction',(0.,0.,-1.)) ;
#83=DIRECTION('Vector Direction',(0.,-1.,0.)) ;
#90=DIRECTION('Vector Direction',(0.,0.,-1.)) ;
#102=DIRECTION('Axis2P3D Direction',(-0.,-1.,-0.)) ;
#103=DIRECTION('Axis2P3D XDirection',(-1.,0.,0.)) ;
#107=DIRECTION('Vector Direction',(-1.,0.,0.)) ;
#114=DIRECTION('Vector Direction',(0.,0.,-1.)) ;
#121=DIRECTION('Vector Direction',(-1.,0.,0.)) ;
#133=DIRECTION('Axis2P3D Direction',(-1.,0.,0.)) ;
#134=DIRECTION('Axis2P3D XDirection',(0.,1.,0.)) ;
#138=DIRECTION('Vector Direction',(0.,1.,0.)) ;
#145=DIRECTION('Vector Direction',(0.,0.,-1.)) ;
#152=DIRECTION('Vector Direction',(0.,1.,0.)) ;
#164=DIRECTION('Axis2P3D Direction',(-0.,1.,0.)) ;
#165=DIRECTION('Axis2P3D XDirection',(1.,0.,0.)) ;
#169=DIRECTION('Vector Direction',(1.,0.,0.)) ;
#174=DIRECTION('Vector Direction',(1.,0.,0.)) ;
#186=DIRECTION('Axis2P3D Direction',(-0.,1.,0.)) ;
#187=DIRECTION('Axis2P3D XDirection',(1.,0.,0.)) ;
#191=DIRECTION('Vector Direction',(0.,0.,-1.)) ;
#200=DIRECTION('Vector Direction',(1.,0.,0.)) ;
#207=DIRECTION('Vector Direction',(0.,0.,-1.)) ;
#214=DIRECTION('Vector Direction',(1.,0.,0.)) ;
#226=DIRECTION('Axis2P3D Direction',(-1.,0.,0.)) ;
#227=DIRECTION('Axis2P3D XDirection',(0.,1.,0.)) ;
#231=DIRECTION('Vector Direction',(0.,0.,-1.)) ;
#240=DIRECTION('Vector Direction',(0.,1.,0.)) ;
#245=DIRECTION('Vector Direction',(0.,1.,0.)) ;
#257=DIRECTION('Axis2P3D Direction',(-0.,-1.,-0.)) ;
#258=DIRECTION('Axis2P3D XDirection',(-1.,0.,0.)) ;
#262=DIRECTION('Vector Direction',(0.,0.,-1.)) ;
#271=DIRECTION('Vector Direction',(-1.,0.,0.)) ;
#276=DIRECTION('Vector Direction',(-1.,0.,0.)) ;
#288=DIRECTION('Axis2P3D Direction',(1.,0.,0.)) ;
#289=DIRECTION('Axis2P3D XDirection',(0.,-1.,0.)) ;
#293=DIRECTION('Vector Direction',(0.,-1.,0.)) ;
#298=DIRECTION('Vector Direction',(0.,-1.,0.)) ;
#310=DIRECTION('Vector Direction',(0.,0.,-1.)) ;
#319=DIRECTION('Vector Direction',(1.,0.,0.)) ;
#326=DIRECTION('Vector Direction',(0.,0.,-1.)) ;
#333=DIRECTION('Vector Direction',(1.,0.,0.)) ;
#345=DIRECTION('Axis2P3D Direction',(-1.,0.,0.)) ;
#346=DIRECTION('Axis2P3D XDirection',(0.,1.,0.)) ;
#350=DIRECTION('Vector Direction',(0.,0.,-1.)) ;
#359=DIRECTION('Vector Direction',(0.,1.,0.)) ;
#364=DIRECTION('Vector Direction',(0.,1.,0.)) ;
#376=DIRECTION('Vector Direction',(0.,0.,-1.)) ;
#385=DIRECTION('Vector Direction',(-1.,0.,0.)) ;
#390=DIRECTION('Vector Direction',(-1.,0.,0.)) ;
#402=DIRECTION('Axis2P3D Direction',(1.,0.,0.)) ;
#403=DIRECTION('Axis2P3D XDirection',(0.,-1.,0.)) ;
#407=DIRECTION('Vector Direction',(0.,-1.,0.)) ;
#412=DIRECTION('Vector Direction',(0.,-1.,0.)) ;
#424=DIRECTION('Axis2P3D Direction',(0.,0.,1.)) ;
#425=DIRECTION('Axis2P3D XDirection',(1.,0.,0.)) ;
#448=DIRECTION('Axis2P3D Direction',(0.,0.,1.)) ;
#449=DIRECTION('Axis2P3D XDirection',(1.,0.,0.)) ;
#483=DIRECTION('NONE',(1.,0.,0.)) ;
#484=DIRECTION('NONE',(0.,0.,1.)) ;
#485=DIRECTION('NONE',(1.,0.,0.)) ;
#486=DIRECTION('NONE',(0.,0.,1.)) ;
#499=DIRECTION('Axis2P3D Direction',(1.,0.,0.)) ;
#500=DIRECTION('Axis2P3D XDirection',(0.,-1.,0.)) ;
#504=DIRECTION('Vector Direction',(0.,-1.,0.)) ;
#513=DIRECTION('Vector Direction',(0.,0.,-1.)) ;
#520=DIRECTION('Vector Direction',(0.,-1.,0.)) ;
#527=DIRECTION('Vector Direction',(0.,0.,-1.)) ;
#539=DIRECTION('Axis2P3D Direction',(-0.,-1.,-0.)) ;
#540=DIRECTION('Axis2P3D XDirection',(-1.,0.,0.)) ;
#544=DIRECTION('Vector Direction',(-1.,0.,0.)) ;
#551=DIRECTION('Vector Direction',(0.,0.,-1.)) ;
#558=DIRECTION('Vector Direction',(-1.,0.,0.)) ;
#570=DIRECTION('Axis2P3D Direction',(-1.,0.,0.)) ;
#571=DIRECTION('Axis2P3D XDirection',(0.,1.,0.)) ;
#575=DIRECTION('Vector Direction',(0.,1.,0.)) ;
#582=DIRECTION('Vector Direction',(0.,0.,-1.)) ;
#589=DIRECTION('Vector Direction',(0.,1.,0.)) ;
#601=DIRECTION('Axis2P3D Direction',(-0.,1.,0.)) ;
#602=DIRECTION('Axis2P3D XDirection',(1.,0.,0.)) ;
#606=DIRECTION('Vector Direction',(1.,0.,0.)) ;
#611=DIRECTION('Vector Direction',(1.,0.,0.)) ;
#623=DIRECTION('Axis2P3D Direction',(0.,0.,1.)) ;
#624=DIRECTION('Axis2P3D XDirection',(1.,0.,0.)) ;
#635=DIRECTION('Axis2P3D Direction',(0.,0.,1.)) ;
#636=DIRECTION('Axis2P3D XDirection',(1.,0.,0.)) ;
#658=DIRECTION('NONE',(1.,0.,0.)) ;
#659=DIRECTION('NONE',(0.,0.,1.)) ;
#660=DIRECTION('NONE',(1.,0.,0.)) ;
#661=DIRECTION('NONE',(0.,0.,1.)) ;
#674=DIRECTION('Axis2P3D Direction',(1.,0.,0.)) ;
#675=DIRECTION('Axis2P3D XDirection',(0.,-1.,0.)) ;
#679=DIRECTION('Vector Direction',(0.,-1.,0.)) ;
#688=DIRECTION('Vector Direction',(0.,0.,-1.)) ;
#695=DIRECTION('Vector Direction',(0.,-1.,0.)) ;
#702=DIRECTION('Vector Direction',(0.,0.,-1.)) ;
#714=DIRECTION('Axis2P3D Direction',(-0.,-1.,-0.)) ;
#715=DIRECTION('Axis2P3D XDirection',(-1.,0.,0.)) ;
#719=DIRECTION('Vector Direction',(-1.,0.,0.)) ;
#726=DIRECTION('Vector Direction',(0.,0.,-1.)) ;
#733=DIRECTION('Vector Direction',(-1.,0.,0.)) ;
#745=DIRECTION('Axis2P3D Direction',(-1.,0.,0.)) ;
#746=DIRECTION('Axis2P3D XDirection',(0.,1.,0.)) ;
#750=DIRECTION('Vector Direction',(0.,1.,0.)) ;
#757=DIRECTION('Vector Direction',(0.,0.,-1.)) ;
#764=DIRECTION('Vector Direction',(0.,1.,0.)) ;
#776=DIRECTION('Axis2P3D Direction',(-0.,1.,0.)) ;
#777=DIRECTION('Axis2P3D XDirection',(1.,0.,0.)) ;
#781=DIRECTION('Vector Direction',(1.,0.,0.)) ;
#786=DIRECTION('Vector Direction',(1.,0.,0.)) ;
#798=DIRECTION('Axis2P3D Direction',(0.,0.,1.)) ;
#799=DIRECTION('Axis2P3D XDirection',(1.,0.,0.)) ;
#810=DIRECTION('Axis2P3D Direction',(0.,0.,1.)) ;
#811=DIRECTION('Axis2P3D XDirection',(1.,0.,0.)) ;
#833=DIRECTION('NONE',(1.,0.,0.)) ;
#834=DIRECTION('NONE',(0.,0.,1.)) ;
#835=DIRECTION('NONE',(1.,0.,0.)) ;
#836=DIRECTION('NONE',(0.,0.,1.)) ;
#64=AXIS2_PLACEMENT_3D('Plane Axis2P3D',#61,#62,#63) ;
#104=AXIS2_PLACEMENT_3D('Plane Axis2P3D',#101,#102,#103) ;
#135=AXIS2_PLACEMENT_3D('Plane Axis2P3D',#132,#133,#134) ;
#166=AXIS2_PLACEMENT_3D('Plane Axis2P3D',#163,#164,#165) ;
#188=AXIS2_PLACEMENT_3D('Plane Axis2P3D',#185,#186,#187) ;
#228=AXIS2_PLACEMENT_3D('Plane Axis2P3D',#225,#226,#227) ;
#259=AXIS2_PLACEMENT_3D('Plane Axis2P3D',#256,#257,#258) ;
#290=AXIS2_PLACEMENT_3D('Plane Axis2P3D',#287,#288,#289) ;
#347=AXIS2_PLACEMENT_3D('Plane Axis2P3D',#344,#345,#346) ;
#404=AXIS2_PLACEMENT_3D('Plane Axis2P3D',#401,#402,#403) ;
#426=AXIS2_PLACEMENT_3D('Plane Axis2P3D',#423,#424,#425) ;
#450=AXIS2_PLACEMENT_3D('Plane Axis2P3D',#447,#448,#449) ;
#479=AXIS2_PLACEMENT_3D(' ',#482,#486,#485) ;
#480=AXIS2_PLACEMENT_3D(' ',#481,#484,#483) ;
#501=AXIS2_PLACEMENT_3D('Plane Axis2P3D',#498,#499,#500) ;
#541=AXIS2_PLACEMENT_3D('Plane Axis2P3D',#538,#539,#540) ;
#572=AXIS2_PLACEMENT_3D('Plane Axis2P3D',#569,#570,#571) ;
#603=AXIS2_PLACEMENT_3D('Plane Axis2P3D',#600,#601,#602) ;
#625=AXIS2_PLACEMENT_3D('Plane Axis2P3D',#622,#623,#624) ;
#637=AXIS2_PLACEMENT_3D('Plane Axis2P3D',#634,#635,#636) ;
#654=AXIS2_PLACEMENT_3D(' ',#657,#661,#660) ;
#655=AXIS2_PLACEMENT_3D(' ',#656,#659,#658) ;
#676=AXIS2_PLACEMENT_3D('Plane Axis2P3D',#673,#674,#675) ;
#716=AXIS2_PLACEMENT_3D('Plane Axis2P3D',#713,#714,#715) ;
#747=AXIS2_PLACEMENT_3D('Plane Axis2P3D',#744,#745,#746) ;
#778=AXIS2_PLACEMENT_3D('Plane Axis2P3D',#775,#776,#777) ;
#800=AXIS2_PLACEMENT_3D('Plane Axis2P3D',#797,#798,#799) ;
#812=AXIS2_PLACEMENT_3D('Plane Axis2P3D',#809,#810,#811) ;
#829=AXIS2_PLACEMENT_3D(' ',#832,#836,#835) ;
#830=AXIS2_PLACEMENT_3D(' ',#831,#834,#833) ;
#45=PRODUCT_DEFINITION_SHAPE(' ',' ',#17) ;
#59=PRODUCT_DEFINITION_SHAPE(' ',' ',#56) ;
#475=PRODUCT_DEFINITION_SHAPE(' ',' ',#474) ;
#496=PRODUCT_DEFINITION_SHAPE(' ',' ',#493) ;
#650=PRODUCT_DEFINITION_SHAPE(' ',' ',#649) ;
#671=PRODUCT_DEFINITION_SHAPE(' ',' ',#668) ;
#825=PRODUCT_DEFINITION_SHAPE(' ',' ',#824) ;
#34=APPROVAL_PERSON_ORGANIZATION(#28,#24,#22) ;
#28=PERSON_AND_ORGANIZATION(#25,#26) ;
#25=PERSON(' ',' ',' ',$,$,$) ;
#26=ORGANIZATION(' ',' ',' ') ;
#24=APPROVAL(#23,' ') ;
#23=APPROVAL_STATUS('not_yet_approved') ;
#22=APPROVAL_ROLE('APPROVER') ;
#13=DATE_AND_TIME(#11,#12) ;
#12=LOCAL_TIME(15,59,24.,#10) ;
#10=COORDINATED_UNIVERSAL_TIME_OFFSET(0,0,.AHEAD.) ;
#95=ORIENTED_EDGE('',*,*,#74,.T.) ;
#96=ORIENTED_EDGE('',*,*,#81,.F.) ;
#97=ORIENTED_EDGE('',*,*,#88,.F.) ;
#98=ORIENTED_EDGE('',*,*,#93,.T.) ;
#126=ORIENTED_EDGE('',*,*,#112,.T.) ;
#127=ORIENTED_EDGE('',*,*,#119,.F.) ;
#128=ORIENTED_EDGE('',*,*,#124,.F.) ;
#129=ORIENTED_EDGE('',*,*,#81,.T.) ;
#157=ORIENTED_EDGE('',*,*,#143,.T.) ;
#158=ORIENTED_EDGE('',*,*,#150,.F.) ;
#159=ORIENTED_EDGE('',*,*,#155,.F.) ;
#160=ORIENTED_EDGE('',*,*,#119,.T.) ;
#179=ORIENTED_EDGE('',*,*,#172,.T.) ;
#180=ORIENTED_EDGE('',*,*,#93,.F.) ;
#181=ORIENTED_EDGE('',*,*,#177,.F.) ;
#182=ORIENTED_EDGE('',*,*,#150,.T.) ;
#219=ORIENTED_EDGE('',*,*,#198,.F.) ;
#220=ORIENTED_EDGE('',*,*,#205,.T.) ;
#221=ORIENTED_EDGE('',*,*,#212,.T.) ;
#222=ORIENTED_EDGE('',*,*,#217,.F.) ;
#250=ORIENTED_EDGE('',*,*,#238,.F.) ;
#251=ORIENTED_EDGE('',*,*,#243,.T.) ;
#252=ORIENTED_EDGE('',*,*,#198,.T.) ;
#253=ORIENTED_EDGE('',*,*,#248,.F.) ;
#281=ORIENTED_EDGE('',*,*,#269,.F.) ;
#282=ORIENTED_EDGE('',*,*,#274,.T.) ;
#283=ORIENTED_EDGE('',*,*,#238,.T.) ;
#284=ORIENTED_EDGE('',*,*,#279,.F.) ;
#303=ORIENTED_EDGE('',*,*,#212,.F.) ;
#304=ORIENTED_EDGE('',*,*,#296,.T.) ;
#305=ORIENTED_EDGE('',*,*,#269,.T.) ;
#306=ORIENTED_EDGE('',*,*,#301,.F.) ;
#338=ORIENTED_EDGE('',*,*,#317,.F.) ;
#339=ORIENTED_EDGE('',*,*,#324,.T.) ;
#340=ORIENTED_EDGE('',*,*,#331,.T.) ;
#341=ORIENTED_EDGE('',*,*,#336,.F.) ;
#369=ORIENTED_EDGE('',*,*,#357,.F.) ;
#370=ORIENTED_EDGE('',*,*,#362,.T.) ;
#371=ORIENTED_EDGE('',*,*,#317,.T.) ;
#372=ORIENTED_EDGE('',*,*,#367,.F.) ;
#395=ORIENTED_EDGE('',*,*,#383,.F.) ;
#396=ORIENTED_EDGE('',*,*,#388,.T.) ;
#397=ORIENTED_EDGE('',*,*,#357,.T.) ;
#398=ORIENTED_EDGE('',*,*,#393,.F.) ;
#417=ORIENTED_EDGE('',*,*,#331,.F.) ;
#418=ORIENTED_EDGE('',*,*,#410,.T.) ;
#419=ORIENTED_EDGE('',*,*,#383,.T.) ;
#420=ORIENTED_EDGE('',*,*,#415,.F.) ;
#429=ORIENTED_EDGE('',*,*,#88,.T.) ;
#430=ORIENTED_EDGE('',*,*,#124,.T.) ;
#431=ORIENTED_EDGE('',*,*,#155,.T.) ;
#432=ORIENTED_EDGE('',*,*,#177,.T.) ;
#435=ORIENTED_EDGE('',*,*,#205,.F.) ;
#436=ORIENTED_EDGE('',*,*,#243,.F.) ;
#437=ORIENTED_EDGE('',*,*,#274,.F.) ;
#438=ORIENTED_EDGE('',*,*,#296,.F.) ;
#441=ORIENTED_EDGE('',*,*,#324,.F.) ;
#442=ORIENTED_EDGE('',*,*,#362,.F.) ;
#443=ORIENTED_EDGE('',*,*,#388,.F.) ;
#444=ORIENTED_EDGE('',*,*,#410,.F.) ;
#453=ORIENTED_EDGE('',*,*,#172,.F.) ;
#454=ORIENTED_EDGE('',*,*,#143,.F.) ;
#455=ORIENTED_EDGE('',*,*,#112,.F.) ;
#456=ORIENTED_EDGE('',*,*,#74,.F.) ;
#459=ORIENTED_EDGE('',*,*,#301,.T.) ;
#460=ORIENTED_EDGE('',*,*,#279,.T.) ;
#461=ORIENTED_EDGE('',*,*,#248,.T.) ;
#462=ORIENTED_EDGE('',*,*,#217,.T.) ;
#465=ORIENTED_EDGE('',*,*,#415,.T.) ;
#466=ORIENTED_EDGE('',*,*,#393,.T.) ;
#467=ORIENTED_EDGE('',*,*,#367,.T.) ;
#468=ORIENTED_EDGE('',*,*,#336,.T.) ;
#532=ORIENTED_EDGE('',*,*,#511,.T.) ;
#533=ORIENTED_EDGE('',*,*,#518,.F.) ;
#534=ORIENTED_EDGE('',*,*,#525,.F.) ;
#535=ORIENTED_EDGE('',*,*,#530,.T.) ;
#563=ORIENTED_EDGE('',*,*,#549,.T.) ;
#564=ORIENTED_EDGE('',*,*,#556,.F.) ;
#565=ORIENTED_EDGE('',*,*,#561,.F.) ;
#566=ORIENTED_EDGE('',*,*,#518,.T.) ;
#594=ORIENTED_EDGE('',*,*,#580,.T.) ;
#595=ORIENTED_EDGE('',*,*,#587,.F.) ;
#596=ORIENTED_EDGE('',*,*,#592,.F.) ;
#597=ORIENTED_EDGE('',*,*,#556,.T.) ;
#616=ORIENTED_EDGE('',*,*,#609,.T.) ;
#617=ORIENTED_EDGE('',*,*,#530,.F.) ;
#618=ORIENTED_EDGE('',*,*,#614,.F.) ;
#619=ORIENTED_EDGE('',*,*,#587,.T.) ;
#628=ORIENTED_EDGE('',*,*,#525,.T.) ;
#629=ORIENTED_EDGE('',*,*,#561,.T.) ;
#630=ORIENTED_EDGE('',*,*,#592,.T.) ;
#631=ORIENTED_EDGE('',*,*,#614,.T.) ;
#640=ORIENTED_EDGE('',*,*,#609,.F.) ;
#641=ORIENTED_EDGE('',*,*,#580,.F.) ;
#642=ORIENTED_EDGE('',*,*,#549,.F.) ;
#643=ORIENTED_EDGE('',*,*,#511,.F.) ;
#707=ORIENTED_EDGE('',*,*,#686,.T.) ;
#708=ORIENTED_EDGE('',*,*,#693,.F.) ;
#709=ORIENTED_EDGE('',*,*,#700,.F.) ;
#710=ORIENTED_EDGE('',*,*,#705,.T.) ;
#738=ORIENTED_EDGE('',*,*,#724,.T.) ;
#739=ORIENTED_EDGE('',*,*,#731,.F.) ;
#740=ORIENTED_EDGE('',*,*,#736,.F.) ;
#741=ORIENTED_EDGE('',*,*,#693,.T.) ;
#769=ORIENTED_EDGE('',*,*,#755,.T.) ;
#770=ORIENTED_EDGE('',*,*,#762,.F.) ;
#771=ORIENTED_EDGE('',*,*,#767,.F.) ;
#772=ORIENTED_EDGE('',*,*,#731,.T.) ;
#791=ORIENTED_EDGE('',*,*,#784,.T.) ;
#792=ORIENTED_EDGE('',*,*,#705,.F.) ;
#793=ORIENTED_EDGE('',*,*,#789,.F.) ;
#794=ORIENTED_EDGE('',*,*,#762,.T.) ;
#803=ORIENTED_EDGE('',*,*,#700,.T.) ;
#804=ORIENTED_EDGE('',*,*,#736,.T.) ;
#805=ORIENTED_EDGE('',*,*,#767,.T.) ;
#806=ORIENTED_EDGE('',*,*,#789,.T.) ;
#815=ORIENTED_EDGE('',*,*,#784,.F.) ;
#816=ORIENTED_EDGE('',*,*,#755,.F.) ;
#817=ORIENTED_EDGE('',*,*,#724,.F.) ;
#818=ORIENTED_EDGE('',*,*,#686,.F.) ;
#439=FACE_BOUND('',#434,.T.) ;
#445=FACE_BOUND('',#440,.T.) ;
#463=FACE_BOUND('',#458,.T.) ;
#469=FACE_BOUND('',#464,.T.) ;
#60=CLOSED_SHELL('Closed Shell',(#100,#131,#162,#184,#224,#255,#286,#308,#343,#374,#400,#422,#446,#470)) ;
#497=CLOSED_SHELL('Closed Shell',(#537,#568,#599,#621,#633,#645)) ;
#672=CLOSED_SHELL('Closed Shell',(#712,#743,#774,#796,#808,#820)) ;
#478=ITEM_DEFINED_TRANSFORMATION(' ',' ',#480,#479) ;
#653=ITEM_DEFINED_TRANSFORMATION(' ',' ',#655,#654) ;
#828=ITEM_DEFINED_TRANSFORMATION(' ',' ',#830,#829) ;
#68=VECTOR('Line Direction',#67,1.) ;
#77=VECTOR('Line Direction',#76,1.) ;
#84=VECTOR('Line Direction',#83,1.) ;
#91=VECTOR('Line Direction',#90,1.) ;
#108=VECTOR('Line Direction',#107,1.) ;
#115=VECTOR('Line Direction',#114,1.) ;
#122=VECTOR('Line Direction',#121,1.) ;
#139=VECTOR('Line Direction',#138,1.) ;
#146=VECTOR('Line Direction',#145,1.) ;
#153=VECTOR('Line Direction',#152,1.) ;
#170=VECTOR('Line Direction',#169,1.) ;
#175=VECTOR('Line Direction',#174,1.) ;
#192=VECTOR('Line Direction',#191,1.) ;
#201=VECTOR('Line Direction',#200,1.) ;
#208=VECTOR('Line Direction',#207,1.) ;
#215=VECTOR('Line Direction',#214,1.) ;
#232=VECTOR('Line Direction',#231,1.) ;
#241=VECTOR('Line Direction',#240,1.) ;
#246=VECTOR('Line Direction',#245,1.) ;
#263=VECTOR('Line Direction',#262,1.) ;
#272=VECTOR('Line Direction',#271,1.) ;
#277=VECTOR('Line Direction',#276,1.) ;
#294=VECTOR('Line Direction',#293,1.) ;
#299=VECTOR('Line Direction',#298,1.) ;
#311=VECTOR('Line Direction',#310,1.) ;
#320=VECTOR('Line Direction',#319,1.) ;
#327=VECTOR('Line Direction',#326,1.) ;
#334=VECTOR('Line Direction',#333,1.) ;
#351=VECTOR('Line Direction',#350,1.) ;
#360=VECTOR('Line Direction',#359,1.) ;
#365=VECTOR('Line Direction',#364,1.) ;
#377=VECTOR('Line Direction',#376,1.) ;
#386=VECTOR('Line Direction',#385,1.) ;
#391=VECTOR('Line Direction',#390,1.) ;
#408=VECTOR('Line Direction',#407,1.) ;
#413=VECTOR('Line Direction',#412,1.) ;
#505=VECTOR('Line Direction',#504,1.) ;
#514=VECTOR('Line Direction',#513,1.) ;
#521=VECTOR('Line Direction',#520,1.) ;
#528=VECTOR('Line Direction',#527,1.) ;
#545=VECTOR('Line Direction',#544,1.) ;
#552=VECTOR('Line Direction',#551,1.) ;
#559=VECTOR('Line Direction',#558,1.) ;
#576=VECTOR('Line Direction',#575,1.) ;
#583=VECTOR('Line Direction',#582,1.) ;
#590=VECTOR('Line Direction',#589,1.) ;
#607=VECTOR('Line Direction',#606,1.) ;
#612=VECTOR('Line Direction',#611,1.) ;
#680=VECTOR('Line Direction',#679,1.) ;
#689=VECTOR('Line Direction',#688,1.) ;
#696=VECTOR('Line Direction',#695,1.) ;
#703=VECTOR('Line Direction',#702,1.) ;
#720=VECTOR('Line Direction',#719,1.) ;
#727=VECTOR('Line Direction',#726,1.) ;
#734=VECTOR('Line Direction',#733,1.) ;
#751=VECTOR('Line Direction',#750,1.) ;
#758=VECTOR('Line Direction',#757,1.) ;
#765=VECTOR('Line Direction',#764,1.) ;
#782=VECTOR('Line Direction',#781,1.) ;
#787=VECTOR('Line Direction',#786,1.) ;
#472=ADVANCED_BREP_SHAPE_REPRESENTATION('NONE',(#471),#51) ;
#647=ADVANCED_BREP_SHAPE_REPRESENTATION('NONE',(#646),#51) ;
#822=ADVANCED_BREP_SHAPE_REPRESENTATION('NONE',(#821),#51) ;
#44=SHAPE_REPRESENTATION(' ',(#479,#654,#829),#51) ;
#52=SHAPE_REPRESENTATION(' ',(#480),#488) ;
#489=SHAPE_REPRESENTATION(' ',(#655),#663) ;
#664=SHAPE_REPRESENTATION(' ',(#830),#838) ;
#100=ADVANCED_FACE('PartBody',(#99),#65,.T.) ;
#131=ADVANCED_FACE('PartBody',(#130),#105,.F.) ;
#162=ADVANCED_FACE('PartBody',(#161),#136,.T.) ;
#184=ADVANCED_FACE('PartBody',(#183),#167,.F.) ;
#224=ADVANCED_FACE('PartBody',(#223),#189,.F.) ;
#255=ADVANCED_FACE('PartBody',(#254),#229,.T.) ;
#286=ADVANCED_FACE('PartBody',(#285),#260,.F.) ;
#308=ADVANCED_FACE('PartBody',(#307),#291,.T.) ;
#343=ADVANCED_FACE('PartBody',(#342),#189,.F.) ;
#374=ADVANCED_FACE('PartBody',(#373),#348,.T.) ;
#400=ADVANCED_FACE('PartBody',(#399),#260,.F.) ;
#422=ADVANCED_FACE('PartBody',(#421),#405,.T.) ;
#446=ADVANCED_FACE('PartBody',(#433,#439,#445),#427,.T.) ;
#470=ADVANCED_FACE('PartBody',(#457,#463,#469),#451,.F.) ;
#537=ADVANCED_FACE('PartBody',(#536),#502,.T.) ;
#568=ADVANCED_FACE('PartBody',(#567),#542,.F.) ;
#599=ADVANCED_FACE('PartBody',(#598),#573,.T.) ;
#621=ADVANCED_FACE('PartBody',(#620),#604,.F.) ;
#633=ADVANCED_FACE('PartBody',(#632),#626,.T.) ;
#645=ADVANCED_FACE('PartBody',(#644),#638,.F.) ;
#712=ADVANCED_FACE('PartBody',(#711),#677,.T.) ;
#743=ADVANCED_FACE('PartBody',(#742),#717,.F.) ;
#774=ADVANCED_FACE('PartBody',(#773),#748,.T.) ;
#796=ADVANCED_FACE('PartBody',(#795),#779,.F.) ;
#808=ADVANCED_FACE('PartBody',(#807),#801,.T.) ;
#820=ADVANCED_FACE('PartBody',(#819),#813,.F.) ;
#4=APPLICATION_PROTOCOL_DEFINITION('international standard','config_control_design',1994,#1) ;
#35=APPROVAL_DATE_TIME(#13,#24) ;
#471=MANIFOLD_SOLID_BREP('PartBody',#60) ;
#646=MANIFOLD_SOLID_BREP('PartBody',#497) ;
#821=MANIFOLD_SOLID_BREP('PartBody',#672) ;
#11=CALENDAR_DATE(2025,29,3) ;
#33=CC_DESIGN_APPROVAL(#24,(#19,#6,#17)) ;
#21=CC_DESIGN_DATE_AND_TIME_ASSIGNMENT(#13,#20,(#19)) ;
#32=CC_DESIGN_DATE_AND_TIME_ASSIGNMENT(#13,#31,(#17)) ;
#20=DATE_TIME_ROLE('classification_date') ;
#31=DATE_TIME_ROLE('creation_date') ;
#30=CC_DESIGN_PERSON_AND_ORGANIZATION_ASSIGNMENT(#28,#29,(#19)) ;
#36=CC_DESIGN_PERSON_AND_ORGANIZATION_ASSIGNMENT(#28,#37,(#6)) ;
#38=CC_DESIGN_PERSON_AND_ORGANIZATION_ASSIGNMENT(#28,#39,(#6,#17)) ;
#40=CC_DESIGN_PERSON_AND_ORGANIZATION_ASSIGNMENT(#28,#41,(#5)) ;
#29=PERSON_AND_ORGANIZATION_ROLE('classification_officer') ;
#37=PERSON_AND_ORGANIZATION_ROLE('design_supplier') ;
#39=PERSON_AND_ORGANIZATION_ROLE('creator') ;
#41=PERSON_AND_ORGANIZATION_ROLE('design_owner') ;
#42=CC_DESIGN_SECURITY_CLASSIFICATION(#19,(#6,#474,#649,#824)) ;
#58=DOCUMENT('11','P02ext.CATPart','CATPart document',#57) ;
#495=DOCUMENT('12','P02int_mare.CATPart','CATPart document',#494) ;
#670=DOCUMENT('13','P02int_mic.CATPart','CATPart document',#669) ;
#57=DOCUMENT_TYPE('') ;
#494=DOCUMENT_TYPE('') ;
#669=DOCUMENT_TYPE('') ;
#476=CONTEXT_DEPENDENT_SHAPE_REPRESENTATION(#477,#475) ;
#651=CONTEXT_DEPENDENT_SHAPE_REPRESENTATION(#652,#650) ;
#826=CONTEXT_DEPENDENT_SHAPE_REPRESENTATION(#827,#825) ;
#473=SHAPE_REPRESENTATION_RELATIONSHIP(' ',' ',#52,#472) ;
#648=SHAPE_REPRESENTATION_RELATIONSHIP(' ',' ',#489,#647) ;
#823=SHAPE_REPRESENTATION_RELATIONSHIP(' ',' ',#664,#822) ;
#3=DESIGN_CONTEXT(' ',#1,'design') ;
#74=EDGE_CURVE('',#71,#73,#69,.F.) ;
#81=EDGE_CURVE('',#80,#73,#78,.T.) ;
#88=EDGE_CURVE('',#87,#80,#85,.F.) ;
#93=EDGE_CURVE('',#87,#71,#92,.T.) ;
#112=EDGE_CURVE('',#73,#111,#109,.T.) ;
#119=EDGE_CURVE('',#118,#111,#116,.T.) ;
#124=EDGE_CURVE('',#80,#118,#123,.T.) ;
#143=EDGE_CURVE('',#111,#142,#140,.F.) ;
#150=EDGE_CURVE('',#149,#142,#147,.T.) ;
#155=EDGE_CURVE('',#118,#149,#154,.F.) ;
#172=EDGE_CURVE('',#142,#71,#171,.T.) ;
#177=EDGE_CURVE('',#149,#87,#176,.T.) ;
#198=EDGE_CURVE('',#195,#197,#193,.T.) ;
#205=EDGE_CURVE('',#195,#204,#202,.F.) ;
#212=EDGE_CURVE('',#204,#211,#209,.T.) ;
#217=EDGE_CURVE('',#197,#211,#216,.F.) ;
#238=EDGE_CURVE('',#235,#237,#233,.T.) ;
#243=EDGE_CURVE('',#235,#195,#242,.T.) ;
#248=EDGE_CURVE('',#237,#197,#247,.T.) ;
#269=EDGE_CURVE('',#266,#268,#264,.T.) ;
#274=EDGE_CURVE('',#266,#235,#273,.F.) ;
#279=EDGE_CURVE('',#268,#237,#278,.F.) ;
#296=EDGE_CURVE('',#204,#266,#295,.T.) ;
#301=EDGE_CURVE('',#211,#268,#300,.T.) ;
#317=EDGE_CURVE('',#314,#316,#312,.T.) ;
#324=EDGE_CURVE('',#314,#323,#321,.F.) ;
#331=EDGE_CURVE('',#323,#330,#328,.T.) ;
#336=EDGE_CURVE('',#316,#330,#335,.F.) ;
#357=EDGE_CURVE('',#354,#356,#352,.T.) ;
#362=EDGE_CURVE('',#354,#314,#361,.T.) ;
#367=EDGE_CURVE('',#356,#316,#366,.T.) ;
#383=EDGE_CURVE('',#380,#382,#378,.T.) ;
#388=EDGE_CURVE('',#380,#354,#387,.F.) ;
#393=EDGE_CURVE('',#382,#356,#392,.F.) ;
#410=EDGE_CURVE('',#323,#380,#409,.T.) ;
#415=EDGE_CURVE('',#330,#382,#414,.T.) ;
#511=EDGE_CURVE('',#508,#510,#506,.F.) ;
#518=EDGE_CURVE('',#517,#510,#515,.T.) ;
#525=EDGE_CURVE('',#524,#517,#522,.F.) ;
#530=EDGE_CURVE('',#524,#508,#529,.T.) ;
#549=EDGE_CURVE('',#510,#548,#546,.T.) ;
#556=EDGE_CURVE('',#555,#548,#553,.T.) ;
#561=EDGE_CURVE('',#517,#555,#560,.T.) ;
#580=EDGE_CURVE('',#548,#579,#577,.F.) ;
#587=EDGE_CURVE('',#586,#579,#584,.T.) ;
#592=EDGE_CURVE('',#555,#586,#591,.F.) ;
#609=EDGE_CURVE('',#579,#508,#608,.T.) ;
#614=EDGE_CURVE('',#586,#524,#613,.T.) ;
#686=EDGE_CURVE('',#683,#685,#681,.F.) ;
#693=EDGE_CURVE('',#692,#685,#690,.T.) ;
#700=EDGE_CURVE('',#699,#692,#697,.F.) ;
#705=EDGE_CURVE('',#699,#683,#704,.T.) ;
#724=EDGE_CURVE('',#685,#723,#721,.T.) ;
#731=EDGE_CURVE('',#730,#723,#728,.T.) ;
#736=EDGE_CURVE('',#692,#730,#735,.T.) ;
#755=EDGE_CURVE('',#723,#754,#752,.F.) ;
#762=EDGE_CURVE('',#761,#754,#759,.T.) ;
#767=EDGE_CURVE('',#730,#761,#766,.F.) ;
#784=EDGE_CURVE('',#754,#683,#783,.T.) ;
#789=EDGE_CURVE('',#761,#699,#788,.T.) ;
#94=EDGE_LOOP('',(#95,#96,#97,#98)) ;
#125=EDGE_LOOP('',(#126,#127,#128,#129)) ;
#156=EDGE_LOOP('',(#157,#158,#159,#160)) ;
#178=EDGE_LOOP('',(#179,#180,#181,#182)) ;
#218=EDGE_LOOP('',(#219,#220,#221,#222)) ;
#249=EDGE_LOOP('',(#250,#251,#252,#253)) ;
#280=EDGE_LOOP('',(#281,#282,#283,#284)) ;
#302=EDGE_LOOP('',(#303,#304,#305,#306)) ;
#337=EDGE_LOOP('',(#338,#339,#340,#341)) ;
#368=EDGE_LOOP('',(#369,#370,#371,#372)) ;
#394=EDGE_LOOP('',(#395,#396,#397,#398)) ;
#416=EDGE_LOOP('',(#417,#418,#419,#420)) ;
#428=EDGE_LOOP('',(#429,#430,#431,#432)) ;
#434=EDGE_LOOP('',(#435,#436,#437,#438)) ;
#440=EDGE_LOOP('',(#441,#442,#443,#444)) ;
#452=EDGE_LOOP('',(#453,#454,#455,#456)) ;
#458=EDGE_LOOP('',(#459,#460,#461,#462)) ;
#464=EDGE_LOOP('',(#465,#466,#467,#468)) ;
#531=EDGE_LOOP('',(#532,#533,#534,#535)) ;
#562=EDGE_LOOP('',(#563,#564,#565,#566)) ;
#593=EDGE_LOOP('',(#594,#595,#596,#597)) ;
#615=EDGE_LOOP('',(#616,#617,#618,#619)) ;
#627=EDGE_LOOP('',(#628,#629,#630,#631)) ;
#639=EDGE_LOOP('',(#640,#641,#642,#643)) ;
#706=EDGE_LOOP('',(#707,#708,#709,#710)) ;
#737=EDGE_LOOP('',(#738,#739,#740,#741)) ;
#768=EDGE_LOOP('',(#769,#770,#771,#772)) ;
#790=EDGE_LOOP('',(#791,#792,#793,#794)) ;
#802=EDGE_LOOP('',(#803,#804,#805,#806)) ;
#814=EDGE_LOOP('',(#815,#816,#817,#818)) ;
#99=FACE_OUTER_BOUND('',#94,.T.) ;
#130=FACE_OUTER_BOUND('',#125,.T.) ;
#161=FACE_OUTER_BOUND('',#156,.T.) ;
#183=FACE_OUTER_BOUND('',#178,.T.) ;
#223=FACE_OUTER_BOUND('',#218,.T.) ;
#254=FACE_OUTER_BOUND('',#249,.T.) ;
#285=FACE_OUTER_BOUND('',#280,.T.) ;
#307=FACE_OUTER_BOUND('',#302,.T.) ;
#342=FACE_OUTER_BOUND('',#337,.T.) ;
#373=FACE_OUTER_BOUND('',#368,.T.) ;
#399=FACE_OUTER_BOUND('',#394,.T.) ;
#421=FACE_OUTER_BOUND('',#416,.T.) ;
#433=FACE_OUTER_BOUND('',#428,.T.) ;
#457=FACE_OUTER_BOUND('',#452,.T.) ;
#536=FACE_OUTER_BOUND('',#531,.T.) ;
#567=FACE_OUTER_BOUND('',#562,.T.) ;
#598=FACE_OUTER_BOUND('',#593,.T.) ;
#620=FACE_OUTER_BOUND('',#615,.T.) ;
#632=FACE_OUTER_BOUND('',#627,.T.) ;
#644=FACE_OUTER_BOUND('',#639,.T.) ;
#711=FACE_OUTER_BOUND('',#706,.T.) ;
#742=FACE_OUTER_BOUND('',#737,.T.) ;
#773=FACE_OUTER_BOUND('',#768,.T.) ;
#795=FACE_OUTER_BOUND('',#790,.T.) ;
#807=FACE_OUTER_BOUND('',#802,.T.) ;
#819=FACE_OUTER_BOUND('',#814,.T.) ;
#50=UNCERTAINTY_MEASURE_WITH_UNIT(LENGTH_MEASURE(0.005),#46,'distance_accuracy_value','CONFUSED CURVE UNCERTAINTY') ;
#487=UNCERTAINTY_MEASURE_WITH_UNIT(LENGTH_MEASURE(0.005),#46,'distance_accuracy_value','CONFUSED CURVE UNCERTAINTY') ;
#662=UNCERTAINTY_MEASURE_WITH_UNIT(LENGTH_MEASURE(0.005),#46,'distance_accuracy_value','CONFUSED CURVE UNCERTAINTY') ;
#837=UNCERTAINTY_MEASURE_WITH_UNIT(LENGTH_MEASURE(0.005),#46,'distance_accuracy_value','CONFUSED CURVE UNCERTAINTY') ;
#69=LINE('Line',#66,#68) ;
#78=LINE('Line',#75,#77) ;
#85=LINE('Line',#82,#84) ;
#92=LINE('Line',#89,#91) ;
#109=LINE('Line',#106,#108) ;
#116=LINE('Line',#113,#115) ;
#123=LINE('Line',#120,#122) ;
#140=LINE('Line',#137,#139) ;
#147=LINE('Line',#144,#146) ;
#154=LINE('Line',#151,#153) ;
#171=LINE('Line',#168,#170) ;
#176=LINE('Line',#173,#175) ;
#193=LINE('Line',#190,#192) ;
#202=LINE('Line',#199,#201) ;
#209=LINE('Line',#206,#208) ;
#216=LINE('Line',#213,#215) ;
#233=LINE('Line',#230,#232) ;
#242=LINE('Line',#239,#241) ;
#247=LINE('Line',#244,#246) ;
#264=LINE('Line',#261,#263) ;
#273=LINE('Line',#270,#272) ;
#278=LINE('Line',#275,#277) ;
#295=LINE('Line',#292,#294) ;
#300=LINE('Line',#297,#299) ;
#312=LINE('Line',#309,#311) ;
#321=LINE('Line',#318,#320) ;
#328=LINE('Line',#325,#327) ;
#335=LINE('Line',#332,#334) ;
#352=LINE('Line',#349,#351) ;
#361=LINE('Line',#358,#360) ;
#366=LINE('Line',#363,#365) ;
#378=LINE('Line',#375,#377) ;
#387=LINE('Line',#384,#386) ;
#392=LINE('Line',#389,#391) ;
#409=LINE('Line',#406,#408) ;
#414=LINE('Line',#411,#413) ;
#506=LINE('Line',#503,#505) ;
#515=LINE('Line',#512,#514) ;
#522=LINE('Line',#519,#521) ;
#529=LINE('Line',#526,#528) ;
#546=LINE('Line',#543,#545) ;
#553=LINE('Line',#550,#552) ;
#560=LINE('Line',#557,#559) ;
#577=LINE('Line',#574,#576) ;
#584=LINE('Line',#581,#583) ;
#591=LINE('Line',#588,#590) ;
#608=LINE('Line',#605,#607) ;
#613=LINE('Line',#610,#612) ;
#681=LINE('Line',#678,#680) ;
#690=LINE('Line',#687,#689) ;
#697=LINE('Line',#694,#696) ;
#704=LINE('Line',#701,#703) ;
#721=LINE('Line',#718,#720) ;
#728=LINE('Line',#725,#727) ;
#735=LINE('Line',#732,#734) ;
#752=LINE('Line',#749,#751) ;
#759=LINE('Line',#756,#758) ;
#766=LINE('Line',#763,#765) ;
#783=LINE('Line',#780,#782) ;
#788=LINE('Line',#785,#787) ;
#2=MECHANICAL_CONTEXT(' ',#1,'mechanical') ;
#474=NEXT_ASSEMBLY_USAGE_OCCURRENCE('Part5.1','Part5.1','',#17,#56,' ') ;
#649=NEXT_ASSEMBLY_USAGE_OCCURRENCE('Part6.1','Part6.1','',#17,#493,' ') ;
#824=NEXT_ASSEMBLY_USAGE_OCCURRENCE('Part7.1','Part7.1','',#17,#668,' ') ;
#27=PERSONAL_ADDRESS(' ',' ',' ',' ',' ',' ',' ',' ',' ',' ',' ',' ',(#25),' ') ;
#65=PLANE('Plane',#64) ;
#105=PLANE('Plane',#104) ;
#136=PLANE('Plane',#135) ;
#167=PLANE('Plane',#166) ;
#189=PLANE('Plane',#188) ;
#229=PLANE('Plane',#228) ;
#260=PLANE('Plane',#259) ;
#291=PLANE('Plane',#290) ;
#348=PLANE('Plane',#347) ;
#405=PLANE('Plane',#404) ;
#427=PLANE('Plane',#426) ;
#451=PLANE('Plane',#450) ;
#502=PLANE('Plane',#501) ;
#542=PLANE('Plane',#541) ;
#573=PLANE('Plane',#572) ;
#604=PLANE('Plane',#603) ;
#626=PLANE('Plane',#625) ;
#638=PLANE('Plane',#637) ;
#677=PLANE('Plane',#676) ;
#717=PLANE('Plane',#716) ;
#748=PLANE('Plane',#747) ;
#779=PLANE('Plane',#778) ;
#801=PLANE('Plane',#800) ;
#813=PLANE('Plane',#812) ;
#48=PLANE_ANGLE_MEASURE_WITH_UNIT(PLANE_ANGLE_MEASURE(0.0174532925199),#47) ;
#7=PRODUCT_CATEGORY('part',$) ;
#14=PRODUCT_CATEGORY('part',$) ;
#9=PRODUCT_CATEGORY_RELATIONSHIP(' ',' ',#7,#8) ;
#16=PRODUCT_CATEGORY_RELATIONSHIP(' ',' ',#14,#15) ;
#6=PRODUCT_DEFINITION_FORMATION_WITH_SPECIFIED_SOURCE('',' ',#5,.NOT_KNOWN.) ;
#55=PRODUCT_DEFINITION_FORMATION_WITH_SPECIFIED_SOURCE('',' ',#54,.NOT_KNOWN.) ;
#492=PRODUCT_DEFINITION_FORMATION_WITH_SPECIFIED_SOURCE('',' ',#491,.NOT_KNOWN.) ;
#667=PRODUCT_DEFINITION_FORMATION_WITH_SPECIFIED_SOURCE('',' ',#666,.NOT_KNOWN.) ;
#56=PRODUCT_DEFINITION_WITH_ASSOCIATED_DOCUMENTS('Part5',' ',#55,#3,(#58)) ;
#493=PRODUCT_DEFINITION_WITH_ASSOCIATED_DOCUMENTS('Part6',' ',#492,#3,(#495)) ;
#668=PRODUCT_DEFINITION_WITH_ASSOCIATED_DOCUMENTS('Part7',' ',#667,#3,(#670)) ;
#8=PRODUCT_RELATED_PRODUCT_CATEGORY('detail',$,(#54,#491,#666)) ;
#15=PRODUCT_RELATED_PRODUCT_CATEGORY('part',$,(#5)) ;
#43=SHAPE_DEFINITION_REPRESENTATION(#45,#44) ;
#53=SHAPE_DEFINITION_REPRESENTATION(#59,#52) ;
#490=SHAPE_DEFINITION_REPRESENTATION(#496,#489) ;
#665=SHAPE_DEFINITION_REPRESENTATION(#671,#664) ;
#71=VERTEX_POINT('',#70) ;
#73=VERTEX_POINT('',#72) ;
#80=VERTEX_POINT('',#79) ;
#87=VERTEX_POINT('',#86) ;
#111=VERTEX_POINT('',#110) ;
#118=VERTEX_POINT('',#117) ;
#142=VERTEX_POINT('',#141) ;
#149=VERTEX_POINT('',#148) ;
#195=VERTEX_POINT('',#194) ;
#197=VERTEX_POINT('',#196) ;
#204=VERTEX_POINT('',#203) ;
#211=VERTEX_POINT('',#210) ;
#235=VERTEX_POINT('',#234) ;
#237=VERTEX_POINT('',#236) ;
#266=VERTEX_POINT('',#265) ;
#268=VERTEX_POINT('',#267) ;
#314=VERTEX_POINT('',#313) ;
#316=VERTEX_POINT('',#315) ;
#323=VERTEX_POINT('',#322) ;
#330=VERTEX_POINT('',#329) ;
#354=VERTEX_POINT('',#353) ;
#356=VERTEX_POINT('',#355) ;
#380=VERTEX_POINT('',#379) ;
#382=VERTEX_POINT('',#381) ;
#508=VERTEX_POINT('',#507) ;
#510=VERTEX_POINT('',#509) ;
#517=VERTEX_POINT('',#516) ;
#524=VERTEX_POINT('',#523) ;
#548=VERTEX_POINT('',#547) ;
#555=VERTEX_POINT('',#554) ;
#579=VERTEX_POINT('',#578) ;
#586=VERTEX_POINT('',#585) ;
#683=VERTEX_POINT('',#682) ;
#685=VERTEX_POINT('',#684) ;
#692=VERTEX_POINT('',#691) ;
#699=VERTEX_POINT('',#698) ;
#723=VERTEX_POINT('',#722) ;
#730=VERTEX_POINT('',#729) ;
#754=VERTEX_POINT('',#753) ;
#761=VERTEX_POINT('',#760) ;
#46=(LENGTH_UNIT()NAMED_UNIT(*)SI_UNIT(.MILLI.,.METRE.)) ;
#47=(NAMED_UNIT(*)PLANE_ANGLE_UNIT()SI_UNIT($,.RADIAN.)) ;
#49=(NAMED_UNIT(*)SI_UNIT($,.STERADIAN.)SOLID_ANGLE_UNIT()) ;
#51=(GEOMETRIC_REPRESENTATION_CONTEXT(3)GLOBAL_UNCERTAINTY_ASSIGNED_CONTEXT((#50))GLOBAL_UNIT_ASSIGNED_CONTEXT((#46,#47,#49))REPRESENTATION_CONTEXT(' ',' ')) ;
#488=(GEOMETRIC_REPRESENTATION_CONTEXT(3)GLOBAL_UNCERTAINTY_ASSIGNED_CONTEXT((#487))GLOBAL_UNIT_ASSIGNED_CONTEXT((#46,#47,#49))REPRESENTATION_CONTEXT(' ',' ')) ;
#663=(GEOMETRIC_REPRESENTATION_CONTEXT(3)GLOBAL_UNCERTAINTY_ASSIGNED_CONTEXT((#662))GLOBAL_UNIT_ASSIGNED_CONTEXT((#46,#47,#49))REPRESENTATION_CONTEXT(' ',' ')) ;
#838=(GEOMETRIC_REPRESENTATION_CONTEXT(3)GLOBAL_UNCERTAINTY_ASSIGNED_CONTEXT((#837))GLOBAL_UNIT_ASSIGNED_CONTEXT((#46,#47,#49))REPRESENTATION_CONTEXT(' ',' ')) ;
#477=(REPRESENTATION_RELATIONSHIP(' ',' ',#52,#44)REPRESENTATION_RELATIONSHIP_WITH_TRANSFORMATION(#478)SHAPE_REPRESENTATION_RELATIONSHIP()) ;
#652=(REPRESENTATION_RELATIONSHIP(' ',' ',#489,#44)REPRESENTATION_RELATIONSHIP_WITH_TRANSFORMATION(#653)SHAPE_REPRESENTATION_RELATIONSHIP()) ;
#827=(REPRESENTATION_RELATIONSHIP(' ',' ',#664,#44)REPRESENTATION_RELATIONSHIP_WITH_TRANSFORMATION(#828)SHAPE_REPRESENTATION_RELATIONSHIP()) ;
ENDSEC;
END-ISO-10303-21;
