ISO-10303-21;
HEADER;
FILE_DESCRIPTION(('CATIA V5 STEP Exchange'),'2;1');

FILE_NAME('C:\\Users\\mnicu\\Desktop\\Client 2024\\Kyra sablage\\Rafat 3D models\\Alain files\\fwdportestp (1)\\PPte3PanL_CDP REG_Origin Right.stp','2025-01-31T21:33:40+00:00',('none'),('none'),'CATIA Version 5 Release 18 GA (IN-10)','CATIA V5 STEP AP203','none');

FILE_SCHEMA(('CONFIG_CONTROL_DESIGN'));

ENDSEC;
/* file written by CATIA V5R18 */
DATA;
#5=PRODUCT('Product3','','',(#2)) ;
#54=PRODUCT('PPte3PanL_CDP REG','','',(#2)) ;
#1233=PRODUCT('Part14','','',(#2)) ;
#1=APPLICATION_CONTEXT('configuration controlled 3D design of mechanical parts and assemblies') ;
#17=PRODUCT_DEFINITION('Product3',' ',#6,#3) ;
#19=SECURITY_CLASSIFICATION(' ',' ',#18) ;
#18=SECURITY_CLASSIFICATION_LEVEL('unclassified') ;
#60=CARTESIAN_POINT('Line Origine',(57.15,387.35,-1.10998E-005)) ;
#64=CARTESIAN_POINT('Limit',(57.15,57.15,-1.10998E-005)) ;
#65=CARTESIAN_POINT('Limit',(57.15,717.55,-1.10998E-005)) ;
#72=CARTESIAN_POINT('Line Origine',(1263.65,387.35,-1.10998E-005)) ;
#76=CARTESIAN_POINT('Limit',(1263.65,717.55,-1.10998E-005)) ;
#77=CARTESIAN_POINT('Limit',(1263.65,57.15,-1.10998E-005)) ;
#81=CARTESIAN_POINT('Line Origine',(381.,387.35,-1.147572E-005)) ;
#85=CARTESIAN_POINT('Limit',(381.,57.15,-1.147572E-005)) ;
#86=CARTESIAN_POINT('Limit',(381.,717.55,-1.147572E-005)) ;
#90=CARTESIAN_POINT('Line Origine',(498.475,387.35,-1.147572E-005)) ;
#94=CARTESIAN_POINT('Limit',(498.475,57.15,-1.147572E-005)) ;
#95=CARTESIAN_POINT('Limit',(498.475,717.55,-1.147572E-005)) ;
#99=CARTESIAN_POINT('Line Origine',(822.325,387.35,-1.147572E-005)) ;
#103=CARTESIAN_POINT('Limit',(822.325,57.15,-1.147572E-005)) ;
#104=CARTESIAN_POINT('Limit',(822.325,717.55,-1.147572E-005)) ;
#108=CARTESIAN_POINT('Line Origine',(939.8,387.35,-1.147572E-005)) ;
#112=CARTESIAN_POINT('Limit',(939.8,57.15,-1.147572E-005)) ;
#113=CARTESIAN_POINT('Limit',(939.8,717.55,-1.147572E-005)) ;
#117=CARTESIAN_POINT('Line Origine',(660.4,-139.7,0.00114941858)) ;
#121=CARTESIAN_POINT('Limit',(1320.8,-139.7,0.00114941858)) ;
#122=CARTESIAN_POINT('Limit',(0.,-139.7,0.00114941858)) ;
#125=CARTESIAN_POINT('Line Origine',(0.,319.0875,0.00114941858)) ;
#129=CARTESIAN_POINT('Limit',(0.,-139.7,0.00114941858)) ;
#130=CARTESIAN_POINT('Limit',(0.,777.875,0.00114941858)) ;
#134=CARTESIAN_POINT('Line Origine',(1320.8,319.0875,0.00114941858)) ;
#138=CARTESIAN_POINT('Limit',(1320.8,777.875,0.00114941858)) ;
#139=CARTESIAN_POINT('Limit',(1320.8,-139.7,0.00114941858)) ;
#143=CARTESIAN_POINT('Line Origine',(660.4,777.875,0.00114941858)) ;
#147=CARTESIAN_POINT('Limit',(0.,777.875,0.00114941858)) ;
#148=CARTESIAN_POINT('Limit',(1320.8,777.875,0.00114941858)) ;
#152=CARTESIAN_POINT('Line Origine',(1101.725,57.15,0.)) ;
#156=CARTESIAN_POINT('Limit',(1263.65,57.15,0.)) ;
#157=CARTESIAN_POINT('Limit',(939.8,57.15,0.)) ;
#161=CARTESIAN_POINT('Line Origine',(219.075,717.55,0.)) ;
#165=CARTESIAN_POINT('Limit',(57.15,717.55,0.)) ;
#166=CARTESIAN_POINT('Limit',(381.,717.55,0.)) ;
#170=CARTESIAN_POINT('Line Origine',(1101.725,717.55,0.)) ;
#174=CARTESIAN_POINT('Limit',(1263.65,717.55,0.)) ;
#175=CARTESIAN_POINT('Limit',(939.8,717.55,0.)) ;
#179=CARTESIAN_POINT('Line Origine',(660.4,717.55,0.)) ;
#183=CARTESIAN_POINT('Limit',(822.325,717.55,0.)) ;
#184=CARTESIAN_POINT('Limit',(498.475,717.55,0.)) ;
#188=CARTESIAN_POINT('Line Origine',(219.075,57.15,0.)) ;
#192=CARTESIAN_POINT('Limit',(57.15,57.15,0.)) ;
#193=CARTESIAN_POINT('Limit',(381.,57.15,0.)) ;
#197=CARTESIAN_POINT('Line Origine',(660.4,57.15,0.)) ;
#201=CARTESIAN_POINT('Limit',(498.475,57.15,0.)) ;
#202=CARTESIAN_POINT('Limit',(822.325,57.15,0.)) ;
#207=CARTESIAN_POINT('Axis2P3D Location',(498.475,57.15,19.1781494186)) ;
#212=CARTESIAN_POINT('Line Origine',(498.475,387.35,0.00114941936976)) ;
#216=CARTESIAN_POINT('Vertex',(498.475,57.15,0.00114941936976)) ;
#218=CARTESIAN_POINT('Vertex',(498.475,717.55,0.00114941936976)) ;
#221=CARTESIAN_POINT('Line Origine',(498.475,717.55,9.58964941897)) ;
#225=CARTESIAN_POINT('Vertex',(498.475,717.55,19.1781494186)) ;
#228=CARTESIAN_POINT('Line Origine',(498.475,387.35,19.1781494186)) ;
#232=CARTESIAN_POINT('Vertex',(498.475,57.15,19.1781494186)) ;
#235=CARTESIAN_POINT('Line Origine',(498.475,57.15,9.58964941897)) ;
#247=CARTESIAN_POINT('Axis2P3D Location',(0.,0.,0.00114941858)) ;
#252=CARTESIAN_POINT('Line Origine',(0.,319.0875,0.00114941858)) ;
#256=CARTESIAN_POINT('Vertex',(0.,-139.7,0.00114941936976)) ;
#258=CARTESIAN_POINT('Vertex',(0.,777.874999999,0.00114941936976)) ;
#261=CARTESIAN_POINT('Line Origine',(660.4,777.875,0.00114941858)) ;
#265=CARTESIAN_POINT('Vertex',(1320.8,777.875,0.00114941936976)) ;
#268=CARTESIAN_POINT('Line Origine',(1320.8,319.0875,0.00114941858)) ;
#272=CARTESIAN_POINT('Vertex',(1320.8,-139.699999999,0.00114941936976)) ;
#275=CARTESIAN_POINT('Line Origine',(660.4,-139.699999999,0.00114941858)) ;
#286=CARTESIAN_POINT('Line Origine',(57.1500000004,387.350000001,0.00114941858)) ;
#290=CARTESIAN_POINT('Vertex',(57.15,57.15,0.00114941936976)) ;
#292=CARTESIAN_POINT('Vertex',(57.15,717.55,0.00114941936976)) ;
#295=CARTESIAN_POINT('Line Origine',(219.075,57.1500000004,0.00114941858)) ;
#299=CARTESIAN_POINT('Vertex',(381.,57.15,0.00114941936976)) ;
#302=CARTESIAN_POINT('Line Origine',(381.,387.350000001,0.00114941858)) ;
#306=CARTESIAN_POINT('Vertex',(381.,717.55,0.00114941936976)) ;
#309=CARTESIAN_POINT('Line Origine',(219.075,717.550000001,0.00114941858)) ;
#320=CARTESIAN_POINT('Line Origine',(939.800000001,387.350000001,0.00114941858)) ;
#324=CARTESIAN_POINT('Vertex',(939.8,57.15,0.00114941936976)) ;
#326=CARTESIAN_POINT('Vertex',(939.8,717.55,0.00114941936976)) ;
#329=CARTESIAN_POINT('Line Origine',(1101.725,57.1500000004,0.00114941858)) ;
#333=CARTESIAN_POINT('Vertex',(1263.65,57.15,0.00114941936976)) ;
#336=CARTESIAN_POINT('Line Origine',(1263.65,387.350000001,0.00114941858)) ;
#340=CARTESIAN_POINT('Vertex',(1263.65,717.55,0.00114941936976)) ;
#343=CARTESIAN_POINT('Line Origine',(1101.725,717.550000001,0.00114941858)) ;
#354=CARTESIAN_POINT('Line Origine',(660.399999999,57.1500000004,0.00114941858)) ;
#358=CARTESIAN_POINT('Vertex',(822.325,57.15,0.00114941936976)) ;
#361=CARTESIAN_POINT('Line Origine',(822.324999999,387.350000001,0.00114941858)) ;
#365=CARTESIAN_POINT('Vertex',(822.325,717.55,0.00114941936976)) ;
#368=CARTESIAN_POINT('Line Origine',(660.399999999,717.550000001,0.00114941858)) ;
#380=CARTESIAN_POINT('Axis2P3D Location',(822.325,717.55,19.1781494186)) ;
#385=CARTESIAN_POINT('Line Origine',(822.325,717.55,9.58964941897)) ;
#389=CARTESIAN_POINT('Vertex',(822.325,717.55,19.1781494186)) ;
#392=CARTESIAN_POINT('Line Origine',(660.4,717.55,19.1781494186)) ;
#404=CARTESIAN_POINT('Axis2P3D Location',(0.,0.,19.1781494186)) ;
#409=CARTESIAN_POINT('Line Origine',(0.,319.0875,19.1781494186)) ;
#413=CARTESIAN_POINT('Vertex',(0.,-139.7,19.1781494186)) ;
#415=CARTESIAN_POINT('Vertex',(0.,777.874999999,19.1781494186)) ;
#418=CARTESIAN_POINT('Line Origine',(660.4,-139.699999999,19.1781494186)) ;
#422=CARTESIAN_POINT('Vertex',(1320.8,-139.699999999,19.1781494186)) ;
#425=CARTESIAN_POINT('Line Origine',(1320.8,319.0875,19.1781494186)) ;
#429=CARTESIAN_POINT('Vertex',(1320.8,777.875,19.1781494186)) ;
#432=CARTESIAN_POINT('Line Origine',(660.4,777.875,19.1781494186)) ;
#443=CARTESIAN_POINT('Line Origine',(57.1500000004,387.350000001,19.1781494186)) ;
#447=CARTESIAN_POINT('Vertex',(57.15,57.15,19.1781494186)) ;
#449=CARTESIAN_POINT('Vertex',(57.15,717.55,19.1781494186)) ;
#452=CARTESIAN_POINT('Line Origine',(219.075,717.550000001,19.1781494186)) ;
#456=CARTESIAN_POINT('Vertex',(381.,717.55,19.1781494186)) ;
#459=CARTESIAN_POINT('Line Origine',(381.,387.350000001,19.1781494186)) ;
#463=CARTESIAN_POINT('Vertex',(381.,57.15,19.1781494186)) ;
#466=CARTESIAN_POINT('Line Origine',(219.075,57.1500000004,19.1781494186)) ;
#477=CARTESIAN_POINT('Line Origine',(939.800000001,387.350000001,19.1781494186)) ;
#481=CARTESIAN_POINT('Vertex',(939.8,57.15,19.1781494186)) ;
#483=CARTESIAN_POINT('Vertex',(939.8,717.55,19.1781494186)) ;
#486=CARTESIAN_POINT('Line Origine',(1101.725,717.550000001,19.1781494186)) ;
#490=CARTESIAN_POINT('Vertex',(1263.65,717.55,19.1781494186)) ;
#493=CARTESIAN_POINT('Line Origine',(1263.65,387.350000001,19.1781494186)) ;
#497=CARTESIAN_POINT('Vertex',(1263.65,57.15,19.1781494186)) ;
#500=CARTESIAN_POINT('Line Origine',(1101.725,57.1500000004,19.1781494186)) ;
#511=CARTESIAN_POINT('Line Origine',(822.324999999,387.350000001,19.1781494186)) ;
#515=CARTESIAN_POINT('Vertex',(822.325,57.15,19.1781494186)) ;
#518=CARTESIAN_POINT('Line Origine',(660.399999999,57.1500000004,19.1781494186)) ;
#530=CARTESIAN_POINT('Axis2P3D Location',(498.475,57.15,19.1781494186)) ;
#535=CARTESIAN_POINT('Line Origine',(822.325,57.15,9.58964941897)) ;
#547=CARTESIAN_POINT('Axis2P3D Location',(0.,-139.7,19.1781494186)) ;
#552=CARTESIAN_POINT('Line Origine',(0.,-139.7,9.58964941897)) ;
#557=CARTESIAN_POINT('Line Origine',(0.,777.874999999,9.58964941897)) ;
#569=CARTESIAN_POINT('Axis2P3D Location',(0.,777.875,19.1781494186)) ;
#574=CARTESIAN_POINT('Line Origine',(1320.8,777.875,9.58964941897)) ;
#586=CARTESIAN_POINT('Axis2P3D Location',(1320.8,777.875,19.1781494186)) ;
#591=CARTESIAN_POINT('Line Origine',(1320.8,-139.699999999,9.58964941897)) ;
#603=CARTESIAN_POINT('Axis2P3D Location',(1320.8,-139.7,19.1781494186)) ;
#615=CARTESIAN_POINT('Axis2P3D Location',(57.15,57.15,19.1781494186)) ;
#620=CARTESIAN_POINT('Line Origine',(57.15,717.55,9.58964941897)) ;
#625=CARTESIAN_POINT('Line Origine',(57.15,57.15,9.58964941897)) ;
#637=CARTESIAN_POINT('Axis2P3D Location',(57.15,57.15,19.1781494186)) ;
#642=CARTESIAN_POINT('Line Origine',(381.,57.15,9.58964941897)) ;
#654=CARTESIAN_POINT('Axis2P3D Location',(381.,57.15,19.1781494186)) ;
#659=CARTESIAN_POINT('Line Origine',(381.,717.55,9.58964941897)) ;
#671=CARTESIAN_POINT('Axis2P3D Location',(57.15,717.55,19.1781494186)) ;
#683=CARTESIAN_POINT('Axis2P3D Location',(939.8,57.15,19.1781494186)) ;
#688=CARTESIAN_POINT('Line Origine',(939.8,717.55,9.58964941897)) ;
#693=CARTESIAN_POINT('Line Origine',(939.8,57.15,9.58964941897)) ;
#705=CARTESIAN_POINT('Axis2P3D Location',(1263.65,57.15,19.1781494186)) ;
#710=CARTESIAN_POINT('Line Origine',(1263.65,57.15,9.58964941897)) ;
#722=CARTESIAN_POINT('Axis2P3D Location',(1263.65,717.55,19.1781494186)) ;
#727=CARTESIAN_POINT('Line Origine',(1263.65,717.55,9.58964941897)) ;
#739=CARTESIAN_POINT('Axis2P3D Location',(1263.65,717.55,19.1781494186)) ;
#751=CARTESIAN_POINT('Axis2P3D Location',(822.325,57.15,19.1781494186)) ;
#767=CARTESIAN_POINT('Axis2P3D Location',(57.15,57.15,9.652)) ;
#772=CARTESIAN_POINT('Line Origine',(57.15,387.35,-7.00355329286E-010)) ;
#776=CARTESIAN_POINT('Vertex',(57.15,57.15,-7.00355329286E-010)) ;
#778=CARTESIAN_POINT('Vertex',(57.15,717.55,-7.00355329286E-010)) ;
#781=CARTESIAN_POINT('Line Origine',(57.15,57.15,4.82599999965)) ;
#785=CARTESIAN_POINT('Vertex',(57.15,57.15,9.652)) ;
#788=CARTESIAN_POINT('Line Origine',(57.15,387.35,9.652)) ;
#792=CARTESIAN_POINT('Vertex',(57.15,717.55,9.652)) ;
#795=CARTESIAN_POINT('Line Origine',(57.15,717.55,4.82599999965)) ;
#807=CARTESIAN_POINT('Axis2P3D Location',(0.,0.,0.)) ;
#812=CARTESIAN_POINT('Line Origine',(219.075,717.550000001,0.)) ;
#816=CARTESIAN_POINT('Vertex',(381.,717.55,-7.00355329286E-010)) ;
#819=CARTESIAN_POINT('Line Origine',(381.,387.350000001,0.)) ;
#823=CARTESIAN_POINT('Vertex',(381.,57.15,-7.00355329286E-010)) ;
#826=CARTESIAN_POINT('Line Origine',(219.075,57.1500000004,0.)) ;
#838=CARTESIAN_POINT('Axis2P3D Location',(57.15,57.15,9.652)) ;
#843=CARTESIAN_POINT('Line Origine',(381.,57.15,4.82599999965)) ;
#847=CARTESIAN_POINT('Vertex',(381.,57.15,9.652)) ;
#850=CARTESIAN_POINT('Line Origine',(219.075,57.15,9.652)) ;
#862=CARTESIAN_POINT('Axis2P3D Location',(0.,0.,9.652)) ;
#867=CARTESIAN_POINT('Line Origine',(381.,387.350000001,9.652)) ;
#871=CARTESIAN_POINT('Vertex',(381.,717.55,9.652)) ;
#874=CARTESIAN_POINT('Line Origine',(219.075,717.550000001,9.652)) ;
#886=CARTESIAN_POINT('Axis2P3D Location',(57.15,717.55,9.652)) ;
#891=CARTESIAN_POINT('Line Origine',(381.,717.55,4.82599999965)) ;
#903=CARTESIAN_POINT('Axis2P3D Location',(381.,57.15,9.652)) ;
#917=CARTESIAN_POINT('Axis2P3D Location',(498.475,57.15,9.652)) ;
#922=CARTESIAN_POINT('Line Origine',(498.475,387.35,-7.00355329286E-010)) ;
#926=CARTESIAN_POINT('Vertex',(498.475,57.15,-7.00355329286E-010)) ;
#928=CARTESIAN_POINT('Vertex',(498.475,717.55,-7.00355329286E-010)) ;
#931=CARTESIAN_POINT('Line Origine',(498.475,57.15,4.82599999965)) ;
#935=CARTESIAN_POINT('Vertex',(498.475,57.15,9.652)) ;
#938=CARTESIAN_POINT('Line Origine',(498.475,387.35,9.652)) ;
#942=CARTESIAN_POINT('Vertex',(498.475,717.55,9.652)) ;
#945=CARTESIAN_POINT('Line Origine',(498.475,717.55,4.82599999965)) ;
#957=CARTESIAN_POINT('Axis2P3D Location',(0.,0.,0.)) ;
#962=CARTESIAN_POINT('Line Origine',(660.399999999,717.550000001,0.)) ;
#966=CARTESIAN_POINT('Vertex',(822.325,717.55,-7.00355329286E-010)) ;
#969=CARTESIAN_POINT('Line Origine',(822.324999999,387.350000001,0.)) ;
#973=CARTESIAN_POINT('Vertex',(822.325,57.15,-7.00355329286E-010)) ;
#976=CARTESIAN_POINT('Line Origine',(660.399999999,57.1500000004,0.)) ;
#988=CARTESIAN_POINT('Axis2P3D Location',(498.475,57.15,9.652)) ;
#993=CARTESIAN_POINT('Line Origine',(822.325,57.15,4.82599999965)) ;
#997=CARTESIAN_POINT('Vertex',(822.325,57.15,9.652)) ;
#1000=CARTESIAN_POINT('Line Origine',(660.4,57.15,9.652)) ;
#1012=CARTESIAN_POINT('Axis2P3D Location',(0.,0.,9.652)) ;
#1017=CARTESIAN_POINT('Line Origine',(822.324999999,387.350000001,9.652)) ;
#1021=CARTESIAN_POINT('Vertex',(822.325,717.55,9.652)) ;
#1024=CARTESIAN_POINT('Line Origine',(660.399999999,717.550000001,9.652)) ;
#1036=CARTESIAN_POINT('Axis2P3D Location',(822.325,717.55,9.652)) ;
#1041=CARTESIAN_POINT('Line Origine',(822.325,717.55,4.82599999965)) ;
#1053=CARTESIAN_POINT('Axis2P3D Location',(822.325,57.15,9.652)) ;
#1067=CARTESIAN_POINT('Axis2P3D Location',(939.8,57.15,9.652)) ;
#1072=CARTESIAN_POINT('Line Origine',(939.8,387.35,-7.00355329286E-010)) ;
#1076=CARTESIAN_POINT('Vertex',(939.8,57.15,-7.00355329286E-010)) ;
#1078=CARTESIAN_POINT('Vertex',(939.8,717.55,-7.00355329286E-010)) ;
#1081=CARTESIAN_POINT('Line Origine',(939.8,57.15,4.82599999965)) ;
#1085=CARTESIAN_POINT('Vertex',(939.8,57.15,9.652)) ;
#1088=CARTESIAN_POINT('Line Origine',(939.8,387.35,9.652)) ;
#1092=CARTESIAN_POINT('Vertex',(939.8,717.55,9.652)) ;
#1095=CARTESIAN_POINT('Line Origine',(939.8,717.55,4.82599999965)) ;
#1107=CARTESIAN_POINT('Axis2P3D Location',(0.,0.,0.)) ;
#1112=CARTESIAN_POINT('Line Origine',(1101.725,717.550000001,0.)) ;
#1116=CARTESIAN_POINT('Vertex',(1263.65,717.55,-7.00355329286E-010)) ;
#1119=CARTESIAN_POINT('Line Origine',(1263.65,387.350000001,0.)) ;
#1123=CARTESIAN_POINT('Vertex',(1263.65,57.1499999996,-7.00355329286E-010)) ;
#1126=CARTESIAN_POINT('Line Origine',(1101.725,57.1500000004,0.)) ;
#1138=CARTESIAN_POINT('Axis2P3D Location',(1263.65,57.15,9.652)) ;
#1143=CARTESIAN_POINT('Line Origine',(1263.65,57.15,4.82599999965)) ;
#1147=CARTESIAN_POINT('Vertex',(1263.65,57.1499999996,9.652)) ;
#1150=CARTESIAN_POINT('Line Origine',(1101.725,57.15,9.652)) ;
#1162=CARTESIAN_POINT('Axis2P3D Location',(0.,0.,9.652)) ;
#1167=CARTESIAN_POINT('Line Origine',(1263.65,387.350000001,9.652)) ;
#1171=CARTESIAN_POINT('Vertex',(1263.65,717.55,9.652)) ;
#1174=CARTESIAN_POINT('Line Origine',(1101.725,717.550000001,9.652)) ;
#1186=CARTESIAN_POINT('Axis2P3D Location',(1263.65,717.55,9.652)) ;
#1191=CARTESIAN_POINT('Line Origine',(1263.65,717.55,4.82599999965)) ;
#1203=CARTESIAN_POINT('Axis2P3D Location',(1263.65,717.55,9.652)) ;
#1223=CARTESIAN_POINT('NONE',(0.,0.,0.)) ;
#1224=CARTESIAN_POINT('NONE',(-1320.8,139.7,0.)) ;
#1239=CARTESIAN_POINT('Sketch.1',(0.,0.,0.)) ;
#1250=CARTESIAN_POINT('NONE',(0.,0.,0.)) ;
#1251=CARTESIAN_POINT('NONE',(0.,0.,0.)) ;
#61=DIRECTION('Vector Direction',(0.,1.,0.)) ;
#73=DIRECTION('Vector Direction',(0.,-1.,0.)) ;
#82=DIRECTION('Vector Direction',(0.,1.,0.)) ;
#91=DIRECTION('Vector Direction',(0.,1.,0.)) ;
#100=DIRECTION('Vector Direction',(0.,1.,0.)) ;
#109=DIRECTION('Vector Direction',(0.,1.,0.)) ;
#118=DIRECTION('Vector Direction',(-1.,0.,0.)) ;
#126=DIRECTION('Vector Direction',(0.,1.,0.)) ;
#135=DIRECTION('Vector Direction',(0.,-1.,0.)) ;
#144=DIRECTION('Vector Direction',(1.,0.,0.)) ;
#153=DIRECTION('Vector Direction',(-1.,0.,0.)) ;
#162=DIRECTION('Vector Direction',(1.,0.,0.)) ;
#171=DIRECTION('Vector Direction',(-1.,0.,0.)) ;
#180=DIRECTION('Vector Direction',(-1.,0.,0.)) ;
#189=DIRECTION('Vector Direction',(1.,0.,0.)) ;
#198=DIRECTION('Vector Direction',(1.,0.,0.)) ;
#208=DIRECTION('Axis2P3D Direction',(-1.,0.,0.)) ;
#209=DIRECTION('Axis2P3D XDirection',(0.,0.,1.)) ;
#213=DIRECTION('Vector Direction',(0.,1.,0.)) ;
#222=DIRECTION('Vector Direction',(0.,0.,-1.)) ;
#229=DIRECTION('Vector Direction',(0.,1.,0.)) ;
#236=DIRECTION('Vector Direction',(0.,0.,-1.)) ;
#248=DIRECTION('Axis2P3D Direction',(0.,0.,-1.)) ;
#249=DIRECTION('Axis2P3D XDirection',(-1.,0.,0.)) ;
#253=DIRECTION('Vector Direction',(0.,1.,0.)) ;
#262=DIRECTION('Vector Direction',(1.,0.,0.)) ;
#269=DIRECTION('Vector Direction',(0.,-1.,0.)) ;
#276=DIRECTION('Vector Direction',(-1.,0.,0.)) ;
#287=DIRECTION('Vector Direction',(0.,1.,0.)) ;
#296=DIRECTION('Vector Direction',(1.,0.,0.)) ;
#303=DIRECTION('Vector Direction',(0.,1.,0.)) ;
#310=DIRECTION('Vector Direction',(1.,0.,0.)) ;
#321=DIRECTION('Vector Direction',(0.,1.,0.)) ;
#330=DIRECTION('Vector Direction',(-1.,0.,0.)) ;
#337=DIRECTION('Vector Direction',(0.,-1.,0.)) ;
#344=DIRECTION('Vector Direction',(-1.,0.,0.)) ;
#355=DIRECTION('Vector Direction',(1.,0.,0.)) ;
#362=DIRECTION('Vector Direction',(0.,1.,0.)) ;
#369=DIRECTION('Vector Direction',(-1.,0.,0.)) ;
#381=DIRECTION('Axis2P3D Direction',(0.,-1.,0.)) ;
#382=DIRECTION('Axis2P3D XDirection',(1.,0.,0.)) ;
#386=DIRECTION('Vector Direction',(0.,0.,-1.)) ;
#393=DIRECTION('Vector Direction',(-1.,0.,0.)) ;
#405=DIRECTION('Axis2P3D Direction',(0.,0.,-1.)) ;
#406=DIRECTION('Axis2P3D XDirection',(-1.,0.,0.)) ;
#410=DIRECTION('Vector Direction',(0.,1.,0.)) ;
#419=DIRECTION('Vector Direction',(-1.,0.,0.)) ;
#426=DIRECTION('Vector Direction',(0.,-1.,0.)) ;
#433=DIRECTION('Vector Direction',(1.,0.,0.)) ;
#444=DIRECTION('Vector Direction',(0.,1.,0.)) ;
#453=DIRECTION('Vector Direction',(1.,0.,0.)) ;
#460=DIRECTION('Vector Direction',(0.,1.,0.)) ;
#467=DIRECTION('Vector Direction',(1.,0.,0.)) ;
#478=DIRECTION('Vector Direction',(0.,1.,0.)) ;
#487=DIRECTION('Vector Direction',(-1.,0.,0.)) ;
#494=DIRECTION('Vector Direction',(0.,-1.,0.)) ;
#501=DIRECTION('Vector Direction',(-1.,0.,0.)) ;
#512=DIRECTION('Vector Direction',(0.,1.,0.)) ;
#519=DIRECTION('Vector Direction',(1.,0.,0.)) ;
#531=DIRECTION('Axis2P3D Direction',(0.,1.,0.)) ;
#532=DIRECTION('Axis2P3D XDirection',(0.,0.,1.)) ;
#536=DIRECTION('Vector Direction',(0.,0.,-1.)) ;
#548=DIRECTION('Axis2P3D Direction',(-1.,0.,0.)) ;
#549=DIRECTION('Axis2P3D XDirection',(0.,0.,1.)) ;
#553=DIRECTION('Vector Direction',(0.,0.,-1.)) ;
#558=DIRECTION('Vector Direction',(0.,0.,-1.)) ;
#570=DIRECTION('Axis2P3D Direction',(0.,1.,0.)) ;
#571=DIRECTION('Axis2P3D XDirection',(0.,0.,1.)) ;
#575=DIRECTION('Vector Direction',(0.,0.,-1.)) ;
#587=DIRECTION('Axis2P3D Direction',(1.,-0.,0.)) ;
#588=DIRECTION('Axis2P3D XDirection',(0.,0.,-1.)) ;
#592=DIRECTION('Vector Direction',(0.,0.,-1.)) ;
#604=DIRECTION('Axis2P3D Direction',(0.,-1.,0.)) ;
#605=DIRECTION('Axis2P3D XDirection',(0.,0.,-1.)) ;
#616=DIRECTION('Axis2P3D Direction',(-1.,0.,0.)) ;
#617=DIRECTION('Axis2P3D XDirection',(0.,0.,1.)) ;
#621=DIRECTION('Vector Direction',(0.,0.,-1.)) ;
#626=DIRECTION('Vector Direction',(0.,0.,-1.)) ;
#638=DIRECTION('Axis2P3D Direction',(0.,1.,0.)) ;
#639=DIRECTION('Axis2P3D XDirection',(0.,0.,1.)) ;
#643=DIRECTION('Vector Direction',(0.,0.,-1.)) ;
#655=DIRECTION('Axis2P3D Direction',(-1.,0.,0.)) ;
#656=DIRECTION('Axis2P3D XDirection',(0.,0.,1.)) ;
#660=DIRECTION('Vector Direction',(0.,0.,-1.)) ;
#672=DIRECTION('Axis2P3D Direction',(0.,1.,-0.)) ;
#673=DIRECTION('Axis2P3D XDirection',(-1.,0.,0.)) ;
#684=DIRECTION('Axis2P3D Direction',(-1.,0.,0.)) ;
#685=DIRECTION('Axis2P3D XDirection',(0.,0.,1.)) ;
#689=DIRECTION('Vector Direction',(0.,0.,-1.)) ;
#694=DIRECTION('Vector Direction',(0.,0.,-1.)) ;
#706=DIRECTION('Axis2P3D Direction',(0.,-1.,0.)) ;
#707=DIRECTION('Axis2P3D XDirection',(0.,0.,-1.)) ;
#711=DIRECTION('Vector Direction',(0.,0.,-1.)) ;
#723=DIRECTION('Axis2P3D Direction',(1.,-0.,0.)) ;
#724=DIRECTION('Axis2P3D XDirection',(0.,0.,-1.)) ;
#728=DIRECTION('Vector Direction',(0.,0.,-1.)) ;
#740=DIRECTION('Axis2P3D Direction',(0.,-1.,0.)) ;
#741=DIRECTION('Axis2P3D XDirection',(1.,0.,0.)) ;
#752=DIRECTION('Axis2P3D Direction',(-1.,0.,0.)) ;
#753=DIRECTION('Axis2P3D XDirection',(0.,0.,1.)) ;
#768=DIRECTION('Axis2P3D Direction',(-1.,0.,0.)) ;
#769=DIRECTION('Axis2P3D XDirection',(0.,0.,1.)) ;
#773=DIRECTION('Vector Direction',(0.,1.,0.)) ;
#782=DIRECTION('Vector Direction',(0.,0.,-1.)) ;
#789=DIRECTION('Vector Direction',(0.,1.,0.)) ;
#796=DIRECTION('Vector Direction',(0.,0.,-1.)) ;
#808=DIRECTION('Axis2P3D Direction',(0.,0.,-1.)) ;
#809=DIRECTION('Axis2P3D XDirection',(-1.,0.,0.)) ;
#813=DIRECTION('Vector Direction',(1.,0.,0.)) ;
#820=DIRECTION('Vector Direction',(0.,1.,0.)) ;
#827=DIRECTION('Vector Direction',(1.,0.,0.)) ;
#839=DIRECTION('Axis2P3D Direction',(0.,1.,0.)) ;
#840=DIRECTION('Axis2P3D XDirection',(0.,0.,1.)) ;
#844=DIRECTION('Vector Direction',(0.,0.,-1.)) ;
#851=DIRECTION('Vector Direction',(1.,0.,0.)) ;
#863=DIRECTION('Axis2P3D Direction',(0.,0.,-1.)) ;
#864=DIRECTION('Axis2P3D XDirection',(-1.,0.,0.)) ;
#868=DIRECTION('Vector Direction',(0.,1.,0.)) ;
#875=DIRECTION('Vector Direction',(1.,0.,0.)) ;
#887=DIRECTION('Axis2P3D Direction',(0.,1.,-0.)) ;
#888=DIRECTION('Axis2P3D XDirection',(-1.,0.,0.)) ;
#892=DIRECTION('Vector Direction',(0.,0.,-1.)) ;
#904=DIRECTION('Axis2P3D Direction',(-1.,0.,0.)) ;
#905=DIRECTION('Axis2P3D XDirection',(0.,0.,1.)) ;
#918=DIRECTION('Axis2P3D Direction',(-1.,0.,0.)) ;
#919=DIRECTION('Axis2P3D XDirection',(0.,0.,1.)) ;
#923=DIRECTION('Vector Direction',(0.,1.,0.)) ;
#932=DIRECTION('Vector Direction',(0.,0.,-1.)) ;
#939=DIRECTION('Vector Direction',(0.,1.,0.)) ;
#946=DIRECTION('Vector Direction',(0.,0.,-1.)) ;
#958=DIRECTION('Axis2P3D Direction',(0.,0.,1.)) ;
#959=DIRECTION('Axis2P3D XDirection',(1.,0.,0.)) ;
#963=DIRECTION('Vector Direction',(-1.,0.,0.)) ;
#970=DIRECTION('Vector Direction',(0.,1.,0.)) ;
#977=DIRECTION('Vector Direction',(1.,0.,0.)) ;
#989=DIRECTION('Axis2P3D Direction',(0.,1.,0.)) ;
#990=DIRECTION('Axis2P3D XDirection',(0.,0.,1.)) ;
#994=DIRECTION('Vector Direction',(0.,0.,-1.)) ;
#1001=DIRECTION('Vector Direction',(1.,0.,0.)) ;
#1013=DIRECTION('Axis2P3D Direction',(0.,0.,1.)) ;
#1014=DIRECTION('Axis2P3D XDirection',(1.,0.,0.)) ;
#1018=DIRECTION('Vector Direction',(0.,1.,0.)) ;
#1025=DIRECTION('Vector Direction',(-1.,0.,0.)) ;
#1037=DIRECTION('Axis2P3D Direction',(0.,-1.,0.)) ;
#1038=DIRECTION('Axis2P3D XDirection',(1.,0.,0.)) ;
#1042=DIRECTION('Vector Direction',(0.,0.,-1.)) ;
#1054=DIRECTION('Axis2P3D Direction',(-1.,0.,0.)) ;
#1055=DIRECTION('Axis2P3D XDirection',(0.,0.,1.)) ;
#1068=DIRECTION('Axis2P3D Direction',(-1.,0.,0.)) ;
#1069=DIRECTION('Axis2P3D XDirection',(0.,0.,1.)) ;
#1073=DIRECTION('Vector Direction',(0.,1.,0.)) ;
#1082=DIRECTION('Vector Direction',(0.,0.,-1.)) ;
#1089=DIRECTION('Vector Direction',(0.,1.,0.)) ;
#1096=DIRECTION('Vector Direction',(0.,0.,-1.)) ;
#1108=DIRECTION('Axis2P3D Direction',(0.,0.,1.)) ;
#1109=DIRECTION('Axis2P3D XDirection',(1.,0.,0.)) ;
#1113=DIRECTION('Vector Direction',(-1.,0.,0.)) ;
#1120=DIRECTION('Vector Direction',(0.,-1.,0.)) ;
#1127=DIRECTION('Vector Direction',(-1.,0.,0.)) ;
#1139=DIRECTION('Axis2P3D Direction',(0.,-1.,0.)) ;
#1140=DIRECTION('Axis2P3D XDirection',(0.,0.,-1.)) ;
#1144=DIRECTION('Vector Direction',(0.,0.,-1.)) ;
#1151=DIRECTION('Vector Direction',(-1.,0.,0.)) ;
#1163=DIRECTION('Axis2P3D Direction',(0.,0.,1.)) ;
#1164=DIRECTION('Axis2P3D XDirection',(1.,0.,0.)) ;
#1168=DIRECTION('Vector Direction',(0.,-1.,0.)) ;
#1175=DIRECTION('Vector Direction',(-1.,0.,0.)) ;
#1187=DIRECTION('Axis2P3D Direction',(0.,-1.,0.)) ;
#1188=DIRECTION('Axis2P3D XDirection',(1.,0.,0.)) ;
#1192=DIRECTION('Vector Direction',(0.,0.,-1.)) ;
#1204=DIRECTION('Axis2P3D Direction',(1.,-0.,0.)) ;
#1205=DIRECTION('Axis2P3D XDirection',(0.,0.,-1.)) ;
#1225=DIRECTION('NONE',(1.,0.,0.)) ;
#1226=DIRECTION('NONE',(0.,0.,1.)) ;
#1227=DIRECTION('NONE',(1.,0.,0.)) ;
#1228=DIRECTION('NONE',(0.,0.,1.)) ;
#1252=DIRECTION('NONE',(1.,0.,0.)) ;
#1253=DIRECTION('NONE',(0.,0.,1.)) ;
#1254=DIRECTION('NONE',(1.,0.,-0.)) ;
#1255=DIRECTION('NONE',(0.,0.,1.)) ;
#210=AXIS2_PLACEMENT_3D('Plane Axis2P3D',#207,#208,#209) ;
#250=AXIS2_PLACEMENT_3D('Plane Axis2P3D',#247,#248,#249) ;
#383=AXIS2_PLACEMENT_3D('Plane Axis2P3D',#380,#381,#382) ;
#407=AXIS2_PLACEMENT_3D('Plane Axis2P3D',#404,#405,#406) ;
#533=AXIS2_PLACEMENT_3D('Plane Axis2P3D',#530,#531,#532) ;
#550=AXIS2_PLACEMENT_3D('Plane Axis2P3D',#547,#548,#549) ;
#572=AXIS2_PLACEMENT_3D('Plane Axis2P3D',#569,#570,#571) ;
#589=AXIS2_PLACEMENT_3D('Plane Axis2P3D',#586,#587,#588) ;
#606=AXIS2_PLACEMENT_3D('Plane Axis2P3D',#603,#604,#605) ;
#618=AXIS2_PLACEMENT_3D('Plane Axis2P3D',#615,#616,#617) ;
#640=AXIS2_PLACEMENT_3D('Plane Axis2P3D',#637,#638,#639) ;
#657=AXIS2_PLACEMENT_3D('Plane Axis2P3D',#654,#655,#656) ;
#674=AXIS2_PLACEMENT_3D('Plane Axis2P3D',#671,#672,#673) ;
#686=AXIS2_PLACEMENT_3D('Plane Axis2P3D',#683,#684,#685) ;
#708=AXIS2_PLACEMENT_3D('Plane Axis2P3D',#705,#706,#707) ;
#725=AXIS2_PLACEMENT_3D('Plane Axis2P3D',#722,#723,#724) ;
#742=AXIS2_PLACEMENT_3D('Plane Axis2P3D',#739,#740,#741) ;
#754=AXIS2_PLACEMENT_3D('Plane Axis2P3D',#751,#752,#753) ;
#770=AXIS2_PLACEMENT_3D('Plane Axis2P3D',#767,#768,#769) ;
#810=AXIS2_PLACEMENT_3D('Plane Axis2P3D',#807,#808,#809) ;
#841=AXIS2_PLACEMENT_3D('Plane Axis2P3D',#838,#839,#840) ;
#865=AXIS2_PLACEMENT_3D('Plane Axis2P3D',#862,#863,#864) ;
#889=AXIS2_PLACEMENT_3D('Plane Axis2P3D',#886,#887,#888) ;
#906=AXIS2_PLACEMENT_3D('Plane Axis2P3D',#903,#904,#905) ;
#920=AXIS2_PLACEMENT_3D('Plane Axis2P3D',#917,#918,#919) ;
#960=AXIS2_PLACEMENT_3D('Plane Axis2P3D',#957,#958,#959) ;
#991=AXIS2_PLACEMENT_3D('Plane Axis2P3D',#988,#989,#990) ;
#1015=AXIS2_PLACEMENT_3D('Plane Axis2P3D',#1012,#1013,#1014) ;
#1039=AXIS2_PLACEMENT_3D('Plane Axis2P3D',#1036,#1037,#1038) ;
#1056=AXIS2_PLACEMENT_3D('Plane Axis2P3D',#1053,#1054,#1055) ;
#1070=AXIS2_PLACEMENT_3D('Plane Axis2P3D',#1067,#1068,#1069) ;
#1110=AXIS2_PLACEMENT_3D('Plane Axis2P3D',#1107,#1108,#1109) ;
#1141=AXIS2_PLACEMENT_3D('Plane Axis2P3D',#1138,#1139,#1140) ;
#1165=AXIS2_PLACEMENT_3D('Plane Axis2P3D',#1162,#1163,#1164) ;
#1189=AXIS2_PLACEMENT_3D('Plane Axis2P3D',#1186,#1187,#1188) ;
#1206=AXIS2_PLACEMENT_3D('Plane Axis2P3D',#1203,#1204,#1205) ;
#1221=AXIS2_PLACEMENT_3D(' ',#1224,#1228,#1227) ;
#1222=AXIS2_PLACEMENT_3D(' ',#1223,#1226,#1225) ;
#1248=AXIS2_PLACEMENT_3D(' ',#1251,#1255,#1254) ;
#1249=AXIS2_PLACEMENT_3D(' ',#1250,#1253,#1252) ;
#45=PRODUCT_DEFINITION_SHAPE(' ',' ',#17) ;
#59=PRODUCT_DEFINITION_SHAPE(' ',' ',#56) ;
#1217=PRODUCT_DEFINITION_SHAPE(' ',' ',#1216) ;
#1238=PRODUCT_DEFINITION_SHAPE(' ',' ',#1235) ;
#1244=PRODUCT_DEFINITION_SHAPE(' ',' ',#1243) ;
#68=COMPOSITE_CURVE('LINE #1045',(#67),.U.) ;
#80=COMPOSITE_CURVE('LINE #1056',(#79),.U.) ;
#89=COMPOSITE_CURVE('LINE #1063',(#88),.U.) ;
#98=COMPOSITE_CURVE('LINE #1070',(#97),.U.) ;
#107=COMPOSITE_CURVE('LINE #1077',(#106),.U.) ;
#116=COMPOSITE_CURVE('LINE #1084',(#115),.U.) ;
#133=COMPOSITE_CURVE('Wireframe',(#124,#132),.U.) ;
#142=COMPOSITE_CURVE('LINE #1106',(#141),.U.) ;
#151=COMPOSITE_CURVE('LINE #1113',(#150),.U.) ;
#160=COMPOSITE_CURVE('LINE #1120',(#159),.U.) ;
#169=COMPOSITE_CURVE('LINE #1127',(#168),.U.) ;
#178=COMPOSITE_CURVE('LINE #1134',(#177),.U.) ;
#187=COMPOSITE_CURVE('LINE #1141',(#186),.U.) ;
#196=COMPOSITE_CURVE('LINE #1148',(#195),.U.) ;
#205=COMPOSITE_CURVE('LINE #1155',(#204),.U.) ;
#67=COMPOSITE_CURVE_SEGMENT(.DISCONTINUOUS.,.T.,#66) ;
#79=COMPOSITE_CURVE_SEGMENT(.DISCONTINUOUS.,.T.,#78) ;
#88=COMPOSITE_CURVE_SEGMENT(.DISCONTINUOUS.,.T.,#87) ;
#97=COMPOSITE_CURVE_SEGMENT(.DISCONTINUOUS.,.T.,#96) ;
#106=COMPOSITE_CURVE_SEGMENT(.DISCONTINUOUS.,.T.,#105) ;
#115=COMPOSITE_CURVE_SEGMENT(.DISCONTINUOUS.,.T.,#114) ;
#124=COMPOSITE_CURVE_SEGMENT(.CONTINUOUS.,.T.,#123) ;
#132=COMPOSITE_CURVE_SEGMENT(.DISCONTINUOUS.,.T.,#131) ;
#141=COMPOSITE_CURVE_SEGMENT(.DISCONTINUOUS.,.T.,#140) ;
#150=COMPOSITE_CURVE_SEGMENT(.DISCONTINUOUS.,.T.,#149) ;
#159=COMPOSITE_CURVE_SEGMENT(.DISCONTINUOUS.,.T.,#158) ;
#168=COMPOSITE_CURVE_SEGMENT(.DISCONTINUOUS.,.T.,#167) ;
#177=COMPOSITE_CURVE_SEGMENT(.DISCONTINUOUS.,.T.,#176) ;
#186=COMPOSITE_CURVE_SEGMENT(.DISCONTINUOUS.,.T.,#185) ;
#195=COMPOSITE_CURVE_SEGMENT(.DISCONTINUOUS.,.T.,#194) ;
#204=COMPOSITE_CURVE_SEGMENT(.DISCONTINUOUS.,.T.,#203) ;
#34=APPROVAL_PERSON_ORGANIZATION(#28,#24,#22) ;
#28=PERSON_AND_ORGANIZATION(#25,#26) ;
#25=PERSON(' ',' ',' ',$,$,$) ;
#26=ORGANIZATION(' ',' ',' ') ;
#24=APPROVAL(#23,' ') ;
#23=APPROVAL_STATUS('not_yet_approved') ;
#22=APPROVAL_ROLE('APPROVER') ;
#13=DATE_AND_TIME(#11,#12) ;
#12=LOCAL_TIME(16,33,40.,#10) ;
#10=COORDINATED_UNIVERSAL_TIME_OFFSET(0,0,.AHEAD.) ;
#241=ORIENTED_EDGE('',*,*,#220,.T.) ;
#242=ORIENTED_EDGE('',*,*,#227,.F.) ;
#243=ORIENTED_EDGE('',*,*,#234,.F.) ;
#244=ORIENTED_EDGE('',*,*,#239,.T.) ;
#281=ORIENTED_EDGE('',*,*,#260,.T.) ;
#282=ORIENTED_EDGE('',*,*,#267,.T.) ;
#283=ORIENTED_EDGE('',*,*,#274,.T.) ;
#284=ORIENTED_EDGE('',*,*,#279,.T.) ;
#315=ORIENTED_EDGE('',*,*,#294,.F.) ;
#316=ORIENTED_EDGE('',*,*,#301,.T.) ;
#317=ORIENTED_EDGE('',*,*,#308,.T.) ;
#318=ORIENTED_EDGE('',*,*,#313,.F.) ;
#349=ORIENTED_EDGE('',*,*,#328,.F.) ;
#350=ORIENTED_EDGE('',*,*,#335,.F.) ;
#351=ORIENTED_EDGE('',*,*,#342,.F.) ;
#352=ORIENTED_EDGE('',*,*,#347,.T.) ;
#374=ORIENTED_EDGE('',*,*,#220,.F.) ;
#375=ORIENTED_EDGE('',*,*,#360,.T.) ;
#376=ORIENTED_EDGE('',*,*,#367,.T.) ;
#377=ORIENTED_EDGE('',*,*,#372,.T.) ;
#398=ORIENTED_EDGE('',*,*,#372,.F.) ;
#399=ORIENTED_EDGE('',*,*,#391,.F.) ;
#400=ORIENTED_EDGE('',*,*,#396,.T.) ;
#401=ORIENTED_EDGE('',*,*,#227,.T.) ;
#438=ORIENTED_EDGE('',*,*,#417,.F.) ;
#439=ORIENTED_EDGE('',*,*,#424,.F.) ;
#440=ORIENTED_EDGE('',*,*,#431,.F.) ;
#441=ORIENTED_EDGE('',*,*,#436,.F.) ;
#472=ORIENTED_EDGE('',*,*,#451,.T.) ;
#473=ORIENTED_EDGE('',*,*,#458,.T.) ;
#474=ORIENTED_EDGE('',*,*,#465,.F.) ;
#475=ORIENTED_EDGE('',*,*,#470,.F.) ;
#506=ORIENTED_EDGE('',*,*,#485,.T.) ;
#507=ORIENTED_EDGE('',*,*,#492,.F.) ;
#508=ORIENTED_EDGE('',*,*,#499,.T.) ;
#509=ORIENTED_EDGE('',*,*,#504,.T.) ;
#524=ORIENTED_EDGE('',*,*,#234,.T.) ;
#525=ORIENTED_EDGE('',*,*,#396,.F.) ;
#526=ORIENTED_EDGE('',*,*,#517,.F.) ;
#527=ORIENTED_EDGE('',*,*,#522,.F.) ;
#541=ORIENTED_EDGE('',*,*,#360,.F.) ;
#542=ORIENTED_EDGE('',*,*,#239,.F.) ;
#543=ORIENTED_EDGE('',*,*,#522,.T.) ;
#544=ORIENTED_EDGE('',*,*,#539,.T.) ;
#563=ORIENTED_EDGE('',*,*,#260,.F.) ;
#564=ORIENTED_EDGE('',*,*,#556,.F.) ;
#565=ORIENTED_EDGE('',*,*,#417,.T.) ;
#566=ORIENTED_EDGE('',*,*,#561,.T.) ;
#580=ORIENTED_EDGE('',*,*,#267,.F.) ;
#581=ORIENTED_EDGE('',*,*,#561,.F.) ;
#582=ORIENTED_EDGE('',*,*,#436,.T.) ;
#583=ORIENTED_EDGE('',*,*,#578,.T.) ;
#597=ORIENTED_EDGE('',*,*,#274,.F.) ;
#598=ORIENTED_EDGE('',*,*,#578,.F.) ;
#599=ORIENTED_EDGE('',*,*,#431,.T.) ;
#600=ORIENTED_EDGE('',*,*,#595,.T.) ;
#609=ORIENTED_EDGE('',*,*,#279,.F.) ;
#610=ORIENTED_EDGE('',*,*,#595,.F.) ;
#611=ORIENTED_EDGE('',*,*,#424,.T.) ;
#612=ORIENTED_EDGE('',*,*,#556,.T.) ;
#631=ORIENTED_EDGE('',*,*,#294,.T.) ;
#632=ORIENTED_EDGE('',*,*,#624,.F.) ;
#633=ORIENTED_EDGE('',*,*,#451,.F.) ;
#634=ORIENTED_EDGE('',*,*,#629,.T.) ;
#648=ORIENTED_EDGE('',*,*,#301,.F.) ;
#649=ORIENTED_EDGE('',*,*,#629,.F.) ;
#650=ORIENTED_EDGE('',*,*,#470,.T.) ;
#651=ORIENTED_EDGE('',*,*,#646,.T.) ;
#665=ORIENTED_EDGE('',*,*,#308,.F.) ;
#666=ORIENTED_EDGE('',*,*,#646,.F.) ;
#667=ORIENTED_EDGE('',*,*,#465,.T.) ;
#668=ORIENTED_EDGE('',*,*,#663,.T.) ;
#677=ORIENTED_EDGE('',*,*,#313,.T.) ;
#678=ORIENTED_EDGE('',*,*,#663,.F.) ;
#679=ORIENTED_EDGE('',*,*,#458,.F.) ;
#680=ORIENTED_EDGE('',*,*,#624,.T.) ;
#699=ORIENTED_EDGE('',*,*,#328,.T.) ;
#700=ORIENTED_EDGE('',*,*,#692,.F.) ;
#701=ORIENTED_EDGE('',*,*,#485,.F.) ;
#702=ORIENTED_EDGE('',*,*,#697,.T.) ;
#716=ORIENTED_EDGE('',*,*,#335,.T.) ;
#717=ORIENTED_EDGE('',*,*,#697,.F.) ;
#718=ORIENTED_EDGE('',*,*,#504,.F.) ;
#719=ORIENTED_EDGE('',*,*,#714,.T.) ;
#733=ORIENTED_EDGE('',*,*,#342,.T.) ;
#734=ORIENTED_EDGE('',*,*,#714,.F.) ;
#735=ORIENTED_EDGE('',*,*,#499,.F.) ;
#736=ORIENTED_EDGE('',*,*,#731,.T.) ;
#745=ORIENTED_EDGE('',*,*,#347,.F.) ;
#746=ORIENTED_EDGE('',*,*,#731,.F.) ;
#747=ORIENTED_EDGE('',*,*,#492,.T.) ;
#748=ORIENTED_EDGE('',*,*,#692,.T.) ;
#757=ORIENTED_EDGE('',*,*,#367,.F.) ;
#758=ORIENTED_EDGE('',*,*,#539,.F.) ;
#759=ORIENTED_EDGE('',*,*,#517,.T.) ;
#760=ORIENTED_EDGE('',*,*,#391,.T.) ;
#801=ORIENTED_EDGE('',*,*,#780,.F.) ;
#802=ORIENTED_EDGE('',*,*,#787,.F.) ;
#803=ORIENTED_EDGE('',*,*,#794,.T.) ;
#804=ORIENTED_EDGE('',*,*,#799,.T.) ;
#832=ORIENTED_EDGE('',*,*,#780,.T.) ;
#833=ORIENTED_EDGE('',*,*,#818,.T.) ;
#834=ORIENTED_EDGE('',*,*,#825,.F.) ;
#835=ORIENTED_EDGE('',*,*,#830,.F.) ;
#856=ORIENTED_EDGE('',*,*,#830,.T.) ;
#857=ORIENTED_EDGE('',*,*,#849,.F.) ;
#858=ORIENTED_EDGE('',*,*,#854,.F.) ;
#859=ORIENTED_EDGE('',*,*,#787,.T.) ;
#880=ORIENTED_EDGE('',*,*,#794,.F.) ;
#881=ORIENTED_EDGE('',*,*,#854,.T.) ;
#882=ORIENTED_EDGE('',*,*,#873,.T.) ;
#883=ORIENTED_EDGE('',*,*,#878,.F.) ;
#897=ORIENTED_EDGE('',*,*,#818,.F.) ;
#898=ORIENTED_EDGE('',*,*,#799,.F.) ;
#899=ORIENTED_EDGE('',*,*,#878,.T.) ;
#900=ORIENTED_EDGE('',*,*,#895,.T.) ;
#909=ORIENTED_EDGE('',*,*,#825,.T.) ;
#910=ORIENTED_EDGE('',*,*,#895,.F.) ;
#911=ORIENTED_EDGE('',*,*,#873,.F.) ;
#912=ORIENTED_EDGE('',*,*,#849,.T.) ;
#951=ORIENTED_EDGE('',*,*,#930,.F.) ;
#952=ORIENTED_EDGE('',*,*,#937,.F.) ;
#953=ORIENTED_EDGE('',*,*,#944,.T.) ;
#954=ORIENTED_EDGE('',*,*,#949,.T.) ;
#982=ORIENTED_EDGE('',*,*,#930,.T.) ;
#983=ORIENTED_EDGE('',*,*,#968,.F.) ;
#984=ORIENTED_EDGE('',*,*,#975,.F.) ;
#985=ORIENTED_EDGE('',*,*,#980,.F.) ;
#1006=ORIENTED_EDGE('',*,*,#980,.T.) ;
#1007=ORIENTED_EDGE('',*,*,#999,.F.) ;
#1008=ORIENTED_EDGE('',*,*,#1004,.F.) ;
#1009=ORIENTED_EDGE('',*,*,#937,.T.) ;
#1030=ORIENTED_EDGE('',*,*,#944,.F.) ;
#1031=ORIENTED_EDGE('',*,*,#1004,.T.) ;
#1032=ORIENTED_EDGE('',*,*,#1023,.T.) ;
#1033=ORIENTED_EDGE('',*,*,#1028,.T.) ;
#1047=ORIENTED_EDGE('',*,*,#968,.T.) ;
#1048=ORIENTED_EDGE('',*,*,#949,.F.) ;
#1049=ORIENTED_EDGE('',*,*,#1028,.F.) ;
#1050=ORIENTED_EDGE('',*,*,#1045,.T.) ;
#1059=ORIENTED_EDGE('',*,*,#975,.T.) ;
#1060=ORIENTED_EDGE('',*,*,#1045,.F.) ;
#1061=ORIENTED_EDGE('',*,*,#1023,.F.) ;
#1062=ORIENTED_EDGE('',*,*,#999,.T.) ;
#1101=ORIENTED_EDGE('',*,*,#1080,.F.) ;
#1102=ORIENTED_EDGE('',*,*,#1087,.F.) ;
#1103=ORIENTED_EDGE('',*,*,#1094,.T.) ;
#1104=ORIENTED_EDGE('',*,*,#1099,.T.) ;
#1132=ORIENTED_EDGE('',*,*,#1080,.T.) ;
#1133=ORIENTED_EDGE('',*,*,#1118,.F.) ;
#1134=ORIENTED_EDGE('',*,*,#1125,.T.) ;
#1135=ORIENTED_EDGE('',*,*,#1130,.T.) ;
#1156=ORIENTED_EDGE('',*,*,#1130,.F.) ;
#1157=ORIENTED_EDGE('',*,*,#1149,.F.) ;
#1158=ORIENTED_EDGE('',*,*,#1154,.T.) ;
#1159=ORIENTED_EDGE('',*,*,#1087,.T.) ;
#1180=ORIENTED_EDGE('',*,*,#1094,.F.) ;
#1181=ORIENTED_EDGE('',*,*,#1154,.F.) ;
#1182=ORIENTED_EDGE('',*,*,#1173,.F.) ;
#1183=ORIENTED_EDGE('',*,*,#1178,.T.) ;
#1197=ORIENTED_EDGE('',*,*,#1118,.T.) ;
#1198=ORIENTED_EDGE('',*,*,#1099,.F.) ;
#1199=ORIENTED_EDGE('',*,*,#1178,.F.) ;
#1200=ORIENTED_EDGE('',*,*,#1195,.T.) ;
#1209=ORIENTED_EDGE('',*,*,#1125,.F.) ;
#1210=ORIENTED_EDGE('',*,*,#1195,.F.) ;
#1211=ORIENTED_EDGE('',*,*,#1173,.T.) ;
#1212=ORIENTED_EDGE('',*,*,#1149,.T.) ;
#319=FACE_BOUND('',#314,.T.) ;
#353=FACE_BOUND('',#348,.T.) ;
#378=FACE_BOUND('',#373,.T.) ;
#476=FACE_BOUND('',#471,.T.) ;
#510=FACE_BOUND('',#505,.T.) ;
#528=FACE_BOUND('',#523,.T.) ;
#206=CLOSED_SHELL('Closed Shell',(#246,#379,#403,#529,#546,#568,#585,#602,#614,#636,#653,#670,#682,#704,#721,#738,#750,#762)) ;
#766=CLOSED_SHELL('Closed Shell',(#806,#837,#861,#885,#902,#914)) ;
#916=CLOSED_SHELL('Closed Shell',(#956,#987,#1011,#1035,#1052,#1064)) ;
#1066=CLOSED_SHELL('Closed Shell',(#1106,#1137,#1161,#1185,#1202,#1214)) ;
#1220=ITEM_DEFINED_TRANSFORMATION(' ',' ',#1222,#1221) ;
#1247=ITEM_DEFINED_TRANSFORMATION(' ',' ',#1249,#1248) ;
#62=VECTOR('Line Direction',#61,1.) ;
#74=VECTOR('Line Direction',#73,1.) ;
#83=VECTOR('Line Direction',#82,1.) ;
#92=VECTOR('Line Direction',#91,1.) ;
#101=VECTOR('Line Direction',#100,1.) ;
#110=VECTOR('Line Direction',#109,1.) ;
#119=VECTOR('Line Direction',#118,1.) ;
#127=VECTOR('Line Direction',#126,1.) ;
#136=VECTOR('Line Direction',#135,1.) ;
#145=VECTOR('Line Direction',#144,1.) ;
#154=VECTOR('Line Direction',#153,1.) ;
#163=VECTOR('Line Direction',#162,1.) ;
#172=VECTOR('Line Direction',#171,1.) ;
#181=VECTOR('Line Direction',#180,1.) ;
#190=VECTOR('Line Direction',#189,1.) ;
#199=VECTOR('Line Direction',#198,1.) ;
#214=VECTOR('Line Direction',#213,1.) ;
#223=VECTOR('Line Direction',#222,1.) ;
#230=VECTOR('Line Direction',#229,1.) ;
#237=VECTOR('Line Direction',#236,1.) ;
#254=VECTOR('Line Direction',#253,1.) ;
#263=VECTOR('Line Direction',#262,1.) ;
#270=VECTOR('Line Direction',#269,1.) ;
#277=VECTOR('Line Direction',#276,1.) ;
#288=VECTOR('Line Direction',#287,1.) ;
#297=VECTOR('Line Direction',#296,1.) ;
#304=VECTOR('Line Direction',#303,1.) ;
#311=VECTOR('Line Direction',#310,1.) ;
#322=VECTOR('Line Direction',#321,1.) ;
#331=VECTOR('Line Direction',#330,1.) ;
#338=VECTOR('Line Direction',#337,1.) ;
#345=VECTOR('Line Direction',#344,1.) ;
#356=VECTOR('Line Direction',#355,1.) ;
#363=VECTOR('Line Direction',#362,1.) ;
#370=VECTOR('Line Direction',#369,1.) ;
#387=VECTOR('Line Direction',#386,1.) ;
#394=VECTOR('Line Direction',#393,1.) ;
#411=VECTOR('Line Direction',#410,1.) ;
#420=VECTOR('Line Direction',#419,1.) ;
#427=VECTOR('Line Direction',#426,1.) ;
#434=VECTOR('Line Direction',#433,1.) ;
#445=VECTOR('Line Direction',#444,1.) ;
#454=VECTOR('Line Direction',#453,1.) ;
#461=VECTOR('Line Direction',#460,1.) ;
#468=VECTOR('Line Direction',#467,1.) ;
#479=VECTOR('Line Direction',#478,1.) ;
#488=VECTOR('Line Direction',#487,1.) ;
#495=VECTOR('Line Direction',#494,1.) ;
#502=VECTOR('Line Direction',#501,1.) ;
#513=VECTOR('Line Direction',#512,1.) ;
#520=VECTOR('Line Direction',#519,1.) ;
#537=VECTOR('Line Direction',#536,1.) ;
#554=VECTOR('Line Direction',#553,1.) ;
#559=VECTOR('Line Direction',#558,1.) ;
#576=VECTOR('Line Direction',#575,1.) ;
#593=VECTOR('Line Direction',#592,1.) ;
#622=VECTOR('Line Direction',#621,1.) ;
#627=VECTOR('Line Direction',#626,1.) ;
#644=VECTOR('Line Direction',#643,1.) ;
#661=VECTOR('Line Direction',#660,1.) ;
#690=VECTOR('Line Direction',#689,1.) ;
#695=VECTOR('Line Direction',#694,1.) ;
#712=VECTOR('Line Direction',#711,1.) ;
#729=VECTOR('Line Direction',#728,1.) ;
#774=VECTOR('Line Direction',#773,1.) ;
#783=VECTOR('Line Direction',#782,1.) ;
#790=VECTOR('Line Direction',#789,1.) ;
#797=VECTOR('Line Direction',#796,1.) ;
#814=VECTOR('Line Direction',#813,1.) ;
#821=VECTOR('Line Direction',#820,1.) ;
#828=VECTOR('Line Direction',#827,1.) ;
#845=VECTOR('Line Direction',#844,1.) ;
#852=VECTOR('Line Direction',#851,1.) ;
#869=VECTOR('Line Direction',#868,1.) ;
#876=VECTOR('Line Direction',#875,1.) ;
#893=VECTOR('Line Direction',#892,1.) ;
#924=VECTOR('Line Direction',#923,1.) ;
#933=VECTOR('Line Direction',#932,1.) ;
#940=VECTOR('Line Direction',#939,1.) ;
#947=VECTOR('Line Direction',#946,1.) ;
#964=VECTOR('Line Direction',#963,1.) ;
#971=VECTOR('Line Direction',#970,1.) ;
#978=VECTOR('Line Direction',#977,1.) ;
#995=VECTOR('Line Direction',#994,1.) ;
#1002=VECTOR('Line Direction',#1001,1.) ;
#1019=VECTOR('Line Direction',#1018,1.) ;
#1026=VECTOR('Line Direction',#1025,1.) ;
#1043=VECTOR('Line Direction',#1042,1.) ;
#1074=VECTOR('Line Direction',#1073,1.) ;
#1083=VECTOR('Line Direction',#1082,1.) ;
#1090=VECTOR('Line Direction',#1089,1.) ;
#1097=VECTOR('Line Direction',#1096,1.) ;
#1114=VECTOR('Line Direction',#1113,1.) ;
#1121=VECTOR('Line Direction',#1120,1.) ;
#1128=VECTOR('Line Direction',#1127,1.) ;
#1145=VECTOR('Line Direction',#1144,1.) ;
#1152=VECTOR('Line Direction',#1151,1.) ;
#1169=VECTOR('Line Direction',#1168,1.) ;
#1176=VECTOR('Line Direction',#1175,1.) ;
#1193=VECTOR('Line Direction',#1192,1.) ;
#764=ADVANCED_BREP_SHAPE_REPRESENTATION('NONE',(#763,#915,#1065,#1215),#51) ;
#44=SHAPE_REPRESENTATION(' ',(#1221,#1248),#51) ;
#52=SHAPE_REPRESENTATION(' ',(#1222),#1230) ;
#1231=SHAPE_REPRESENTATION(' ',(#1249),#1257) ;
#246=ADVANCED_FACE('MANIFOLD_SOLID_BREP #576',(#245),#211,.F.) ;
#379=ADVANCED_FACE('MANIFOLD_SOLID_BREP #576',(#285,#319,#353,#378),#251,.T.) ;
#403=ADVANCED_FACE('MANIFOLD_SOLID_BREP #576',(#402),#384,.T.) ;
#529=ADVANCED_FACE('MANIFOLD_SOLID_BREP #576',(#442,#476,#510,#528),#408,.F.) ;
#546=ADVANCED_FACE('MANIFOLD_SOLID_BREP #576',(#545),#534,.T.) ;
#568=ADVANCED_FACE('MANIFOLD_SOLID_BREP #576',(#567),#551,.T.) ;
#585=ADVANCED_FACE('MANIFOLD_SOLID_BREP #576',(#584),#573,.T.) ;
#602=ADVANCED_FACE('MANIFOLD_SOLID_BREP #576',(#601),#590,.T.) ;
#614=ADVANCED_FACE('MANIFOLD_SOLID_BREP #576',(#613),#607,.T.) ;
#636=ADVANCED_FACE('MANIFOLD_SOLID_BREP #576',(#635),#619,.F.) ;
#653=ADVANCED_FACE('MANIFOLD_SOLID_BREP #576',(#652),#641,.T.) ;
#670=ADVANCED_FACE('MANIFOLD_SOLID_BREP #576',(#669),#658,.T.) ;
#682=ADVANCED_FACE('MANIFOLD_SOLID_BREP #576',(#681),#675,.F.) ;
#704=ADVANCED_FACE('MANIFOLD_SOLID_BREP #576',(#703),#687,.F.) ;
#721=ADVANCED_FACE('MANIFOLD_SOLID_BREP #576',(#720),#709,.F.) ;
#738=ADVANCED_FACE('MANIFOLD_SOLID_BREP #576',(#737),#726,.F.) ;
#750=ADVANCED_FACE('MANIFOLD_SOLID_BREP #576',(#749),#743,.T.) ;
#762=ADVANCED_FACE('MANIFOLD_SOLID_BREP #576',(#761),#755,.T.) ;
#806=ADVANCED_FACE('MANIFOLD_SOLID_BREP #735',(#805),#771,.T.) ;
#837=ADVANCED_FACE('MANIFOLD_SOLID_BREP #735',(#836),#811,.T.) ;
#861=ADVANCED_FACE('MANIFOLD_SOLID_BREP #735',(#860),#842,.F.) ;
#885=ADVANCED_FACE('MANIFOLD_SOLID_BREP #735',(#884),#866,.F.) ;
#902=ADVANCED_FACE('MANIFOLD_SOLID_BREP #735',(#901),#890,.T.) ;
#914=ADVANCED_FACE('MANIFOLD_SOLID_BREP #735',(#913),#907,.F.) ;
#956=ADVANCED_FACE('MANIFOLD_SOLID_BREP #887',(#955),#921,.T.) ;
#987=ADVANCED_FACE('MANIFOLD_SOLID_BREP #887',(#986),#961,.F.) ;
#1011=ADVANCED_FACE('MANIFOLD_SOLID_BREP #887',(#1010),#992,.F.) ;
#1035=ADVANCED_FACE('MANIFOLD_SOLID_BREP #887',(#1034),#1016,.T.) ;
#1052=ADVANCED_FACE('MANIFOLD_SOLID_BREP #887',(#1051),#1040,.F.) ;
#1064=ADVANCED_FACE('MANIFOLD_SOLID_BREP #887',(#1063),#1057,.F.) ;
#1106=ADVANCED_FACE('MANIFOLD_SOLID_BREP #1039',(#1105),#1071,.T.) ;
#1137=ADVANCED_FACE('MANIFOLD_SOLID_BREP #1039',(#1136),#1111,.F.) ;
#1161=ADVANCED_FACE('MANIFOLD_SOLID_BREP #1039',(#1160),#1142,.T.) ;
#1185=ADVANCED_FACE('MANIFOLD_SOLID_BREP #1039',(#1184),#1166,.T.) ;
#1202=ADVANCED_FACE('MANIFOLD_SOLID_BREP #1039',(#1201),#1190,.F.) ;
#1214=ADVANCED_FACE('MANIFOLD_SOLID_BREP #1039',(#1213),#1207,.T.) ;
#4=APPLICATION_PROTOCOL_DEFINITION('international standard','config_control_design',1994,#1) ;
#35=APPROVAL_DATE_TIME(#13,#24) ;
#763=MANIFOLD_SOLID_BREP('MANIFOLD_SOLID_BREP #576',#206) ;
#915=MANIFOLD_SOLID_BREP('MANIFOLD_SOLID_BREP #735',#766) ;
#1065=MANIFOLD_SOLID_BREP('MANIFOLD_SOLID_BREP #887',#916) ;
#1215=MANIFOLD_SOLID_BREP('MANIFOLD_SOLID_BREP #1039',#1066) ;
#11=CALENDAR_DATE(2025,31,1) ;
#33=CC_DESIGN_APPROVAL(#24,(#19,#6,#17)) ;
#21=CC_DESIGN_DATE_AND_TIME_ASSIGNMENT(#13,#20,(#19)) ;
#32=CC_DESIGN_DATE_AND_TIME_ASSIGNMENT(#13,#31,(#17)) ;
#20=DATE_TIME_ROLE('classification_date') ;
#31=DATE_TIME_ROLE('creation_date') ;
#30=CC_DESIGN_PERSON_AND_ORGANIZATION_ASSIGNMENT(#28,#29,(#19)) ;
#36=CC_DESIGN_PERSON_AND_ORGANIZATION_ASSIGNMENT(#28,#37,(#6)) ;
#38=CC_DESIGN_PERSON_AND_ORGANIZATION_ASSIGNMENT(#28,#39,(#6,#17)) ;
#40=CC_DESIGN_PERSON_AND_ORGANIZATION_ASSIGNMENT(#28,#41,(#5)) ;
#29=PERSON_AND_ORGANIZATION_ROLE('classification_officer') ;
#37=PERSON_AND_ORGANIZATION_ROLE('design_supplier') ;
#39=PERSON_AND_ORGANIZATION_ROLE('creator') ;
#41=PERSON_AND_ORGANIZATION_ROLE('design_owner') ;
#42=CC_DESIGN_SECURITY_CLASSIFICATION(#19,(#6,#1216,#1243)) ;
#58=DOCUMENT('16','PPte3PanL_CDP REG.CATPart','CATPart document',#57) ;
#1237=DOCUMENT('17','Punct de referinta.CATPart','CATPart document',#1236) ;
#57=DOCUMENT_TYPE('') ;
#1236=DOCUMENT_TYPE('') ;
#1218=CONTEXT_DEPENDENT_SHAPE_REPRESENTATION(#1219,#1217) ;
#1245=CONTEXT_DEPENDENT_SHAPE_REPRESENTATION(#1246,#1244) ;
#71=SHAPE_REPRESENTATION_RELATIONSHIP(' ',' ',#52,#69) ;
#765=SHAPE_REPRESENTATION_RELATIONSHIP(' ',' ',#52,#764) ;
#1242=SHAPE_REPRESENTATION_RELATIONSHIP(' ',' ',#1231,#1240) ;
#3=DESIGN_CONTEXT(' ',#1,'design') ;
#220=EDGE_CURVE('',#217,#219,#215,.T.) ;
#227=EDGE_CURVE('',#226,#219,#224,.T.) ;
#234=EDGE_CURVE('',#233,#226,#231,.T.) ;
#239=EDGE_CURVE('',#233,#217,#238,.T.) ;
#260=EDGE_CURVE('',#257,#259,#255,.T.) ;
#267=EDGE_CURVE('',#259,#266,#264,.T.) ;
#274=EDGE_CURVE('',#266,#273,#271,.T.) ;
#279=EDGE_CURVE('',#273,#257,#278,.T.) ;
#294=EDGE_CURVE('',#291,#293,#289,.T.) ;
#301=EDGE_CURVE('',#291,#300,#298,.T.) ;
#308=EDGE_CURVE('',#300,#307,#305,.T.) ;
#313=EDGE_CURVE('',#293,#307,#312,.T.) ;
#328=EDGE_CURVE('',#325,#327,#323,.T.) ;
#335=EDGE_CURVE('',#334,#325,#332,.T.) ;
#342=EDGE_CURVE('',#341,#334,#339,.T.) ;
#347=EDGE_CURVE('',#341,#327,#346,.T.) ;
#360=EDGE_CURVE('',#217,#359,#357,.T.) ;
#367=EDGE_CURVE('',#359,#366,#364,.T.) ;
#372=EDGE_CURVE('',#366,#219,#371,.T.) ;
#391=EDGE_CURVE('',#390,#366,#388,.T.) ;
#396=EDGE_CURVE('',#390,#226,#395,.T.) ;
#417=EDGE_CURVE('',#414,#416,#412,.T.) ;
#424=EDGE_CURVE('',#423,#414,#421,.T.) ;
#431=EDGE_CURVE('',#430,#423,#428,.T.) ;
#436=EDGE_CURVE('',#416,#430,#435,.T.) ;
#451=EDGE_CURVE('',#448,#450,#446,.T.) ;
#458=EDGE_CURVE('',#450,#457,#455,.T.) ;
#465=EDGE_CURVE('',#464,#457,#462,.T.) ;
#470=EDGE_CURVE('',#448,#464,#469,.T.) ;
#485=EDGE_CURVE('',#482,#484,#480,.T.) ;
#492=EDGE_CURVE('',#491,#484,#489,.T.) ;
#499=EDGE_CURVE('',#491,#498,#496,.T.) ;
#504=EDGE_CURVE('',#498,#482,#503,.T.) ;
#517=EDGE_CURVE('',#516,#390,#514,.T.) ;
#522=EDGE_CURVE('',#233,#516,#521,.T.) ;
#539=EDGE_CURVE('',#516,#359,#538,.T.) ;
#556=EDGE_CURVE('',#414,#257,#555,.T.) ;
#561=EDGE_CURVE('',#416,#259,#560,.T.) ;
#578=EDGE_CURVE('',#430,#266,#577,.T.) ;
#595=EDGE_CURVE('',#423,#273,#594,.T.) ;
#624=EDGE_CURVE('',#450,#293,#623,.T.) ;
#629=EDGE_CURVE('',#448,#291,#628,.T.) ;
#646=EDGE_CURVE('',#464,#300,#645,.T.) ;
#663=EDGE_CURVE('',#457,#307,#662,.T.) ;
#692=EDGE_CURVE('',#484,#327,#691,.T.) ;
#697=EDGE_CURVE('',#482,#325,#696,.T.) ;
#714=EDGE_CURVE('',#498,#334,#713,.T.) ;
#731=EDGE_CURVE('',#491,#341,#730,.T.) ;
#780=EDGE_CURVE('',#777,#779,#775,.T.) ;
#787=EDGE_CURVE('',#786,#777,#784,.T.) ;
#794=EDGE_CURVE('',#786,#793,#791,.T.) ;
#799=EDGE_CURVE('',#793,#779,#798,.T.) ;
#818=EDGE_CURVE('',#779,#817,#815,.T.) ;
#825=EDGE_CURVE('',#824,#817,#822,.T.) ;
#830=EDGE_CURVE('',#777,#824,#829,.T.) ;
#849=EDGE_CURVE('',#848,#824,#846,.T.) ;
#854=EDGE_CURVE('',#786,#848,#853,.T.) ;
#873=EDGE_CURVE('',#848,#872,#870,.T.) ;
#878=EDGE_CURVE('',#793,#872,#877,.T.) ;
#895=EDGE_CURVE('',#872,#817,#894,.T.) ;
#930=EDGE_CURVE('',#927,#929,#925,.T.) ;
#937=EDGE_CURVE('',#936,#927,#934,.T.) ;
#944=EDGE_CURVE('',#936,#943,#941,.T.) ;
#949=EDGE_CURVE('',#943,#929,#948,.T.) ;
#968=EDGE_CURVE('',#967,#929,#965,.T.) ;
#975=EDGE_CURVE('',#974,#967,#972,.T.) ;
#980=EDGE_CURVE('',#927,#974,#979,.T.) ;
#999=EDGE_CURVE('',#998,#974,#996,.T.) ;
#1004=EDGE_CURVE('',#936,#998,#1003,.T.) ;
#1023=EDGE_CURVE('',#998,#1022,#1020,.T.) ;
#1028=EDGE_CURVE('',#1022,#943,#1027,.T.) ;
#1045=EDGE_CURVE('',#1022,#967,#1044,.T.) ;
#1080=EDGE_CURVE('',#1077,#1079,#1075,.T.) ;
#1087=EDGE_CURVE('',#1086,#1077,#1084,.T.) ;
#1094=EDGE_CURVE('',#1086,#1093,#1091,.T.) ;
#1099=EDGE_CURVE('',#1093,#1079,#1098,.T.) ;
#1118=EDGE_CURVE('',#1117,#1079,#1115,.T.) ;
#1125=EDGE_CURVE('',#1117,#1124,#1122,.T.) ;
#1130=EDGE_CURVE('',#1124,#1077,#1129,.T.) ;
#1149=EDGE_CURVE('',#1148,#1124,#1146,.T.) ;
#1154=EDGE_CURVE('',#1148,#1086,#1153,.T.) ;
#1173=EDGE_CURVE('',#1172,#1148,#1170,.T.) ;
#1178=EDGE_CURVE('',#1172,#1093,#1177,.T.) ;
#1195=EDGE_CURVE('',#1172,#1117,#1194,.T.) ;
#240=EDGE_LOOP('',(#241,#242,#243,#244)) ;
#280=EDGE_LOOP('',(#281,#282,#283,#284)) ;
#314=EDGE_LOOP('',(#315,#316,#317,#318)) ;
#348=EDGE_LOOP('',(#349,#350,#351,#352)) ;
#373=EDGE_LOOP('',(#374,#375,#376,#377)) ;
#397=EDGE_LOOP('',(#398,#399,#400,#401)) ;
#437=EDGE_LOOP('',(#438,#439,#440,#441)) ;
#471=EDGE_LOOP('',(#472,#473,#474,#475)) ;
#505=EDGE_LOOP('',(#506,#507,#508,#509)) ;
#523=EDGE_LOOP('',(#524,#525,#526,#527)) ;
#540=EDGE_LOOP('',(#541,#542,#543,#544)) ;
#562=EDGE_LOOP('',(#563,#564,#565,#566)) ;
#579=EDGE_LOOP('',(#580,#581,#582,#583)) ;
#596=EDGE_LOOP('',(#597,#598,#599,#600)) ;
#608=EDGE_LOOP('',(#609,#610,#611,#612)) ;
#630=EDGE_LOOP('',(#631,#632,#633,#634)) ;
#647=EDGE_LOOP('',(#648,#649,#650,#651)) ;
#664=EDGE_LOOP('',(#665,#666,#667,#668)) ;
#676=EDGE_LOOP('',(#677,#678,#679,#680)) ;
#698=EDGE_LOOP('',(#699,#700,#701,#702)) ;
#715=EDGE_LOOP('',(#716,#717,#718,#719)) ;
#732=EDGE_LOOP('',(#733,#734,#735,#736)) ;
#744=EDGE_LOOP('',(#745,#746,#747,#748)) ;
#756=EDGE_LOOP('',(#757,#758,#759,#760)) ;
#800=EDGE_LOOP('',(#801,#802,#803,#804)) ;
#831=EDGE_LOOP('',(#832,#833,#834,#835)) ;
#855=EDGE_LOOP('',(#856,#857,#858,#859)) ;
#879=EDGE_LOOP('',(#880,#881,#882,#883)) ;
#896=EDGE_LOOP('',(#897,#898,#899,#900)) ;
#908=EDGE_LOOP('',(#909,#910,#911,#912)) ;
#950=EDGE_LOOP('',(#951,#952,#953,#954)) ;
#981=EDGE_LOOP('',(#982,#983,#984,#985)) ;
#1005=EDGE_LOOP('',(#1006,#1007,#1008,#1009)) ;
#1029=EDGE_LOOP('',(#1030,#1031,#1032,#1033)) ;
#1046=EDGE_LOOP('',(#1047,#1048,#1049,#1050)) ;
#1058=EDGE_LOOP('',(#1059,#1060,#1061,#1062)) ;
#1100=EDGE_LOOP('',(#1101,#1102,#1103,#1104)) ;
#1131=EDGE_LOOP('',(#1132,#1133,#1134,#1135)) ;
#1155=EDGE_LOOP('',(#1156,#1157,#1158,#1159)) ;
#1179=EDGE_LOOP('',(#1180,#1181,#1182,#1183)) ;
#1196=EDGE_LOOP('',(#1197,#1198,#1199,#1200)) ;
#1208=EDGE_LOOP('',(#1209,#1210,#1211,#1212)) ;
#245=FACE_OUTER_BOUND('',#240,.T.) ;
#285=FACE_OUTER_BOUND('',#280,.T.) ;
#402=FACE_OUTER_BOUND('',#397,.T.) ;
#442=FACE_OUTER_BOUND('',#437,.T.) ;
#545=FACE_OUTER_BOUND('',#540,.T.) ;
#567=FACE_OUTER_BOUND('',#562,.T.) ;
#584=FACE_OUTER_BOUND('',#579,.T.) ;
#601=FACE_OUTER_BOUND('',#596,.T.) ;
#613=FACE_OUTER_BOUND('',#608,.T.) ;
#635=FACE_OUTER_BOUND('',#630,.T.) ;
#652=FACE_OUTER_BOUND('',#647,.T.) ;
#669=FACE_OUTER_BOUND('',#664,.T.) ;
#681=FACE_OUTER_BOUND('',#676,.T.) ;
#703=FACE_OUTER_BOUND('',#698,.T.) ;
#720=FACE_OUTER_BOUND('',#715,.T.) ;
#737=FACE_OUTER_BOUND('',#732,.T.) ;
#749=FACE_OUTER_BOUND('',#744,.T.) ;
#761=FACE_OUTER_BOUND('',#756,.T.) ;
#805=FACE_OUTER_BOUND('',#800,.T.) ;
#836=FACE_OUTER_BOUND('',#831,.T.) ;
#860=FACE_OUTER_BOUND('',#855,.T.) ;
#884=FACE_OUTER_BOUND('',#879,.T.) ;
#901=FACE_OUTER_BOUND('',#896,.T.) ;
#913=FACE_OUTER_BOUND('',#908,.T.) ;
#955=FACE_OUTER_BOUND('',#950,.T.) ;
#986=FACE_OUTER_BOUND('',#981,.T.) ;
#1010=FACE_OUTER_BOUND('',#1005,.T.) ;
#1034=FACE_OUTER_BOUND('',#1029,.T.) ;
#1051=FACE_OUTER_BOUND('',#1046,.T.) ;
#1063=FACE_OUTER_BOUND('',#1058,.T.) ;
#1105=FACE_OUTER_BOUND('',#1100,.T.) ;
#1136=FACE_OUTER_BOUND('',#1131,.T.) ;
#1160=FACE_OUTER_BOUND('',#1155,.T.) ;
#1184=FACE_OUTER_BOUND('',#1179,.T.) ;
#1201=FACE_OUTER_BOUND('',#1196,.T.) ;
#1213=FACE_OUTER_BOUND('',#1208,.T.) ;
#70=GEOMETRIC_SET('NONE',(#68,#80,#89,#98,#107,#116,#133,#142,#151,#160,#169,#178,#187,#196,#205)) ;
#1241=GEOMETRIC_SET('NONE',(#1239)) ;
#69=GEOMETRICALLY_BOUNDED_SURFACE_SHAPE_REPRESENTATION('NONE',(#70),#51) ;
#1240=GEOMETRICALLY_BOUNDED_SURFACE_SHAPE_REPRESENTATION('NONE',(#1241),#51) ;
#50=UNCERTAINTY_MEASURE_WITH_UNIT(LENGTH_MEASURE(0.005),#46,'distance_accuracy_value','CONFUSED CURVE UNCERTAINTY') ;
#1229=UNCERTAINTY_MEASURE_WITH_UNIT(LENGTH_MEASURE(0.005),#46,'distance_accuracy_value','CONFUSED CURVE UNCERTAINTY') ;
#1256=UNCERTAINTY_MEASURE_WITH_UNIT(LENGTH_MEASURE(0.005),#46,'distance_accuracy_value','CONFUSED CURVE UNCERTAINTY') ;
#63=LINE('Line',#60,#62) ;
#75=LINE('Line',#72,#74) ;
#84=LINE('Line',#81,#83) ;
#93=LINE('Line',#90,#92) ;
#102=LINE('Line',#99,#101) ;
#111=LINE('Line',#108,#110) ;
#120=LINE('Line',#117,#119) ;
#128=LINE('Line',#125,#127) ;
#137=LINE('Line',#134,#136) ;
#146=LINE('Line',#143,#145) ;
#155=LINE('Line',#152,#154) ;
#164=LINE('Line',#161,#163) ;
#173=LINE('Line',#170,#172) ;
#182=LINE('Line',#179,#181) ;
#191=LINE('Line',#188,#190) ;
#200=LINE('Line',#197,#199) ;
#215=LINE('Line',#212,#214) ;
#224=LINE('Line',#221,#223) ;
#231=LINE('Line',#228,#230) ;
#238=LINE('Line',#235,#237) ;
#255=LINE('Line',#252,#254) ;
#264=LINE('Line',#261,#263) ;
#271=LINE('Line',#268,#270) ;
#278=LINE('Line',#275,#277) ;
#289=LINE('Line',#286,#288) ;
#298=LINE('Line',#295,#297) ;
#305=LINE('Line',#302,#304) ;
#312=LINE('Line',#309,#311) ;
#323=LINE('Line',#320,#322) ;
#332=LINE('Line',#329,#331) ;
#339=LINE('Line',#336,#338) ;
#346=LINE('Line',#343,#345) ;
#357=LINE('Line',#354,#356) ;
#364=LINE('Line',#361,#363) ;
#371=LINE('Line',#368,#370) ;
#388=LINE('Line',#385,#387) ;
#395=LINE('Line',#392,#394) ;
#412=LINE('Line',#409,#411) ;
#421=LINE('Line',#418,#420) ;
#428=LINE('Line',#425,#427) ;
#435=LINE('Line',#432,#434) ;
#446=LINE('Line',#443,#445) ;
#455=LINE('Line',#452,#454) ;
#462=LINE('Line',#459,#461) ;
#469=LINE('Line',#466,#468) ;
#480=LINE('Line',#477,#479) ;
#489=LINE('Line',#486,#488) ;
#496=LINE('Line',#493,#495) ;
#503=LINE('Line',#500,#502) ;
#514=LINE('Line',#511,#513) ;
#521=LINE('Line',#518,#520) ;
#538=LINE('Line',#535,#537) ;
#555=LINE('Line',#552,#554) ;
#560=LINE('Line',#557,#559) ;
#577=LINE('Line',#574,#576) ;
#594=LINE('Line',#591,#593) ;
#623=LINE('Line',#620,#622) ;
#628=LINE('Line',#625,#627) ;
#645=LINE('Line',#642,#644) ;
#662=LINE('Line',#659,#661) ;
#691=LINE('Line',#688,#690) ;
#696=LINE('Line',#693,#695) ;
#713=LINE('Line',#710,#712) ;
#730=LINE('Line',#727,#729) ;
#775=LINE('Line',#772,#774) ;
#784=LINE('Line',#781,#783) ;
#791=LINE('Line',#788,#790) ;
#798=LINE('Line',#795,#797) ;
#815=LINE('Line',#812,#814) ;
#822=LINE('Line',#819,#821) ;
#829=LINE('Line',#826,#828) ;
#846=LINE('Line',#843,#845) ;
#853=LINE('Line',#850,#852) ;
#870=LINE('Line',#867,#869) ;
#877=LINE('Line',#874,#876) ;
#894=LINE('Line',#891,#893) ;
#925=LINE('Line',#922,#924) ;
#934=LINE('Line',#931,#933) ;
#941=LINE('Line',#938,#940) ;
#948=LINE('Line',#945,#947) ;
#965=LINE('Line',#962,#964) ;
#972=LINE('Line',#969,#971) ;
#979=LINE('Line',#976,#978) ;
#996=LINE('Line',#993,#995) ;
#1003=LINE('Line',#1000,#1002) ;
#1020=LINE('Line',#1017,#1019) ;
#1027=LINE('Line',#1024,#1026) ;
#1044=LINE('Line',#1041,#1043) ;
#1075=LINE('Line',#1072,#1074) ;
#1084=LINE('Line',#1081,#1083) ;
#1091=LINE('Line',#1088,#1090) ;
#1098=LINE('Line',#1095,#1097) ;
#1115=LINE('Line',#1112,#1114) ;
#1122=LINE('Line',#1119,#1121) ;
#1129=LINE('Line',#1126,#1128) ;
#1146=LINE('Line',#1143,#1145) ;
#1153=LINE('Line',#1150,#1152) ;
#1170=LINE('Line',#1167,#1169) ;
#1177=LINE('Line',#1174,#1176) ;
#1194=LINE('Line',#1191,#1193) ;
#2=MECHANICAL_CONTEXT(' ',#1,'mechanical') ;
#1216=NEXT_ASSEMBLY_USAGE_OCCURRENCE('PPte3PanL_CDP REG.1','PPte3PanL_CDP REG.1','',#17,#56,' ') ;
#1243=NEXT_ASSEMBLY_USAGE_OCCURRENCE('Part14.1','Part14.1','',#17,#1235,' ') ;
#27=PERSONAL_ADDRESS(' ',' ',' ',' ',' ',' ',' ',' ',' ',' ',' ',' ',(#25),' ') ;
#211=PLANE('Plane',#210) ;
#251=PLANE('Plane',#250) ;
#384=PLANE('Plane',#383) ;
#408=PLANE('Plane',#407) ;
#534=PLANE('Plane',#533) ;
#551=PLANE('Plane',#550) ;
#573=PLANE('Plane',#572) ;
#590=PLANE('Plane',#589) ;
#607=PLANE('Plane',#606) ;
#619=PLANE('Plane',#618) ;
#641=PLANE('Plane',#640) ;
#658=PLANE('Plane',#657) ;
#675=PLANE('Plane',#674) ;
#687=PLANE('Plane',#686) ;
#709=PLANE('Plane',#708) ;
#726=PLANE('Plane',#725) ;
#743=PLANE('Plane',#742) ;
#755=PLANE('Plane',#754) ;
#771=PLANE('Plane',#770) ;
#811=PLANE('Plane',#810) ;
#842=PLANE('Plane',#841) ;
#866=PLANE('Plane',#865) ;
#890=PLANE('Plane',#889) ;
#907=PLANE('Plane',#906) ;
#921=PLANE('Plane',#920) ;
#961=PLANE('Plane',#960) ;
#992=PLANE('Plane',#991) ;
#1016=PLANE('Plane',#1015) ;
#1040=PLANE('Plane',#1039) ;
#1057=PLANE('Plane',#1056) ;
#1071=PLANE('Plane',#1070) ;
#1111=PLANE('Plane',#1110) ;
#1142=PLANE('Plane',#1141) ;
#1166=PLANE('Plane',#1165) ;
#1190=PLANE('Plane',#1189) ;
#1207=PLANE('Plane',#1206) ;
#48=PLANE_ANGLE_MEASURE_WITH_UNIT(PLANE_ANGLE_MEASURE(0.0174532925199),#47) ;
#7=PRODUCT_CATEGORY('part',$) ;
#14=PRODUCT_CATEGORY('part',$) ;
#9=PRODUCT_CATEGORY_RELATIONSHIP(' ',' ',#7,#8) ;
#16=PRODUCT_CATEGORY_RELATIONSHIP(' ',' ',#14,#15) ;
#6=PRODUCT_DEFINITION_FORMATION_WITH_SPECIFIED_SOURCE('',' ',#5,.NOT_KNOWN.) ;
#55=PRODUCT_DEFINITION_FORMATION_WITH_SPECIFIED_SOURCE('',' ',#54,.NOT_KNOWN.) ;
#1234=PRODUCT_DEFINITION_FORMATION_WITH_SPECIFIED_SOURCE('',' ',#1233,.NOT_KNOWN.) ;
#56=PRODUCT_DEFINITION_WITH_ASSOCIATED_DOCUMENTS('PPte3PanL_CDP REG',' ',#55,#3,(#58)) ;
#1235=PRODUCT_DEFINITION_WITH_ASSOCIATED_DOCUMENTS('Part14',' ',#1234,#3,(#1237)) ;
#8=PRODUCT_RELATED_PRODUCT_CATEGORY('detail',$,(#54,#1233)) ;
#15=PRODUCT_RELATED_PRODUCT_CATEGORY('part',$,(#5)) ;
#43=SHAPE_DEFINITION_REPRESENTATION(#45,#44) ;
#53=SHAPE_DEFINITION_REPRESENTATION(#59,#52) ;
#1232=SHAPE_DEFINITION_REPRESENTATION(#1238,#1231) ;
#66=TRIMMED_CURVE('',#63,(#64),(#65),.T.,.CARTESIAN.) ;
#78=TRIMMED_CURVE('',#75,(#76),(#77),.T.,.CARTESIAN.) ;
#87=TRIMMED_CURVE('',#84,(#85),(#86),.T.,.CARTESIAN.) ;
#96=TRIMMED_CURVE('',#93,(#94),(#95),.T.,.CARTESIAN.) ;
#105=TRIMMED_CURVE('',#102,(#103),(#104),.T.,.CARTESIAN.) ;
#114=TRIMMED_CURVE('',#111,(#112),(#113),.T.,.CARTESIAN.) ;
#123=TRIMMED_CURVE('',#120,(#121),(#122),.T.,.CARTESIAN.) ;
#131=TRIMMED_CURVE('',#128,(#129),(#130),.T.,.CARTESIAN.) ;
#140=TRIMMED_CURVE('',#137,(#138),(#139),.T.,.CARTESIAN.) ;
#149=TRIMMED_CURVE('',#146,(#147),(#148),.T.,.CARTESIAN.) ;
#158=TRIMMED_CURVE('',#155,(#156),(#157),.T.,.CARTESIAN.) ;
#167=TRIMMED_CURVE('',#164,(#165),(#166),.T.,.CARTESIAN.) ;
#176=TRIMMED_CURVE('',#173,(#174),(#175),.T.,.CARTESIAN.) ;
#185=TRIMMED_CURVE('',#182,(#183),(#184),.T.,.CARTESIAN.) ;
#194=TRIMMED_CURVE('',#191,(#192),(#193),.T.,.CARTESIAN.) ;
#203=TRIMMED_CURVE('',#200,(#201),(#202),.T.,.CARTESIAN.) ;
#217=VERTEX_POINT('',#216) ;
#219=VERTEX_POINT('',#218) ;
#226=VERTEX_POINT('',#225) ;
#233=VERTEX_POINT('',#232) ;
#257=VERTEX_POINT('',#256) ;
#259=VERTEX_POINT('',#258) ;
#266=VERTEX_POINT('',#265) ;
#273=VERTEX_POINT('',#272) ;
#291=VERTEX_POINT('',#290) ;
#293=VERTEX_POINT('',#292) ;
#300=VERTEX_POINT('',#299) ;
#307=VERTEX_POINT('',#306) ;
#325=VERTEX_POINT('',#324) ;
#327=VERTEX_POINT('',#326) ;
#334=VERTEX_POINT('',#333) ;
#341=VERTEX_POINT('',#340) ;
#359=VERTEX_POINT('',#358) ;
#366=VERTEX_POINT('',#365) ;
#390=VERTEX_POINT('',#389) ;
#414=VERTEX_POINT('',#413) ;
#416=VERTEX_POINT('',#415) ;
#423=VERTEX_POINT('',#422) ;
#430=VERTEX_POINT('',#429) ;
#448=VERTEX_POINT('',#447) ;
#450=VERTEX_POINT('',#449) ;
#457=VERTEX_POINT('',#456) ;
#464=VERTEX_POINT('',#463) ;
#482=VERTEX_POINT('',#481) ;
#484=VERTEX_POINT('',#483) ;
#491=VERTEX_POINT('',#490) ;
#498=VERTEX_POINT('',#497) ;
#516=VERTEX_POINT('',#515) ;
#777=VERTEX_POINT('',#776) ;
#779=VERTEX_POINT('',#778) ;
#786=VERTEX_POINT('',#785) ;
#793=VERTEX_POINT('',#792) ;
#817=VERTEX_POINT('',#816) ;
#824=VERTEX_POINT('',#823) ;
#848=VERTEX_POINT('',#847) ;
#872=VERTEX_POINT('',#871) ;
#927=VERTEX_POINT('',#926) ;
#929=VERTEX_POINT('',#928) ;
#936=VERTEX_POINT('',#935) ;
#943=VERTEX_POINT('',#942) ;
#967=VERTEX_POINT('',#966) ;
#974=VERTEX_POINT('',#973) ;
#998=VERTEX_POINT('',#997) ;
#1022=VERTEX_POINT('',#1021) ;
#1077=VERTEX_POINT('',#1076) ;
#1079=VERTEX_POINT('',#1078) ;
#1086=VERTEX_POINT('',#1085) ;
#1093=VERTEX_POINT('',#1092) ;
#1117=VERTEX_POINT('',#1116) ;
#1124=VERTEX_POINT('',#1123) ;
#1148=VERTEX_POINT('',#1147) ;
#1172=VERTEX_POINT('',#1171) ;
#46=(LENGTH_UNIT()NAMED_UNIT(*)SI_UNIT(.MILLI.,.METRE.)) ;
#47=(NAMED_UNIT(*)PLANE_ANGLE_UNIT()SI_UNIT($,.RADIAN.)) ;
#49=(NAMED_UNIT(*)SI_UNIT($,.STERADIAN.)SOLID_ANGLE_UNIT()) ;
#51=(GEOMETRIC_REPRESENTATION_CONTEXT(3)GLOBAL_UNCERTAINTY_ASSIGNED_CONTEXT((#50))GLOBAL_UNIT_ASSIGNED_CONTEXT((#46,#47,#49))REPRESENTATION_CONTEXT(' ',' ')) ;
#1230=(GEOMETRIC_REPRESENTATION_CONTEXT(3)GLOBAL_UNCERTAINTY_ASSIGNED_CONTEXT((#1229))GLOBAL_UNIT_ASSIGNED_CONTEXT((#46,#47,#49))REPRESENTATION_CONTEXT(' ',' ')) ;
#1257=(GEOMETRIC_REPRESENTATION_CONTEXT(3)GLOBAL_UNCERTAINTY_ASSIGNED_CONTEXT((#1256))GLOBAL_UNIT_ASSIGNED_CONTEXT((#46,#47,#49))REPRESENTATION_CONTEXT(' ',' ')) ;
#1219=(REPRESENTATION_RELATIONSHIP(' ',' ',#52,#44)REPRESENTATION_RELATIONSHIP_WITH_TRANSFORMATION(#1220)SHAPE_REPRESENTATION_RELATIONSHIP()) ;
#1246=(REPRESENTATION_RELATIONSHIP(' ',' ',#1231,#44)REPRESENTATION_RELATIONSHIP_WITH_TRANSFORMATION(#1247)SHAPE_REPRESENTATION_RELATIONSHIP()) ;
ENDSEC;
END-ISO-10303-21;
