ISO-10303-21;
HEADER;
FILE_DESCRIPTION(('CATIA V5 STEP Exchange'),'2;1');

FILE_NAME('C:\\Users\\mnicu\\Desktop\\Client 2024\\Kyra sablage\\Rafat 3D models\\Right side origin\\P02 small.stp','2025-05-02T21:58:16+00:00',('none'),('none'),'CATIA Version 5 Release 18 GA (IN-10)','CATIA V5 STEP AP203','none');

FILE_SCHEMA(('CONFIG_CONTROL_DESIGN'));

ENDSEC;
/* file written by CATIA V5R18 */
DATA;
#5=PRODUCT('Product2','','',(#2)) ;
#54=PRODUCT('Part12.1.2','','',(#2)) ;
#81=PRODUCT('Part4','','',(#2)) ;
#484=PRODUCT('Part5','','',(#2)) ;
#1=APPLICATION_CONTEXT('configuration controlled 3D design of mechanical parts and assemblies') ;
#17=PRODUCT_DEFINITION('Product2',' ',#6,#3) ;
#19=SECURITY_CLASSIFICATION(' ',' ',#18) ;
#18=SECURITY_CLASSIFICATION_LEVEL('unclassified') ;
#60=CARTESIAN_POINT('Sketch.1',(0.,0.,0.)) ;
#71=CARTESIAN_POINT('NONE',(0.,0.,0.)) ;
#72=CARTESIAN_POINT('NONE',(0.,0.,0.)) ;
#88=CARTESIAN_POINT('Axis2P3D Location',(-650.875000003,0.,0.)) ;
#93=CARTESIAN_POINT('Line Origine',(-325.437500001,0.,19.0500000001)) ;
#97=CARTESIAN_POINT('Vertex',(-650.875000003,0.,19.0500000001)) ;
#99=CARTESIAN_POINT('Vertex',(0.,-2.84217094304E-014,19.0500000001)) ;
#102=CARTESIAN_POINT('Line Origine',(0.,0.,9.52500000004)) ;
#106=CARTESIAN_POINT('Vertex',(0.,-2.84217094304E-014,0.)) ;
#109=CARTESIAN_POINT('Line Origine',(-325.437500001,0.,0.)) ;
#113=CARTESIAN_POINT('Vertex',(-650.875000003,0.,0.)) ;
#116=CARTESIAN_POINT('Line Origine',(-650.875000003,0.,9.52500000004)) ;
#128=CARTESIAN_POINT('Axis2P3D Location',(-650.875000003,-508.000000002,0.)) ;
#133=CARTESIAN_POINT('Line Origine',(-650.875000003,-254.000000001,19.0500000001)) ;
#137=CARTESIAN_POINT('Vertex',(-650.875000003,-508.000000002,19.0500000001)) ;
#140=CARTESIAN_POINT('Line Origine',(-650.875000003,-254.000000001,0.)) ;
#144=CARTESIAN_POINT('Vertex',(-650.875000003,-508.000000002,0.)) ;
#147=CARTESIAN_POINT('Line Origine',(-650.875000003,-508.000000002,9.52500000004)) ;
#159=CARTESIAN_POINT('Axis2P3D Location',(0.,-508.000000002,0.)) ;
#164=CARTESIAN_POINT('Line Origine',(-325.437500001,-508.000000002,19.0500000001)) ;
#168=CARTESIAN_POINT('Vertex',(0.,-508.000000002,19.0500000001)) ;
#171=CARTESIAN_POINT('Line Origine',(-325.437500001,-508.000000002,0.)) ;
#175=CARTESIAN_POINT('Vertex',(0.,-508.000000002,0.)) ;
#178=CARTESIAN_POINT('Line Origine',(0.,-508.000000002,9.52500000004)) ;
#190=CARTESIAN_POINT('Axis2P3D Location',(0.,-2.84217094304E-014,0.)) ;
#195=CARTESIAN_POINT('Line Origine',(0.,-254.000000001,19.0500000001)) ;
#200=CARTESIAN_POINT('Line Origine',(0.,-254.000000001,0.)) ;
#212=CARTESIAN_POINT('Axis2P3D Location',(0.,0.,0.)) ;
#223=CARTESIAN_POINT('Line Origine',(-593.725000002,-254.000000001,0.)) ;
#227=CARTESIAN_POINT('Vertex',(-593.725000002,-57.1500000002,0.)) ;
#229=CARTESIAN_POINT('Vertex',(-593.725000002,-450.850000002,0.)) ;
#232=CARTESIAN_POINT('Line Origine',(-396.875000002,-450.850000002,0.)) ;
#236=CARTESIAN_POINT('Vertex',(-200.025000001,-450.850000002,0.)) ;
#239=CARTESIAN_POINT('Line Origine',(-200.025000001,-254.000000001,0.)) ;
#243=CARTESIAN_POINT('Vertex',(-200.025000001,-57.1500000002,0.)) ;
#246=CARTESIAN_POINT('Line Origine',(-396.875000002,-57.1500000002,0.)) ;
#258=CARTESIAN_POINT('Axis2P3D Location',(-593.725000002,-57.1500000002,0.)) ;
#263=CARTESIAN_POINT('Line Origine',(-593.725000002,-57.1500000002,4.76250000002)) ;
#267=CARTESIAN_POINT('Vertex',(-593.725000002,-57.1500000002,9.52500000004)) ;
#270=CARTESIAN_POINT('Line Origine',(-200.025000001,-57.1500000002,4.76250000002)) ;
#274=CARTESIAN_POINT('Vertex',(-200.025000001,-57.1500000002,9.52500000004)) ;
#277=CARTESIAN_POINT('Line Origine',(-396.875000002,-57.1500000002,9.52500000004)) ;
#289=CARTESIAN_POINT('Axis2P3D Location',(-200.025000001,-450.850000002,0.)) ;
#294=CARTESIAN_POINT('Line Origine',(-200.025000001,-254.000000001,9.52500000004)) ;
#298=CARTESIAN_POINT('Vertex',(-200.025000001,-450.850000002,9.52500000004)) ;
#301=CARTESIAN_POINT('Line Origine',(-200.025000001,-450.850000002,4.76250000002)) ;
#313=CARTESIAN_POINT('Axis2P3D Location',(-200.025000001,-450.850000002,0.)) ;
#318=CARTESIAN_POINT('Line Origine',(-593.725000002,-450.850000002,4.76250000002)) ;
#322=CARTESIAN_POINT('Vertex',(-593.725000002,-450.850000002,9.52500000004)) ;
#325=CARTESIAN_POINT('Line Origine',(-396.875000002,-450.850000002,9.52500000004)) ;
#337=CARTESIAN_POINT('Axis2P3D Location',(-593.725000002,-57.1500000002,0.)) ;
#342=CARTESIAN_POINT('Line Origine',(-593.725000002,-254.000000001,9.52500000004)) ;
#354=CARTESIAN_POINT('Axis2P3D Location',(0.,0.,19.0500000001)) ;
#365=CARTESIAN_POINT('Line Origine',(-190.500000001,-254.000000001,19.0500000001)) ;
#369=CARTESIAN_POINT('Vertex',(-190.500000001,-460.375000002,19.0500000001)) ;
#371=CARTESIAN_POINT('Vertex',(-190.500000001,-47.6250000002,19.0500000001)) ;
#374=CARTESIAN_POINT('Line Origine',(-396.875000002,-460.375000002,19.0500000001)) ;
#378=CARTESIAN_POINT('Vertex',(-603.250000002,-460.375000002,19.0500000001)) ;
#381=CARTESIAN_POINT('Line Origine',(-603.250000002,-254.000000001,19.0500000001)) ;
#385=CARTESIAN_POINT('Vertex',(-603.250000002,-47.6250000002,19.0500000001)) ;
#388=CARTESIAN_POINT('Line Origine',(-396.875000002,-47.6250000002,19.0500000001)) ;
#400=CARTESIAN_POINT('Axis2P3D Location',(-190.500000001,-609.600000002,19.0500000001)) ;
#406=CARTESIAN_POINT('Control Point',(-200.025000001,-57.1500000002,9.52500000004)) ;
#407=CARTESIAN_POINT('Control Point',(-190.500000001,-47.6250000002,19.0500000001)) ;
#410=CARTESIAN_POINT('Control Point',(-200.025000001,-450.850000002,9.52500000004)) ;
#411=CARTESIAN_POINT('Control Point',(-190.500000001,-460.375000002,19.0500000001)) ;
#420=CARTESIAN_POINT('Axis2P3D Location',(-781.050000003,-47.6250000002,19.0500000001)) ;
#426=CARTESIAN_POINT('Control Point',(-593.725000002,-57.1500000002,9.52500000004)) ;
#427=CARTESIAN_POINT('Control Point',(-603.250000002,-47.6250000002,19.0500000001)) ;
#436=CARTESIAN_POINT('Axis2P3D Location',(-603.250000002,101.6,19.0500000001)) ;
#442=CARTESIAN_POINT('Control Point',(-593.725000002,-450.850000002,9.52500000004)) ;
#443=CARTESIAN_POINT('Control Point',(-603.250000002,-460.375000002,19.0500000001)) ;
#452=CARTESIAN_POINT('Axis2P3D Location',(130.175000001,-460.375000002,19.0500000001)) ;
#474=CARTESIAN_POINT('NONE',(0.,0.,0.)) ;
#475=CARTESIAN_POINT('NONE',(-2.84217094304E-014,-4.48415508584E-044,0.)) ;
#491=CARTESIAN_POINT('Axis2P3D Location',(-393.700000002,0.,0.)) ;
#496=CARTESIAN_POINT('Line Origine',(0.,0.,4.76250000002)) ;
#500=CARTESIAN_POINT('Vertex',(0.,0.,0.)) ;
#502=CARTESIAN_POINT('Vertex',(0.,0.,9.52500000004)) ;
#505=CARTESIAN_POINT('Line Origine',(-196.850000001,0.,0.)) ;
#509=CARTESIAN_POINT('Vertex',(-393.700000002,0.,0.)) ;
#512=CARTESIAN_POINT('Line Origine',(-393.700000002,0.,4.76250000002)) ;
#516=CARTESIAN_POINT('Vertex',(-393.700000002,0.,9.52500000004)) ;
#519=CARTESIAN_POINT('Line Origine',(-196.850000001,0.,9.52500000004)) ;
#531=CARTESIAN_POINT('Axis2P3D Location',(-393.700000002,-393.700000002,0.)) ;
#536=CARTESIAN_POINT('Line Origine',(-393.700000002,-196.850000001,0.)) ;
#540=CARTESIAN_POINT('Vertex',(-393.700000002,-393.700000002,0.)) ;
#543=CARTESIAN_POINT('Line Origine',(-393.700000002,-393.700000002,4.76250000002)) ;
#547=CARTESIAN_POINT('Vertex',(-393.700000002,-393.700000002,9.52500000004)) ;
#550=CARTESIAN_POINT('Line Origine',(-393.700000002,-196.850000001,9.52500000004)) ;
#562=CARTESIAN_POINT('Axis2P3D Location',(5.68434188608E-014,-393.700000002,0.)) ;
#567=CARTESIAN_POINT('Line Origine',(-196.850000001,-393.700000002,0.)) ;
#571=CARTESIAN_POINT('Vertex',(5.68434188608E-014,-393.700000002,0.)) ;
#574=CARTESIAN_POINT('Line Origine',(5.68434188608E-014,-393.700000002,4.76250000002)) ;
#578=CARTESIAN_POINT('Vertex',(5.68434188608E-014,-393.700000002,9.52500000004)) ;
#581=CARTESIAN_POINT('Line Origine',(-196.850000001,-393.700000002,9.52500000004)) ;
#593=CARTESIAN_POINT('Axis2P3D Location',(0.,0.,0.)) ;
#598=CARTESIAN_POINT('Line Origine',(0.,-196.850000001,0.)) ;
#603=CARTESIAN_POINT('Line Origine',(0.,-196.850000001,9.52500000004)) ;
#615=CARTESIAN_POINT('Axis2P3D Location',(0.,0.,0.)) ;
#627=CARTESIAN_POINT('Axis2P3D Location',(0.,0.,9.52500000004)) ;
#649=CARTESIAN_POINT('NONE',(0.,0.,0.)) ;
#650=CARTESIAN_POINT('NONE',(-57.1500000002,200.025000001,0.)) ;
#73=DIRECTION('NONE',(1.,0.,0.)) ;
#74=DIRECTION('NONE',(0.,0.,1.)) ;
#75=DIRECTION('NONE',(1.,0.,0.)) ;
#76=DIRECTION('NONE',(0.,0.,1.)) ;
#89=DIRECTION('Axis2P3D Direction',(0.,-1.,0.)) ;
#90=DIRECTION('Axis2P3D XDirection',(1.,0.,0.)) ;
#94=DIRECTION('Vector Direction',(1.,0.,0.)) ;
#103=DIRECTION('Vector Direction',(0.,0.,1.)) ;
#110=DIRECTION('Vector Direction',(1.,0.,0.)) ;
#117=DIRECTION('Vector Direction',(0.,0.,1.)) ;
#129=DIRECTION('Axis2P3D Direction',(1.,0.,0.)) ;
#130=DIRECTION('Axis2P3D XDirection',(0.,1.,0.)) ;
#134=DIRECTION('Vector Direction',(0.,1.,0.)) ;
#141=DIRECTION('Vector Direction',(0.,1.,0.)) ;
#148=DIRECTION('Vector Direction',(0.,0.,1.)) ;
#160=DIRECTION('Axis2P3D Direction',(0.,1.,-0.)) ;
#161=DIRECTION('Axis2P3D XDirection',(-1.,0.,0.)) ;
#165=DIRECTION('Vector Direction',(-1.,0.,0.)) ;
#172=DIRECTION('Vector Direction',(-1.,0.,0.)) ;
#179=DIRECTION('Vector Direction',(0.,0.,1.)) ;
#191=DIRECTION('Axis2P3D Direction',(-1.,0.,0.)) ;
#192=DIRECTION('Axis2P3D XDirection',(0.,-1.,0.)) ;
#196=DIRECTION('Vector Direction',(0.,-1.,0.)) ;
#201=DIRECTION('Vector Direction',(0.,-1.,0.)) ;
#213=DIRECTION('Axis2P3D Direction',(0.,0.,1.)) ;
#214=DIRECTION('Axis2P3D XDirection',(1.,0.,0.)) ;
#224=DIRECTION('Vector Direction',(0.,-1.,0.)) ;
#233=DIRECTION('Vector Direction',(-1.,0.,0.)) ;
#240=DIRECTION('Vector Direction',(0.,1.,0.)) ;
#247=DIRECTION('Vector Direction',(1.,0.,0.)) ;
#259=DIRECTION('Axis2P3D Direction',(0.,-1.,0.)) ;
#260=DIRECTION('Axis2P3D XDirection',(1.,0.,0.)) ;
#264=DIRECTION('Vector Direction',(0.,0.,1.)) ;
#271=DIRECTION('Vector Direction',(0.,0.,1.)) ;
#278=DIRECTION('Vector Direction',(1.,0.,0.)) ;
#290=DIRECTION('Axis2P3D Direction',(1.,0.,0.)) ;
#291=DIRECTION('Axis2P3D XDirection',(0.,1.,0.)) ;
#295=DIRECTION('Vector Direction',(0.,1.,0.)) ;
#302=DIRECTION('Vector Direction',(0.,0.,1.)) ;
#314=DIRECTION('Axis2P3D Direction',(0.,1.,-0.)) ;
#315=DIRECTION('Axis2P3D XDirection',(-1.,0.,0.)) ;
#319=DIRECTION('Vector Direction',(0.,0.,1.)) ;
#326=DIRECTION('Vector Direction',(-1.,0.,0.)) ;
#338=DIRECTION('Axis2P3D Direction',(-1.,0.,0.)) ;
#339=DIRECTION('Axis2P3D XDirection',(0.,-1.,0.)) ;
#343=DIRECTION('Vector Direction',(0.,-1.,0.)) ;
#355=DIRECTION('Axis2P3D Direction',(0.,0.,1.)) ;
#356=DIRECTION('Axis2P3D XDirection',(1.,0.,0.)) ;
#366=DIRECTION('Vector Direction',(0.,1.,0.)) ;
#375=DIRECTION('Vector Direction',(-1.,0.,0.)) ;
#382=DIRECTION('Vector Direction',(0.,-1.,0.)) ;
#389=DIRECTION('Vector Direction',(1.,0.,0.)) ;
#401=DIRECTION('Axis2P3D Direction',(-0.707106781187,0.,0.707106781187)) ;
#402=DIRECTION('Axis2P3D XDirection',(0.,1.,0.)) ;
#421=DIRECTION('Axis2P3D Direction',(0.,0.707106781187,-0.707106781187)) ;
#422=DIRECTION('Axis2P3D XDirection',(1.,0.,0.)) ;
#437=DIRECTION('Axis2P3D Direction',(0.707106781187,0.,0.707106781187)) ;
#438=DIRECTION('Axis2P3D XDirection',(0.,-1.,0.)) ;
#453=DIRECTION('Axis2P3D Direction',(-0.,-0.707106781187,-0.707106781187)) ;
#454=DIRECTION('Axis2P3D XDirection',(-1.,0.,0.)) ;
#476=DIRECTION('NONE',(1.,0.,0.)) ;
#477=DIRECTION('NONE',(0.,0.,1.)) ;
#478=DIRECTION('NONE',(0.,-1.,0.)) ;
#479=DIRECTION('NONE',(0.,0.,1.)) ;
#492=DIRECTION('Axis2P3D Direction',(0.,-1.,0.)) ;
#493=DIRECTION('Axis2P3D XDirection',(1.,0.,0.)) ;
#497=DIRECTION('Vector Direction',(0.,0.,1.)) ;
#506=DIRECTION('Vector Direction',(1.,0.,0.)) ;
#513=DIRECTION('Vector Direction',(0.,0.,1.)) ;
#520=DIRECTION('Vector Direction',(1.,0.,0.)) ;
#532=DIRECTION('Axis2P3D Direction',(1.,0.,0.)) ;
#533=DIRECTION('Axis2P3D XDirection',(0.,1.,0.)) ;
#537=DIRECTION('Vector Direction',(0.,1.,0.)) ;
#544=DIRECTION('Vector Direction',(0.,0.,1.)) ;
#551=DIRECTION('Vector Direction',(0.,1.,0.)) ;
#563=DIRECTION('Axis2P3D Direction',(0.,1.,-0.)) ;
#564=DIRECTION('Axis2P3D XDirection',(-1.,0.,0.)) ;
#568=DIRECTION('Vector Direction',(-1.,0.,0.)) ;
#575=DIRECTION('Vector Direction',(0.,0.,1.)) ;
#582=DIRECTION('Vector Direction',(-1.,0.,0.)) ;
#594=DIRECTION('Axis2P3D Direction',(-1.,0.,0.)) ;
#595=DIRECTION('Axis2P3D XDirection',(0.,-1.,0.)) ;
#599=DIRECTION('Vector Direction',(0.,-1.,0.)) ;
#604=DIRECTION('Vector Direction',(0.,-1.,0.)) ;
#616=DIRECTION('Axis2P3D Direction',(0.,0.,1.)) ;
#617=DIRECTION('Axis2P3D XDirection',(1.,0.,0.)) ;
#628=DIRECTION('Axis2P3D Direction',(0.,0.,1.)) ;
#629=DIRECTION('Axis2P3D XDirection',(1.,0.,0.)) ;
#651=DIRECTION('NONE',(1.,0.,0.)) ;
#652=DIRECTION('NONE',(0.,0.,1.)) ;
#653=DIRECTION('NONE',(6.93889390391E-018,-1.,0.)) ;
#654=DIRECTION('NONE',(0.,0.,1.)) ;
#69=AXIS2_PLACEMENT_3D(' ',#72,#76,#75) ;
#70=AXIS2_PLACEMENT_3D(' ',#71,#74,#73) ;
#91=AXIS2_PLACEMENT_3D('Plane Axis2P3D',#88,#89,#90) ;
#131=AXIS2_PLACEMENT_3D('Plane Axis2P3D',#128,#129,#130) ;
#162=AXIS2_PLACEMENT_3D('Plane Axis2P3D',#159,#160,#161) ;
#193=AXIS2_PLACEMENT_3D('Plane Axis2P3D',#190,#191,#192) ;
#215=AXIS2_PLACEMENT_3D('Plane Axis2P3D',#212,#213,#214) ;
#261=AXIS2_PLACEMENT_3D('Plane Axis2P3D',#258,#259,#260) ;
#292=AXIS2_PLACEMENT_3D('Plane Axis2P3D',#289,#290,#291) ;
#316=AXIS2_PLACEMENT_3D('Plane Axis2P3D',#313,#314,#315) ;
#340=AXIS2_PLACEMENT_3D('Plane Axis2P3D',#337,#338,#339) ;
#357=AXIS2_PLACEMENT_3D('Plane Axis2P3D',#354,#355,#356) ;
#403=AXIS2_PLACEMENT_3D('Plane Axis2P3D',#400,#401,#402) ;
#423=AXIS2_PLACEMENT_3D('Plane Axis2P3D',#420,#421,#422) ;
#439=AXIS2_PLACEMENT_3D('Plane Axis2P3D',#436,#437,#438) ;
#455=AXIS2_PLACEMENT_3D('Plane Axis2P3D',#452,#453,#454) ;
#472=AXIS2_PLACEMENT_3D(' ',#475,#479,#478) ;
#473=AXIS2_PLACEMENT_3D(' ',#474,#477,#476) ;
#494=AXIS2_PLACEMENT_3D('Plane Axis2P3D',#491,#492,#493) ;
#534=AXIS2_PLACEMENT_3D('Plane Axis2P3D',#531,#532,#533) ;
#565=AXIS2_PLACEMENT_3D('Plane Axis2P3D',#562,#563,#564) ;
#596=AXIS2_PLACEMENT_3D('Plane Axis2P3D',#593,#594,#595) ;
#618=AXIS2_PLACEMENT_3D('Plane Axis2P3D',#615,#616,#617) ;
#630=AXIS2_PLACEMENT_3D('Plane Axis2P3D',#627,#628,#629) ;
#647=AXIS2_PLACEMENT_3D(' ',#650,#654,#653) ;
#648=AXIS2_PLACEMENT_3D(' ',#649,#652,#651) ;
#45=PRODUCT_DEFINITION_SHAPE(' ',' ',#17) ;
#59=PRODUCT_DEFINITION_SHAPE(' ',' ',#56) ;
#65=PRODUCT_DEFINITION_SHAPE(' ',' ',#64) ;
#86=PRODUCT_DEFINITION_SHAPE(' ',' ',#83) ;
#468=PRODUCT_DEFINITION_SHAPE(' ',' ',#467) ;
#489=PRODUCT_DEFINITION_SHAPE(' ',' ',#486) ;
#643=PRODUCT_DEFINITION_SHAPE(' ',' ',#642) ;
#34=APPROVAL_PERSON_ORGANIZATION(#28,#24,#22) ;
#28=PERSON_AND_ORGANIZATION(#25,#26) ;
#25=PERSON(' ',' ',' ',$,$,$) ;
#26=ORGANIZATION(' ',' ',' ') ;
#24=APPROVAL(#23,' ') ;
#23=APPROVAL_STATUS('not_yet_approved') ;
#22=APPROVAL_ROLE('APPROVER') ;
#13=DATE_AND_TIME(#11,#12) ;
#12=LOCAL_TIME(17,58,16.,#10) ;
#10=COORDINATED_UNIVERSAL_TIME_OFFSET(0,0,.AHEAD.) ;
#122=ORIENTED_EDGE('',*,*,#101,.T.) ;
#123=ORIENTED_EDGE('',*,*,#108,.F.) ;
#124=ORIENTED_EDGE('',*,*,#115,.F.) ;
#125=ORIENTED_EDGE('',*,*,#120,.T.) ;
#153=ORIENTED_EDGE('',*,*,#139,.T.) ;
#154=ORIENTED_EDGE('',*,*,#120,.F.) ;
#155=ORIENTED_EDGE('',*,*,#146,.F.) ;
#156=ORIENTED_EDGE('',*,*,#151,.T.) ;
#184=ORIENTED_EDGE('',*,*,#170,.T.) ;
#185=ORIENTED_EDGE('',*,*,#151,.F.) ;
#186=ORIENTED_EDGE('',*,*,#177,.F.) ;
#187=ORIENTED_EDGE('',*,*,#182,.T.) ;
#206=ORIENTED_EDGE('',*,*,#199,.T.) ;
#207=ORIENTED_EDGE('',*,*,#182,.F.) ;
#208=ORIENTED_EDGE('',*,*,#204,.F.) ;
#209=ORIENTED_EDGE('',*,*,#108,.T.) ;
#218=ORIENTED_EDGE('',*,*,#204,.T.) ;
#219=ORIENTED_EDGE('',*,*,#177,.T.) ;
#220=ORIENTED_EDGE('',*,*,#146,.T.) ;
#221=ORIENTED_EDGE('',*,*,#115,.T.) ;
#252=ORIENTED_EDGE('',*,*,#231,.T.) ;
#253=ORIENTED_EDGE('',*,*,#238,.T.) ;
#254=ORIENTED_EDGE('',*,*,#245,.T.) ;
#255=ORIENTED_EDGE('',*,*,#250,.T.) ;
#283=ORIENTED_EDGE('',*,*,#269,.F.) ;
#284=ORIENTED_EDGE('',*,*,#250,.F.) ;
#285=ORIENTED_EDGE('',*,*,#276,.T.) ;
#286=ORIENTED_EDGE('',*,*,#281,.T.) ;
#307=ORIENTED_EDGE('',*,*,#300,.T.) ;
#308=ORIENTED_EDGE('',*,*,#276,.F.) ;
#309=ORIENTED_EDGE('',*,*,#245,.F.) ;
#310=ORIENTED_EDGE('',*,*,#305,.T.) ;
#331=ORIENTED_EDGE('',*,*,#305,.F.) ;
#332=ORIENTED_EDGE('',*,*,#238,.F.) ;
#333=ORIENTED_EDGE('',*,*,#324,.T.) ;
#334=ORIENTED_EDGE('',*,*,#329,.T.) ;
#348=ORIENTED_EDGE('',*,*,#346,.T.) ;
#349=ORIENTED_EDGE('',*,*,#324,.F.) ;
#350=ORIENTED_EDGE('',*,*,#231,.F.) ;
#351=ORIENTED_EDGE('',*,*,#269,.T.) ;
#360=ORIENTED_EDGE('',*,*,#101,.F.) ;
#361=ORIENTED_EDGE('',*,*,#139,.F.) ;
#362=ORIENTED_EDGE('',*,*,#170,.F.) ;
#363=ORIENTED_EDGE('',*,*,#199,.F.) ;
#394=ORIENTED_EDGE('',*,*,#373,.F.) ;
#395=ORIENTED_EDGE('',*,*,#380,.F.) ;
#396=ORIENTED_EDGE('',*,*,#387,.F.) ;
#397=ORIENTED_EDGE('',*,*,#392,.F.) ;
#414=ORIENTED_EDGE('',*,*,#408,.F.) ;
#415=ORIENTED_EDGE('',*,*,#300,.F.) ;
#416=ORIENTED_EDGE('',*,*,#412,.F.) ;
#417=ORIENTED_EDGE('',*,*,#373,.T.) ;
#430=ORIENTED_EDGE('',*,*,#281,.F.) ;
#431=ORIENTED_EDGE('',*,*,#408,.T.) ;
#432=ORIENTED_EDGE('',*,*,#392,.T.) ;
#433=ORIENTED_EDGE('',*,*,#428,.F.) ;
#446=ORIENTED_EDGE('',*,*,#444,.F.) ;
#447=ORIENTED_EDGE('',*,*,#346,.F.) ;
#448=ORIENTED_EDGE('',*,*,#428,.T.) ;
#449=ORIENTED_EDGE('',*,*,#387,.T.) ;
#458=ORIENTED_EDGE('',*,*,#329,.F.) ;
#459=ORIENTED_EDGE('',*,*,#444,.T.) ;
#460=ORIENTED_EDGE('',*,*,#380,.T.) ;
#461=ORIENTED_EDGE('',*,*,#412,.T.) ;
#525=ORIENTED_EDGE('',*,*,#504,.F.) ;
#526=ORIENTED_EDGE('',*,*,#511,.T.) ;
#527=ORIENTED_EDGE('',*,*,#518,.T.) ;
#528=ORIENTED_EDGE('',*,*,#523,.F.) ;
#556=ORIENTED_EDGE('',*,*,#518,.F.) ;
#557=ORIENTED_EDGE('',*,*,#542,.T.) ;
#558=ORIENTED_EDGE('',*,*,#549,.T.) ;
#559=ORIENTED_EDGE('',*,*,#554,.F.) ;
#587=ORIENTED_EDGE('',*,*,#549,.F.) ;
#588=ORIENTED_EDGE('',*,*,#573,.T.) ;
#589=ORIENTED_EDGE('',*,*,#580,.T.) ;
#590=ORIENTED_EDGE('',*,*,#585,.F.) ;
#609=ORIENTED_EDGE('',*,*,#580,.F.) ;
#610=ORIENTED_EDGE('',*,*,#602,.T.) ;
#611=ORIENTED_EDGE('',*,*,#504,.T.) ;
#612=ORIENTED_EDGE('',*,*,#607,.F.) ;
#621=ORIENTED_EDGE('',*,*,#602,.F.) ;
#622=ORIENTED_EDGE('',*,*,#573,.F.) ;
#623=ORIENTED_EDGE('',*,*,#542,.F.) ;
#624=ORIENTED_EDGE('',*,*,#511,.F.) ;
#633=ORIENTED_EDGE('',*,*,#523,.T.) ;
#634=ORIENTED_EDGE('',*,*,#554,.T.) ;
#635=ORIENTED_EDGE('',*,*,#585,.T.) ;
#636=ORIENTED_EDGE('',*,*,#607,.T.) ;
#256=FACE_BOUND('',#251,.T.) ;
#398=FACE_BOUND('',#393,.T.) ;
#87=CLOSED_SHELL('Closed Shell',(#127,#158,#189,#211,#257,#288,#312,#336,#353,#399,#419,#435,#451,#463)) ;
#490=CLOSED_SHELL('Closed Shell',(#530,#561,#592,#614,#626,#638)) ;
#68=ITEM_DEFINED_TRANSFORMATION(' ',' ',#70,#69) ;
#471=ITEM_DEFINED_TRANSFORMATION(' ',' ',#473,#472) ;
#646=ITEM_DEFINED_TRANSFORMATION(' ',' ',#648,#647) ;
#95=VECTOR('Line Direction',#94,1.) ;
#104=VECTOR('Line Direction',#103,1.) ;
#111=VECTOR('Line Direction',#110,1.) ;
#118=VECTOR('Line Direction',#117,1.) ;
#135=VECTOR('Line Direction',#134,1.) ;
#142=VECTOR('Line Direction',#141,1.) ;
#149=VECTOR('Line Direction',#148,1.) ;
#166=VECTOR('Line Direction',#165,1.) ;
#173=VECTOR('Line Direction',#172,1.) ;
#180=VECTOR('Line Direction',#179,1.) ;
#197=VECTOR('Line Direction',#196,1.) ;
#202=VECTOR('Line Direction',#201,1.) ;
#225=VECTOR('Line Direction',#224,1.) ;
#234=VECTOR('Line Direction',#233,1.) ;
#241=VECTOR('Line Direction',#240,1.) ;
#248=VECTOR('Line Direction',#247,1.) ;
#265=VECTOR('Line Direction',#264,1.) ;
#272=VECTOR('Line Direction',#271,1.) ;
#279=VECTOR('Line Direction',#278,1.) ;
#296=VECTOR('Line Direction',#295,1.) ;
#303=VECTOR('Line Direction',#302,1.) ;
#320=VECTOR('Line Direction',#319,1.) ;
#327=VECTOR('Line Direction',#326,1.) ;
#344=VECTOR('Line Direction',#343,1.) ;
#367=VECTOR('Line Direction',#366,1.) ;
#376=VECTOR('Line Direction',#375,1.) ;
#383=VECTOR('Line Direction',#382,1.) ;
#390=VECTOR('Line Direction',#389,1.) ;
#498=VECTOR('Line Direction',#497,1.) ;
#507=VECTOR('Line Direction',#506,1.) ;
#514=VECTOR('Line Direction',#513,1.) ;
#521=VECTOR('Line Direction',#520,1.) ;
#538=VECTOR('Line Direction',#537,1.) ;
#545=VECTOR('Line Direction',#544,1.) ;
#552=VECTOR('Line Direction',#551,1.) ;
#569=VECTOR('Line Direction',#568,1.) ;
#576=VECTOR('Line Direction',#575,1.) ;
#583=VECTOR('Line Direction',#582,1.) ;
#600=VECTOR('Line Direction',#599,1.) ;
#605=VECTOR('Line Direction',#604,1.) ;
#465=ADVANCED_BREP_SHAPE_REPRESENTATION('NONE',(#464),#51) ;
#640=ADVANCED_BREP_SHAPE_REPRESENTATION('NONE',(#639),#51) ;
#44=SHAPE_REPRESENTATION(' ',(#69,#472,#647),#51) ;
#52=SHAPE_REPRESENTATION(' ',(#70),#78) ;
#79=SHAPE_REPRESENTATION(' ',(#473),#481) ;
#482=SHAPE_REPRESENTATION(' ',(#648),#656) ;
#127=ADVANCED_FACE('PartBody',(#126),#92,.F.) ;
#158=ADVANCED_FACE('PartBody',(#157),#132,.F.) ;
#189=ADVANCED_FACE('PartBody',(#188),#163,.F.) ;
#211=ADVANCED_FACE('PartBody',(#210),#194,.F.) ;
#257=ADVANCED_FACE('PartBody',(#222,#256),#216,.F.) ;
#288=ADVANCED_FACE('PartBody',(#287),#262,.T.) ;
#312=ADVANCED_FACE('PartBody',(#311),#293,.F.) ;
#336=ADVANCED_FACE('PartBody',(#335),#317,.T.) ;
#353=ADVANCED_FACE('PartBody',(#352),#341,.F.) ;
#399=ADVANCED_FACE('PartBody',(#364,#398),#358,.T.) ;
#419=ADVANCED_FACE('PartBody',(#418),#404,.T.) ;
#435=ADVANCED_FACE('PartBody',(#434),#424,.F.) ;
#451=ADVANCED_FACE('PartBody',(#450),#440,.T.) ;
#463=ADVANCED_FACE('PartBody',(#462),#456,.F.) ;
#530=ADVANCED_FACE('PartBody',(#529),#495,.F.) ;
#561=ADVANCED_FACE('PartBody',(#560),#535,.F.) ;
#592=ADVANCED_FACE('PartBody',(#591),#566,.F.) ;
#614=ADVANCED_FACE('PartBody',(#613),#597,.F.) ;
#626=ADVANCED_FACE('PartBody',(#625),#619,.F.) ;
#638=ADVANCED_FACE('PartBody',(#637),#631,.T.) ;
#4=APPLICATION_PROTOCOL_DEFINITION('international standard','config_control_design',1994,#1) ;
#35=APPROVAL_DATE_TIME(#13,#24) ;
#405=B_SPLINE_CURVE_WITH_KNOTS('',1,(#406,#407),.UNSPECIFIED.,.F.,.U.,(2,2),(-8.24889197108,8.24889197108),.UNSPECIFIED.) ;
#409=B_SPLINE_CURVE_WITH_KNOTS('',1,(#410,#411),.UNSPECIFIED.,.F.,.U.,(2,2),(-8.24889197108,8.24889197108),.UNSPECIFIED.) ;
#425=B_SPLINE_CURVE_WITH_KNOTS('',1,(#426,#427),.UNSPECIFIED.,.F.,.U.,(2,2),(-8.24889197108,8.24889197108),.UNSPECIFIED.) ;
#441=B_SPLINE_CURVE_WITH_KNOTS('',1,(#442,#443),.UNSPECIFIED.,.F.,.U.,(2,2),(-8.24889197108,8.24889197108),.UNSPECIFIED.) ;
#464=MANIFOLD_SOLID_BREP('PartBody',#87) ;
#639=MANIFOLD_SOLID_BREP('PartBody',#490) ;
#11=CALENDAR_DATE(2025,2,5) ;
#33=CC_DESIGN_APPROVAL(#24,(#19,#6,#17)) ;
#21=CC_DESIGN_DATE_AND_TIME_ASSIGNMENT(#13,#20,(#19)) ;
#32=CC_DESIGN_DATE_AND_TIME_ASSIGNMENT(#13,#31,(#17)) ;
#20=DATE_TIME_ROLE('classification_date') ;
#31=DATE_TIME_ROLE('creation_date') ;
#30=CC_DESIGN_PERSON_AND_ORGANIZATION_ASSIGNMENT(#28,#29,(#19)) ;
#36=CC_DESIGN_PERSON_AND_ORGANIZATION_ASSIGNMENT(#28,#37,(#6)) ;
#38=CC_DESIGN_PERSON_AND_ORGANIZATION_ASSIGNMENT(#28,#39,(#6,#17)) ;
#40=CC_DESIGN_PERSON_AND_ORGANIZATION_ASSIGNMENT(#28,#41,(#5)) ;
#29=PERSON_AND_ORGANIZATION_ROLE('classification_officer') ;
#37=PERSON_AND_ORGANIZATION_ROLE('design_supplier') ;
#39=PERSON_AND_ORGANIZATION_ROLE('creator') ;
#41=PERSON_AND_ORGANIZATION_ROLE('design_owner') ;
#42=CC_DESIGN_SECURITY_CLASSIFICATION(#19,(#6,#64,#467,#642)) ;
#58=DOCUMENT('6','Punct de referinta.CATPart','CATPart document',#57) ;
#85=DOCUMENT('7','Part04 ext.CATPart','CATPart document',#84) ;
#488=DOCUMENT('8','Part04 int.CATPart','CATPart document',#487) ;
#57=DOCUMENT_TYPE('') ;
#84=DOCUMENT_TYPE('') ;
#487=DOCUMENT_TYPE('') ;
#66=CONTEXT_DEPENDENT_SHAPE_REPRESENTATION(#67,#65) ;
#469=CONTEXT_DEPENDENT_SHAPE_REPRESENTATION(#470,#468) ;
#644=CONTEXT_DEPENDENT_SHAPE_REPRESENTATION(#645,#643) ;
#63=SHAPE_REPRESENTATION_RELATIONSHIP(' ',' ',#52,#61) ;
#466=SHAPE_REPRESENTATION_RELATIONSHIP(' ',' ',#79,#465) ;
#641=SHAPE_REPRESENTATION_RELATIONSHIP(' ',' ',#482,#640) ;
#3=DESIGN_CONTEXT(' ',#1,'design') ;
#101=EDGE_CURVE('',#98,#100,#96,.T.) ;
#108=EDGE_CURVE('',#107,#100,#105,.T.) ;
#115=EDGE_CURVE('',#114,#107,#112,.T.) ;
#120=EDGE_CURVE('',#114,#98,#119,.T.) ;
#139=EDGE_CURVE('',#138,#98,#136,.T.) ;
#146=EDGE_CURVE('',#145,#114,#143,.T.) ;
#151=EDGE_CURVE('',#145,#138,#150,.T.) ;
#170=EDGE_CURVE('',#169,#138,#167,.T.) ;
#177=EDGE_CURVE('',#176,#145,#174,.T.) ;
#182=EDGE_CURVE('',#176,#169,#181,.T.) ;
#199=EDGE_CURVE('',#100,#169,#198,.T.) ;
#204=EDGE_CURVE('',#107,#176,#203,.T.) ;
#231=EDGE_CURVE('',#228,#230,#226,.T.) ;
#238=EDGE_CURVE('',#230,#237,#235,.F.) ;
#245=EDGE_CURVE('',#237,#244,#242,.T.) ;
#250=EDGE_CURVE('',#244,#228,#249,.F.) ;
#269=EDGE_CURVE('',#228,#268,#266,.T.) ;
#276=EDGE_CURVE('',#244,#275,#273,.T.) ;
#281=EDGE_CURVE('',#275,#268,#280,.F.) ;
#300=EDGE_CURVE('',#299,#275,#297,.T.) ;
#305=EDGE_CURVE('',#237,#299,#304,.T.) ;
#324=EDGE_CURVE('',#230,#323,#321,.T.) ;
#329=EDGE_CURVE('',#323,#299,#328,.F.) ;
#346=EDGE_CURVE('',#268,#323,#345,.T.) ;
#373=EDGE_CURVE('',#370,#372,#368,.T.) ;
#380=EDGE_CURVE('',#379,#370,#377,.F.) ;
#387=EDGE_CURVE('',#386,#379,#384,.T.) ;
#392=EDGE_CURVE('',#372,#386,#391,.F.) ;
#408=EDGE_CURVE('',#275,#372,#405,.T.) ;
#412=EDGE_CURVE('',#370,#299,#409,.F.) ;
#428=EDGE_CURVE('',#268,#386,#425,.T.) ;
#444=EDGE_CURVE('',#323,#379,#441,.T.) ;
#504=EDGE_CURVE('',#501,#503,#499,.T.) ;
#511=EDGE_CURVE('',#501,#510,#508,.F.) ;
#518=EDGE_CURVE('',#510,#517,#515,.T.) ;
#523=EDGE_CURVE('',#503,#517,#522,.F.) ;
#542=EDGE_CURVE('',#510,#541,#539,.F.) ;
#549=EDGE_CURVE('',#541,#548,#546,.T.) ;
#554=EDGE_CURVE('',#517,#548,#553,.F.) ;
#573=EDGE_CURVE('',#541,#572,#570,.F.) ;
#580=EDGE_CURVE('',#572,#579,#577,.T.) ;
#585=EDGE_CURVE('',#548,#579,#584,.F.) ;
#602=EDGE_CURVE('',#572,#501,#601,.F.) ;
#607=EDGE_CURVE('',#579,#503,#606,.F.) ;
#121=EDGE_LOOP('',(#122,#123,#124,#125)) ;
#152=EDGE_LOOP('',(#153,#154,#155,#156)) ;
#183=EDGE_LOOP('',(#184,#185,#186,#187)) ;
#205=EDGE_LOOP('',(#206,#207,#208,#209)) ;
#217=EDGE_LOOP('',(#218,#219,#220,#221)) ;
#251=EDGE_LOOP('',(#252,#253,#254,#255)) ;
#282=EDGE_LOOP('',(#283,#284,#285,#286)) ;
#306=EDGE_LOOP('',(#307,#308,#309,#310)) ;
#330=EDGE_LOOP('',(#331,#332,#333,#334)) ;
#347=EDGE_LOOP('',(#348,#349,#350,#351)) ;
#359=EDGE_LOOP('',(#360,#361,#362,#363)) ;
#393=EDGE_LOOP('',(#394,#395,#396,#397)) ;
#413=EDGE_LOOP('',(#414,#415,#416,#417)) ;
#429=EDGE_LOOP('',(#430,#431,#432,#433)) ;
#445=EDGE_LOOP('',(#446,#447,#448,#449)) ;
#457=EDGE_LOOP('',(#458,#459,#460,#461)) ;
#524=EDGE_LOOP('',(#525,#526,#527,#528)) ;
#555=EDGE_LOOP('',(#556,#557,#558,#559)) ;
#586=EDGE_LOOP('',(#587,#588,#589,#590)) ;
#608=EDGE_LOOP('',(#609,#610,#611,#612)) ;
#620=EDGE_LOOP('',(#621,#622,#623,#624)) ;
#632=EDGE_LOOP('',(#633,#634,#635,#636)) ;
#126=FACE_OUTER_BOUND('',#121,.T.) ;
#157=FACE_OUTER_BOUND('',#152,.T.) ;
#188=FACE_OUTER_BOUND('',#183,.T.) ;
#210=FACE_OUTER_BOUND('',#205,.T.) ;
#222=FACE_OUTER_BOUND('',#217,.T.) ;
#287=FACE_OUTER_BOUND('',#282,.T.) ;
#311=FACE_OUTER_BOUND('',#306,.T.) ;
#335=FACE_OUTER_BOUND('',#330,.T.) ;
#352=FACE_OUTER_BOUND('',#347,.T.) ;
#364=FACE_OUTER_BOUND('',#359,.T.) ;
#418=FACE_OUTER_BOUND('',#413,.T.) ;
#434=FACE_OUTER_BOUND('',#429,.T.) ;
#450=FACE_OUTER_BOUND('',#445,.T.) ;
#462=FACE_OUTER_BOUND('',#457,.T.) ;
#529=FACE_OUTER_BOUND('',#524,.T.) ;
#560=FACE_OUTER_BOUND('',#555,.T.) ;
#591=FACE_OUTER_BOUND('',#586,.T.) ;
#613=FACE_OUTER_BOUND('',#608,.T.) ;
#625=FACE_OUTER_BOUND('',#620,.T.) ;
#637=FACE_OUTER_BOUND('',#632,.T.) ;
#62=GEOMETRIC_SET('NONE',(#60)) ;
#61=GEOMETRICALLY_BOUNDED_SURFACE_SHAPE_REPRESENTATION('NONE',(#62),#51) ;
#50=UNCERTAINTY_MEASURE_WITH_UNIT(LENGTH_MEASURE(0.005),#46,'distance_accuracy_value','CONFUSED CURVE UNCERTAINTY') ;
#77=UNCERTAINTY_MEASURE_WITH_UNIT(LENGTH_MEASURE(0.005),#46,'distance_accuracy_value','CONFUSED CURVE UNCERTAINTY') ;
#480=UNCERTAINTY_MEASURE_WITH_UNIT(LENGTH_MEASURE(0.005),#46,'distance_accuracy_value','CONFUSED CURVE UNCERTAINTY') ;
#655=UNCERTAINTY_MEASURE_WITH_UNIT(LENGTH_MEASURE(0.005),#46,'distance_accuracy_value','CONFUSED CURVE UNCERTAINTY') ;
#96=LINE('Line',#93,#95) ;
#105=LINE('Line',#102,#104) ;
#112=LINE('Line',#109,#111) ;
#119=LINE('Line',#116,#118) ;
#136=LINE('Line',#133,#135) ;
#143=LINE('Line',#140,#142) ;
#150=LINE('Line',#147,#149) ;
#167=LINE('Line',#164,#166) ;
#174=LINE('Line',#171,#173) ;
#181=LINE('Line',#178,#180) ;
#198=LINE('Line',#195,#197) ;
#203=LINE('Line',#200,#202) ;
#226=LINE('Line',#223,#225) ;
#235=LINE('Line',#232,#234) ;
#242=LINE('Line',#239,#241) ;
#249=LINE('Line',#246,#248) ;
#266=LINE('Line',#263,#265) ;
#273=LINE('Line',#270,#272) ;
#280=LINE('Line',#277,#279) ;
#297=LINE('Line',#294,#296) ;
#304=LINE('Line',#301,#303) ;
#321=LINE('Line',#318,#320) ;
#328=LINE('Line',#325,#327) ;
#345=LINE('Line',#342,#344) ;
#368=LINE('Line',#365,#367) ;
#377=LINE('Line',#374,#376) ;
#384=LINE('Line',#381,#383) ;
#391=LINE('Line',#388,#390) ;
#499=LINE('Line',#496,#498) ;
#508=LINE('Line',#505,#507) ;
#515=LINE('Line',#512,#514) ;
#522=LINE('Line',#519,#521) ;
#539=LINE('Line',#536,#538) ;
#546=LINE('Line',#543,#545) ;
#553=LINE('Line',#550,#552) ;
#570=LINE('Line',#567,#569) ;
#577=LINE('Line',#574,#576) ;
#584=LINE('Line',#581,#583) ;
#601=LINE('Line',#598,#600) ;
#606=LINE('Line',#603,#605) ;
#2=MECHANICAL_CONTEXT(' ',#1,'mechanical') ;
#64=NEXT_ASSEMBLY_USAGE_OCCURRENCE('Part12.1.2.1','Part12.1.2.1','',#17,#56,' ') ;
#467=NEXT_ASSEMBLY_USAGE_OCCURRENCE('Part4.1','Part4.1','',#17,#83,' ') ;
#642=NEXT_ASSEMBLY_USAGE_OCCURRENCE('Part5.1','Part5.1','',#17,#486,' ') ;
#27=PERSONAL_ADDRESS(' ',' ',' ',' ',' ',' ',' ',' ',' ',' ',' ',' ',(#25),' ') ;
#92=PLANE('Plane',#91) ;
#132=PLANE('Plane',#131) ;
#163=PLANE('Plane',#162) ;
#194=PLANE('Plane',#193) ;
#216=PLANE('Plane',#215) ;
#262=PLANE('Plane',#261) ;
#293=PLANE('Plane',#292) ;
#317=PLANE('Plane',#316) ;
#341=PLANE('Plane',#340) ;
#358=PLANE('Plane',#357) ;
#404=PLANE('Plane',#403) ;
#424=PLANE('Plane',#423) ;
#440=PLANE('Plane',#439) ;
#456=PLANE('Plane',#455) ;
#495=PLANE('Plane',#494) ;
#535=PLANE('Plane',#534) ;
#566=PLANE('Plane',#565) ;
#597=PLANE('Plane',#596) ;
#619=PLANE('Plane',#618) ;
#631=PLANE('Plane',#630) ;
#48=PLANE_ANGLE_MEASURE_WITH_UNIT(PLANE_ANGLE_MEASURE(0.0174532925199),#47) ;
#7=PRODUCT_CATEGORY('part',$) ;
#14=PRODUCT_CATEGORY('part',$) ;
#9=PRODUCT_CATEGORY_RELATIONSHIP(' ',' ',#7,#8) ;
#16=PRODUCT_CATEGORY_RELATIONSHIP(' ',' ',#14,#15) ;
#6=PRODUCT_DEFINITION_FORMATION_WITH_SPECIFIED_SOURCE('',' ',#5,.NOT_KNOWN.) ;
#55=PRODUCT_DEFINITION_FORMATION_WITH_SPECIFIED_SOURCE('',' ',#54,.NOT_KNOWN.) ;
#82=PRODUCT_DEFINITION_FORMATION_WITH_SPECIFIED_SOURCE('',' ',#81,.NOT_KNOWN.) ;
#485=PRODUCT_DEFINITION_FORMATION_WITH_SPECIFIED_SOURCE('',' ',#484,.NOT_KNOWN.) ;
#56=PRODUCT_DEFINITION_WITH_ASSOCIATED_DOCUMENTS('Part12.1.2',' ',#55,#3,(#58)) ;
#83=PRODUCT_DEFINITION_WITH_ASSOCIATED_DOCUMENTS('Part4',' ',#82,#3,(#85)) ;
#486=PRODUCT_DEFINITION_WITH_ASSOCIATED_DOCUMENTS('Part5',' ',#485,#3,(#488)) ;
#8=PRODUCT_RELATED_PRODUCT_CATEGORY('detail',$,(#54,#81,#484)) ;
#15=PRODUCT_RELATED_PRODUCT_CATEGORY('part',$,(#5)) ;
#43=SHAPE_DEFINITION_REPRESENTATION(#45,#44) ;
#53=SHAPE_DEFINITION_REPRESENTATION(#59,#52) ;
#80=SHAPE_DEFINITION_REPRESENTATION(#86,#79) ;
#483=SHAPE_DEFINITION_REPRESENTATION(#489,#482) ;
#98=VERTEX_POINT('',#97) ;
#100=VERTEX_POINT('',#99) ;
#107=VERTEX_POINT('',#106) ;
#114=VERTEX_POINT('',#113) ;
#138=VERTEX_POINT('',#137) ;
#145=VERTEX_POINT('',#144) ;
#169=VERTEX_POINT('',#168) ;
#176=VERTEX_POINT('',#175) ;
#228=VERTEX_POINT('',#227) ;
#230=VERTEX_POINT('',#229) ;
#237=VERTEX_POINT('',#236) ;
#244=VERTEX_POINT('',#243) ;
#268=VERTEX_POINT('',#267) ;
#275=VERTEX_POINT('',#274) ;
#299=VERTEX_POINT('',#298) ;
#323=VERTEX_POINT('',#322) ;
#370=VERTEX_POINT('',#369) ;
#372=VERTEX_POINT('',#371) ;
#379=VERTEX_POINT('',#378) ;
#386=VERTEX_POINT('',#385) ;
#501=VERTEX_POINT('',#500) ;
#503=VERTEX_POINT('',#502) ;
#510=VERTEX_POINT('',#509) ;
#517=VERTEX_POINT('',#516) ;
#541=VERTEX_POINT('',#540) ;
#548=VERTEX_POINT('',#547) ;
#572=VERTEX_POINT('',#571) ;
#579=VERTEX_POINT('',#578) ;
#46=(LENGTH_UNIT()NAMED_UNIT(*)SI_UNIT(.MILLI.,.METRE.)) ;
#47=(NAMED_UNIT(*)PLANE_ANGLE_UNIT()SI_UNIT($,.RADIAN.)) ;
#49=(NAMED_UNIT(*)SI_UNIT($,.STERADIAN.)SOLID_ANGLE_UNIT()) ;
#51=(GEOMETRIC_REPRESENTATION_CONTEXT(3)GLOBAL_UNCERTAINTY_ASSIGNED_CONTEXT((#50))GLOBAL_UNIT_ASSIGNED_CONTEXT((#46,#47,#49))REPRESENTATION_CONTEXT(' ',' ')) ;
#78=(GEOMETRIC_REPRESENTATION_CONTEXT(3)GLOBAL_UNCERTAINTY_ASSIGNED_CONTEXT((#77))GLOBAL_UNIT_ASSIGNED_CONTEXT((#46,#47,#49))REPRESENTATION_CONTEXT(' ',' ')) ;
#481=(GEOMETRIC_REPRESENTATION_CONTEXT(3)GLOBAL_UNCERTAINTY_ASSIGNED_CONTEXT((#480))GLOBAL_UNIT_ASSIGNED_CONTEXT((#46,#47,#49))REPRESENTATION_CONTEXT(' ',' ')) ;
#656=(GEOMETRIC_REPRESENTATION_CONTEXT(3)GLOBAL_UNCERTAINTY_ASSIGNED_CONTEXT((#655))GLOBAL_UNIT_ASSIGNED_CONTEXT((#46,#47,#49))REPRESENTATION_CONTEXT(' ',' ')) ;
#67=(REPRESENTATION_RELATIONSHIP(' ',' ',#52,#44)REPRESENTATION_RELATIONSHIP_WITH_TRANSFORMATION(#68)SHAPE_REPRESENTATION_RELATIONSHIP()) ;
#470=(REPRESENTATION_RELATIONSHIP(' ',' ',#79,#44)REPRESENTATION_RELATIONSHIP_WITH_TRANSFORMATION(#471)SHAPE_REPRESENTATION_RELATIONSHIP()) ;
#645=(REPRESENTATION_RELATIONSHIP(' ',' ',#482,#44)REPRESENTATION_RELATIONSHIP_WITH_TRANSFORMATION(#646)SHAPE_REPRESENTATION_RELATIONSHIP()) ;
ENDSEC;
END-ISO-10303-21;
